M48
METRIC
T1C0.400
T2C0.800
T3C1.000
%
G90
G05
T1
X101.78Y-85.458
X102.171Y-116.954
X106.172Y-102.87
X111.061Y-104.508
X112.204Y-73.774
X112.712Y-115.684
X112.84Y-83.045
X116.078Y-106.045
X116.395Y-121.653
X117.602Y-106.045
X118.808Y-87.363
X128.905Y-71.869
X128.905Y-77.838
X129.4Y-101.079
X130.112Y-110.617
X134.366Y-119.634
X140.769Y-86.474
X141.215Y-70.091
X141.215Y-72.885
X142.24Y-119.596
X142.939Y-103.365
X142.939Y-105.905
X143.881Y-77.825
X145.288Y-111.087
X145.405Y-75.729
X146.802Y-83.159
X147.745Y-116.573
X147.751Y-108.839
X150.867Y-79.235
X152.019Y-112.636
X154.231Y-85.712
X155.956Y-118.859
X158.242Y-77.724
X158.315Y-72.289
X159.258Y-110.617
X160.264Y-86.334
X160.391Y-77.444
X160.413Y-105.137
X161.163Y-119.9
X161.544Y-110.604
X165.344Y-77.444
X166.243Y-110.604
X170.36Y-74.282
X171.717Y-107.302
X181.927Y-98.031
X184.087Y-88.887
T2
X118.819Y-74.673
X118.819Y-77.213
X118.819Y-79.753
X118.819Y-82.293
X120.279Y-108.201
X120.279Y-110.741
X120.279Y-113.281
X120.279Y-115.821
X126.438Y-74.673
X126.438Y-77.213
X126.438Y-79.753
X126.438Y-82.293
X127.899Y-108.201
X127.899Y-110.741
X127.899Y-113.281
X127.899Y-115.821
T3
X100.295Y-77.126
X100.295Y-79.666
X100.295Y-82.206
X100.584Y-109.218
X100.584Y-111.757
X100.584Y-114.297
X184.087Y-91.935
X184.087Y-94.475
X184.143Y-78.331
X184.143Y-80.871
X184.406Y-107.043
X184.406Y-109.583
T0
M30
