%TF.GenerationSoftware,KiCad,Pcbnew,(6.99.0)*%
%TF.CreationDate,2022-07-26T17:29:38-07:00*%
%TF.ProjectId,eog-pcb-kicad,656f672d-7063-4622-9d6b-696361642e6b,rev?*%
%TF.SameCoordinates,Original*%
%TF.FileFunction,Copper,L2,Inr*%
%TF.FilePolarity,Positive*%
%FSLAX46Y46*%
G04 Gerber Fmt 4.6, Leading zero omitted, Abs format (unit mm)*
G04 Created by KiCad (PCBNEW (6.99.0)) date 2022-07-26 17:29:38*
%MOMM*%
%LPD*%
G01*
G04 APERTURE LIST*
%TA.AperFunction,ComponentPad*%
%ADD10R,1.700000X1.700000*%
%TD*%
%TA.AperFunction,ComponentPad*%
%ADD11O,1.700000X1.700000*%
%TD*%
%TA.AperFunction,ComponentPad*%
%ADD12R,1.600000X1.600000*%
%TD*%
%TA.AperFunction,ComponentPad*%
%ADD13O,1.600000X1.600000*%
%TD*%
%TA.AperFunction,ViaPad*%
%ADD14C,0.800000*%
%TD*%
G04 APERTURE END LIST*
D10*
%TO.N,/AOUT_CH0*%
%TO.C,J3*%
X184143000Y-78331000D03*
D11*
%TO.N,GND*%
X184143000Y-80871000D03*
%TD*%
D10*
%TO.N,/AOUT_CH1*%
%TO.C,J6*%
X184406000Y-107043000D03*
D11*
%TO.N,GND*%
X184406000Y-109583000D03*
%TD*%
D12*
%TO.N,Net-(R19-Pad1)*%
%TO.C,U5*%
X120279000Y-108201000D03*
D13*
%TO.N,/IA_IN-_CH1*%
X120279000Y-110741000D03*
%TO.N,/IA_IN+_CH1*%
X120279000Y-113281000D03*
%TO.N,VDD_NEG_5V*%
X120279000Y-115821000D03*
%TO.N,GND*%
X127899000Y-115821000D03*
%TO.N,/IA_OUT_CH1*%
X127899000Y-113281000D03*
%TO.N,VDD*%
X127899000Y-110741000D03*
%TO.N,Net-(R19-Pad2)*%
X127899000Y-108201000D03*
%TD*%
D12*
%TO.N,Net-(R3-Pad1)*%
%TO.C,U2*%
X118818500Y-74673000D03*
D13*
%TO.N,/IA_IN-_CH0*%
X118818500Y-77213000D03*
%TO.N,/IA_IN+_CH0*%
X118818500Y-79753000D03*
%TO.N,VDD_NEG_5V*%
X118818500Y-82293000D03*
%TO.N,GND*%
X126438500Y-82293000D03*
%TO.N,/IA_OUT_CH0*%
X126438500Y-79753000D03*
%TO.N,VDD*%
X126438500Y-77213000D03*
%TO.N,Net-(R3-Pad2)*%
X126438500Y-74673000D03*
%TD*%
D10*
%TO.N,GND*%
%TO.C,J1*%
X100295000Y-82206000D03*
D11*
%TO.N,E1_CH0*%
X100295000Y-79666000D03*
%TO.N,E2_CH0*%
X100295000Y-77126000D03*
%TD*%
D10*
%TO.N,GND*%
%TO.C,J4*%
X100584000Y-114297500D03*
D11*
%TO.N,E1_CH1*%
X100584000Y-111757500D03*
%TO.N,E2_CH1*%
X100584000Y-109217500D03*
%TD*%
D10*
%TO.N,GND*%
%TO.C,J2*%
X184086500Y-94475000D03*
D11*
%TO.N,VDD*%
X184086500Y-91935000D03*
%TD*%
D14*
%TO.N,/LPF_IN+_CH1*%
X159258000Y-110617000D03*
%TO.N,/LPF_IN+_CH0*%
X158242000Y-77724000D03*
%TO.N,GND*%
X134366000Y-119634000D03*
X129400000Y-101079000D03*
%TO.N,VDD_NEG_5V*%
X142240000Y-119595500D03*
X154231000Y-85712000D03*
X118808500Y-87363000D03*
X155956000Y-118859000D03*
X140769000Y-86474000D03*
X116395500Y-121653000D03*
%TO.N,Net-(C14-Pad2)*%
X141215000Y-70091000D03*
X141215000Y-72885000D03*
%TO.N,VDD*%
X117602000Y-106045000D03*
X171717000Y-107302000D03*
X166243000Y-110604000D03*
X130111500Y-110617000D03*
X145288000Y-111086500D03*
X128905000Y-77838000D03*
X184086500Y-88887000D03*
X143881000Y-77825000D03*
X170360000Y-74282000D03*
X165344000Y-77444000D03*
%TO.N,Net-(C22-Pad2)*%
X142938500Y-105905000D03*
X142938500Y-103365000D03*
%TO.N,GND*%
X150867000Y-79235000D03*
X160264000Y-86334000D03*
X106172000Y-102870000D03*
X161163000Y-119900500D03*
X145405000Y-75729000D03*
X152019000Y-112636000D03*
X181927500Y-98031000D03*
X160391000Y-77444000D03*
X102171500Y-116954000D03*
X147751500Y-108839000D03*
X112204500Y-73774000D03*
X101780000Y-85458000D03*
X116078000Y-106045000D03*
X112712500Y-115684000D03*
X128905000Y-71869000D03*
X158315000Y-72289000D03*
X112839500Y-83045000D03*
X111061500Y-104508000D03*
X160413000Y-105136750D03*
X161544000Y-110604000D03*
%TO.N,/LPF_IN+_CH0*%
X146802000Y-83159000D03*
%TO.N,/LPF_IN+_CH1*%
X147745500Y-116573000D03*
%TD*%
%TA.AperFunction,Conductor*%
%TO.N,GND*%
G36*
X187509621Y-65412002D02*
G01*
X187556114Y-65465658D01*
X187567500Y-65518000D01*
X187567500Y-124250000D01*
X187547498Y-124318121D01*
X187493842Y-124364614D01*
X187441500Y-124376000D01*
X96709500Y-124376000D01*
X96641379Y-124355998D01*
X96594886Y-124302342D01*
X96583500Y-124250000D01*
X96583500Y-120884000D01*
X98462026Y-120884000D01*
X98481891Y-121136403D01*
X98540995Y-121382591D01*
X98542888Y-121387162D01*
X98542889Y-121387164D01*
X98577050Y-121469635D01*
X98637884Y-121616502D01*
X98770172Y-121832376D01*
X98934602Y-122024898D01*
X99127124Y-122189328D01*
X99342998Y-122321616D01*
X99347568Y-122323509D01*
X99347572Y-122323511D01*
X99572336Y-122416611D01*
X99576909Y-122418505D01*
X99661532Y-122438821D01*
X99818284Y-122476454D01*
X99818290Y-122476455D01*
X99823097Y-122477609D01*
X99922916Y-122485465D01*
X100009845Y-122492307D01*
X100009852Y-122492307D01*
X100012301Y-122492500D01*
X100138699Y-122492500D01*
X100141148Y-122492307D01*
X100141155Y-122492307D01*
X100228084Y-122485465D01*
X100327903Y-122477609D01*
X100332710Y-122476455D01*
X100332716Y-122476454D01*
X100489468Y-122438821D01*
X100574091Y-122418505D01*
X100578664Y-122416611D01*
X100803428Y-122323511D01*
X100803432Y-122323509D01*
X100808002Y-122321616D01*
X101023876Y-122189328D01*
X101216398Y-122024898D01*
X101380828Y-121832376D01*
X101490750Y-121653000D01*
X115481996Y-121653000D01*
X115501958Y-121842928D01*
X115560973Y-122024556D01*
X115656460Y-122189944D01*
X115784247Y-122331866D01*
X115883343Y-122403864D01*
X115905085Y-122419660D01*
X115938748Y-122444118D01*
X115944776Y-122446802D01*
X115944778Y-122446803D01*
X116047416Y-122492500D01*
X116113212Y-122521794D01*
X116206613Y-122541647D01*
X116293556Y-122560128D01*
X116293561Y-122560128D01*
X116300013Y-122561500D01*
X116490987Y-122561500D01*
X116497439Y-122560128D01*
X116497444Y-122560128D01*
X116584387Y-122541647D01*
X116677788Y-122521794D01*
X116743584Y-122492500D01*
X116846222Y-122446803D01*
X116846224Y-122446802D01*
X116852252Y-122444118D01*
X116885916Y-122419660D01*
X116907657Y-122403864D01*
X117006753Y-122331866D01*
X117134540Y-122189944D01*
X117230027Y-122024556D01*
X117289042Y-121842928D01*
X117309004Y-121653000D01*
X117308314Y-121646435D01*
X117289732Y-121469635D01*
X117289732Y-121469633D01*
X117289042Y-121463072D01*
X117230027Y-121281444D01*
X117134540Y-121116056D01*
X117006753Y-120974134D01*
X116882695Y-120884000D01*
X182462026Y-120884000D01*
X182481891Y-121136403D01*
X182540995Y-121382591D01*
X182542888Y-121387162D01*
X182542889Y-121387164D01*
X182577050Y-121469635D01*
X182637884Y-121616502D01*
X182770172Y-121832376D01*
X182934602Y-122024898D01*
X183127124Y-122189328D01*
X183342998Y-122321616D01*
X183347568Y-122323509D01*
X183347572Y-122323511D01*
X183572336Y-122416611D01*
X183576909Y-122418505D01*
X183661532Y-122438821D01*
X183818284Y-122476454D01*
X183818290Y-122476455D01*
X183823097Y-122477609D01*
X183922916Y-122485465D01*
X184009845Y-122492307D01*
X184009852Y-122492307D01*
X184012301Y-122492500D01*
X184138699Y-122492500D01*
X184141148Y-122492307D01*
X184141155Y-122492307D01*
X184228084Y-122485465D01*
X184327903Y-122477609D01*
X184332710Y-122476455D01*
X184332716Y-122476454D01*
X184489468Y-122438821D01*
X184574091Y-122418505D01*
X184578664Y-122416611D01*
X184803428Y-122323511D01*
X184803432Y-122323509D01*
X184808002Y-122321616D01*
X185023876Y-122189328D01*
X185216398Y-122024898D01*
X185380828Y-121832376D01*
X185513116Y-121616502D01*
X185573951Y-121469635D01*
X185608111Y-121387164D01*
X185608112Y-121387162D01*
X185610005Y-121382591D01*
X185669109Y-121136403D01*
X185688974Y-120884000D01*
X185669109Y-120631597D01*
X185610005Y-120385409D01*
X185564010Y-120274366D01*
X185515011Y-120156072D01*
X185515009Y-120156068D01*
X185513116Y-120151498D01*
X185380828Y-119935624D01*
X185216398Y-119743102D01*
X185023876Y-119578672D01*
X184808002Y-119446384D01*
X184803432Y-119444491D01*
X184803428Y-119444489D01*
X184578664Y-119351389D01*
X184578662Y-119351388D01*
X184574091Y-119349495D01*
X184489468Y-119329179D01*
X184332716Y-119291546D01*
X184332710Y-119291545D01*
X184327903Y-119290391D01*
X184228084Y-119282535D01*
X184141155Y-119275693D01*
X184141148Y-119275693D01*
X184138699Y-119275500D01*
X184012301Y-119275500D01*
X184009852Y-119275693D01*
X184009845Y-119275693D01*
X183922916Y-119282535D01*
X183823097Y-119290391D01*
X183818290Y-119291545D01*
X183818284Y-119291546D01*
X183661532Y-119329179D01*
X183576909Y-119349495D01*
X183572338Y-119351388D01*
X183572336Y-119351389D01*
X183347572Y-119444489D01*
X183347568Y-119444491D01*
X183342998Y-119446384D01*
X183127124Y-119578672D01*
X182934602Y-119743102D01*
X182770172Y-119935624D01*
X182637884Y-120151498D01*
X182635991Y-120156068D01*
X182635989Y-120156072D01*
X182586990Y-120274366D01*
X182540995Y-120385409D01*
X182481891Y-120631597D01*
X182462026Y-120884000D01*
X116882695Y-120884000D01*
X116852252Y-120861882D01*
X116846224Y-120859198D01*
X116846222Y-120859197D01*
X116683819Y-120786891D01*
X116683818Y-120786891D01*
X116677788Y-120784206D01*
X116584387Y-120764353D01*
X116497444Y-120745872D01*
X116497439Y-120745872D01*
X116490987Y-120744500D01*
X116300013Y-120744500D01*
X116293561Y-120745872D01*
X116293556Y-120745872D01*
X116206613Y-120764353D01*
X116113212Y-120784206D01*
X116107182Y-120786891D01*
X116107181Y-120786891D01*
X115944778Y-120859197D01*
X115944776Y-120859198D01*
X115938748Y-120861882D01*
X115784247Y-120974134D01*
X115656460Y-121116056D01*
X115560973Y-121281444D01*
X115501958Y-121463072D01*
X115501268Y-121469633D01*
X115501268Y-121469635D01*
X115482686Y-121646435D01*
X115481996Y-121653000D01*
X101490750Y-121653000D01*
X101513116Y-121616502D01*
X101573951Y-121469635D01*
X101608111Y-121387164D01*
X101608112Y-121387162D01*
X101610005Y-121382591D01*
X101669109Y-121136403D01*
X101688974Y-120884000D01*
X101669109Y-120631597D01*
X101610005Y-120385409D01*
X101564010Y-120274366D01*
X101515011Y-120156072D01*
X101515009Y-120156068D01*
X101513116Y-120151498D01*
X101380828Y-119935624D01*
X101216398Y-119743102D01*
X101043579Y-119595500D01*
X141326496Y-119595500D01*
X141327186Y-119602065D01*
X141344430Y-119766128D01*
X141346458Y-119785428D01*
X141405473Y-119967056D01*
X141500960Y-120132444D01*
X141505378Y-120137351D01*
X141505379Y-120137352D01*
X141518116Y-120151498D01*
X141628747Y-120274366D01*
X141783248Y-120386618D01*
X141789276Y-120389302D01*
X141789278Y-120389303D01*
X141951681Y-120461609D01*
X141957712Y-120464294D01*
X142051112Y-120484147D01*
X142138056Y-120502628D01*
X142138061Y-120502628D01*
X142144513Y-120504000D01*
X142335487Y-120504000D01*
X142341939Y-120502628D01*
X142341944Y-120502628D01*
X142428888Y-120484147D01*
X142522288Y-120464294D01*
X142528319Y-120461609D01*
X142690722Y-120389303D01*
X142690724Y-120389302D01*
X142696752Y-120386618D01*
X142851253Y-120274366D01*
X142961884Y-120151498D01*
X142974621Y-120137352D01*
X142974622Y-120137351D01*
X142979040Y-120132444D01*
X143074527Y-119967056D01*
X143133542Y-119785428D01*
X143135571Y-119766128D01*
X143152814Y-119602065D01*
X143153504Y-119595500D01*
X143147855Y-119541749D01*
X143134232Y-119412135D01*
X143134232Y-119412133D01*
X143133542Y-119405572D01*
X143074527Y-119223944D01*
X142979040Y-119058556D01*
X142851253Y-118916634D01*
X142771927Y-118859000D01*
X155042496Y-118859000D01*
X155043186Y-118865565D01*
X155048554Y-118916634D01*
X155062458Y-119048928D01*
X155121473Y-119230556D01*
X155216960Y-119395944D01*
X155344747Y-119537866D01*
X155499248Y-119650118D01*
X155505276Y-119652802D01*
X155505278Y-119652803D01*
X155667681Y-119725109D01*
X155673712Y-119727794D01*
X155763401Y-119746858D01*
X155854056Y-119766128D01*
X155854061Y-119766128D01*
X155860513Y-119767500D01*
X156051487Y-119767500D01*
X156057939Y-119766128D01*
X156057944Y-119766128D01*
X156148599Y-119746858D01*
X156238288Y-119727794D01*
X156244319Y-119725109D01*
X156406722Y-119652803D01*
X156406724Y-119652802D01*
X156412752Y-119650118D01*
X156567253Y-119537866D01*
X156695040Y-119395944D01*
X156790527Y-119230556D01*
X156849542Y-119048928D01*
X156863447Y-118916634D01*
X156868814Y-118865565D01*
X156869504Y-118859000D01*
X156864171Y-118808263D01*
X156850232Y-118675635D01*
X156850232Y-118675633D01*
X156849542Y-118669072D01*
X156790527Y-118487444D01*
X156695040Y-118322056D01*
X156567253Y-118180134D01*
X156412752Y-118067882D01*
X156406724Y-118065198D01*
X156406722Y-118065197D01*
X156244319Y-117992891D01*
X156244318Y-117992891D01*
X156238288Y-117990206D01*
X156144888Y-117970353D01*
X156057944Y-117951872D01*
X156057939Y-117951872D01*
X156051487Y-117950500D01*
X155860513Y-117950500D01*
X155854061Y-117951872D01*
X155854056Y-117951872D01*
X155767112Y-117970353D01*
X155673712Y-117990206D01*
X155667682Y-117992891D01*
X155667681Y-117992891D01*
X155505278Y-118065197D01*
X155505276Y-118065198D01*
X155499248Y-118067882D01*
X155344747Y-118180134D01*
X155216960Y-118322056D01*
X155121473Y-118487444D01*
X155062458Y-118669072D01*
X155061768Y-118675633D01*
X155061768Y-118675635D01*
X155047829Y-118808263D01*
X155042496Y-118859000D01*
X142771927Y-118859000D01*
X142696752Y-118804382D01*
X142690724Y-118801698D01*
X142690722Y-118801697D01*
X142528319Y-118729391D01*
X142528318Y-118729391D01*
X142522288Y-118726706D01*
X142428888Y-118706853D01*
X142341944Y-118688372D01*
X142341939Y-118688372D01*
X142335487Y-118687000D01*
X142144513Y-118687000D01*
X142138061Y-118688372D01*
X142138056Y-118688372D01*
X142051112Y-118706853D01*
X141957712Y-118726706D01*
X141951682Y-118729391D01*
X141951681Y-118729391D01*
X141789278Y-118801697D01*
X141789276Y-118801698D01*
X141783248Y-118804382D01*
X141628747Y-118916634D01*
X141500960Y-119058556D01*
X141405473Y-119223944D01*
X141346458Y-119405572D01*
X141345768Y-119412133D01*
X141345768Y-119412135D01*
X141332145Y-119541749D01*
X141326496Y-119595500D01*
X101043579Y-119595500D01*
X101023876Y-119578672D01*
X100808002Y-119446384D01*
X100803432Y-119444491D01*
X100803428Y-119444489D01*
X100578664Y-119351389D01*
X100578662Y-119351388D01*
X100574091Y-119349495D01*
X100489468Y-119329179D01*
X100332716Y-119291546D01*
X100332710Y-119291545D01*
X100327903Y-119290391D01*
X100228084Y-119282535D01*
X100141155Y-119275693D01*
X100141148Y-119275693D01*
X100138699Y-119275500D01*
X100012301Y-119275500D01*
X100009852Y-119275693D01*
X100009845Y-119275693D01*
X99922916Y-119282535D01*
X99823097Y-119290391D01*
X99818290Y-119291545D01*
X99818284Y-119291546D01*
X99661532Y-119329179D01*
X99576909Y-119349495D01*
X99572338Y-119351388D01*
X99572336Y-119351389D01*
X99347572Y-119444489D01*
X99347568Y-119444491D01*
X99342998Y-119446384D01*
X99127124Y-119578672D01*
X98934602Y-119743102D01*
X98770172Y-119935624D01*
X98637884Y-120151498D01*
X98635991Y-120156068D01*
X98635989Y-120156072D01*
X98586990Y-120274366D01*
X98540995Y-120385409D01*
X98481891Y-120631597D01*
X98462026Y-120884000D01*
X96583500Y-120884000D01*
X96583500Y-115821000D01*
X118965502Y-115821000D01*
X118985457Y-116049087D01*
X118986881Y-116054400D01*
X118986881Y-116054402D01*
X118996031Y-116088548D01*
X119044716Y-116270243D01*
X119047039Y-116275224D01*
X119047039Y-116275225D01*
X119139151Y-116472762D01*
X119139154Y-116472767D01*
X119141477Y-116477749D01*
X119272802Y-116665300D01*
X119434700Y-116827198D01*
X119439208Y-116830355D01*
X119439211Y-116830357D01*
X119517389Y-116885098D01*
X119622251Y-116958523D01*
X119627233Y-116960846D01*
X119627238Y-116960849D01*
X119823765Y-117052490D01*
X119829757Y-117055284D01*
X119835065Y-117056706D01*
X119835067Y-117056707D01*
X120045598Y-117113119D01*
X120045600Y-117113119D01*
X120050913Y-117114543D01*
X120279000Y-117134498D01*
X120507087Y-117114543D01*
X120512400Y-117113119D01*
X120512402Y-117113119D01*
X120722933Y-117056707D01*
X120722935Y-117056706D01*
X120728243Y-117055284D01*
X120734235Y-117052490D01*
X120930762Y-116960849D01*
X120930767Y-116960846D01*
X120935749Y-116958523D01*
X121040611Y-116885098D01*
X121118789Y-116830357D01*
X121118792Y-116830355D01*
X121123300Y-116827198D01*
X121285198Y-116665300D01*
X121416523Y-116477749D01*
X121418846Y-116472767D01*
X121418849Y-116472762D01*
X121510961Y-116275225D01*
X121510961Y-116275224D01*
X121513284Y-116270243D01*
X121561970Y-116088548D01*
X121562245Y-116087522D01*
X126616273Y-116087522D01*
X126663764Y-116264761D01*
X126667510Y-116275053D01*
X126759586Y-116472511D01*
X126765069Y-116482007D01*
X126890028Y-116660467D01*
X126897084Y-116668875D01*
X127051125Y-116822916D01*
X127059533Y-116829972D01*
X127237993Y-116954931D01*
X127247489Y-116960414D01*
X127444947Y-117052490D01*
X127455239Y-117056236D01*
X127627503Y-117102394D01*
X127641599Y-117102058D01*
X127645000Y-117094116D01*
X127645000Y-117088967D01*
X128153000Y-117088967D01*
X128156973Y-117102498D01*
X128165522Y-117103727D01*
X128342761Y-117056236D01*
X128353053Y-117052490D01*
X128550511Y-116960414D01*
X128560007Y-116954931D01*
X128738467Y-116829972D01*
X128746875Y-116822916D01*
X128900916Y-116668875D01*
X128907972Y-116660467D01*
X128969217Y-116573000D01*
X146831996Y-116573000D01*
X146832686Y-116579565D01*
X146842107Y-116669197D01*
X146851958Y-116762928D01*
X146910973Y-116944556D01*
X146914276Y-116950278D01*
X146914277Y-116950279D01*
X146920380Y-116960849D01*
X147006460Y-117109944D01*
X147134247Y-117251866D01*
X147288748Y-117364118D01*
X147294776Y-117366802D01*
X147294778Y-117366803D01*
X147457181Y-117439109D01*
X147463212Y-117441794D01*
X147556612Y-117461647D01*
X147643556Y-117480128D01*
X147643561Y-117480128D01*
X147650013Y-117481500D01*
X147840987Y-117481500D01*
X147847439Y-117480128D01*
X147847444Y-117480128D01*
X147934388Y-117461647D01*
X148027788Y-117441794D01*
X148033819Y-117439109D01*
X148196222Y-117366803D01*
X148196224Y-117366802D01*
X148202252Y-117364118D01*
X148356753Y-117251866D01*
X148484540Y-117109944D01*
X148570620Y-116960849D01*
X148576723Y-116950279D01*
X148576724Y-116950278D01*
X148580027Y-116944556D01*
X148639042Y-116762928D01*
X148648894Y-116669197D01*
X148658314Y-116579565D01*
X148659004Y-116573000D01*
X148639042Y-116383072D01*
X148580027Y-116201444D01*
X148484540Y-116036056D01*
X148356753Y-115894134D01*
X148202252Y-115781882D01*
X148196224Y-115779198D01*
X148196222Y-115779197D01*
X148033819Y-115706891D01*
X148033818Y-115706891D01*
X148027788Y-115704206D01*
X147934387Y-115684353D01*
X147847444Y-115665872D01*
X147847439Y-115665872D01*
X147840987Y-115664500D01*
X147650013Y-115664500D01*
X147643561Y-115665872D01*
X147643556Y-115665872D01*
X147556613Y-115684353D01*
X147463212Y-115704206D01*
X147457182Y-115706891D01*
X147457181Y-115706891D01*
X147294778Y-115779197D01*
X147294776Y-115779198D01*
X147288748Y-115781882D01*
X147134247Y-115894134D01*
X147006460Y-116036056D01*
X146910973Y-116201444D01*
X146851958Y-116383072D01*
X146831996Y-116573000D01*
X128969217Y-116573000D01*
X129032931Y-116482007D01*
X129038414Y-116472511D01*
X129130490Y-116275053D01*
X129134236Y-116264761D01*
X129180394Y-116092497D01*
X129180058Y-116078401D01*
X129172116Y-116075000D01*
X128171115Y-116075000D01*
X128155876Y-116079475D01*
X128154671Y-116080865D01*
X128153000Y-116088548D01*
X128153000Y-117088967D01*
X127645000Y-117088967D01*
X127645000Y-116093115D01*
X127640525Y-116077876D01*
X127639135Y-116076671D01*
X127631452Y-116075000D01*
X126631033Y-116075000D01*
X126617502Y-116078973D01*
X126616273Y-116087522D01*
X121562245Y-116087522D01*
X121571119Y-116054402D01*
X121571119Y-116054400D01*
X121572543Y-116049087D01*
X121592498Y-115821000D01*
X121572543Y-115592913D01*
X121560911Y-115549503D01*
X121514707Y-115377067D01*
X121514706Y-115377065D01*
X121513284Y-115371757D01*
X121463552Y-115265106D01*
X121418849Y-115169238D01*
X121418846Y-115169233D01*
X121416523Y-115164251D01*
X121285198Y-114976700D01*
X121123300Y-114814802D01*
X121118792Y-114811645D01*
X121118789Y-114811643D01*
X121040611Y-114756902D01*
X120935749Y-114683477D01*
X120930767Y-114681154D01*
X120930762Y-114681151D01*
X120896543Y-114665195D01*
X120843258Y-114618278D01*
X120823797Y-114550001D01*
X120844339Y-114482041D01*
X120896543Y-114436805D01*
X120930762Y-114420849D01*
X120930767Y-114420846D01*
X120935749Y-114418523D01*
X121040611Y-114345098D01*
X121118789Y-114290357D01*
X121118792Y-114290355D01*
X121123300Y-114287198D01*
X121285198Y-114125300D01*
X121416523Y-113937749D01*
X121418846Y-113932767D01*
X121418849Y-113932762D01*
X121510961Y-113735225D01*
X121510961Y-113735224D01*
X121513284Y-113730243D01*
X121572543Y-113509087D01*
X121592498Y-113281000D01*
X126585502Y-113281000D01*
X126605457Y-113509087D01*
X126664716Y-113730243D01*
X126667039Y-113735224D01*
X126667039Y-113735225D01*
X126759151Y-113932762D01*
X126759154Y-113932767D01*
X126761477Y-113937749D01*
X126892802Y-114125300D01*
X127054700Y-114287198D01*
X127059208Y-114290355D01*
X127059211Y-114290357D01*
X127137389Y-114345098D01*
X127242251Y-114418523D01*
X127247233Y-114420846D01*
X127247238Y-114420849D01*
X127282049Y-114437081D01*
X127335334Y-114483998D01*
X127354795Y-114552275D01*
X127334253Y-114620235D01*
X127282049Y-114665471D01*
X127247489Y-114681586D01*
X127237993Y-114687069D01*
X127059533Y-114812028D01*
X127051125Y-114819084D01*
X126897084Y-114973125D01*
X126890028Y-114981533D01*
X126765069Y-115159993D01*
X126759586Y-115169489D01*
X126667510Y-115366947D01*
X126663764Y-115377239D01*
X126617606Y-115549503D01*
X126617942Y-115563599D01*
X126625884Y-115567000D01*
X129166967Y-115567000D01*
X129180498Y-115563027D01*
X129181727Y-115554478D01*
X129134236Y-115377239D01*
X129130490Y-115366947D01*
X129038414Y-115169489D01*
X129032931Y-115159993D01*
X128907972Y-114981533D01*
X128900916Y-114973125D01*
X128746875Y-114819084D01*
X128738467Y-114812028D01*
X128560007Y-114687069D01*
X128550511Y-114681586D01*
X128515951Y-114665471D01*
X128462666Y-114618554D01*
X128443205Y-114550277D01*
X128463747Y-114482317D01*
X128515951Y-114437081D01*
X128550762Y-114420849D01*
X128550767Y-114420846D01*
X128555749Y-114418523D01*
X128660611Y-114345098D01*
X128738789Y-114290357D01*
X128738792Y-114290355D01*
X128743300Y-114287198D01*
X128905198Y-114125300D01*
X129036523Y-113937749D01*
X129038846Y-113932767D01*
X129038849Y-113932762D01*
X129130961Y-113735225D01*
X129130961Y-113735224D01*
X129133284Y-113730243D01*
X129192543Y-113509087D01*
X129212498Y-113281000D01*
X129192543Y-113052913D01*
X129179092Y-113002714D01*
X129134707Y-112837067D01*
X129134706Y-112837065D01*
X129133284Y-112831757D01*
X129090057Y-112739056D01*
X129038849Y-112629238D01*
X129038846Y-112629233D01*
X129036523Y-112624251D01*
X128921217Y-112459577D01*
X128908357Y-112441211D01*
X128908355Y-112441208D01*
X128905198Y-112436700D01*
X128743300Y-112274802D01*
X128738792Y-112271645D01*
X128738789Y-112271643D01*
X128660611Y-112216902D01*
X128555749Y-112143477D01*
X128550767Y-112141154D01*
X128550762Y-112141151D01*
X128516543Y-112125195D01*
X128463258Y-112078278D01*
X128443797Y-112010001D01*
X128464339Y-111942041D01*
X128516543Y-111896805D01*
X128550762Y-111880849D01*
X128550767Y-111880846D01*
X128555749Y-111878523D01*
X128711808Y-111769249D01*
X128738789Y-111750357D01*
X128738792Y-111750355D01*
X128743300Y-111747198D01*
X128905198Y-111585300D01*
X129036523Y-111397749D01*
X129038846Y-111392767D01*
X129038849Y-111392762D01*
X129130961Y-111195225D01*
X129130961Y-111195224D01*
X129133284Y-111190243D01*
X129137012Y-111176331D01*
X129173961Y-111115708D01*
X129237820Y-111084684D01*
X129308315Y-111093110D01*
X129363063Y-111138311D01*
X129367836Y-111145936D01*
X129369156Y-111148223D01*
X129369161Y-111148230D01*
X129372460Y-111153944D01*
X129376878Y-111158851D01*
X129376879Y-111158852D01*
X129482745Y-111276428D01*
X129500247Y-111295866D01*
X129599343Y-111367864D01*
X129640551Y-111397803D01*
X129654748Y-111408118D01*
X129660776Y-111410802D01*
X129660778Y-111410803D01*
X129800013Y-111472794D01*
X129829212Y-111485794D01*
X129922612Y-111505647D01*
X130009556Y-111524128D01*
X130009561Y-111524128D01*
X130016013Y-111525500D01*
X130206987Y-111525500D01*
X130213439Y-111524128D01*
X130213444Y-111524128D01*
X130300388Y-111505647D01*
X130393788Y-111485794D01*
X130422987Y-111472794D01*
X130562222Y-111410803D01*
X130562224Y-111410802D01*
X130568252Y-111408118D01*
X130582450Y-111397803D01*
X130623657Y-111367864D01*
X130722753Y-111295866D01*
X130740255Y-111276428D01*
X130846121Y-111158852D01*
X130846122Y-111158851D01*
X130850540Y-111153944D01*
X130889479Y-111086500D01*
X144374496Y-111086500D01*
X144375186Y-111093065D01*
X144384842Y-111184933D01*
X144394458Y-111276428D01*
X144453473Y-111458056D01*
X144456776Y-111463778D01*
X144456777Y-111463779D01*
X144481850Y-111507207D01*
X144548960Y-111623444D01*
X144553378Y-111628351D01*
X144553379Y-111628352D01*
X144660388Y-111747198D01*
X144676747Y-111765366D01*
X144831248Y-111877618D01*
X144837276Y-111880302D01*
X144837278Y-111880303D01*
X144987566Y-111947215D01*
X145005712Y-111955294D01*
X145099112Y-111975147D01*
X145186056Y-111993628D01*
X145186061Y-111993628D01*
X145192513Y-111995000D01*
X145383487Y-111995000D01*
X145389939Y-111993628D01*
X145389944Y-111993628D01*
X145476888Y-111975147D01*
X145570288Y-111955294D01*
X145588434Y-111947215D01*
X145738722Y-111880303D01*
X145738724Y-111880302D01*
X145744752Y-111877618D01*
X145899253Y-111765366D01*
X145915612Y-111747198D01*
X146022621Y-111628352D01*
X146022622Y-111628351D01*
X146027040Y-111623444D01*
X146094150Y-111507207D01*
X146119223Y-111463779D01*
X146119224Y-111463778D01*
X146122527Y-111458056D01*
X146181542Y-111276428D01*
X146191159Y-111184933D01*
X146200814Y-111093065D01*
X146201504Y-111086500D01*
X146190445Y-110981279D01*
X146182232Y-110903135D01*
X146182232Y-110903133D01*
X146181542Y-110896572D01*
X146122527Y-110714944D01*
X146065979Y-110617000D01*
X158344496Y-110617000D01*
X158345186Y-110623565D01*
X158363092Y-110793928D01*
X158364458Y-110806928D01*
X158423473Y-110988556D01*
X158518960Y-111153944D01*
X158523378Y-111158851D01*
X158523379Y-111158852D01*
X158629245Y-111276428D01*
X158646747Y-111295866D01*
X158745843Y-111367864D01*
X158787051Y-111397803D01*
X158801248Y-111408118D01*
X158807276Y-111410802D01*
X158807278Y-111410803D01*
X158946513Y-111472794D01*
X158975712Y-111485794D01*
X159069112Y-111505647D01*
X159156056Y-111524128D01*
X159156061Y-111524128D01*
X159162513Y-111525500D01*
X159353487Y-111525500D01*
X159359939Y-111524128D01*
X159359944Y-111524128D01*
X159446888Y-111505647D01*
X159540288Y-111485794D01*
X159569487Y-111472794D01*
X159708722Y-111410803D01*
X159708724Y-111410802D01*
X159714752Y-111408118D01*
X159728950Y-111397803D01*
X159770157Y-111367864D01*
X159869253Y-111295866D01*
X159886755Y-111276428D01*
X159992621Y-111158852D01*
X159992622Y-111158851D01*
X159997040Y-111153944D01*
X160092527Y-110988556D01*
X160151542Y-110806928D01*
X160152909Y-110793928D01*
X160170814Y-110623565D01*
X160171504Y-110617000D01*
X160170138Y-110604000D01*
X165329496Y-110604000D01*
X165330186Y-110610565D01*
X165344471Y-110746475D01*
X165349458Y-110793928D01*
X165408473Y-110975556D01*
X165411776Y-110981278D01*
X165411777Y-110981279D01*
X165419283Y-110994279D01*
X165503960Y-111140944D01*
X165631747Y-111282866D01*
X165786248Y-111395118D01*
X165792276Y-111397802D01*
X165792278Y-111397803D01*
X165954681Y-111470109D01*
X165960712Y-111472794D01*
X166028327Y-111487166D01*
X166141056Y-111511128D01*
X166141061Y-111511128D01*
X166147513Y-111512500D01*
X166338487Y-111512500D01*
X166344939Y-111511128D01*
X166344944Y-111511128D01*
X166457673Y-111487166D01*
X166525288Y-111472794D01*
X166531319Y-111470109D01*
X166693722Y-111397803D01*
X166693724Y-111397802D01*
X166699752Y-111395118D01*
X166854253Y-111282866D01*
X166982040Y-111140944D01*
X167066717Y-110994279D01*
X167074223Y-110981279D01*
X167074224Y-110981278D01*
X167077527Y-110975556D01*
X167136542Y-110793928D01*
X167141530Y-110746475D01*
X167155814Y-110610565D01*
X167156504Y-110604000D01*
X167150266Y-110544648D01*
X167137232Y-110420635D01*
X167137232Y-110420633D01*
X167136542Y-110414072D01*
X167077527Y-110232444D01*
X166982040Y-110067056D01*
X166854253Y-109925134D01*
X166752170Y-109850966D01*
X183074257Y-109850966D01*
X183104565Y-109985446D01*
X183107645Y-109995275D01*
X183187770Y-110192603D01*
X183192413Y-110201794D01*
X183303694Y-110383388D01*
X183309777Y-110391699D01*
X183449213Y-110552667D01*
X183456580Y-110559883D01*
X183620434Y-110695916D01*
X183628881Y-110701831D01*
X183812756Y-110809279D01*
X183822042Y-110813729D01*
X184021001Y-110889703D01*
X184030899Y-110892579D01*
X184134250Y-110913606D01*
X184148299Y-110912410D01*
X184152000Y-110902065D01*
X184152000Y-110901517D01*
X184660000Y-110901517D01*
X184664064Y-110915359D01*
X184677478Y-110917393D01*
X184684184Y-110916534D01*
X184694262Y-110914392D01*
X184898255Y-110853191D01*
X184907842Y-110849433D01*
X185099095Y-110755739D01*
X185107945Y-110750464D01*
X185281328Y-110626792D01*
X185289200Y-110620139D01*
X185440052Y-110469812D01*
X185446730Y-110461965D01*
X185571003Y-110289020D01*
X185576313Y-110280183D01*
X185670670Y-110089267D01*
X185674469Y-110079672D01*
X185736377Y-109875910D01*
X185738555Y-109865837D01*
X185739986Y-109854962D01*
X185737775Y-109840778D01*
X185724617Y-109837000D01*
X184678115Y-109837000D01*
X184662876Y-109841475D01*
X184661671Y-109842865D01*
X184660000Y-109850548D01*
X184660000Y-110901517D01*
X184152000Y-110901517D01*
X184152000Y-109855115D01*
X184147525Y-109839876D01*
X184146135Y-109838671D01*
X184138452Y-109837000D01*
X183089225Y-109837000D01*
X183075694Y-109840973D01*
X183074257Y-109850966D01*
X166752170Y-109850966D01*
X166735247Y-109838671D01*
X166705094Y-109816763D01*
X166705093Y-109816762D01*
X166699752Y-109812882D01*
X166693724Y-109810198D01*
X166693722Y-109810197D01*
X166531319Y-109737891D01*
X166531318Y-109737891D01*
X166525288Y-109735206D01*
X166406102Y-109709872D01*
X166344944Y-109696872D01*
X166344939Y-109696872D01*
X166338487Y-109695500D01*
X166147513Y-109695500D01*
X166141061Y-109696872D01*
X166141056Y-109696872D01*
X166079898Y-109709872D01*
X165960712Y-109735206D01*
X165954682Y-109737891D01*
X165954681Y-109737891D01*
X165792278Y-109810197D01*
X165792276Y-109810198D01*
X165786248Y-109812882D01*
X165780907Y-109816762D01*
X165780906Y-109816763D01*
X165750753Y-109838671D01*
X165631747Y-109925134D01*
X165503960Y-110067056D01*
X165408473Y-110232444D01*
X165349458Y-110414072D01*
X165348768Y-110420633D01*
X165348768Y-110420635D01*
X165335734Y-110544648D01*
X165329496Y-110604000D01*
X160170138Y-110604000D01*
X160164742Y-110552667D01*
X160152232Y-110433635D01*
X160152232Y-110433633D01*
X160151542Y-110427072D01*
X160092527Y-110245444D01*
X160085022Y-110232444D01*
X160011232Y-110104637D01*
X159997040Y-110080056D01*
X159869253Y-109938134D01*
X159734013Y-109839876D01*
X159720094Y-109829763D01*
X159720093Y-109829762D01*
X159714752Y-109825882D01*
X159708724Y-109823198D01*
X159708722Y-109823197D01*
X159546319Y-109750891D01*
X159546318Y-109750891D01*
X159540288Y-109748206D01*
X159440400Y-109726974D01*
X159359944Y-109709872D01*
X159359939Y-109709872D01*
X159353487Y-109708500D01*
X159162513Y-109708500D01*
X159156061Y-109709872D01*
X159156056Y-109709872D01*
X159075600Y-109726974D01*
X158975712Y-109748206D01*
X158969682Y-109750891D01*
X158969681Y-109750891D01*
X158807278Y-109823197D01*
X158807276Y-109823198D01*
X158801248Y-109825882D01*
X158795907Y-109829762D01*
X158795906Y-109829763D01*
X158781987Y-109839876D01*
X158646747Y-109938134D01*
X158518960Y-110080056D01*
X158504768Y-110104637D01*
X158430979Y-110232444D01*
X158423473Y-110245444D01*
X158364458Y-110427072D01*
X158363768Y-110433633D01*
X158363768Y-110433635D01*
X158351258Y-110552667D01*
X158344496Y-110617000D01*
X146065979Y-110617000D01*
X146027040Y-110549556D01*
X145934553Y-110446838D01*
X145903675Y-110412545D01*
X145903674Y-110412544D01*
X145899253Y-110407634D01*
X145744752Y-110295382D01*
X145738724Y-110292698D01*
X145738722Y-110292697D01*
X145576319Y-110220391D01*
X145576318Y-110220391D01*
X145570288Y-110217706D01*
X145459697Y-110194199D01*
X145389944Y-110179372D01*
X145389939Y-110179372D01*
X145383487Y-110178000D01*
X145192513Y-110178000D01*
X145186061Y-110179372D01*
X145186056Y-110179372D01*
X145116303Y-110194199D01*
X145005712Y-110217706D01*
X144999682Y-110220391D01*
X144999681Y-110220391D01*
X144837278Y-110292697D01*
X144837276Y-110292698D01*
X144831248Y-110295382D01*
X144676747Y-110407634D01*
X144672326Y-110412544D01*
X144672325Y-110412545D01*
X144641448Y-110446838D01*
X144548960Y-110549556D01*
X144453473Y-110714944D01*
X144394458Y-110896572D01*
X144393768Y-110903133D01*
X144393768Y-110903135D01*
X144385555Y-110981279D01*
X144374496Y-111086500D01*
X130889479Y-111086500D01*
X130946027Y-110988556D01*
X131005042Y-110806928D01*
X131006409Y-110793928D01*
X131024314Y-110623565D01*
X131025004Y-110617000D01*
X131018242Y-110552667D01*
X131005732Y-110433635D01*
X131005732Y-110433633D01*
X131005042Y-110427072D01*
X130946027Y-110245444D01*
X130938522Y-110232444D01*
X130864732Y-110104637D01*
X130850540Y-110080056D01*
X130722753Y-109938134D01*
X130587513Y-109839876D01*
X130573594Y-109829763D01*
X130573593Y-109829762D01*
X130568252Y-109825882D01*
X130562224Y-109823198D01*
X130562222Y-109823197D01*
X130399819Y-109750891D01*
X130399818Y-109750891D01*
X130393788Y-109748206D01*
X130293900Y-109726974D01*
X130213444Y-109709872D01*
X130213439Y-109709872D01*
X130206987Y-109708500D01*
X130016013Y-109708500D01*
X130009561Y-109709872D01*
X130009556Y-109709872D01*
X129929100Y-109726974D01*
X129829212Y-109748206D01*
X129823182Y-109750891D01*
X129823181Y-109750891D01*
X129660778Y-109823197D01*
X129660776Y-109823198D01*
X129654748Y-109825882D01*
X129649407Y-109829762D01*
X129649406Y-109829763D01*
X129635487Y-109839876D01*
X129500247Y-109938134D01*
X129372460Y-110080056D01*
X129306559Y-110194200D01*
X129255178Y-110243192D01*
X129185464Y-110256629D01*
X129119553Y-110230242D01*
X129083246Y-110184449D01*
X129038849Y-110089238D01*
X129038846Y-110089233D01*
X129036523Y-110084251D01*
X128937649Y-109943045D01*
X128908357Y-109901211D01*
X128908355Y-109901208D01*
X128905198Y-109896700D01*
X128743300Y-109734802D01*
X128738792Y-109731645D01*
X128738789Y-109731643D01*
X128660611Y-109676902D01*
X128555749Y-109603477D01*
X128550767Y-109601154D01*
X128550762Y-109601151D01*
X128516543Y-109585195D01*
X128463258Y-109538278D01*
X128443797Y-109470001D01*
X128464339Y-109402041D01*
X128516543Y-109356805D01*
X128550762Y-109340849D01*
X128550767Y-109340846D01*
X128555749Y-109338523D01*
X128723782Y-109220865D01*
X128738789Y-109210357D01*
X128738792Y-109210355D01*
X128743300Y-109207198D01*
X128905198Y-109045300D01*
X129036523Y-108857749D01*
X129038846Y-108852767D01*
X129038849Y-108852762D01*
X129130961Y-108655225D01*
X129130961Y-108655224D01*
X129133284Y-108650243D01*
X129152618Y-108578090D01*
X129191119Y-108434402D01*
X129191119Y-108434400D01*
X129192543Y-108429087D01*
X129212498Y-108201000D01*
X129192543Y-107972913D01*
X129173353Y-107901295D01*
X129134707Y-107757067D01*
X129134706Y-107757065D01*
X129133284Y-107751757D01*
X129093888Y-107667271D01*
X129038849Y-107549238D01*
X129038846Y-107549233D01*
X129036523Y-107544251D01*
X128905198Y-107356700D01*
X128850498Y-107302000D01*
X170803496Y-107302000D01*
X170804186Y-107308565D01*
X170808836Y-107352803D01*
X170823458Y-107491928D01*
X170882473Y-107673556D01*
X170977960Y-107838944D01*
X170982378Y-107843851D01*
X170982379Y-107843852D01*
X171069972Y-107941134D01*
X171105747Y-107980866D01*
X171204843Y-108052864D01*
X171241644Y-108079601D01*
X171260248Y-108093118D01*
X171266276Y-108095802D01*
X171266278Y-108095803D01*
X171428681Y-108168109D01*
X171434712Y-108170794D01*
X171528112Y-108190647D01*
X171615056Y-108209128D01*
X171615061Y-108209128D01*
X171621513Y-108210500D01*
X171812487Y-108210500D01*
X171818939Y-108209128D01*
X171818944Y-108209128D01*
X171905888Y-108190647D01*
X171999288Y-108170794D01*
X172005319Y-108168109D01*
X172167722Y-108095803D01*
X172167724Y-108095802D01*
X172173752Y-108093118D01*
X172192357Y-108079601D01*
X172229157Y-108052864D01*
X172328253Y-107980866D01*
X172364028Y-107941134D01*
X183047500Y-107941134D01*
X183054255Y-108003316D01*
X183105385Y-108139705D01*
X183192739Y-108256261D01*
X183309295Y-108343615D01*
X183317704Y-108346767D01*
X183317705Y-108346768D01*
X183426960Y-108387726D01*
X183483725Y-108430367D01*
X183508425Y-108496929D01*
X183493218Y-108566278D01*
X183473825Y-108592759D01*
X183350590Y-108721717D01*
X183344104Y-108729727D01*
X183224098Y-108905649D01*
X183219000Y-108914623D01*
X183129338Y-109107783D01*
X183125775Y-109117470D01*
X183070389Y-109317183D01*
X183071912Y-109325607D01*
X183084292Y-109329000D01*
X185724344Y-109329000D01*
X185737875Y-109325027D01*
X185739180Y-109315947D01*
X185697214Y-109148875D01*
X185693894Y-109139124D01*
X185608972Y-108943814D01*
X185604105Y-108934739D01*
X185488426Y-108755926D01*
X185482136Y-108747757D01*
X185338293Y-108589677D01*
X185307241Y-108525831D01*
X185315635Y-108455333D01*
X185360812Y-108400564D01*
X185387256Y-108386895D01*
X185494297Y-108346767D01*
X185502705Y-108343615D01*
X185619261Y-108256261D01*
X185706615Y-108139705D01*
X185757745Y-108003316D01*
X185764500Y-107941134D01*
X185764500Y-106144866D01*
X185757745Y-106082684D01*
X185706615Y-105946295D01*
X185619261Y-105829739D01*
X185502705Y-105742385D01*
X185366316Y-105691255D01*
X185304134Y-105684500D01*
X183507866Y-105684500D01*
X183445684Y-105691255D01*
X183309295Y-105742385D01*
X183192739Y-105829739D01*
X183105385Y-105946295D01*
X183054255Y-106082684D01*
X183047500Y-106144866D01*
X183047500Y-107941134D01*
X172364028Y-107941134D01*
X172451621Y-107843852D01*
X172451622Y-107843851D01*
X172456040Y-107838944D01*
X172551527Y-107673556D01*
X172610542Y-107491928D01*
X172625165Y-107352803D01*
X172629814Y-107308565D01*
X172630504Y-107302000D01*
X172618905Y-107191643D01*
X172611232Y-107118635D01*
X172611232Y-107118633D01*
X172610542Y-107112072D01*
X172551527Y-106930444D01*
X172538256Y-106907457D01*
X172461085Y-106773794D01*
X172456040Y-106765056D01*
X172418953Y-106723866D01*
X172332675Y-106628045D01*
X172332674Y-106628044D01*
X172328253Y-106623134D01*
X172173752Y-106510882D01*
X172167724Y-106508198D01*
X172167722Y-106508197D01*
X172005319Y-106435891D01*
X172005318Y-106435891D01*
X171999288Y-106433206D01*
X171891388Y-106410271D01*
X171818944Y-106394872D01*
X171818939Y-106394872D01*
X171812487Y-106393500D01*
X171621513Y-106393500D01*
X171615061Y-106394872D01*
X171615056Y-106394872D01*
X171542612Y-106410271D01*
X171434712Y-106433206D01*
X171428682Y-106435891D01*
X171428681Y-106435891D01*
X171266278Y-106508197D01*
X171266276Y-106508198D01*
X171260248Y-106510882D01*
X171105747Y-106623134D01*
X171101326Y-106628044D01*
X171101325Y-106628045D01*
X171015048Y-106723866D01*
X170977960Y-106765056D01*
X170972915Y-106773794D01*
X170895745Y-106907457D01*
X170882473Y-106930444D01*
X170823458Y-107112072D01*
X170822768Y-107118633D01*
X170822768Y-107118635D01*
X170815095Y-107191643D01*
X170803496Y-107302000D01*
X128850498Y-107302000D01*
X128743300Y-107194802D01*
X128738792Y-107191645D01*
X128738789Y-107191643D01*
X128660611Y-107136902D01*
X128555749Y-107063477D01*
X128550767Y-107061154D01*
X128550762Y-107061151D01*
X128353225Y-106969039D01*
X128353224Y-106969039D01*
X128348243Y-106966716D01*
X128342935Y-106965294D01*
X128342933Y-106965293D01*
X128132402Y-106908881D01*
X128132400Y-106908881D01*
X128127087Y-106907457D01*
X127899000Y-106887502D01*
X127670913Y-106907457D01*
X127665600Y-106908881D01*
X127665598Y-106908881D01*
X127455067Y-106965293D01*
X127455065Y-106965294D01*
X127449757Y-106966716D01*
X127444776Y-106969039D01*
X127444775Y-106969039D01*
X127247238Y-107061151D01*
X127247233Y-107061154D01*
X127242251Y-107063477D01*
X127137389Y-107136902D01*
X127059211Y-107191643D01*
X127059208Y-107191645D01*
X127054700Y-107194802D01*
X126892802Y-107356700D01*
X126761477Y-107544251D01*
X126759154Y-107549233D01*
X126759151Y-107549238D01*
X126704112Y-107667271D01*
X126664716Y-107751757D01*
X126663294Y-107757065D01*
X126663293Y-107757067D01*
X126624647Y-107901295D01*
X126605457Y-107972913D01*
X126585502Y-108201000D01*
X126605457Y-108429087D01*
X126606881Y-108434400D01*
X126606881Y-108434402D01*
X126645383Y-108578090D01*
X126664716Y-108650243D01*
X126667039Y-108655224D01*
X126667039Y-108655225D01*
X126759151Y-108852762D01*
X126759154Y-108852767D01*
X126761477Y-108857749D01*
X126892802Y-109045300D01*
X127054700Y-109207198D01*
X127059208Y-109210355D01*
X127059211Y-109210357D01*
X127074218Y-109220865D01*
X127242251Y-109338523D01*
X127247233Y-109340846D01*
X127247238Y-109340849D01*
X127281457Y-109356805D01*
X127334742Y-109403722D01*
X127354203Y-109471999D01*
X127333661Y-109539959D01*
X127281457Y-109585195D01*
X127247238Y-109601151D01*
X127247233Y-109601154D01*
X127242251Y-109603477D01*
X127137389Y-109676902D01*
X127059211Y-109731643D01*
X127059208Y-109731645D01*
X127054700Y-109734802D01*
X126892802Y-109896700D01*
X126889645Y-109901208D01*
X126889643Y-109901211D01*
X126860351Y-109943045D01*
X126761477Y-110084251D01*
X126759154Y-110089233D01*
X126759151Y-110089238D01*
X126687362Y-110243192D01*
X126664716Y-110291757D01*
X126663294Y-110297065D01*
X126663293Y-110297067D01*
X126608687Y-110500857D01*
X126605457Y-110512913D01*
X126585502Y-110741000D01*
X126605457Y-110969087D01*
X126606881Y-110974400D01*
X126606881Y-110974402D01*
X126660989Y-111176332D01*
X126664716Y-111190243D01*
X126667039Y-111195224D01*
X126667039Y-111195225D01*
X126759151Y-111392762D01*
X126759154Y-111392767D01*
X126761477Y-111397749D01*
X126892802Y-111585300D01*
X127054700Y-111747198D01*
X127059208Y-111750355D01*
X127059211Y-111750357D01*
X127086192Y-111769249D01*
X127242251Y-111878523D01*
X127247233Y-111880846D01*
X127247238Y-111880849D01*
X127281457Y-111896805D01*
X127334742Y-111943722D01*
X127354203Y-112011999D01*
X127333661Y-112079959D01*
X127281457Y-112125195D01*
X127247238Y-112141151D01*
X127247233Y-112141154D01*
X127242251Y-112143477D01*
X127137389Y-112216902D01*
X127059211Y-112271643D01*
X127059208Y-112271645D01*
X127054700Y-112274802D01*
X126892802Y-112436700D01*
X126889645Y-112441208D01*
X126889643Y-112441211D01*
X126876783Y-112459577D01*
X126761477Y-112624251D01*
X126759154Y-112629233D01*
X126759151Y-112629238D01*
X126707943Y-112739056D01*
X126664716Y-112831757D01*
X126663294Y-112837065D01*
X126663293Y-112837067D01*
X126618908Y-113002714D01*
X126605457Y-113052913D01*
X126585502Y-113281000D01*
X121592498Y-113281000D01*
X121572543Y-113052913D01*
X121559092Y-113002714D01*
X121514707Y-112837067D01*
X121514706Y-112837065D01*
X121513284Y-112831757D01*
X121470057Y-112739056D01*
X121418849Y-112629238D01*
X121418846Y-112629233D01*
X121416523Y-112624251D01*
X121301217Y-112459577D01*
X121288357Y-112441211D01*
X121288355Y-112441208D01*
X121285198Y-112436700D01*
X121123300Y-112274802D01*
X121118792Y-112271645D01*
X121118789Y-112271643D01*
X121040611Y-112216902D01*
X120935749Y-112143477D01*
X120930767Y-112141154D01*
X120930762Y-112141151D01*
X120896543Y-112125195D01*
X120843258Y-112078278D01*
X120823797Y-112010001D01*
X120844339Y-111942041D01*
X120896543Y-111896805D01*
X120930762Y-111880849D01*
X120930767Y-111880846D01*
X120935749Y-111878523D01*
X121091808Y-111769249D01*
X121118789Y-111750357D01*
X121118792Y-111750355D01*
X121123300Y-111747198D01*
X121285198Y-111585300D01*
X121416523Y-111397749D01*
X121418846Y-111392767D01*
X121418849Y-111392762D01*
X121510961Y-111195225D01*
X121510961Y-111195224D01*
X121513284Y-111190243D01*
X121517012Y-111176332D01*
X121571119Y-110974402D01*
X121571119Y-110974400D01*
X121572543Y-110969087D01*
X121592498Y-110741000D01*
X121572543Y-110512913D01*
X121569313Y-110500857D01*
X121514707Y-110297067D01*
X121514706Y-110297065D01*
X121513284Y-110291757D01*
X121490638Y-110243192D01*
X121418849Y-110089238D01*
X121418846Y-110089233D01*
X121416523Y-110084251D01*
X121317649Y-109943045D01*
X121288357Y-109901211D01*
X121288355Y-109901208D01*
X121285198Y-109896700D01*
X121123300Y-109734802D01*
X121118789Y-109731643D01*
X121114576Y-109728108D01*
X121115527Y-109726974D01*
X121075529Y-109676929D01*
X121068224Y-109606310D01*
X121100258Y-109542951D01*
X121161462Y-109506970D01*
X121178517Y-109503918D01*
X121189316Y-109502745D01*
X121325705Y-109451615D01*
X121442261Y-109364261D01*
X121529615Y-109247705D01*
X121580745Y-109111316D01*
X121587500Y-109049134D01*
X121587500Y-107352866D01*
X121580745Y-107290684D01*
X121529615Y-107154295D01*
X121442261Y-107037739D01*
X121325705Y-106950385D01*
X121189316Y-106899255D01*
X121127134Y-106892500D01*
X119430866Y-106892500D01*
X119368684Y-106899255D01*
X119232295Y-106950385D01*
X119115739Y-107037739D01*
X119028385Y-107154295D01*
X118977255Y-107290684D01*
X118970500Y-107352866D01*
X118970500Y-109049134D01*
X118977255Y-109111316D01*
X119028385Y-109247705D01*
X119115739Y-109364261D01*
X119232295Y-109451615D01*
X119368684Y-109502745D01*
X119379474Y-109503917D01*
X119381606Y-109504803D01*
X119384222Y-109505425D01*
X119384121Y-109505848D01*
X119445035Y-109531155D01*
X119485463Y-109589517D01*
X119487922Y-109660471D01*
X119451629Y-109721490D01*
X119442969Y-109728489D01*
X119439207Y-109731646D01*
X119434700Y-109734802D01*
X119272802Y-109896700D01*
X119269645Y-109901208D01*
X119269643Y-109901211D01*
X119240351Y-109943045D01*
X119141477Y-110084251D01*
X119139154Y-110089233D01*
X119139151Y-110089238D01*
X119067362Y-110243192D01*
X119044716Y-110291757D01*
X119043294Y-110297065D01*
X119043293Y-110297067D01*
X118988687Y-110500857D01*
X118985457Y-110512913D01*
X118965502Y-110741000D01*
X118985457Y-110969087D01*
X118986881Y-110974400D01*
X118986881Y-110974402D01*
X119040989Y-111176332D01*
X119044716Y-111190243D01*
X119047039Y-111195224D01*
X119047039Y-111195225D01*
X119139151Y-111392762D01*
X119139154Y-111392767D01*
X119141477Y-111397749D01*
X119272802Y-111585300D01*
X119434700Y-111747198D01*
X119439208Y-111750355D01*
X119439211Y-111750357D01*
X119466192Y-111769249D01*
X119622251Y-111878523D01*
X119627233Y-111880846D01*
X119627238Y-111880849D01*
X119661457Y-111896805D01*
X119714742Y-111943722D01*
X119734203Y-112011999D01*
X119713661Y-112079959D01*
X119661457Y-112125195D01*
X119627238Y-112141151D01*
X119627233Y-112141154D01*
X119622251Y-112143477D01*
X119517389Y-112216902D01*
X119439211Y-112271643D01*
X119439208Y-112271645D01*
X119434700Y-112274802D01*
X119272802Y-112436700D01*
X119269645Y-112441208D01*
X119269643Y-112441211D01*
X119256783Y-112459577D01*
X119141477Y-112624251D01*
X119139154Y-112629233D01*
X119139151Y-112629238D01*
X119087943Y-112739056D01*
X119044716Y-112831757D01*
X119043294Y-112837065D01*
X119043293Y-112837067D01*
X118998908Y-113002714D01*
X118985457Y-113052913D01*
X118965502Y-113281000D01*
X118985457Y-113509087D01*
X119044716Y-113730243D01*
X119047039Y-113735224D01*
X119047039Y-113735225D01*
X119139151Y-113932762D01*
X119139154Y-113932767D01*
X119141477Y-113937749D01*
X119272802Y-114125300D01*
X119434700Y-114287198D01*
X119439208Y-114290355D01*
X119439211Y-114290357D01*
X119517389Y-114345098D01*
X119622251Y-114418523D01*
X119627233Y-114420846D01*
X119627238Y-114420849D01*
X119661457Y-114436805D01*
X119714742Y-114483722D01*
X119734203Y-114551999D01*
X119713661Y-114619959D01*
X119661457Y-114665195D01*
X119627238Y-114681151D01*
X119627233Y-114681154D01*
X119622251Y-114683477D01*
X119517389Y-114756902D01*
X119439211Y-114811643D01*
X119439208Y-114811645D01*
X119434700Y-114814802D01*
X119272802Y-114976700D01*
X119141477Y-115164251D01*
X119139154Y-115169233D01*
X119139151Y-115169238D01*
X119094448Y-115265106D01*
X119044716Y-115371757D01*
X119043294Y-115377065D01*
X119043293Y-115377067D01*
X118997089Y-115549503D01*
X118985457Y-115592913D01*
X118965502Y-115821000D01*
X96583500Y-115821000D01*
X96583500Y-115192169D01*
X99226001Y-115192169D01*
X99226371Y-115198990D01*
X99231895Y-115249852D01*
X99235521Y-115265104D01*
X99280676Y-115385554D01*
X99289214Y-115401149D01*
X99365715Y-115503224D01*
X99378276Y-115515785D01*
X99480351Y-115592286D01*
X99495946Y-115600824D01*
X99616394Y-115645978D01*
X99631649Y-115649605D01*
X99682514Y-115655131D01*
X99689328Y-115655500D01*
X100311885Y-115655500D01*
X100327124Y-115651025D01*
X100328329Y-115649635D01*
X100330000Y-115641952D01*
X100330000Y-115637384D01*
X100838000Y-115637384D01*
X100842475Y-115652623D01*
X100843865Y-115653828D01*
X100851548Y-115655499D01*
X101478669Y-115655499D01*
X101485490Y-115655129D01*
X101536352Y-115649605D01*
X101551604Y-115645979D01*
X101672054Y-115600824D01*
X101687649Y-115592286D01*
X101789724Y-115515785D01*
X101802285Y-115503224D01*
X101878786Y-115401149D01*
X101887324Y-115385554D01*
X101932478Y-115265106D01*
X101936105Y-115249851D01*
X101941631Y-115198986D01*
X101942000Y-115192172D01*
X101942000Y-114569615D01*
X101937525Y-114554376D01*
X101936135Y-114553171D01*
X101928452Y-114551500D01*
X100856115Y-114551500D01*
X100840876Y-114555975D01*
X100839671Y-114557365D01*
X100838000Y-114565048D01*
X100838000Y-115637384D01*
X100330000Y-115637384D01*
X100330000Y-114569615D01*
X100325525Y-114554376D01*
X100324135Y-114553171D01*
X100316452Y-114551500D01*
X99244116Y-114551500D01*
X99228877Y-114555975D01*
X99227672Y-114557365D01*
X99226001Y-114565048D01*
X99226001Y-115192169D01*
X96583500Y-115192169D01*
X96583500Y-111724195D01*
X99221251Y-111724195D01*
X99221548Y-111729348D01*
X99221548Y-111729351D01*
X99227011Y-111824090D01*
X99234110Y-111947215D01*
X99235247Y-111952261D01*
X99235248Y-111952267D01*
X99248485Y-112011000D01*
X99283222Y-112165139D01*
X99367266Y-112372116D01*
X99483987Y-112562588D01*
X99630250Y-112731438D01*
X99634225Y-112734738D01*
X99634231Y-112734744D01*
X99639425Y-112739056D01*
X99679059Y-112797960D01*
X99680555Y-112868941D01*
X99643439Y-112929462D01*
X99603168Y-112953980D01*
X99495946Y-112994176D01*
X99480351Y-113002714D01*
X99378276Y-113079215D01*
X99365715Y-113091776D01*
X99289214Y-113193851D01*
X99280676Y-113209446D01*
X99235522Y-113329894D01*
X99231895Y-113345149D01*
X99226369Y-113396014D01*
X99226000Y-113402828D01*
X99226000Y-114025385D01*
X99230475Y-114040624D01*
X99231865Y-114041829D01*
X99239548Y-114043500D01*
X101923884Y-114043500D01*
X101939123Y-114039025D01*
X101940328Y-114037635D01*
X101941999Y-114029952D01*
X101941999Y-113402831D01*
X101941629Y-113396010D01*
X101936105Y-113345148D01*
X101932479Y-113329896D01*
X101887324Y-113209446D01*
X101878786Y-113193851D01*
X101802285Y-113091776D01*
X101789724Y-113079215D01*
X101687649Y-113002714D01*
X101672054Y-112994176D01*
X101561813Y-112952848D01*
X101505049Y-112910206D01*
X101480349Y-112843645D01*
X101495557Y-112774296D01*
X101517104Y-112745615D01*
X101618430Y-112644644D01*
X101618440Y-112644632D01*
X101622096Y-112640989D01*
X101634124Y-112624251D01*
X101749435Y-112463777D01*
X101752453Y-112459577D01*
X101763760Y-112436700D01*
X101849136Y-112263953D01*
X101849137Y-112263951D01*
X101851430Y-112259311D01*
X101892178Y-112125195D01*
X101914865Y-112050523D01*
X101914865Y-112050521D01*
X101916370Y-112045569D01*
X101945529Y-111824090D01*
X101947156Y-111757500D01*
X101928852Y-111534861D01*
X101874431Y-111318202D01*
X101785354Y-111113340D01*
X101699920Y-110981279D01*
X101666822Y-110930117D01*
X101666820Y-110930114D01*
X101664014Y-110925777D01*
X101513670Y-110760551D01*
X101509619Y-110757352D01*
X101509615Y-110757348D01*
X101342414Y-110625300D01*
X101342410Y-110625298D01*
X101338359Y-110622098D01*
X101297053Y-110599296D01*
X101247084Y-110548864D01*
X101232312Y-110479421D01*
X101257428Y-110413016D01*
X101284780Y-110386409D01*
X101328603Y-110355150D01*
X101463860Y-110258673D01*
X101470829Y-110251729D01*
X101618435Y-110104637D01*
X101622096Y-110100989D01*
X101634124Y-110084251D01*
X101749435Y-109923777D01*
X101752453Y-109919577D01*
X101763760Y-109896700D01*
X101847082Y-109728108D01*
X101851430Y-109719311D01*
X101892178Y-109585195D01*
X101914865Y-109510523D01*
X101914865Y-109510521D01*
X101916370Y-109505569D01*
X101945529Y-109284090D01*
X101945611Y-109280740D01*
X101947074Y-109220865D01*
X101947074Y-109220861D01*
X101947156Y-109217500D01*
X101928852Y-108994861D01*
X101874431Y-108778202D01*
X101785354Y-108573340D01*
X101745906Y-108512362D01*
X101666822Y-108390117D01*
X101666820Y-108390114D01*
X101664014Y-108385777D01*
X101513670Y-108220551D01*
X101509619Y-108217352D01*
X101509615Y-108217348D01*
X101342414Y-108085300D01*
X101342410Y-108085298D01*
X101338359Y-108082098D01*
X101142789Y-107974138D01*
X101137920Y-107972414D01*
X101137916Y-107972412D01*
X100937087Y-107901295D01*
X100937083Y-107901294D01*
X100932212Y-107899569D01*
X100927119Y-107898662D01*
X100927116Y-107898661D01*
X100717373Y-107861300D01*
X100717367Y-107861299D01*
X100712284Y-107860394D01*
X100638452Y-107859492D01*
X100494081Y-107857728D01*
X100494079Y-107857728D01*
X100488911Y-107857665D01*
X100268091Y-107891455D01*
X100055756Y-107960857D01*
X99857607Y-108064007D01*
X99853474Y-108067110D01*
X99853471Y-108067112D01*
X99683100Y-108195030D01*
X99678965Y-108198135D01*
X99524629Y-108359638D01*
X99521715Y-108363910D01*
X99521714Y-108363911D01*
X99505469Y-108387726D01*
X99398743Y-108544180D01*
X99304688Y-108746805D01*
X99244989Y-108962070D01*
X99221251Y-109184195D01*
X99221548Y-109189348D01*
X99221548Y-109189351D01*
X99229600Y-109329000D01*
X99234110Y-109407215D01*
X99235247Y-109412261D01*
X99235248Y-109412267D01*
X99248485Y-109471000D01*
X99283222Y-109625139D01*
X99329334Y-109738699D01*
X99364735Y-109825882D01*
X99367266Y-109832116D01*
X99372574Y-109840778D01*
X99467250Y-109995275D01*
X99483987Y-110022588D01*
X99630250Y-110191438D01*
X99802126Y-110334132D01*
X99872595Y-110375311D01*
X99875445Y-110376976D01*
X99924169Y-110428614D01*
X99937240Y-110498397D01*
X99910509Y-110564169D01*
X99870055Y-110597527D01*
X99857607Y-110604007D01*
X99853474Y-110607110D01*
X99853471Y-110607112D01*
X99683100Y-110735030D01*
X99678965Y-110738135D01*
X99524629Y-110899638D01*
X99521715Y-110903910D01*
X99521714Y-110903911D01*
X99513905Y-110915359D01*
X99398743Y-111084180D01*
X99304688Y-111286805D01*
X99244989Y-111502070D01*
X99221251Y-111724195D01*
X96583500Y-111724195D01*
X96583500Y-106045000D01*
X116688496Y-106045000D01*
X116708458Y-106234928D01*
X116767473Y-106416556D01*
X116770776Y-106422278D01*
X116770777Y-106422279D01*
X116782131Y-106441944D01*
X116862960Y-106581944D01*
X116867378Y-106586851D01*
X116867379Y-106586852D01*
X116968180Y-106698803D01*
X116990747Y-106723866D01*
X117145248Y-106836118D01*
X117151276Y-106838802D01*
X117151278Y-106838803D01*
X117308677Y-106908881D01*
X117319712Y-106913794D01*
X117398044Y-106930444D01*
X117500056Y-106952128D01*
X117500061Y-106952128D01*
X117506513Y-106953500D01*
X117697487Y-106953500D01*
X117703939Y-106952128D01*
X117703944Y-106952128D01*
X117805956Y-106930444D01*
X117884288Y-106913794D01*
X117895323Y-106908881D01*
X118052722Y-106838803D01*
X118052724Y-106838802D01*
X118058752Y-106836118D01*
X118213253Y-106723866D01*
X118235820Y-106698803D01*
X118336621Y-106586852D01*
X118336622Y-106586851D01*
X118341040Y-106581944D01*
X118421869Y-106441944D01*
X118433223Y-106422279D01*
X118433224Y-106422278D01*
X118436527Y-106416556D01*
X118495542Y-106234928D01*
X118515504Y-106045000D01*
X118500790Y-105905000D01*
X142024996Y-105905000D01*
X142044958Y-106094928D01*
X142103973Y-106276556D01*
X142199460Y-106441944D01*
X142327247Y-106583866D01*
X142481748Y-106696118D01*
X142487776Y-106698802D01*
X142487778Y-106698803D01*
X142625562Y-106760148D01*
X142656212Y-106773794D01*
X142749612Y-106793647D01*
X142836556Y-106812128D01*
X142836561Y-106812128D01*
X142843013Y-106813500D01*
X143033987Y-106813500D01*
X143040439Y-106812128D01*
X143040444Y-106812128D01*
X143127388Y-106793647D01*
X143220788Y-106773794D01*
X143251438Y-106760148D01*
X143389222Y-106698803D01*
X143389224Y-106698802D01*
X143395252Y-106696118D01*
X143549753Y-106583866D01*
X143677540Y-106441944D01*
X143773027Y-106276556D01*
X143832042Y-106094928D01*
X143852004Y-105905000D01*
X143846097Y-105848794D01*
X143832732Y-105721635D01*
X143832732Y-105721633D01*
X143832042Y-105715072D01*
X143773027Y-105533444D01*
X143761671Y-105513774D01*
X143680841Y-105373774D01*
X143677540Y-105368056D01*
X143574738Y-105253882D01*
X143554175Y-105231045D01*
X143554174Y-105231044D01*
X143549753Y-105226134D01*
X143395252Y-105113882D01*
X143389224Y-105111198D01*
X143389222Y-105111197D01*
X143226819Y-105038891D01*
X143226818Y-105038891D01*
X143220788Y-105036206D01*
X143127388Y-105016353D01*
X143040444Y-104997872D01*
X143040439Y-104997872D01*
X143033987Y-104996500D01*
X142843013Y-104996500D01*
X142836561Y-104997872D01*
X142836556Y-104997872D01*
X142749612Y-105016353D01*
X142656212Y-105036206D01*
X142650182Y-105038891D01*
X142650181Y-105038891D01*
X142487778Y-105111197D01*
X142487776Y-105111198D01*
X142481748Y-105113882D01*
X142327247Y-105226134D01*
X142322826Y-105231044D01*
X142322825Y-105231045D01*
X142302263Y-105253882D01*
X142199460Y-105368056D01*
X142196159Y-105373774D01*
X142115330Y-105513774D01*
X142103973Y-105533444D01*
X142044958Y-105715072D01*
X142044268Y-105721633D01*
X142044268Y-105721635D01*
X142030903Y-105848794D01*
X142024996Y-105905000D01*
X118500790Y-105905000D01*
X118495542Y-105855072D01*
X118436527Y-105673444D01*
X118341040Y-105508056D01*
X118213253Y-105366134D01*
X118058752Y-105253882D01*
X118052724Y-105251198D01*
X118052722Y-105251197D01*
X117890319Y-105178891D01*
X117890318Y-105178891D01*
X117884288Y-105176206D01*
X117790887Y-105156353D01*
X117703944Y-105137872D01*
X117703939Y-105137872D01*
X117697487Y-105136500D01*
X117506513Y-105136500D01*
X117500061Y-105137872D01*
X117500056Y-105137872D01*
X117413113Y-105156353D01*
X117319712Y-105176206D01*
X117313682Y-105178891D01*
X117313681Y-105178891D01*
X117151278Y-105251197D01*
X117151276Y-105251198D01*
X117145248Y-105253882D01*
X116990747Y-105366134D01*
X116862960Y-105508056D01*
X116767473Y-105673444D01*
X116708458Y-105855072D01*
X116688496Y-106045000D01*
X96583500Y-106045000D01*
X96583500Y-103365000D01*
X142024996Y-103365000D01*
X142044958Y-103554928D01*
X142103973Y-103736556D01*
X142199460Y-103901944D01*
X142327247Y-104043866D01*
X142481748Y-104156118D01*
X142487776Y-104158802D01*
X142487778Y-104158803D01*
X142650181Y-104231109D01*
X142656212Y-104233794D01*
X142749613Y-104253647D01*
X142836556Y-104272128D01*
X142836561Y-104272128D01*
X142843013Y-104273500D01*
X143033987Y-104273500D01*
X143040439Y-104272128D01*
X143040444Y-104272128D01*
X143127387Y-104253647D01*
X143220788Y-104233794D01*
X143226819Y-104231109D01*
X143389222Y-104158803D01*
X143389224Y-104158802D01*
X143395252Y-104156118D01*
X143549753Y-104043866D01*
X143677540Y-103901944D01*
X143773027Y-103736556D01*
X143832042Y-103554928D01*
X143852004Y-103365000D01*
X143832042Y-103175072D01*
X143773027Y-102993444D01*
X143677540Y-102828056D01*
X143549753Y-102686134D01*
X143395252Y-102573882D01*
X143389224Y-102571198D01*
X143389222Y-102571197D01*
X143226819Y-102498891D01*
X143226818Y-102498891D01*
X143220788Y-102496206D01*
X143127387Y-102476353D01*
X143040444Y-102457872D01*
X143040439Y-102457872D01*
X143033987Y-102456500D01*
X142843013Y-102456500D01*
X142836561Y-102457872D01*
X142836556Y-102457872D01*
X142749613Y-102476353D01*
X142656212Y-102496206D01*
X142650182Y-102498891D01*
X142650181Y-102498891D01*
X142487778Y-102571197D01*
X142487776Y-102571198D01*
X142481748Y-102573882D01*
X142327247Y-102686134D01*
X142199460Y-102828056D01*
X142103973Y-102993444D01*
X142044958Y-103175072D01*
X142024996Y-103365000D01*
X96583500Y-103365000D01*
X96583500Y-95369669D01*
X182728501Y-95369669D01*
X182728871Y-95376490D01*
X182734395Y-95427352D01*
X182738021Y-95442604D01*
X182783176Y-95563054D01*
X182791714Y-95578649D01*
X182868215Y-95680724D01*
X182880776Y-95693285D01*
X182982851Y-95769786D01*
X182998446Y-95778324D01*
X183118894Y-95823478D01*
X183134149Y-95827105D01*
X183185014Y-95832631D01*
X183191828Y-95833000D01*
X183814385Y-95833000D01*
X183829624Y-95828525D01*
X183830829Y-95827135D01*
X183832500Y-95819452D01*
X183832500Y-95814884D01*
X184340500Y-95814884D01*
X184344975Y-95830123D01*
X184346365Y-95831328D01*
X184354048Y-95832999D01*
X184981169Y-95832999D01*
X184987990Y-95832629D01*
X185038852Y-95827105D01*
X185054104Y-95823479D01*
X185174554Y-95778324D01*
X185190149Y-95769786D01*
X185292224Y-95693285D01*
X185304785Y-95680724D01*
X185381286Y-95578649D01*
X185389824Y-95563054D01*
X185434978Y-95442606D01*
X185438605Y-95427351D01*
X185444131Y-95376486D01*
X185444500Y-95369672D01*
X185444500Y-94747115D01*
X185440025Y-94731876D01*
X185438635Y-94730671D01*
X185430952Y-94729000D01*
X184358615Y-94729000D01*
X184343376Y-94733475D01*
X184342171Y-94734865D01*
X184340500Y-94742548D01*
X184340500Y-95814884D01*
X183832500Y-95814884D01*
X183832500Y-94747115D01*
X183828025Y-94731876D01*
X183826635Y-94730671D01*
X183818952Y-94729000D01*
X182746616Y-94729000D01*
X182731377Y-94733475D01*
X182730172Y-94734865D01*
X182728501Y-94742548D01*
X182728501Y-95369669D01*
X96583500Y-95369669D01*
X96583500Y-91901695D01*
X182723751Y-91901695D01*
X182724048Y-91906848D01*
X182724048Y-91906851D01*
X182729511Y-92001590D01*
X182736610Y-92124715D01*
X182737747Y-92129761D01*
X182737748Y-92129767D01*
X182757619Y-92217939D01*
X182785722Y-92342639D01*
X182869766Y-92549616D01*
X182986487Y-92740088D01*
X183132750Y-92908938D01*
X183136725Y-92912238D01*
X183136731Y-92912244D01*
X183141925Y-92916556D01*
X183181559Y-92975460D01*
X183183055Y-93046441D01*
X183145939Y-93106962D01*
X183105668Y-93131480D01*
X182998446Y-93171676D01*
X182982851Y-93180214D01*
X182880776Y-93256715D01*
X182868215Y-93269276D01*
X182791714Y-93371351D01*
X182783176Y-93386946D01*
X182738022Y-93507394D01*
X182734395Y-93522649D01*
X182728869Y-93573514D01*
X182728500Y-93580328D01*
X182728500Y-94202885D01*
X182732975Y-94218124D01*
X182734365Y-94219329D01*
X182742048Y-94221000D01*
X185426384Y-94221000D01*
X185441623Y-94216525D01*
X185442828Y-94215135D01*
X185444499Y-94207452D01*
X185444499Y-93580331D01*
X185444129Y-93573510D01*
X185438605Y-93522648D01*
X185434979Y-93507396D01*
X185389824Y-93386946D01*
X185381286Y-93371351D01*
X185304785Y-93269276D01*
X185292224Y-93256715D01*
X185190149Y-93180214D01*
X185174554Y-93171676D01*
X185064313Y-93130348D01*
X185007549Y-93087706D01*
X184982849Y-93021145D01*
X184998057Y-92951796D01*
X185019604Y-92923115D01*
X185120930Y-92822144D01*
X185120940Y-92822132D01*
X185124596Y-92818489D01*
X185184094Y-92735689D01*
X185251935Y-92641277D01*
X185254953Y-92637077D01*
X185353930Y-92436811D01*
X185418870Y-92223069D01*
X185448029Y-92001590D01*
X185449656Y-91935000D01*
X185431352Y-91712361D01*
X185376931Y-91495702D01*
X185287854Y-91290840D01*
X185166514Y-91103277D01*
X185016170Y-90938051D01*
X185012119Y-90934852D01*
X185012115Y-90934848D01*
X184844914Y-90802800D01*
X184844910Y-90802798D01*
X184840859Y-90799598D01*
X184645289Y-90691638D01*
X184640420Y-90689914D01*
X184640416Y-90689912D01*
X184439587Y-90618795D01*
X184439583Y-90618794D01*
X184434712Y-90617069D01*
X184429619Y-90616162D01*
X184429616Y-90616161D01*
X184219873Y-90578800D01*
X184219867Y-90578799D01*
X184214784Y-90577894D01*
X184140952Y-90576992D01*
X183996581Y-90575228D01*
X183996579Y-90575228D01*
X183991411Y-90575165D01*
X183770591Y-90608955D01*
X183558256Y-90678357D01*
X183360107Y-90781507D01*
X183355974Y-90784610D01*
X183355971Y-90784612D01*
X183331747Y-90802800D01*
X183181465Y-90915635D01*
X183027129Y-91077138D01*
X182901243Y-91261680D01*
X182807188Y-91464305D01*
X182747489Y-91679570D01*
X182723751Y-91901695D01*
X96583500Y-91901695D01*
X96583500Y-88887000D01*
X183172996Y-88887000D01*
X183192958Y-89076928D01*
X183251973Y-89258556D01*
X183347460Y-89423944D01*
X183475247Y-89565866D01*
X183629748Y-89678118D01*
X183635776Y-89680802D01*
X183635778Y-89680803D01*
X183798181Y-89753109D01*
X183804212Y-89755794D01*
X183897612Y-89775647D01*
X183984556Y-89794128D01*
X183984561Y-89794128D01*
X183991013Y-89795500D01*
X184181987Y-89795500D01*
X184188439Y-89794128D01*
X184188444Y-89794128D01*
X184275388Y-89775647D01*
X184368788Y-89755794D01*
X184374819Y-89753109D01*
X184537222Y-89680803D01*
X184537224Y-89680802D01*
X184543252Y-89678118D01*
X184697753Y-89565866D01*
X184825540Y-89423944D01*
X184921027Y-89258556D01*
X184980042Y-89076928D01*
X185000004Y-88887000D01*
X184980042Y-88697072D01*
X184921027Y-88515444D01*
X184825540Y-88350056D01*
X184697753Y-88208134D01*
X184543252Y-88095882D01*
X184537224Y-88093198D01*
X184537222Y-88093197D01*
X184374819Y-88020891D01*
X184374818Y-88020891D01*
X184368788Y-88018206D01*
X184275387Y-87998353D01*
X184188444Y-87979872D01*
X184188439Y-87979872D01*
X184181987Y-87978500D01*
X183991013Y-87978500D01*
X183984561Y-87979872D01*
X183984556Y-87979872D01*
X183897613Y-87998353D01*
X183804212Y-88018206D01*
X183798182Y-88020891D01*
X183798181Y-88020891D01*
X183635778Y-88093197D01*
X183635776Y-88093198D01*
X183629748Y-88095882D01*
X183475247Y-88208134D01*
X183347460Y-88350056D01*
X183251973Y-88515444D01*
X183192958Y-88697072D01*
X183172996Y-88887000D01*
X96583500Y-88887000D01*
X96583500Y-87363000D01*
X117894996Y-87363000D01*
X117895686Y-87369565D01*
X117897046Y-87382500D01*
X117914958Y-87552928D01*
X117973973Y-87734556D01*
X118069460Y-87899944D01*
X118197247Y-88041866D01*
X118351748Y-88154118D01*
X118357776Y-88156802D01*
X118357778Y-88156803D01*
X118520181Y-88229109D01*
X118526212Y-88231794D01*
X118619613Y-88251647D01*
X118706556Y-88270128D01*
X118706561Y-88270128D01*
X118713013Y-88271500D01*
X118903987Y-88271500D01*
X118910439Y-88270128D01*
X118910444Y-88270128D01*
X118997387Y-88251647D01*
X119090788Y-88231794D01*
X119096819Y-88229109D01*
X119259222Y-88156803D01*
X119259224Y-88156802D01*
X119265252Y-88154118D01*
X119419753Y-88041866D01*
X119547540Y-87899944D01*
X119643027Y-87734556D01*
X119702042Y-87552928D01*
X119719955Y-87382500D01*
X119721314Y-87369565D01*
X119722004Y-87363000D01*
X119721314Y-87356435D01*
X119702732Y-87179635D01*
X119702732Y-87179633D01*
X119702042Y-87173072D01*
X119643027Y-86991444D01*
X119547540Y-86826056D01*
X119419753Y-86684134D01*
X119279407Y-86582166D01*
X119270594Y-86575763D01*
X119270593Y-86575762D01*
X119265252Y-86571882D01*
X119259224Y-86569198D01*
X119259222Y-86569197D01*
X119096819Y-86496891D01*
X119096818Y-86496891D01*
X119090788Y-86494206D01*
X118995727Y-86474000D01*
X139855496Y-86474000D01*
X139856186Y-86480565D01*
X139870894Y-86620500D01*
X139875458Y-86663928D01*
X139934473Y-86845556D01*
X140029960Y-87010944D01*
X140157747Y-87152866D01*
X140312248Y-87265118D01*
X140318276Y-87267802D01*
X140318278Y-87267803D01*
X140480681Y-87340109D01*
X140486712Y-87342794D01*
X140550888Y-87356435D01*
X140667056Y-87381128D01*
X140667061Y-87381128D01*
X140673513Y-87382500D01*
X140864487Y-87382500D01*
X140870939Y-87381128D01*
X140870944Y-87381128D01*
X140987112Y-87356435D01*
X141051288Y-87342794D01*
X141057319Y-87340109D01*
X141219722Y-87267803D01*
X141219724Y-87267802D01*
X141225752Y-87265118D01*
X141380253Y-87152866D01*
X141508040Y-87010944D01*
X141603527Y-86845556D01*
X141662542Y-86663928D01*
X141667107Y-86620500D01*
X141681814Y-86480565D01*
X141682504Y-86474000D01*
X141680599Y-86455872D01*
X141663232Y-86290635D01*
X141663232Y-86290633D01*
X141662542Y-86284072D01*
X141603527Y-86102444D01*
X141508040Y-85937056D01*
X141482064Y-85908206D01*
X141384675Y-85800045D01*
X141384674Y-85800044D01*
X141380253Y-85795134D01*
X141265829Y-85712000D01*
X153317496Y-85712000D01*
X153318186Y-85718565D01*
X153325826Y-85791251D01*
X153337458Y-85901928D01*
X153396473Y-86083556D01*
X153491960Y-86248944D01*
X153496378Y-86253851D01*
X153496379Y-86253852D01*
X153523589Y-86284072D01*
X153619747Y-86390866D01*
X153707331Y-86454500D01*
X153761982Y-86494206D01*
X153774248Y-86503118D01*
X153780276Y-86505802D01*
X153780278Y-86505803D01*
X153928695Y-86571882D01*
X153948712Y-86580794D01*
X154042113Y-86600647D01*
X154129056Y-86619128D01*
X154129061Y-86619128D01*
X154135513Y-86620500D01*
X154326487Y-86620500D01*
X154332939Y-86619128D01*
X154332944Y-86619128D01*
X154419887Y-86600647D01*
X154513288Y-86580794D01*
X154533305Y-86571882D01*
X154681722Y-86505803D01*
X154681724Y-86505802D01*
X154687752Y-86503118D01*
X154700019Y-86494206D01*
X154754669Y-86454500D01*
X154842253Y-86390866D01*
X154938411Y-86284072D01*
X154965621Y-86253852D01*
X154965622Y-86253851D01*
X154970040Y-86248944D01*
X155065527Y-86083556D01*
X155124542Y-85901928D01*
X155136175Y-85791251D01*
X155143814Y-85718565D01*
X155144504Y-85712000D01*
X155133280Y-85605206D01*
X155125232Y-85528635D01*
X155125232Y-85528633D01*
X155124542Y-85522072D01*
X155065527Y-85340444D01*
X154970040Y-85175056D01*
X154842253Y-85033134D01*
X154687752Y-84920882D01*
X154681724Y-84918198D01*
X154681722Y-84918197D01*
X154519319Y-84845891D01*
X154519318Y-84845891D01*
X154513288Y-84843206D01*
X154419888Y-84823353D01*
X154332944Y-84804872D01*
X154332939Y-84804872D01*
X154326487Y-84803500D01*
X154135513Y-84803500D01*
X154129061Y-84804872D01*
X154129056Y-84804872D01*
X154042112Y-84823353D01*
X153948712Y-84843206D01*
X153942682Y-84845891D01*
X153942681Y-84845891D01*
X153780278Y-84918197D01*
X153780276Y-84918198D01*
X153774248Y-84920882D01*
X153619747Y-85033134D01*
X153491960Y-85175056D01*
X153396473Y-85340444D01*
X153337458Y-85522072D01*
X153336768Y-85528633D01*
X153336768Y-85528635D01*
X153328720Y-85605206D01*
X153317496Y-85712000D01*
X141265829Y-85712000D01*
X141231094Y-85686763D01*
X141231093Y-85686762D01*
X141225752Y-85682882D01*
X141219724Y-85680198D01*
X141219722Y-85680197D01*
X141057319Y-85607891D01*
X141057318Y-85607891D01*
X141051288Y-85605206D01*
X140957887Y-85585353D01*
X140870944Y-85566872D01*
X140870939Y-85566872D01*
X140864487Y-85565500D01*
X140673513Y-85565500D01*
X140667061Y-85566872D01*
X140667056Y-85566872D01*
X140580113Y-85585353D01*
X140486712Y-85605206D01*
X140480682Y-85607891D01*
X140480681Y-85607891D01*
X140318278Y-85680197D01*
X140318276Y-85680198D01*
X140312248Y-85682882D01*
X140306907Y-85686762D01*
X140306906Y-85686763D01*
X140272171Y-85712000D01*
X140157747Y-85795134D01*
X140153326Y-85800044D01*
X140153325Y-85800045D01*
X140055937Y-85908206D01*
X140029960Y-85937056D01*
X139934473Y-86102444D01*
X139875458Y-86284072D01*
X139874768Y-86290633D01*
X139874768Y-86290635D01*
X139857401Y-86455872D01*
X139855496Y-86474000D01*
X118995727Y-86474000D01*
X118910444Y-86455872D01*
X118910439Y-86455872D01*
X118903987Y-86454500D01*
X118713013Y-86454500D01*
X118706561Y-86455872D01*
X118706556Y-86455872D01*
X118621273Y-86474000D01*
X118526212Y-86494206D01*
X118520182Y-86496891D01*
X118520181Y-86496891D01*
X118357778Y-86569197D01*
X118357776Y-86569198D01*
X118351748Y-86571882D01*
X118346407Y-86575762D01*
X118346406Y-86575763D01*
X118337593Y-86582166D01*
X118197247Y-86684134D01*
X118069460Y-86826056D01*
X117973973Y-86991444D01*
X117914958Y-87173072D01*
X117914268Y-87179633D01*
X117914268Y-87179635D01*
X117895686Y-87356435D01*
X117894996Y-87363000D01*
X96583500Y-87363000D01*
X96583500Y-83100669D01*
X98937001Y-83100669D01*
X98937371Y-83107490D01*
X98942895Y-83158352D01*
X98946521Y-83173604D01*
X98991676Y-83294054D01*
X99000214Y-83309649D01*
X99076715Y-83411724D01*
X99089276Y-83424285D01*
X99191351Y-83500786D01*
X99206946Y-83509324D01*
X99327394Y-83554478D01*
X99342649Y-83558105D01*
X99393514Y-83563631D01*
X99400328Y-83564000D01*
X100022885Y-83564000D01*
X100038124Y-83559525D01*
X100039329Y-83558135D01*
X100041000Y-83550452D01*
X100041000Y-83545884D01*
X100549000Y-83545884D01*
X100553475Y-83561123D01*
X100554865Y-83562328D01*
X100562548Y-83563999D01*
X101189669Y-83563999D01*
X101196490Y-83563629D01*
X101247352Y-83558105D01*
X101262604Y-83554479D01*
X101383054Y-83509324D01*
X101398649Y-83500786D01*
X101500724Y-83424285D01*
X101513285Y-83411724D01*
X101589786Y-83309649D01*
X101598324Y-83294054D01*
X101643478Y-83173606D01*
X101647105Y-83158351D01*
X101652631Y-83107486D01*
X101653000Y-83100672D01*
X101653000Y-82478115D01*
X101648525Y-82462876D01*
X101647135Y-82461671D01*
X101639452Y-82460000D01*
X100567115Y-82460000D01*
X100551876Y-82464475D01*
X100550671Y-82465865D01*
X100549000Y-82473548D01*
X100549000Y-83545884D01*
X100041000Y-83545884D01*
X100041000Y-82478115D01*
X100036525Y-82462876D01*
X100035135Y-82461671D01*
X100027452Y-82460000D01*
X98955116Y-82460000D01*
X98939877Y-82464475D01*
X98938672Y-82465865D01*
X98937001Y-82473548D01*
X98937001Y-83100669D01*
X96583500Y-83100669D01*
X96583500Y-82293000D01*
X117505002Y-82293000D01*
X117524957Y-82521087D01*
X117526381Y-82526400D01*
X117526381Y-82526402D01*
X117550697Y-82617148D01*
X117584216Y-82742243D01*
X117586539Y-82747224D01*
X117586539Y-82747225D01*
X117678651Y-82944762D01*
X117678654Y-82944767D01*
X117680977Y-82949749D01*
X117699103Y-82975635D01*
X117786653Y-83100669D01*
X117812302Y-83137300D01*
X117974200Y-83299198D01*
X117978708Y-83302355D01*
X117978711Y-83302357D01*
X118035849Y-83342365D01*
X118161751Y-83430523D01*
X118166733Y-83432846D01*
X118166738Y-83432849D01*
X118363265Y-83524490D01*
X118369257Y-83527284D01*
X118374565Y-83528706D01*
X118374567Y-83528707D01*
X118585098Y-83585119D01*
X118585100Y-83585119D01*
X118590413Y-83586543D01*
X118818500Y-83606498D01*
X119046587Y-83586543D01*
X119051900Y-83585119D01*
X119051902Y-83585119D01*
X119262433Y-83528707D01*
X119262435Y-83528706D01*
X119267743Y-83527284D01*
X119273735Y-83524490D01*
X119470262Y-83432849D01*
X119470267Y-83432846D01*
X119475249Y-83430523D01*
X119601151Y-83342365D01*
X119658289Y-83302357D01*
X119658292Y-83302355D01*
X119662800Y-83299198D01*
X119824698Y-83137300D01*
X119850348Y-83100669D01*
X119937897Y-82975635D01*
X119956023Y-82949749D01*
X119958346Y-82944767D01*
X119958349Y-82944762D01*
X120050461Y-82747225D01*
X120050461Y-82747224D01*
X120052784Y-82742243D01*
X120086304Y-82617148D01*
X120101745Y-82559522D01*
X125155773Y-82559522D01*
X125203264Y-82736761D01*
X125207010Y-82747053D01*
X125299086Y-82944511D01*
X125304569Y-82954007D01*
X125429528Y-83132467D01*
X125436584Y-83140875D01*
X125590625Y-83294916D01*
X125599033Y-83301972D01*
X125777493Y-83426931D01*
X125786989Y-83432414D01*
X125984447Y-83524490D01*
X125994739Y-83528236D01*
X126167003Y-83574394D01*
X126181099Y-83574058D01*
X126184500Y-83566116D01*
X126184500Y-83560967D01*
X126692500Y-83560967D01*
X126696473Y-83574498D01*
X126705022Y-83575727D01*
X126882261Y-83528236D01*
X126892553Y-83524490D01*
X127090011Y-83432414D01*
X127099507Y-83426931D01*
X127277967Y-83301972D01*
X127286375Y-83294916D01*
X127422291Y-83159000D01*
X145888496Y-83159000D01*
X145889186Y-83165565D01*
X145904330Y-83309649D01*
X145908458Y-83348928D01*
X145967473Y-83530556D01*
X145970776Y-83536278D01*
X145970777Y-83536279D01*
X145998975Y-83585119D01*
X146062960Y-83695944D01*
X146190747Y-83837866D01*
X146345248Y-83950118D01*
X146351276Y-83952802D01*
X146351278Y-83952803D01*
X146513681Y-84025109D01*
X146519712Y-84027794D01*
X146613112Y-84047647D01*
X146700056Y-84066128D01*
X146700061Y-84066128D01*
X146706513Y-84067500D01*
X146897487Y-84067500D01*
X146903939Y-84066128D01*
X146903944Y-84066128D01*
X146990888Y-84047647D01*
X147084288Y-84027794D01*
X147090319Y-84025109D01*
X147252722Y-83952803D01*
X147252724Y-83952802D01*
X147258752Y-83950118D01*
X147413253Y-83837866D01*
X147541040Y-83695944D01*
X147605025Y-83585119D01*
X147633223Y-83536279D01*
X147633224Y-83536278D01*
X147636527Y-83530556D01*
X147695542Y-83348928D01*
X147699671Y-83309649D01*
X147714814Y-83165565D01*
X147715504Y-83159000D01*
X147695542Y-82969072D01*
X147636527Y-82787444D01*
X147541040Y-82622056D01*
X147413253Y-82480134D01*
X147258752Y-82367882D01*
X147252724Y-82365198D01*
X147252722Y-82365197D01*
X147090319Y-82292891D01*
X147090318Y-82292891D01*
X147084288Y-82290206D01*
X146990887Y-82270353D01*
X146903944Y-82251872D01*
X146903939Y-82251872D01*
X146897487Y-82250500D01*
X146706513Y-82250500D01*
X146700061Y-82251872D01*
X146700056Y-82251872D01*
X146613113Y-82270353D01*
X146519712Y-82290206D01*
X146513682Y-82292891D01*
X146513681Y-82292891D01*
X146351278Y-82365197D01*
X146351276Y-82365198D01*
X146345248Y-82367882D01*
X146190747Y-82480134D01*
X146062960Y-82622056D01*
X145967473Y-82787444D01*
X145908458Y-82969072D01*
X145888496Y-83159000D01*
X127422291Y-83159000D01*
X127440416Y-83140875D01*
X127447472Y-83132467D01*
X127572431Y-82954007D01*
X127577914Y-82944511D01*
X127669990Y-82747053D01*
X127673736Y-82736761D01*
X127719894Y-82564497D01*
X127719558Y-82550401D01*
X127711616Y-82547000D01*
X126710615Y-82547000D01*
X126695376Y-82551475D01*
X126694171Y-82552865D01*
X126692500Y-82560548D01*
X126692500Y-83560967D01*
X126184500Y-83560967D01*
X126184500Y-82565115D01*
X126180025Y-82549876D01*
X126178635Y-82548671D01*
X126170952Y-82547000D01*
X125170533Y-82547000D01*
X125157002Y-82550973D01*
X125155773Y-82559522D01*
X120101745Y-82559522D01*
X120110619Y-82526402D01*
X120110619Y-82526400D01*
X120112043Y-82521087D01*
X120131998Y-82293000D01*
X120112043Y-82064913D01*
X120110619Y-82059598D01*
X120054207Y-81849067D01*
X120054206Y-81849065D01*
X120052784Y-81843757D01*
X120050461Y-81838775D01*
X119958349Y-81641238D01*
X119958346Y-81641233D01*
X119956023Y-81636251D01*
X119882598Y-81531389D01*
X119827857Y-81453211D01*
X119827855Y-81453208D01*
X119824698Y-81448700D01*
X119662800Y-81286802D01*
X119658292Y-81283645D01*
X119658289Y-81283643D01*
X119580111Y-81228902D01*
X119475249Y-81155477D01*
X119470267Y-81153154D01*
X119470262Y-81153151D01*
X119436043Y-81137195D01*
X119382758Y-81090278D01*
X119363297Y-81022001D01*
X119383839Y-80954041D01*
X119436043Y-80908805D01*
X119470262Y-80892849D01*
X119470267Y-80892846D01*
X119475249Y-80890523D01*
X119629333Y-80782632D01*
X119658289Y-80762357D01*
X119658292Y-80762355D01*
X119662800Y-80759198D01*
X119824698Y-80597300D01*
X119855617Y-80553144D01*
X119882598Y-80514611D01*
X119956023Y-80409749D01*
X119958346Y-80404767D01*
X119958349Y-80404762D01*
X120050461Y-80207225D01*
X120050461Y-80207224D01*
X120052784Y-80202243D01*
X120112043Y-79981087D01*
X120131998Y-79753000D01*
X125125002Y-79753000D01*
X125144957Y-79981087D01*
X125204216Y-80202243D01*
X125206539Y-80207224D01*
X125206539Y-80207225D01*
X125298651Y-80404762D01*
X125298654Y-80404767D01*
X125300977Y-80409749D01*
X125374402Y-80514611D01*
X125401384Y-80553144D01*
X125432302Y-80597300D01*
X125594200Y-80759198D01*
X125598708Y-80762355D01*
X125598711Y-80762357D01*
X125627667Y-80782632D01*
X125781751Y-80890523D01*
X125786733Y-80892846D01*
X125786738Y-80892849D01*
X125821549Y-80909081D01*
X125874834Y-80955998D01*
X125894295Y-81024275D01*
X125873753Y-81092235D01*
X125821549Y-81137471D01*
X125786989Y-81153586D01*
X125777493Y-81159069D01*
X125599033Y-81284028D01*
X125590625Y-81291084D01*
X125436584Y-81445125D01*
X125429528Y-81453533D01*
X125304569Y-81631993D01*
X125299086Y-81641489D01*
X125207010Y-81838947D01*
X125203264Y-81849239D01*
X125157106Y-82021503D01*
X125157442Y-82035599D01*
X125165384Y-82039000D01*
X127706467Y-82039000D01*
X127719998Y-82035027D01*
X127721227Y-82026478D01*
X127673736Y-81849239D01*
X127669990Y-81838947D01*
X127577914Y-81641489D01*
X127572431Y-81631993D01*
X127447472Y-81453533D01*
X127440416Y-81445125D01*
X127286375Y-81291084D01*
X127277967Y-81284028D01*
X127099507Y-81159069D01*
X127090011Y-81153586D01*
X127058657Y-81138966D01*
X182811257Y-81138966D01*
X182841565Y-81273446D01*
X182844645Y-81283275D01*
X182924770Y-81480603D01*
X182929413Y-81489794D01*
X183040694Y-81671388D01*
X183046777Y-81679699D01*
X183186213Y-81840667D01*
X183193580Y-81847883D01*
X183357434Y-81983916D01*
X183365881Y-81989831D01*
X183549756Y-82097279D01*
X183559042Y-82101729D01*
X183758001Y-82177703D01*
X183767899Y-82180579D01*
X183871250Y-82201606D01*
X183885299Y-82200410D01*
X183889000Y-82190065D01*
X183889000Y-82189517D01*
X184397000Y-82189517D01*
X184401064Y-82203359D01*
X184414478Y-82205393D01*
X184421184Y-82204534D01*
X184431262Y-82202392D01*
X184635255Y-82141191D01*
X184644842Y-82137433D01*
X184836095Y-82043739D01*
X184844945Y-82038464D01*
X185018328Y-81914792D01*
X185026200Y-81908139D01*
X185177052Y-81757812D01*
X185183730Y-81749965D01*
X185308003Y-81577020D01*
X185313313Y-81568183D01*
X185407670Y-81377267D01*
X185411469Y-81367672D01*
X185473377Y-81163910D01*
X185475555Y-81153837D01*
X185476986Y-81142962D01*
X185474775Y-81128778D01*
X185461617Y-81125000D01*
X184415115Y-81125000D01*
X184399876Y-81129475D01*
X184398671Y-81130865D01*
X184397000Y-81138548D01*
X184397000Y-82189517D01*
X183889000Y-82189517D01*
X183889000Y-81143115D01*
X183884525Y-81127876D01*
X183883135Y-81126671D01*
X183875452Y-81125000D01*
X182826225Y-81125000D01*
X182812694Y-81128973D01*
X182811257Y-81138966D01*
X127058657Y-81138966D01*
X127055451Y-81137471D01*
X127002166Y-81090554D01*
X126982705Y-81022277D01*
X127003247Y-80954317D01*
X127055451Y-80909081D01*
X127090262Y-80892849D01*
X127090267Y-80892846D01*
X127095249Y-80890523D01*
X127249333Y-80782632D01*
X127278289Y-80762357D01*
X127278292Y-80762355D01*
X127282800Y-80759198D01*
X127444698Y-80597300D01*
X127475617Y-80553144D01*
X127502598Y-80514611D01*
X127576023Y-80409749D01*
X127578346Y-80404767D01*
X127578349Y-80404762D01*
X127670461Y-80207225D01*
X127670461Y-80207224D01*
X127672784Y-80202243D01*
X127732043Y-79981087D01*
X127751998Y-79753000D01*
X127732043Y-79524913D01*
X127672784Y-79303757D01*
X127666983Y-79291316D01*
X127637987Y-79229134D01*
X182784500Y-79229134D01*
X182791255Y-79291316D01*
X182842385Y-79427705D01*
X182929739Y-79544261D01*
X183046295Y-79631615D01*
X183054704Y-79634767D01*
X183054705Y-79634768D01*
X183163960Y-79675726D01*
X183220725Y-79718367D01*
X183245425Y-79784929D01*
X183230218Y-79854278D01*
X183210825Y-79880759D01*
X183087590Y-80009717D01*
X183081104Y-80017727D01*
X182961098Y-80193649D01*
X182956000Y-80202623D01*
X182866338Y-80395783D01*
X182862775Y-80405470D01*
X182807389Y-80605183D01*
X182808912Y-80613607D01*
X182821292Y-80617000D01*
X185461344Y-80617000D01*
X185474875Y-80613027D01*
X185476180Y-80603947D01*
X185434214Y-80436875D01*
X185430894Y-80427124D01*
X185345972Y-80231814D01*
X185341105Y-80222739D01*
X185225426Y-80043926D01*
X185219136Y-80035757D01*
X185075293Y-79877677D01*
X185044241Y-79813831D01*
X185052635Y-79743333D01*
X185097812Y-79688564D01*
X185124256Y-79674895D01*
X185204102Y-79644962D01*
X185239705Y-79631615D01*
X185356261Y-79544261D01*
X185443615Y-79427705D01*
X185494745Y-79291316D01*
X185501500Y-79229134D01*
X185501500Y-77432866D01*
X185494745Y-77370684D01*
X185443615Y-77234295D01*
X185356261Y-77117739D01*
X185239705Y-77030385D01*
X185103316Y-76979255D01*
X185041134Y-76972500D01*
X183244866Y-76972500D01*
X183182684Y-76979255D01*
X183046295Y-77030385D01*
X182929739Y-77117739D01*
X182842385Y-77234295D01*
X182791255Y-77370684D01*
X182784500Y-77432866D01*
X182784500Y-79229134D01*
X127637987Y-79229134D01*
X127578349Y-79101238D01*
X127578346Y-79101233D01*
X127576023Y-79096251D01*
X127444698Y-78908700D01*
X127282800Y-78746802D01*
X127278292Y-78743645D01*
X127278289Y-78743643D01*
X127167186Y-78665848D01*
X127095249Y-78615477D01*
X127090267Y-78613154D01*
X127090262Y-78613151D01*
X127056043Y-78597195D01*
X127002758Y-78550278D01*
X126983297Y-78482001D01*
X127003839Y-78414041D01*
X127056043Y-78368805D01*
X127090262Y-78352849D01*
X127090267Y-78352846D01*
X127095249Y-78350523D01*
X127231347Y-78255226D01*
X127278289Y-78222357D01*
X127278292Y-78222355D01*
X127282800Y-78219198D01*
X127444698Y-78057300D01*
X127469972Y-78021206D01*
X127502598Y-77974611D01*
X127576023Y-77869749D01*
X127578346Y-77864767D01*
X127578349Y-77864762D01*
X127590828Y-77838000D01*
X127991496Y-77838000D01*
X127992186Y-77844565D01*
X128010092Y-78014928D01*
X128011458Y-78027928D01*
X128070473Y-78209556D01*
X128073776Y-78215278D01*
X128073777Y-78215279D01*
X128085231Y-78235118D01*
X128165960Y-78374944D01*
X128170378Y-78379851D01*
X128170379Y-78379852D01*
X128285538Y-78507749D01*
X128293747Y-78516866D01*
X128342048Y-78551959D01*
X128434051Y-78618803D01*
X128448248Y-78629118D01*
X128454276Y-78631802D01*
X128454278Y-78631803D01*
X128593513Y-78693794D01*
X128622712Y-78706794D01*
X128716112Y-78726647D01*
X128803056Y-78745128D01*
X128803061Y-78745128D01*
X128809513Y-78746500D01*
X129000487Y-78746500D01*
X129006939Y-78745128D01*
X129006944Y-78745128D01*
X129093888Y-78726647D01*
X129187288Y-78706794D01*
X129216487Y-78693794D01*
X129355722Y-78631803D01*
X129355724Y-78631802D01*
X129361752Y-78629118D01*
X129375950Y-78618803D01*
X129467952Y-78551959D01*
X129516253Y-78516866D01*
X129524462Y-78507749D01*
X129639621Y-78379852D01*
X129639622Y-78379851D01*
X129644040Y-78374944D01*
X129724769Y-78235118D01*
X129736223Y-78215279D01*
X129736224Y-78215278D01*
X129739527Y-78209556D01*
X129798542Y-78027928D01*
X129799909Y-78014928D01*
X129817814Y-77844565D01*
X129818504Y-77838000D01*
X129817138Y-77825000D01*
X142967496Y-77825000D01*
X142987458Y-78014928D01*
X143046473Y-78196556D01*
X143049776Y-78202278D01*
X143049777Y-78202279D01*
X143057283Y-78215279D01*
X143141960Y-78361944D01*
X143146378Y-78366851D01*
X143146379Y-78366852D01*
X143182436Y-78406897D01*
X143269747Y-78503866D01*
X143424248Y-78616118D01*
X143430276Y-78618802D01*
X143430278Y-78618803D01*
X143592681Y-78691109D01*
X143598712Y-78693794D01*
X143666327Y-78708166D01*
X143779056Y-78732128D01*
X143779061Y-78732128D01*
X143785513Y-78733500D01*
X143976487Y-78733500D01*
X143982939Y-78732128D01*
X143982944Y-78732128D01*
X144095673Y-78708166D01*
X144163288Y-78693794D01*
X144169319Y-78691109D01*
X144331722Y-78618803D01*
X144331724Y-78618802D01*
X144337752Y-78616118D01*
X144492253Y-78503866D01*
X144579564Y-78406897D01*
X144615621Y-78366852D01*
X144615622Y-78366851D01*
X144620040Y-78361944D01*
X144704717Y-78215279D01*
X144712223Y-78202279D01*
X144712224Y-78202278D01*
X144715527Y-78196556D01*
X144774542Y-78014928D01*
X144794504Y-77825000D01*
X144783889Y-77724000D01*
X157328496Y-77724000D01*
X157329186Y-77730565D01*
X157343815Y-77869749D01*
X157348458Y-77913928D01*
X157407473Y-78095556D01*
X157502960Y-78260944D01*
X157507378Y-78265851D01*
X157507379Y-78265852D01*
X157587953Y-78355338D01*
X157630747Y-78402866D01*
X157646128Y-78414041D01*
X157775172Y-78507797D01*
X157785248Y-78515118D01*
X157791276Y-78517802D01*
X157791278Y-78517803D01*
X157953681Y-78590109D01*
X157959712Y-78592794D01*
X158051184Y-78612237D01*
X158140056Y-78631128D01*
X158140061Y-78631128D01*
X158146513Y-78632500D01*
X158337487Y-78632500D01*
X158343939Y-78631128D01*
X158343944Y-78631128D01*
X158432816Y-78612237D01*
X158524288Y-78592794D01*
X158530319Y-78590109D01*
X158692722Y-78517803D01*
X158692724Y-78517802D01*
X158698752Y-78515118D01*
X158708829Y-78507797D01*
X158837872Y-78414041D01*
X158853253Y-78402866D01*
X158896047Y-78355338D01*
X158976621Y-78265852D01*
X158976622Y-78265851D01*
X158981040Y-78260944D01*
X159076527Y-78095556D01*
X159135542Y-77913928D01*
X159140186Y-77869749D01*
X159154814Y-77730565D01*
X159155504Y-77724000D01*
X159135542Y-77534072D01*
X159106276Y-77444000D01*
X164430496Y-77444000D01*
X164431186Y-77450565D01*
X164433516Y-77472729D01*
X164450458Y-77633928D01*
X164509473Y-77815556D01*
X164512776Y-77821278D01*
X164512777Y-77821279D01*
X164516702Y-77828077D01*
X164604960Y-77980944D01*
X164609378Y-77985851D01*
X164609379Y-77985852D01*
X164713310Y-78101279D01*
X164732747Y-78122866D01*
X164825522Y-78190271D01*
X164843415Y-78203271D01*
X164887248Y-78235118D01*
X164893276Y-78237802D01*
X164893278Y-78237803D01*
X165000354Y-78285476D01*
X165061712Y-78312794D01*
X165155113Y-78332647D01*
X165242056Y-78351128D01*
X165242061Y-78351128D01*
X165248513Y-78352500D01*
X165439487Y-78352500D01*
X165445939Y-78351128D01*
X165445944Y-78351128D01*
X165532887Y-78332647D01*
X165626288Y-78312794D01*
X165687646Y-78285476D01*
X165794722Y-78237803D01*
X165794724Y-78237802D01*
X165800752Y-78235118D01*
X165844586Y-78203271D01*
X165862478Y-78190271D01*
X165955253Y-78122866D01*
X165974690Y-78101279D01*
X166078621Y-77985852D01*
X166078622Y-77985851D01*
X166083040Y-77980944D01*
X166171298Y-77828077D01*
X166175223Y-77821279D01*
X166175224Y-77821278D01*
X166178527Y-77815556D01*
X166237542Y-77633928D01*
X166254485Y-77472729D01*
X166256814Y-77450565D01*
X166257504Y-77444000D01*
X166237542Y-77254072D01*
X166178527Y-77072444D01*
X166166010Y-77050763D01*
X166120824Y-76972500D01*
X166083040Y-76907056D01*
X165955253Y-76765134D01*
X165800752Y-76652882D01*
X165794724Y-76650198D01*
X165794722Y-76650197D01*
X165632319Y-76577891D01*
X165632318Y-76577891D01*
X165626288Y-76575206D01*
X165515904Y-76551743D01*
X165445944Y-76536872D01*
X165445939Y-76536872D01*
X165439487Y-76535500D01*
X165248513Y-76535500D01*
X165242061Y-76536872D01*
X165242056Y-76536872D01*
X165172096Y-76551743D01*
X165061712Y-76575206D01*
X165055682Y-76577891D01*
X165055681Y-76577891D01*
X164893278Y-76650197D01*
X164893276Y-76650198D01*
X164887248Y-76652882D01*
X164732747Y-76765134D01*
X164604960Y-76907056D01*
X164567176Y-76972500D01*
X164521991Y-77050763D01*
X164509473Y-77072444D01*
X164450458Y-77254072D01*
X164430496Y-77444000D01*
X159106276Y-77444000D01*
X159076527Y-77352444D01*
X159055322Y-77315715D01*
X159013168Y-77242703D01*
X158981040Y-77187056D01*
X158940698Y-77142251D01*
X158857675Y-77050045D01*
X158857674Y-77050044D01*
X158853253Y-77045134D01*
X158752443Y-76971891D01*
X158704094Y-76936763D01*
X158704093Y-76936762D01*
X158698752Y-76932882D01*
X158692724Y-76930198D01*
X158692722Y-76930197D01*
X158530319Y-76857891D01*
X158530318Y-76857891D01*
X158524288Y-76855206D01*
X158430888Y-76835353D01*
X158343944Y-76816872D01*
X158343939Y-76816872D01*
X158337487Y-76815500D01*
X158146513Y-76815500D01*
X158140061Y-76816872D01*
X158140056Y-76816872D01*
X158053112Y-76835353D01*
X157959712Y-76855206D01*
X157953682Y-76857891D01*
X157953681Y-76857891D01*
X157791278Y-76930197D01*
X157791276Y-76930198D01*
X157785248Y-76932882D01*
X157779907Y-76936762D01*
X157779906Y-76936763D01*
X157731557Y-76971891D01*
X157630747Y-77045134D01*
X157626326Y-77050044D01*
X157626325Y-77050045D01*
X157543303Y-77142251D01*
X157502960Y-77187056D01*
X157470832Y-77242703D01*
X157428679Y-77315715D01*
X157407473Y-77352444D01*
X157348458Y-77534072D01*
X157328496Y-77724000D01*
X144783889Y-77724000D01*
X144783199Y-77717435D01*
X144775232Y-77641635D01*
X144775232Y-77641633D01*
X144774542Y-77635072D01*
X144715527Y-77453444D01*
X144710075Y-77444000D01*
X144667745Y-77370684D01*
X144620040Y-77288056D01*
X144571634Y-77234295D01*
X144496675Y-77151045D01*
X144496674Y-77151044D01*
X144492253Y-77146134D01*
X144360987Y-77050763D01*
X144343094Y-77037763D01*
X144343093Y-77037762D01*
X144337752Y-77033882D01*
X144331724Y-77031198D01*
X144331722Y-77031197D01*
X144169319Y-76958891D01*
X144169318Y-76958891D01*
X144163288Y-76956206D01*
X144044102Y-76930872D01*
X143982944Y-76917872D01*
X143982939Y-76917872D01*
X143976487Y-76916500D01*
X143785513Y-76916500D01*
X143779061Y-76917872D01*
X143779056Y-76917872D01*
X143717898Y-76930872D01*
X143598712Y-76956206D01*
X143592682Y-76958891D01*
X143592681Y-76958891D01*
X143430278Y-77031197D01*
X143430276Y-77031198D01*
X143424248Y-77033882D01*
X143418907Y-77037762D01*
X143418906Y-77037763D01*
X143401013Y-77050763D01*
X143269747Y-77146134D01*
X143265326Y-77151044D01*
X143265325Y-77151045D01*
X143190367Y-77234295D01*
X143141960Y-77288056D01*
X143094255Y-77370684D01*
X143051926Y-77444000D01*
X143046473Y-77453444D01*
X142987458Y-77635072D01*
X142986768Y-77641633D01*
X142986768Y-77641635D01*
X142978801Y-77717435D01*
X142967496Y-77825000D01*
X129817138Y-77825000D01*
X129799232Y-77654635D01*
X129799232Y-77654633D01*
X129798542Y-77648072D01*
X129739527Y-77466444D01*
X129732022Y-77453444D01*
X129679968Y-77363285D01*
X129644040Y-77301056D01*
X129601736Y-77254072D01*
X129520675Y-77164045D01*
X129520674Y-77164044D01*
X129516253Y-77159134D01*
X129417157Y-77087136D01*
X129367094Y-77050763D01*
X129367093Y-77050762D01*
X129361752Y-77046882D01*
X129355724Y-77044198D01*
X129355722Y-77044197D01*
X129193319Y-76971891D01*
X129193318Y-76971891D01*
X129187288Y-76969206D01*
X129093887Y-76949353D01*
X129006944Y-76930872D01*
X129006939Y-76930872D01*
X129000487Y-76929500D01*
X128809513Y-76929500D01*
X128803061Y-76930872D01*
X128803056Y-76930872D01*
X128716113Y-76949353D01*
X128622712Y-76969206D01*
X128616682Y-76971891D01*
X128616681Y-76971891D01*
X128454278Y-77044197D01*
X128454276Y-77044198D01*
X128448248Y-77046882D01*
X128442907Y-77050762D01*
X128442906Y-77050763D01*
X128392843Y-77087136D01*
X128293747Y-77159134D01*
X128289326Y-77164044D01*
X128289325Y-77164045D01*
X128208265Y-77254072D01*
X128165960Y-77301056D01*
X128130032Y-77363285D01*
X128077979Y-77453444D01*
X128070473Y-77466444D01*
X128011458Y-77648072D01*
X128010768Y-77654633D01*
X128010768Y-77654635D01*
X127992862Y-77825000D01*
X127991496Y-77838000D01*
X127590828Y-77838000D01*
X127670461Y-77667225D01*
X127670461Y-77667224D01*
X127672784Y-77662243D01*
X127678264Y-77641794D01*
X127730619Y-77446402D01*
X127730619Y-77446400D01*
X127732043Y-77441087D01*
X127751998Y-77213000D01*
X127732043Y-76984913D01*
X127730527Y-76979255D01*
X127674207Y-76769067D01*
X127674206Y-76769065D01*
X127672784Y-76763757D01*
X127624540Y-76660297D01*
X127578349Y-76561238D01*
X127578346Y-76561233D01*
X127576023Y-76556251D01*
X127444698Y-76368700D01*
X127282800Y-76206802D01*
X127278292Y-76203645D01*
X127278289Y-76203643D01*
X127177214Y-76132870D01*
X127095249Y-76075477D01*
X127090267Y-76073154D01*
X127090262Y-76073151D01*
X127056043Y-76057195D01*
X127002758Y-76010278D01*
X126983297Y-75942001D01*
X127003839Y-75874041D01*
X127056043Y-75828805D01*
X127090262Y-75812849D01*
X127090267Y-75812846D01*
X127095249Y-75810523D01*
X127236958Y-75711297D01*
X127278289Y-75682357D01*
X127278292Y-75682355D01*
X127282800Y-75679198D01*
X127444698Y-75517300D01*
X127576023Y-75329749D01*
X127578346Y-75324767D01*
X127578349Y-75324762D01*
X127670461Y-75127225D01*
X127670461Y-75127224D01*
X127672784Y-75122243D01*
X127732043Y-74901087D01*
X127751998Y-74673000D01*
X127732043Y-74444913D01*
X127730619Y-74439598D01*
X127688390Y-74282000D01*
X169446496Y-74282000D01*
X169447186Y-74288565D01*
X169464195Y-74450393D01*
X169466458Y-74471928D01*
X169525473Y-74653556D01*
X169620960Y-74818944D01*
X169625378Y-74823851D01*
X169625379Y-74823852D01*
X169694922Y-74901087D01*
X169748747Y-74960866D01*
X169903248Y-75073118D01*
X169909276Y-75075802D01*
X169909278Y-75075803D01*
X170071681Y-75148109D01*
X170077712Y-75150794D01*
X170171113Y-75170647D01*
X170258056Y-75189128D01*
X170258061Y-75189128D01*
X170264513Y-75190500D01*
X170455487Y-75190500D01*
X170461939Y-75189128D01*
X170461944Y-75189128D01*
X170548887Y-75170647D01*
X170642288Y-75150794D01*
X170648319Y-75148109D01*
X170810722Y-75075803D01*
X170810724Y-75075802D01*
X170816752Y-75073118D01*
X170971253Y-74960866D01*
X171025078Y-74901087D01*
X171094621Y-74823852D01*
X171094622Y-74823851D01*
X171099040Y-74818944D01*
X171194527Y-74653556D01*
X171253542Y-74471928D01*
X171255806Y-74450393D01*
X171272814Y-74288565D01*
X171273504Y-74282000D01*
X171267941Y-74229067D01*
X171254232Y-74098635D01*
X171254232Y-74098633D01*
X171253542Y-74092072D01*
X171194527Y-73910444D01*
X171099040Y-73745056D01*
X171025736Y-73663643D01*
X170975675Y-73608045D01*
X170975674Y-73608044D01*
X170971253Y-73603134D01*
X170816752Y-73490882D01*
X170810724Y-73488198D01*
X170810722Y-73488197D01*
X170648319Y-73415891D01*
X170648318Y-73415891D01*
X170642288Y-73413206D01*
X170548888Y-73393353D01*
X170461944Y-73374872D01*
X170461939Y-73374872D01*
X170455487Y-73373500D01*
X170264513Y-73373500D01*
X170258061Y-73374872D01*
X170258056Y-73374872D01*
X170171112Y-73393353D01*
X170077712Y-73413206D01*
X170071682Y-73415891D01*
X170071681Y-73415891D01*
X169909278Y-73488197D01*
X169909276Y-73488198D01*
X169903248Y-73490882D01*
X169748747Y-73603134D01*
X169744326Y-73608044D01*
X169744325Y-73608045D01*
X169694265Y-73663643D01*
X169620960Y-73745056D01*
X169525473Y-73910444D01*
X169466458Y-74092072D01*
X169465768Y-74098633D01*
X169465768Y-74098635D01*
X169452059Y-74229067D01*
X169446496Y-74282000D01*
X127688390Y-74282000D01*
X127674207Y-74229067D01*
X127674206Y-74229065D01*
X127672784Y-74223757D01*
X127611379Y-74092072D01*
X127578349Y-74021238D01*
X127578346Y-74021233D01*
X127576023Y-74016251D01*
X127444698Y-73828700D01*
X127282800Y-73666802D01*
X127278292Y-73663645D01*
X127278289Y-73663643D01*
X127141338Y-73567749D01*
X127095249Y-73535477D01*
X127090267Y-73533154D01*
X127090262Y-73533151D01*
X126892725Y-73441039D01*
X126892724Y-73441039D01*
X126887743Y-73438716D01*
X126882435Y-73437294D01*
X126882433Y-73437293D01*
X126671902Y-73380881D01*
X126671900Y-73380881D01*
X126666587Y-73379457D01*
X126438500Y-73359502D01*
X126210413Y-73379457D01*
X126205100Y-73380881D01*
X126205098Y-73380881D01*
X125994567Y-73437293D01*
X125994565Y-73437294D01*
X125989257Y-73438716D01*
X125984276Y-73441039D01*
X125984275Y-73441039D01*
X125786738Y-73533151D01*
X125786733Y-73533154D01*
X125781751Y-73535477D01*
X125735662Y-73567749D01*
X125598711Y-73663643D01*
X125598708Y-73663645D01*
X125594200Y-73666802D01*
X125432302Y-73828700D01*
X125300977Y-74016251D01*
X125298654Y-74021233D01*
X125298651Y-74021238D01*
X125265621Y-74092072D01*
X125204216Y-74223757D01*
X125202794Y-74229065D01*
X125202793Y-74229067D01*
X125146381Y-74439598D01*
X125144957Y-74444913D01*
X125125002Y-74673000D01*
X125144957Y-74901087D01*
X125204216Y-75122243D01*
X125206539Y-75127224D01*
X125206539Y-75127225D01*
X125298651Y-75324762D01*
X125298654Y-75324767D01*
X125300977Y-75329749D01*
X125432302Y-75517300D01*
X125594200Y-75679198D01*
X125598708Y-75682355D01*
X125598711Y-75682357D01*
X125640042Y-75711297D01*
X125781751Y-75810523D01*
X125786733Y-75812846D01*
X125786738Y-75812849D01*
X125820957Y-75828805D01*
X125874242Y-75875722D01*
X125893703Y-75943999D01*
X125873161Y-76011959D01*
X125820957Y-76057195D01*
X125786738Y-76073151D01*
X125786733Y-76073154D01*
X125781751Y-76075477D01*
X125699786Y-76132870D01*
X125598711Y-76203643D01*
X125598708Y-76203645D01*
X125594200Y-76206802D01*
X125432302Y-76368700D01*
X125300977Y-76556251D01*
X125298654Y-76561233D01*
X125298651Y-76561238D01*
X125252460Y-76660297D01*
X125204216Y-76763757D01*
X125202794Y-76769065D01*
X125202793Y-76769067D01*
X125146473Y-76979255D01*
X125144957Y-76984913D01*
X125125002Y-77213000D01*
X125144957Y-77441087D01*
X125146381Y-77446400D01*
X125146381Y-77446402D01*
X125198737Y-77641794D01*
X125204216Y-77662243D01*
X125206539Y-77667224D01*
X125206539Y-77667225D01*
X125298651Y-77864762D01*
X125298654Y-77864767D01*
X125300977Y-77869749D01*
X125374402Y-77974611D01*
X125407029Y-78021206D01*
X125432302Y-78057300D01*
X125594200Y-78219198D01*
X125598708Y-78222355D01*
X125598711Y-78222357D01*
X125645653Y-78255226D01*
X125781751Y-78350523D01*
X125786733Y-78352846D01*
X125786738Y-78352849D01*
X125820957Y-78368805D01*
X125874242Y-78415722D01*
X125893703Y-78483999D01*
X125873161Y-78551959D01*
X125820957Y-78597195D01*
X125786738Y-78613151D01*
X125786733Y-78613154D01*
X125781751Y-78615477D01*
X125709814Y-78665848D01*
X125598711Y-78743643D01*
X125598708Y-78743645D01*
X125594200Y-78746802D01*
X125432302Y-78908700D01*
X125300977Y-79096251D01*
X125298654Y-79101233D01*
X125298651Y-79101238D01*
X125210017Y-79291316D01*
X125204216Y-79303757D01*
X125144957Y-79524913D01*
X125125002Y-79753000D01*
X120131998Y-79753000D01*
X120112043Y-79524913D01*
X120052784Y-79303757D01*
X120046983Y-79291316D01*
X119958349Y-79101238D01*
X119958346Y-79101233D01*
X119956023Y-79096251D01*
X119824698Y-78908700D01*
X119662800Y-78746802D01*
X119658292Y-78743645D01*
X119658289Y-78743643D01*
X119547186Y-78665848D01*
X119475249Y-78615477D01*
X119470267Y-78613154D01*
X119470262Y-78613151D01*
X119436043Y-78597195D01*
X119382758Y-78550278D01*
X119363297Y-78482001D01*
X119383839Y-78414041D01*
X119436043Y-78368805D01*
X119470262Y-78352849D01*
X119470267Y-78352846D01*
X119475249Y-78350523D01*
X119611347Y-78255226D01*
X119658289Y-78222357D01*
X119658292Y-78222355D01*
X119662800Y-78219198D01*
X119824698Y-78057300D01*
X119849972Y-78021206D01*
X119882598Y-77974611D01*
X119956023Y-77869749D01*
X119958346Y-77864767D01*
X119958349Y-77864762D01*
X120050461Y-77667225D01*
X120050461Y-77667224D01*
X120052784Y-77662243D01*
X120058264Y-77641794D01*
X120110619Y-77446402D01*
X120110619Y-77446400D01*
X120112043Y-77441087D01*
X120131998Y-77213000D01*
X120112043Y-76984913D01*
X120110527Y-76979255D01*
X120054207Y-76769067D01*
X120054206Y-76769065D01*
X120052784Y-76763757D01*
X120004540Y-76660297D01*
X119958349Y-76561238D01*
X119958346Y-76561233D01*
X119956023Y-76556251D01*
X119824698Y-76368700D01*
X119662800Y-76206802D01*
X119658289Y-76203643D01*
X119654076Y-76200108D01*
X119655027Y-76198974D01*
X119615029Y-76148929D01*
X119607724Y-76078310D01*
X119639758Y-76014951D01*
X119700962Y-75978970D01*
X119718017Y-75975918D01*
X119728816Y-75974745D01*
X119865205Y-75923615D01*
X119981761Y-75836261D01*
X120069115Y-75719705D01*
X120120245Y-75583316D01*
X120127000Y-75521134D01*
X120127000Y-73824866D01*
X120120245Y-73762684D01*
X120069115Y-73626295D01*
X119981761Y-73509739D01*
X119865205Y-73422385D01*
X119728816Y-73371255D01*
X119666634Y-73364500D01*
X117970366Y-73364500D01*
X117908184Y-73371255D01*
X117771795Y-73422385D01*
X117655239Y-73509739D01*
X117567885Y-73626295D01*
X117516755Y-73762684D01*
X117510000Y-73824866D01*
X117510000Y-75521134D01*
X117516755Y-75583316D01*
X117567885Y-75719705D01*
X117655239Y-75836261D01*
X117771795Y-75923615D01*
X117908184Y-75974745D01*
X117918974Y-75975917D01*
X117921106Y-75976803D01*
X117923722Y-75977425D01*
X117923621Y-75977848D01*
X117984535Y-76003155D01*
X118024963Y-76061517D01*
X118027422Y-76132471D01*
X117991129Y-76193490D01*
X117982469Y-76200489D01*
X117978707Y-76203646D01*
X117974200Y-76206802D01*
X117812302Y-76368700D01*
X117680977Y-76556251D01*
X117678654Y-76561233D01*
X117678651Y-76561238D01*
X117632460Y-76660297D01*
X117584216Y-76763757D01*
X117582794Y-76769065D01*
X117582793Y-76769067D01*
X117526473Y-76979255D01*
X117524957Y-76984913D01*
X117505002Y-77213000D01*
X117524957Y-77441087D01*
X117526381Y-77446400D01*
X117526381Y-77446402D01*
X117578737Y-77641794D01*
X117584216Y-77662243D01*
X117586539Y-77667224D01*
X117586539Y-77667225D01*
X117678651Y-77864762D01*
X117678654Y-77864767D01*
X117680977Y-77869749D01*
X117754402Y-77974611D01*
X117787029Y-78021206D01*
X117812302Y-78057300D01*
X117974200Y-78219198D01*
X117978708Y-78222355D01*
X117978711Y-78222357D01*
X118025653Y-78255226D01*
X118161751Y-78350523D01*
X118166733Y-78352846D01*
X118166738Y-78352849D01*
X118200957Y-78368805D01*
X118254242Y-78415722D01*
X118273703Y-78483999D01*
X118253161Y-78551959D01*
X118200957Y-78597195D01*
X118166738Y-78613151D01*
X118166733Y-78613154D01*
X118161751Y-78615477D01*
X118089814Y-78665848D01*
X117978711Y-78743643D01*
X117978708Y-78743645D01*
X117974200Y-78746802D01*
X117812302Y-78908700D01*
X117680977Y-79096251D01*
X117678654Y-79101233D01*
X117678651Y-79101238D01*
X117590017Y-79291316D01*
X117584216Y-79303757D01*
X117524957Y-79524913D01*
X117505002Y-79753000D01*
X117524957Y-79981087D01*
X117584216Y-80202243D01*
X117586539Y-80207224D01*
X117586539Y-80207225D01*
X117678651Y-80404762D01*
X117678654Y-80404767D01*
X117680977Y-80409749D01*
X117754402Y-80514611D01*
X117781384Y-80553144D01*
X117812302Y-80597300D01*
X117974200Y-80759198D01*
X117978708Y-80762355D01*
X117978711Y-80762357D01*
X118007667Y-80782632D01*
X118161751Y-80890523D01*
X118166733Y-80892846D01*
X118166738Y-80892849D01*
X118200957Y-80908805D01*
X118254242Y-80955722D01*
X118273703Y-81023999D01*
X118253161Y-81091959D01*
X118200957Y-81137195D01*
X118166738Y-81153151D01*
X118166733Y-81153154D01*
X118161751Y-81155477D01*
X118056889Y-81228902D01*
X117978711Y-81283643D01*
X117978708Y-81283645D01*
X117974200Y-81286802D01*
X117812302Y-81448700D01*
X117809145Y-81453208D01*
X117809143Y-81453211D01*
X117754402Y-81531389D01*
X117680977Y-81636251D01*
X117678654Y-81641233D01*
X117678651Y-81641238D01*
X117586539Y-81838775D01*
X117584216Y-81843757D01*
X117582794Y-81849065D01*
X117582793Y-81849067D01*
X117526381Y-82059598D01*
X117524957Y-82064913D01*
X117505002Y-82293000D01*
X96583500Y-82293000D01*
X96583500Y-79632695D01*
X98932251Y-79632695D01*
X98932548Y-79637848D01*
X98932548Y-79637851D01*
X98942695Y-79813831D01*
X98945110Y-79855715D01*
X98946247Y-79860761D01*
X98946248Y-79860767D01*
X98950059Y-79877677D01*
X98994222Y-80073639D01*
X99078266Y-80280616D01*
X99080965Y-80285020D01*
X99157399Y-80409749D01*
X99194987Y-80471088D01*
X99341250Y-80639938D01*
X99345225Y-80643238D01*
X99345231Y-80643244D01*
X99350425Y-80647556D01*
X99390059Y-80706460D01*
X99391555Y-80777441D01*
X99354439Y-80837962D01*
X99314168Y-80862480D01*
X99206946Y-80902676D01*
X99191351Y-80911214D01*
X99089276Y-80987715D01*
X99076715Y-81000276D01*
X99000214Y-81102351D01*
X98991676Y-81117946D01*
X98946522Y-81238394D01*
X98942895Y-81253649D01*
X98937369Y-81304514D01*
X98937000Y-81311328D01*
X98937000Y-81933885D01*
X98941475Y-81949124D01*
X98942865Y-81950329D01*
X98950548Y-81952000D01*
X101634884Y-81952000D01*
X101650123Y-81947525D01*
X101651328Y-81946135D01*
X101652999Y-81938452D01*
X101652999Y-81311331D01*
X101652629Y-81304510D01*
X101647105Y-81253648D01*
X101643479Y-81238396D01*
X101598324Y-81117946D01*
X101589786Y-81102351D01*
X101513285Y-81000276D01*
X101500724Y-80987715D01*
X101398649Y-80911214D01*
X101383054Y-80902676D01*
X101272813Y-80861348D01*
X101216049Y-80818706D01*
X101191349Y-80752145D01*
X101206557Y-80682796D01*
X101228104Y-80654115D01*
X101329430Y-80553144D01*
X101329440Y-80553132D01*
X101333096Y-80549489D01*
X101392594Y-80466689D01*
X101460435Y-80372277D01*
X101463453Y-80368077D01*
X101562430Y-80167811D01*
X101610463Y-80009717D01*
X101625865Y-79959023D01*
X101625865Y-79959021D01*
X101627370Y-79954069D01*
X101656529Y-79732590D01*
X101657747Y-79682745D01*
X101658074Y-79669365D01*
X101658074Y-79669361D01*
X101658156Y-79666000D01*
X101639852Y-79443361D01*
X101585431Y-79226702D01*
X101496354Y-79021840D01*
X101426079Y-78913211D01*
X101377822Y-78838617D01*
X101377820Y-78838614D01*
X101375014Y-78834277D01*
X101224670Y-78669051D01*
X101220619Y-78665852D01*
X101220615Y-78665848D01*
X101053414Y-78533800D01*
X101053410Y-78533798D01*
X101049359Y-78530598D01*
X101008053Y-78507796D01*
X100958084Y-78457364D01*
X100943312Y-78387921D01*
X100968428Y-78321516D01*
X100995780Y-78294909D01*
X101043397Y-78260944D01*
X101174860Y-78167173D01*
X101333096Y-78009489D01*
X101392594Y-77926689D01*
X101460435Y-77832277D01*
X101463453Y-77828077D01*
X101468219Y-77818435D01*
X101560136Y-77632453D01*
X101560137Y-77632451D01*
X101562430Y-77627811D01*
X101617146Y-77447721D01*
X101625865Y-77419023D01*
X101625865Y-77419021D01*
X101627370Y-77414069D01*
X101656529Y-77192590D01*
X101656784Y-77182148D01*
X101658074Y-77129365D01*
X101658074Y-77129361D01*
X101658156Y-77126000D01*
X101639852Y-76903361D01*
X101585431Y-76686702D01*
X101496354Y-76481840D01*
X101426079Y-76373211D01*
X101377822Y-76298617D01*
X101377820Y-76298614D01*
X101375014Y-76294277D01*
X101224670Y-76129051D01*
X101220619Y-76125852D01*
X101220615Y-76125848D01*
X101053414Y-75993800D01*
X101053410Y-75993798D01*
X101049359Y-75990598D01*
X101026263Y-75977848D01*
X100997136Y-75961769D01*
X100853789Y-75882638D01*
X100848920Y-75880914D01*
X100848916Y-75880912D01*
X100648087Y-75809795D01*
X100648083Y-75809794D01*
X100643212Y-75808069D01*
X100638119Y-75807162D01*
X100638116Y-75807161D01*
X100428373Y-75769800D01*
X100428367Y-75769799D01*
X100423284Y-75768894D01*
X100349452Y-75767992D01*
X100205081Y-75766228D01*
X100205079Y-75766228D01*
X100199911Y-75766165D01*
X99979091Y-75799955D01*
X99766756Y-75869357D01*
X99736443Y-75885137D01*
X99662528Y-75923615D01*
X99568607Y-75972507D01*
X99564474Y-75975610D01*
X99564471Y-75975612D01*
X99394100Y-76103530D01*
X99389965Y-76106635D01*
X99235629Y-76268138D01*
X99109743Y-76452680D01*
X99094003Y-76486590D01*
X99052869Y-76575206D01*
X99015688Y-76655305D01*
X98955989Y-76870570D01*
X98932251Y-77092695D01*
X98932548Y-77097848D01*
X98932548Y-77097851D01*
X98939503Y-77218475D01*
X98945110Y-77315715D01*
X98946247Y-77320761D01*
X98946248Y-77320767D01*
X98957498Y-77370684D01*
X98994222Y-77533639D01*
X99078266Y-77740616D01*
X99080965Y-77745020D01*
X99188319Y-77920206D01*
X99194987Y-77931088D01*
X99341250Y-78099938D01*
X99513126Y-78242632D01*
X99583595Y-78283811D01*
X99586445Y-78285476D01*
X99635169Y-78337114D01*
X99648240Y-78406897D01*
X99621509Y-78472669D01*
X99581055Y-78506027D01*
X99568607Y-78512507D01*
X99564474Y-78515610D01*
X99564471Y-78515612D01*
X99413295Y-78629118D01*
X99389965Y-78646635D01*
X99235629Y-78808138D01*
X99109743Y-78992680D01*
X99015688Y-79195305D01*
X98955989Y-79410570D01*
X98932251Y-79632695D01*
X96583500Y-79632695D01*
X96583500Y-72885000D01*
X140301496Y-72885000D01*
X140321458Y-73074928D01*
X140380473Y-73256556D01*
X140475960Y-73421944D01*
X140480378Y-73426851D01*
X140480379Y-73426852D01*
X140493153Y-73441039D01*
X140603747Y-73563866D01*
X140652450Y-73599251D01*
X140745426Y-73666802D01*
X140758248Y-73676118D01*
X140764276Y-73678802D01*
X140764278Y-73678803D01*
X140902062Y-73740148D01*
X140932712Y-73753794D01*
X141026113Y-73773647D01*
X141113056Y-73792128D01*
X141113061Y-73792128D01*
X141119513Y-73793500D01*
X141310487Y-73793500D01*
X141316939Y-73792128D01*
X141316944Y-73792128D01*
X141403887Y-73773647D01*
X141497288Y-73753794D01*
X141527938Y-73740148D01*
X141665722Y-73678803D01*
X141665724Y-73678802D01*
X141671752Y-73676118D01*
X141684575Y-73666802D01*
X141777550Y-73599251D01*
X141826253Y-73563866D01*
X141936847Y-73441039D01*
X141949621Y-73426852D01*
X141949622Y-73426851D01*
X141954040Y-73421944D01*
X142049527Y-73256556D01*
X142108542Y-73074928D01*
X142128504Y-72885000D01*
X142108542Y-72695072D01*
X142049527Y-72513444D01*
X141954040Y-72348056D01*
X141826253Y-72206134D01*
X141671752Y-72093882D01*
X141665724Y-72091198D01*
X141665722Y-72091197D01*
X141503319Y-72018891D01*
X141503318Y-72018891D01*
X141497288Y-72016206D01*
X141403887Y-71996353D01*
X141316944Y-71977872D01*
X141316939Y-71977872D01*
X141310487Y-71976500D01*
X141119513Y-71976500D01*
X141113061Y-71977872D01*
X141113056Y-71977872D01*
X141026113Y-71996353D01*
X140932712Y-72016206D01*
X140926682Y-72018891D01*
X140926681Y-72018891D01*
X140764278Y-72091197D01*
X140764276Y-72091198D01*
X140758248Y-72093882D01*
X140603747Y-72206134D01*
X140475960Y-72348056D01*
X140380473Y-72513444D01*
X140321458Y-72695072D01*
X140301496Y-72885000D01*
X96583500Y-72885000D01*
X96583500Y-68884000D01*
X98462026Y-68884000D01*
X98481891Y-69136403D01*
X98483045Y-69141210D01*
X98483046Y-69141216D01*
X98493287Y-69183872D01*
X98540995Y-69382591D01*
X98542888Y-69387162D01*
X98542889Y-69387164D01*
X98614387Y-69559774D01*
X98637884Y-69616502D01*
X98770172Y-69832376D01*
X98934602Y-70024898D01*
X99127124Y-70189328D01*
X99342998Y-70321616D01*
X99347568Y-70323509D01*
X99347572Y-70323511D01*
X99572336Y-70416611D01*
X99576909Y-70418505D01*
X99661532Y-70438821D01*
X99818284Y-70476454D01*
X99818290Y-70476455D01*
X99823097Y-70477609D01*
X99922916Y-70485465D01*
X100009845Y-70492307D01*
X100009852Y-70492307D01*
X100012301Y-70492500D01*
X100138699Y-70492500D01*
X100141148Y-70492307D01*
X100141155Y-70492307D01*
X100228084Y-70485465D01*
X100327903Y-70477609D01*
X100332710Y-70476455D01*
X100332716Y-70476454D01*
X100489468Y-70438821D01*
X100574091Y-70418505D01*
X100578664Y-70416611D01*
X100803428Y-70323511D01*
X100803432Y-70323509D01*
X100808002Y-70321616D01*
X101023876Y-70189328D01*
X101139003Y-70091000D01*
X140301496Y-70091000D01*
X140302186Y-70097565D01*
X140311831Y-70189328D01*
X140321458Y-70280928D01*
X140380473Y-70462556D01*
X140475960Y-70627944D01*
X140603747Y-70769866D01*
X140758248Y-70882118D01*
X140764276Y-70884802D01*
X140764278Y-70884803D01*
X140926681Y-70957109D01*
X140932712Y-70959794D01*
X141026113Y-70979647D01*
X141113056Y-70998128D01*
X141113061Y-70998128D01*
X141119513Y-70999500D01*
X141310487Y-70999500D01*
X141316939Y-70998128D01*
X141316944Y-70998128D01*
X141403887Y-70979647D01*
X141497288Y-70959794D01*
X141503319Y-70957109D01*
X141665722Y-70884803D01*
X141665724Y-70884802D01*
X141671752Y-70882118D01*
X141826253Y-70769866D01*
X141954040Y-70627944D01*
X142049527Y-70462556D01*
X142108542Y-70280928D01*
X142118170Y-70189328D01*
X142127814Y-70097565D01*
X142128504Y-70091000D01*
X142121894Y-70028106D01*
X142109232Y-69907635D01*
X142109232Y-69907633D01*
X142108542Y-69901072D01*
X142049527Y-69719444D01*
X141954040Y-69554056D01*
X141826253Y-69412134D01*
X141671752Y-69299882D01*
X141665724Y-69297198D01*
X141665722Y-69297197D01*
X141503319Y-69224891D01*
X141503318Y-69224891D01*
X141497288Y-69222206D01*
X141403887Y-69202353D01*
X141316944Y-69183872D01*
X141316939Y-69183872D01*
X141310487Y-69182500D01*
X141119513Y-69182500D01*
X141113061Y-69183872D01*
X141113056Y-69183872D01*
X141026113Y-69202353D01*
X140932712Y-69222206D01*
X140926682Y-69224891D01*
X140926681Y-69224891D01*
X140764278Y-69297197D01*
X140764276Y-69297198D01*
X140758248Y-69299882D01*
X140603747Y-69412134D01*
X140475960Y-69554056D01*
X140380473Y-69719444D01*
X140321458Y-69901072D01*
X140320768Y-69907633D01*
X140320768Y-69907635D01*
X140308106Y-70028106D01*
X140301496Y-70091000D01*
X101139003Y-70091000D01*
X101216398Y-70024898D01*
X101380828Y-69832376D01*
X101513116Y-69616502D01*
X101536614Y-69559774D01*
X101608111Y-69387164D01*
X101608112Y-69387162D01*
X101610005Y-69382591D01*
X101657713Y-69183872D01*
X101667954Y-69141216D01*
X101667955Y-69141210D01*
X101669109Y-69136403D01*
X101688974Y-68884000D01*
X182462026Y-68884000D01*
X182481891Y-69136403D01*
X182483045Y-69141210D01*
X182483046Y-69141216D01*
X182493287Y-69183872D01*
X182540995Y-69382591D01*
X182542888Y-69387162D01*
X182542889Y-69387164D01*
X182614387Y-69559774D01*
X182637884Y-69616502D01*
X182770172Y-69832376D01*
X182934602Y-70024898D01*
X183127124Y-70189328D01*
X183342998Y-70321616D01*
X183347568Y-70323509D01*
X183347572Y-70323511D01*
X183572336Y-70416611D01*
X183576909Y-70418505D01*
X183661532Y-70438821D01*
X183818284Y-70476454D01*
X183818290Y-70476455D01*
X183823097Y-70477609D01*
X183922916Y-70485465D01*
X184009845Y-70492307D01*
X184009852Y-70492307D01*
X184012301Y-70492500D01*
X184138699Y-70492500D01*
X184141148Y-70492307D01*
X184141155Y-70492307D01*
X184228084Y-70485465D01*
X184327903Y-70477609D01*
X184332710Y-70476455D01*
X184332716Y-70476454D01*
X184489468Y-70438821D01*
X184574091Y-70418505D01*
X184578664Y-70416611D01*
X184803428Y-70323511D01*
X184803432Y-70323509D01*
X184808002Y-70321616D01*
X185023876Y-70189328D01*
X185216398Y-70024898D01*
X185380828Y-69832376D01*
X185513116Y-69616502D01*
X185536614Y-69559774D01*
X185608111Y-69387164D01*
X185608112Y-69387162D01*
X185610005Y-69382591D01*
X185657713Y-69183872D01*
X185667954Y-69141216D01*
X185667955Y-69141210D01*
X185669109Y-69136403D01*
X185688974Y-68884000D01*
X185669109Y-68631597D01*
X185610005Y-68385409D01*
X185513116Y-68151498D01*
X185380828Y-67935624D01*
X185216398Y-67743102D01*
X185023876Y-67578672D01*
X184808002Y-67446384D01*
X184803432Y-67444491D01*
X184803428Y-67444489D01*
X184578664Y-67351389D01*
X184578662Y-67351388D01*
X184574091Y-67349495D01*
X184489468Y-67329179D01*
X184332716Y-67291546D01*
X184332710Y-67291545D01*
X184327903Y-67290391D01*
X184228084Y-67282535D01*
X184141155Y-67275693D01*
X184141148Y-67275693D01*
X184138699Y-67275500D01*
X184012301Y-67275500D01*
X184009852Y-67275693D01*
X184009845Y-67275693D01*
X183922916Y-67282535D01*
X183823097Y-67290391D01*
X183818290Y-67291545D01*
X183818284Y-67291546D01*
X183661532Y-67329179D01*
X183576909Y-67349495D01*
X183572338Y-67351388D01*
X183572336Y-67351389D01*
X183347572Y-67444489D01*
X183347568Y-67444491D01*
X183342998Y-67446384D01*
X183127124Y-67578672D01*
X182934602Y-67743102D01*
X182770172Y-67935624D01*
X182637884Y-68151498D01*
X182540995Y-68385409D01*
X182481891Y-68631597D01*
X182462026Y-68884000D01*
X101688974Y-68884000D01*
X101669109Y-68631597D01*
X101610005Y-68385409D01*
X101513116Y-68151498D01*
X101380828Y-67935624D01*
X101216398Y-67743102D01*
X101023876Y-67578672D01*
X100808002Y-67446384D01*
X100803432Y-67444491D01*
X100803428Y-67444489D01*
X100578664Y-67351389D01*
X100578662Y-67351388D01*
X100574091Y-67349495D01*
X100489468Y-67329179D01*
X100332716Y-67291546D01*
X100332710Y-67291545D01*
X100327903Y-67290391D01*
X100228084Y-67282535D01*
X100141155Y-67275693D01*
X100141148Y-67275693D01*
X100138699Y-67275500D01*
X100012301Y-67275500D01*
X100009852Y-67275693D01*
X100009845Y-67275693D01*
X99922916Y-67282535D01*
X99823097Y-67290391D01*
X99818290Y-67291545D01*
X99818284Y-67291546D01*
X99661532Y-67329179D01*
X99576909Y-67349495D01*
X99572338Y-67351388D01*
X99572336Y-67351389D01*
X99347572Y-67444489D01*
X99347568Y-67444491D01*
X99342998Y-67446384D01*
X99127124Y-67578672D01*
X98934602Y-67743102D01*
X98770172Y-67935624D01*
X98637884Y-68151498D01*
X98540995Y-68385409D01*
X98481891Y-68631597D01*
X98462026Y-68884000D01*
X96583500Y-68884000D01*
X96583500Y-65518000D01*
X96603502Y-65449879D01*
X96657158Y-65403386D01*
X96709500Y-65392000D01*
X187441500Y-65392000D01*
X187509621Y-65412002D01*
G37*
%TD.AperFunction*%
%TD*%
M02*
