%TF.GenerationSoftware,KiCad,Pcbnew,(6.99.0)*%
%TF.CreationDate,2022-12-27T21:53:31-08:00*%
%TF.ProjectId,eog-pcb-kicad,656f672d-7063-4622-9d6b-696361642e6b,rev?*%
%TF.SameCoordinates,Original*%
%TF.FileFunction,Copper,L4,Bot*%
%TF.FilePolarity,Positive*%
%FSLAX46Y46*%
G04 Gerber Fmt 4.6, Leading zero omitted, Abs format (unit mm)*
G04 Created by KiCad (PCBNEW (6.99.0)) date 2022-12-27 21:53:31*
%MOMM*%
%LPD*%
G01*
G04 APERTURE LIST*
%TA.AperFunction,ComponentPad*%
%ADD10R,1.700000X1.700000*%
%TD*%
%TA.AperFunction,ComponentPad*%
%ADD11O,1.700000X1.700000*%
%TD*%
%TA.AperFunction,ViaPad*%
%ADD12C,0.800000*%
%TD*%
%TA.AperFunction,Conductor*%
%ADD13C,0.254000*%
%TD*%
%TA.AperFunction,Conductor*%
%ADD14C,0.203200*%
%TD*%
%TA.AperFunction,Conductor*%
%ADD15C,0.250000*%
%TD*%
G04 APERTURE END LIST*
D10*
X57404000Y-24755000D03*
D11*
X57404000Y-22215000D03*
X57404000Y-19675000D03*
X57404000Y-17135000D03*
D10*
X3612000Y-13884000D03*
D11*
X3612000Y-11344000D03*
X3612000Y-8804000D03*
D10*
X3556000Y-30861000D03*
D11*
X3556000Y-28321000D03*
X3556000Y-25781000D03*
D10*
X9271000Y-38227000D03*
D11*
X11811000Y-38227000D03*
X14351000Y-38227000D03*
X16891000Y-38227000D03*
X19431000Y-38227000D03*
X21971000Y-38227000D03*
X24511000Y-38227000D03*
X27051000Y-38227000D03*
D12*
X43688000Y-11430000D03*
X54864000Y-26924000D03*
X29972000Y-3810000D03*
X43053000Y-20320000D03*
X3556000Y-33528000D03*
X9779000Y-11684000D03*
X16891000Y-31877000D03*
X41021000Y-9017000D03*
X32131000Y-13208000D03*
X45593000Y-26543000D03*
X44704000Y-8509000D03*
X20828000Y-15113000D03*
X5969000Y-30353000D03*
X5588000Y-12827000D03*
X19939000Y-6731000D03*
X20066000Y-25527000D03*
X11303000Y-20574000D03*
X11303000Y-28448000D03*
X10414000Y-10414000D03*
X20447000Y-11176000D03*
X15494000Y-32639000D03*
X3048000Y-16637000D03*
X43815000Y-32004000D03*
X36576000Y-14097000D03*
X10414000Y-34163000D03*
X42418000Y-35814000D03*
X43942000Y-13335000D03*
X41783000Y-14732000D03*
X41910000Y-31369000D03*
X41910000Y-32639000D03*
X34036000Y-37084000D03*
X20701000Y-34417000D03*
X32385000Y-35687000D03*
X34036000Y-16383000D03*
X11811000Y-33655000D03*
X5588000Y-33401000D03*
X5207000Y-16637000D03*
X42418000Y-34544000D03*
X25019000Y-7366000D03*
X36576000Y-10922000D03*
X50561000Y-12080000D03*
X36957000Y-31877000D03*
X50419000Y-1270000D03*
X50871000Y-30678000D03*
X25019000Y-28067000D03*
X51181000Y-9144000D03*
X27998000Y-24130000D03*
X11486000Y-17074000D03*
X28067000Y-3810000D03*
X8311000Y-2215000D03*
X57912000Y-8001000D03*
X24765000Y-13081000D03*
X21011000Y-19487000D03*
X36557500Y-12192000D03*
X20066000Y-27051000D03*
X51943000Y-1270000D03*
X34036000Y-26543000D03*
X52864500Y-20447000D03*
X19939000Y-2032000D03*
X19939000Y-8128000D03*
X36957000Y-33147000D03*
X11557000Y-29845000D03*
X45879500Y-24003000D03*
X44482500Y-28956000D03*
X31623000Y-9017000D03*
X28321000Y-12954000D03*
X29972000Y-9017000D03*
X40386000Y-4318000D03*
X30480000Y-33655000D03*
X31877000Y-29845000D03*
X38735000Y-25273000D03*
X29845000Y-29845000D03*
X21971000Y-14859000D03*
X28123000Y-17328000D03*
X50165000Y-31750000D03*
X50165000Y-13589000D03*
X10978000Y-14661000D03*
X10978000Y-13518000D03*
X43434000Y-12446000D03*
X43815000Y-10287000D03*
X45402500Y-4000500D03*
D13*
X46863000Y-25273000D02*
X46863000Y-9398000D01*
X45974000Y-8509000D02*
X44704000Y-8509000D01*
X46863000Y-9398000D02*
X45974000Y-8509000D01*
X45593000Y-26543000D02*
X46863000Y-25273000D01*
X43942000Y-13335000D02*
X43180000Y-13335000D01*
X43180000Y-13335000D02*
X41783000Y-14732000D01*
X43434000Y-12446000D02*
X42799000Y-12446000D01*
X42799000Y-12446000D02*
X40513000Y-14732000D01*
X40513000Y-14732000D02*
X40513000Y-33655000D01*
X40513000Y-33655000D02*
X37084000Y-37084000D01*
X37084000Y-37084000D02*
X34036000Y-37084000D01*
D14*
X11303000Y-28448000D02*
X14732000Y-31877000D01*
X14732000Y-31877000D02*
X16891000Y-31877000D01*
D13*
X34036000Y-16383000D02*
X34036000Y-16764000D01*
X34036000Y-16764000D02*
X14351000Y-36449000D01*
X14351000Y-36449000D02*
X14351000Y-38227000D01*
D15*
X41021000Y-9017000D02*
X40894000Y-9144000D01*
X40894000Y-9144000D02*
X36195000Y-9144000D01*
X36195000Y-9144000D02*
X32131000Y-13208000D01*
D14*
X10978000Y-14661000D02*
X11542000Y-14097000D01*
X11542000Y-14097000D02*
X36576000Y-14097000D01*
D15*
X21971000Y-14859000D02*
X22027000Y-14915000D01*
X22027000Y-14915000D02*
X25583000Y-14915000D01*
X25583000Y-14915000D02*
X27996000Y-17328000D01*
X27996000Y-17328000D02*
X28123000Y-17328000D01*
D13*
X5207000Y-16637000D02*
X5207000Y-33020000D01*
X5207000Y-33020000D02*
X5588000Y-33401000D01*
D14*
X11303000Y-20828000D02*
X11303000Y-20574000D01*
X11303000Y-28448000D02*
X11303000Y-20828000D01*
D15*
X11176000Y-11176000D02*
X10414000Y-10414000D01*
X20447000Y-11176000D02*
X11176000Y-11176000D01*
D14*
X11811000Y-33655000D02*
X11811000Y-38227000D01*
D13*
X20701000Y-34417000D02*
X19431000Y-35687000D01*
X19431000Y-35687000D02*
X19431000Y-38227000D01*
X43815000Y-32004000D02*
X41783000Y-29972000D01*
X41783000Y-29972000D02*
X41783000Y-14732000D01*
X41910000Y-33401000D02*
X37211000Y-38100000D01*
X37211000Y-38100000D02*
X32258000Y-38100000D01*
X41910000Y-32639000D02*
X41910000Y-33401000D01*
X29083000Y-34925000D02*
X22860000Y-34925000D01*
X32258000Y-38100000D02*
X29083000Y-34925000D01*
X22860000Y-34925000D02*
X21971000Y-35814000D01*
X21971000Y-35814000D02*
X21971000Y-38227000D01*
D14*
X10414000Y-34163000D02*
X10414000Y-15225000D01*
X10414000Y-15225000D02*
X10978000Y-14661000D01*
D13*
X42418000Y-35814000D02*
X38608000Y-39624000D01*
X38608000Y-39624000D02*
X25908000Y-39624000D01*
X25908000Y-39624000D02*
X24511000Y-38227000D01*
X42418000Y-34544000D02*
X38100000Y-38862000D01*
X38100000Y-38862000D02*
X27686000Y-38862000D01*
X27686000Y-38862000D02*
X27051000Y-38227000D01*
X42418000Y-34544000D02*
X42545000Y-34417000D01*
X42545000Y-34417000D02*
X49403000Y-34417000D01*
X49403000Y-34417000D02*
X50165000Y-33655000D01*
X50165000Y-33655000D02*
X50165000Y-31750000D01*
X38735000Y-25273000D02*
X32893000Y-25273000D01*
X32893000Y-25273000D02*
X29845000Y-28321000D01*
X29845000Y-28321000D02*
X29845000Y-29845000D01*
X32385000Y-35687000D02*
X31115000Y-35687000D01*
X31115000Y-35687000D02*
X29083000Y-33655000D01*
X29083000Y-33655000D02*
X18669000Y-33655000D01*
X18669000Y-33655000D02*
X16891000Y-35433000D01*
X16891000Y-35433000D02*
X16891000Y-38227000D01*
X30480000Y-33655000D02*
X31242000Y-33655000D01*
X31242000Y-33655000D02*
X31877000Y-33020000D01*
X31877000Y-33020000D02*
X31877000Y-29845000D01*
X9271000Y-15225000D02*
X9271000Y-38227000D01*
D15*
X10978000Y-13518000D02*
X9271000Y-15225000D01*
D14*
X45117500Y-24003000D02*
X45879500Y-24003000D01*
X44482500Y-28956000D02*
X44482500Y-24638000D01*
X44482500Y-24638000D02*
X45117500Y-24003000D01*
D13*
X31115000Y-12954000D02*
X31623000Y-12446000D01*
X31623000Y-12446000D02*
X31623000Y-9017000D01*
X28321000Y-12954000D02*
X31115000Y-12954000D01*
X40386000Y-4318000D02*
X31623000Y-4318000D01*
X29972000Y-5969000D02*
X29972000Y-9017000D01*
X31623000Y-4318000D02*
X29972000Y-5969000D01*
D14*
X50165000Y-13589000D02*
X50165000Y-31750000D01*
X44894500Y-4000500D02*
X43815000Y-5080000D01*
X43815000Y-5080000D02*
X43815000Y-10287000D01*
X45402500Y-4000500D02*
X44894500Y-4000500D01*
M02*
