%TF.GenerationSoftware,KiCad,Pcbnew,(6.99.0)*%
%TF.CreationDate,2022-12-27T21:53:30-08:00*%
%TF.ProjectId,eog-pcb-kicad,656f672d-7063-4622-9d6b-696361642e6b,rev?*%
%TF.SameCoordinates,Original*%
%TF.FileFunction,Copper,L2,Inr*%
%TF.FilePolarity,Positive*%
%FSLAX46Y46*%
G04 Gerber Fmt 4.6, Leading zero omitted, Abs format (unit mm)*
G04 Created by KiCad (PCBNEW (6.99.0)) date 2022-12-27 21:53:30*
%MOMM*%
%LPD*%
G01*
G04 APERTURE LIST*
%TA.AperFunction,ComponentPad*%
%ADD10R,1.700000X1.700000*%
%TD*%
%TA.AperFunction,ComponentPad*%
%ADD11O,1.700000X1.700000*%
%TD*%
%TA.AperFunction,ViaPad*%
%ADD12C,0.800000*%
%TD*%
G04 APERTURE END LIST*
D10*
X57404000Y-24755000D03*
D11*
X57404000Y-22215000D03*
X57404000Y-19675000D03*
X57404000Y-17135000D03*
D10*
X3612000Y-13884000D03*
D11*
X3612000Y-11344000D03*
X3612000Y-8804000D03*
D10*
X3556000Y-30861000D03*
D11*
X3556000Y-28321000D03*
X3556000Y-25781000D03*
D10*
X9271000Y-38227000D03*
D11*
X11811000Y-38227000D03*
X14351000Y-38227000D03*
X16891000Y-38227000D03*
X19431000Y-38227000D03*
X21971000Y-38227000D03*
X24511000Y-38227000D03*
X27051000Y-38227000D03*
D12*
X43688000Y-11430000D03*
X54864000Y-26924000D03*
X29972000Y-3810000D03*
X43053000Y-20320000D03*
X3556000Y-33528000D03*
X9779000Y-11684000D03*
X16891000Y-31877000D03*
X41021000Y-9017000D03*
X32131000Y-13208000D03*
X45593000Y-26543000D03*
X44704000Y-8509000D03*
X20828000Y-15113000D03*
X5969000Y-30353000D03*
X5588000Y-12827000D03*
X19939000Y-6731000D03*
X20066000Y-25527000D03*
X11303000Y-20574000D03*
X11303000Y-28448000D03*
X10414000Y-10414000D03*
X20447000Y-11176000D03*
X15494000Y-32639000D03*
X3048000Y-16637000D03*
X43815000Y-32004000D03*
X36576000Y-14097000D03*
X10414000Y-34163000D03*
X42418000Y-35814000D03*
X43942000Y-13335000D03*
X41783000Y-14732000D03*
X41910000Y-31369000D03*
X41910000Y-32639000D03*
X34036000Y-37084000D03*
X20701000Y-34417000D03*
X32385000Y-35687000D03*
X34036000Y-16383000D03*
X11811000Y-33655000D03*
X5588000Y-33401000D03*
X5207000Y-16637000D03*
X42418000Y-34544000D03*
X25019000Y-7366000D03*
X36576000Y-10922000D03*
X50561000Y-12080000D03*
X36957000Y-31877000D03*
X50419000Y-1270000D03*
X50871000Y-30678000D03*
X25019000Y-28067000D03*
X51181000Y-9144000D03*
X27998000Y-24130000D03*
X11486000Y-17074000D03*
X28067000Y-3810000D03*
X8311000Y-2215000D03*
X57912000Y-8001000D03*
X24765000Y-13081000D03*
X21011000Y-19487000D03*
X36557500Y-12192000D03*
X20066000Y-27051000D03*
X51943000Y-1270000D03*
X34036000Y-26543000D03*
X52864500Y-20447000D03*
X19939000Y-2032000D03*
X19939000Y-8128000D03*
X36957000Y-33147000D03*
X11557000Y-29845000D03*
X45879500Y-24003000D03*
X44482500Y-28956000D03*
X31623000Y-9017000D03*
X28321000Y-12954000D03*
X29972000Y-9017000D03*
X40386000Y-4318000D03*
X30480000Y-33655000D03*
X31877000Y-29845000D03*
X38735000Y-25273000D03*
X29845000Y-29845000D03*
X21971000Y-14859000D03*
X28123000Y-17328000D03*
X50165000Y-31750000D03*
X50165000Y-13589000D03*
X10978000Y-14661000D03*
X10978000Y-13518000D03*
X43434000Y-12446000D03*
X43815000Y-10287000D03*
X45402500Y-4000500D03*
%TA.AperFunction,Conductor*%
G36*
X49667722Y-528002D02*
G01*
X49714215Y-581658D01*
X49724319Y-651932D01*
X49693238Y-718309D01*
X49679960Y-733056D01*
X49584473Y-898444D01*
X49525458Y-1080072D01*
X49505496Y-1270000D01*
X49525458Y-1459928D01*
X49584473Y-1641556D01*
X49679960Y-1806944D01*
X49807747Y-1948866D01*
X49962248Y-2061118D01*
X49968276Y-2063802D01*
X49968278Y-2063803D01*
X50130681Y-2136109D01*
X50136712Y-2138794D01*
X50230112Y-2158647D01*
X50317056Y-2177128D01*
X50317061Y-2177128D01*
X50323513Y-2178500D01*
X50514487Y-2178500D01*
X50520939Y-2177128D01*
X50520944Y-2177128D01*
X50607888Y-2158647D01*
X50701288Y-2138794D01*
X50707319Y-2136109D01*
X50869722Y-2063803D01*
X50869724Y-2063802D01*
X50875752Y-2061118D01*
X51030253Y-1948866D01*
X51158040Y-1806944D01*
X51253527Y-1641556D01*
X51312542Y-1459928D01*
X51332504Y-1270000D01*
X51312542Y-1080072D01*
X51253527Y-898444D01*
X51158040Y-733056D01*
X51144762Y-718309D01*
X51114045Y-654301D01*
X51122810Y-583848D01*
X51168274Y-529317D01*
X51238399Y-508000D01*
X59366000Y-508000D01*
X59434121Y-528002D01*
X59480614Y-581658D01*
X59492000Y-634000D01*
X59492000Y-40366000D01*
X59471998Y-40434121D01*
X59418342Y-40480614D01*
X59366000Y-40492000D01*
X634000Y-40492000D01*
X565879Y-40471998D01*
X519386Y-40418342D01*
X508000Y-40366000D01*
X508000Y-39125134D01*
X7912500Y-39125134D01*
X7919255Y-39187316D01*
X7970385Y-39323705D01*
X8057739Y-39440261D01*
X8174295Y-39527615D01*
X8310684Y-39578745D01*
X8372866Y-39585500D01*
X10169134Y-39585500D01*
X10231316Y-39578745D01*
X10367705Y-39527615D01*
X10484261Y-39440261D01*
X10571615Y-39323705D01*
X10593799Y-39264529D01*
X10615598Y-39206382D01*
X10658240Y-39149618D01*
X10724802Y-39124918D01*
X10794150Y-39140126D01*
X10828817Y-39168114D01*
X10857250Y-39200938D01*
X11029126Y-39343632D01*
X11222000Y-39456338D01*
X11430692Y-39536030D01*
X11435760Y-39537061D01*
X11435763Y-39537062D01*
X11543017Y-39558883D01*
X11649597Y-39580567D01*
X11654772Y-39580757D01*
X11654774Y-39580757D01*
X11867673Y-39588564D01*
X11867677Y-39588564D01*
X11872837Y-39588753D01*
X11877957Y-39588097D01*
X11877959Y-39588097D01*
X12089288Y-39561025D01*
X12089289Y-39561025D01*
X12094416Y-39560368D01*
X12099366Y-39558883D01*
X12303429Y-39497661D01*
X12303434Y-39497659D01*
X12308384Y-39496174D01*
X12508994Y-39397896D01*
X12690860Y-39268173D01*
X12849096Y-39110489D01*
X12861226Y-39093609D01*
X12979453Y-38929077D01*
X12980776Y-38930028D01*
X13027645Y-38886857D01*
X13097580Y-38874625D01*
X13163026Y-38902144D01*
X13190875Y-38933994D01*
X13250987Y-39032088D01*
X13397250Y-39200938D01*
X13569126Y-39343632D01*
X13762000Y-39456338D01*
X13970692Y-39536030D01*
X13975760Y-39537061D01*
X13975763Y-39537062D01*
X14083017Y-39558883D01*
X14189597Y-39580567D01*
X14194772Y-39580757D01*
X14194774Y-39580757D01*
X14407673Y-39588564D01*
X14407677Y-39588564D01*
X14412837Y-39588753D01*
X14417957Y-39588097D01*
X14417959Y-39588097D01*
X14629288Y-39561025D01*
X14629289Y-39561025D01*
X14634416Y-39560368D01*
X14639366Y-39558883D01*
X14843429Y-39497661D01*
X14843434Y-39497659D01*
X14848384Y-39496174D01*
X15048994Y-39397896D01*
X15230860Y-39268173D01*
X15389096Y-39110489D01*
X15401226Y-39093609D01*
X15519453Y-38929077D01*
X15520776Y-38930028D01*
X15567645Y-38886857D01*
X15637580Y-38874625D01*
X15703026Y-38902144D01*
X15730875Y-38933994D01*
X15790987Y-39032088D01*
X15937250Y-39200938D01*
X16109126Y-39343632D01*
X16302000Y-39456338D01*
X16510692Y-39536030D01*
X16515760Y-39537061D01*
X16515763Y-39537062D01*
X16623017Y-39558883D01*
X16729597Y-39580567D01*
X16734772Y-39580757D01*
X16734774Y-39580757D01*
X16947673Y-39588564D01*
X16947677Y-39588564D01*
X16952837Y-39588753D01*
X16957957Y-39588097D01*
X16957959Y-39588097D01*
X17169288Y-39561025D01*
X17169289Y-39561025D01*
X17174416Y-39560368D01*
X17179366Y-39558883D01*
X17383429Y-39497661D01*
X17383434Y-39497659D01*
X17388384Y-39496174D01*
X17588994Y-39397896D01*
X17770860Y-39268173D01*
X17929096Y-39110489D01*
X17941226Y-39093609D01*
X18059453Y-38929077D01*
X18060776Y-38930028D01*
X18107645Y-38886857D01*
X18177580Y-38874625D01*
X18243026Y-38902144D01*
X18270875Y-38933994D01*
X18330987Y-39032088D01*
X18477250Y-39200938D01*
X18649126Y-39343632D01*
X18842000Y-39456338D01*
X19050692Y-39536030D01*
X19055760Y-39537061D01*
X19055763Y-39537062D01*
X19163017Y-39558883D01*
X19269597Y-39580567D01*
X19274772Y-39580757D01*
X19274774Y-39580757D01*
X19487673Y-39588564D01*
X19487677Y-39588564D01*
X19492837Y-39588753D01*
X19497957Y-39588097D01*
X19497959Y-39588097D01*
X19709288Y-39561025D01*
X19709289Y-39561025D01*
X19714416Y-39560368D01*
X19719366Y-39558883D01*
X19923429Y-39497661D01*
X19923434Y-39497659D01*
X19928384Y-39496174D01*
X20128994Y-39397896D01*
X20310860Y-39268173D01*
X20469096Y-39110489D01*
X20481226Y-39093609D01*
X20599453Y-38929077D01*
X20600776Y-38930028D01*
X20647645Y-38886857D01*
X20717580Y-38874625D01*
X20783026Y-38902144D01*
X20810875Y-38933994D01*
X20870987Y-39032088D01*
X21017250Y-39200938D01*
X21189126Y-39343632D01*
X21382000Y-39456338D01*
X21590692Y-39536030D01*
X21595760Y-39537061D01*
X21595763Y-39537062D01*
X21703017Y-39558883D01*
X21809597Y-39580567D01*
X21814772Y-39580757D01*
X21814774Y-39580757D01*
X22027673Y-39588564D01*
X22027677Y-39588564D01*
X22032837Y-39588753D01*
X22037957Y-39588097D01*
X22037959Y-39588097D01*
X22249288Y-39561025D01*
X22249289Y-39561025D01*
X22254416Y-39560368D01*
X22259366Y-39558883D01*
X22463429Y-39497661D01*
X22463434Y-39497659D01*
X22468384Y-39496174D01*
X22668994Y-39397896D01*
X22850860Y-39268173D01*
X23009096Y-39110489D01*
X23021226Y-39093609D01*
X23139453Y-38929077D01*
X23140776Y-38930028D01*
X23187645Y-38886857D01*
X23257580Y-38874625D01*
X23323026Y-38902144D01*
X23350875Y-38933994D01*
X23410987Y-39032088D01*
X23557250Y-39200938D01*
X23729126Y-39343632D01*
X23922000Y-39456338D01*
X24130692Y-39536030D01*
X24135760Y-39537061D01*
X24135763Y-39537062D01*
X24243017Y-39558883D01*
X24349597Y-39580567D01*
X24354772Y-39580757D01*
X24354774Y-39580757D01*
X24567673Y-39588564D01*
X24567677Y-39588564D01*
X24572837Y-39588753D01*
X24577957Y-39588097D01*
X24577959Y-39588097D01*
X24789288Y-39561025D01*
X24789289Y-39561025D01*
X24794416Y-39560368D01*
X24799366Y-39558883D01*
X25003429Y-39497661D01*
X25003434Y-39497659D01*
X25008384Y-39496174D01*
X25208994Y-39397896D01*
X25390860Y-39268173D01*
X25549096Y-39110489D01*
X25561226Y-39093609D01*
X25679453Y-38929077D01*
X25680776Y-38930028D01*
X25727645Y-38886857D01*
X25797580Y-38874625D01*
X25863026Y-38902144D01*
X25890875Y-38933994D01*
X25950987Y-39032088D01*
X26097250Y-39200938D01*
X26269126Y-39343632D01*
X26462000Y-39456338D01*
X26670692Y-39536030D01*
X26675760Y-39537061D01*
X26675763Y-39537062D01*
X26783017Y-39558883D01*
X26889597Y-39580567D01*
X26894772Y-39580757D01*
X26894774Y-39580757D01*
X27107673Y-39588564D01*
X27107677Y-39588564D01*
X27112837Y-39588753D01*
X27117957Y-39588097D01*
X27117959Y-39588097D01*
X27329288Y-39561025D01*
X27329289Y-39561025D01*
X27334416Y-39560368D01*
X27339366Y-39558883D01*
X27543429Y-39497661D01*
X27543434Y-39497659D01*
X27548384Y-39496174D01*
X27748994Y-39397896D01*
X27930860Y-39268173D01*
X28089096Y-39110489D01*
X28101226Y-39093609D01*
X28216435Y-38933277D01*
X28219453Y-38929077D01*
X28240320Y-38886857D01*
X28316136Y-38733453D01*
X28316137Y-38733451D01*
X28318430Y-38728811D01*
X28383370Y-38515069D01*
X28412529Y-38293590D01*
X28412611Y-38290240D01*
X28414074Y-38230365D01*
X28414074Y-38230361D01*
X28414156Y-38227000D01*
X28395852Y-38004361D01*
X28341431Y-37787702D01*
X28252354Y-37582840D01*
X28131014Y-37395277D01*
X27980670Y-37230051D01*
X27976619Y-37226852D01*
X27976615Y-37226848D01*
X27809414Y-37094800D01*
X27809410Y-37094798D01*
X27805359Y-37091598D01*
X27791595Y-37084000D01*
X33122496Y-37084000D01*
X33123186Y-37090565D01*
X33141697Y-37266684D01*
X33142458Y-37273928D01*
X33201473Y-37455556D01*
X33296960Y-37620944D01*
X33424747Y-37762866D01*
X33579248Y-37875118D01*
X33585276Y-37877802D01*
X33585278Y-37877803D01*
X33747681Y-37950109D01*
X33753712Y-37952794D01*
X33847113Y-37972647D01*
X33934056Y-37991128D01*
X33934061Y-37991128D01*
X33940513Y-37992500D01*
X34131487Y-37992500D01*
X34137939Y-37991128D01*
X34137944Y-37991128D01*
X34224887Y-37972647D01*
X34318288Y-37952794D01*
X34324319Y-37950109D01*
X34486722Y-37877803D01*
X34486724Y-37877802D01*
X34492752Y-37875118D01*
X34647253Y-37762866D01*
X34775040Y-37620944D01*
X34870527Y-37455556D01*
X34929542Y-37273928D01*
X34930304Y-37266684D01*
X34948814Y-37090565D01*
X34949504Y-37084000D01*
X34948814Y-37077435D01*
X34930232Y-36900635D01*
X34930232Y-36900633D01*
X34929542Y-36894072D01*
X34870527Y-36712444D01*
X34775040Y-36547056D01*
X34729744Y-36496749D01*
X34651675Y-36410045D01*
X34651674Y-36410044D01*
X34647253Y-36405134D01*
X34492752Y-36292882D01*
X34486724Y-36290198D01*
X34486722Y-36290197D01*
X34324319Y-36217891D01*
X34324318Y-36217891D01*
X34318288Y-36215206D01*
X34221684Y-36194672D01*
X34137944Y-36176872D01*
X34137939Y-36176872D01*
X34131487Y-36175500D01*
X33940513Y-36175500D01*
X33934061Y-36176872D01*
X33934056Y-36176872D01*
X33850316Y-36194672D01*
X33753712Y-36215206D01*
X33747682Y-36217891D01*
X33747681Y-36217891D01*
X33585278Y-36290197D01*
X33585276Y-36290198D01*
X33579248Y-36292882D01*
X33424747Y-36405134D01*
X33420326Y-36410044D01*
X33420325Y-36410045D01*
X33342257Y-36496749D01*
X33296960Y-36547056D01*
X33201473Y-36712444D01*
X33142458Y-36894072D01*
X33141768Y-36900633D01*
X33141768Y-36900635D01*
X33123186Y-37077435D01*
X33122496Y-37084000D01*
X27791595Y-37084000D01*
X27609789Y-36983638D01*
X27604920Y-36981914D01*
X27604916Y-36981912D01*
X27404087Y-36910795D01*
X27404083Y-36910794D01*
X27399212Y-36909069D01*
X27394119Y-36908162D01*
X27394116Y-36908161D01*
X27184373Y-36870800D01*
X27184367Y-36870799D01*
X27179284Y-36869894D01*
X27105452Y-36868992D01*
X26961081Y-36867228D01*
X26961079Y-36867228D01*
X26955911Y-36867165D01*
X26735091Y-36900955D01*
X26522756Y-36970357D01*
X26324607Y-37073507D01*
X26320474Y-37076610D01*
X26320471Y-37076612D01*
X26150100Y-37204530D01*
X26145965Y-37207635D01*
X26142393Y-37211373D01*
X26034729Y-37324037D01*
X25991629Y-37369138D01*
X25884201Y-37526621D01*
X25829293Y-37571621D01*
X25758768Y-37579792D01*
X25695021Y-37548538D01*
X25674324Y-37524054D01*
X25593822Y-37399617D01*
X25593820Y-37399614D01*
X25591014Y-37395277D01*
X25440670Y-37230051D01*
X25436619Y-37226852D01*
X25436615Y-37226848D01*
X25269414Y-37094800D01*
X25269410Y-37094798D01*
X25265359Y-37091598D01*
X25069789Y-36983638D01*
X25064920Y-36981914D01*
X25064916Y-36981912D01*
X24864087Y-36910795D01*
X24864083Y-36910794D01*
X24859212Y-36909069D01*
X24854119Y-36908162D01*
X24854116Y-36908161D01*
X24644373Y-36870800D01*
X24644367Y-36870799D01*
X24639284Y-36869894D01*
X24565452Y-36868992D01*
X24421081Y-36867228D01*
X24421079Y-36867228D01*
X24415911Y-36867165D01*
X24195091Y-36900955D01*
X23982756Y-36970357D01*
X23784607Y-37073507D01*
X23780474Y-37076610D01*
X23780471Y-37076612D01*
X23610100Y-37204530D01*
X23605965Y-37207635D01*
X23602393Y-37211373D01*
X23494729Y-37324037D01*
X23451629Y-37369138D01*
X23344201Y-37526621D01*
X23289293Y-37571621D01*
X23218768Y-37579792D01*
X23155021Y-37548538D01*
X23134324Y-37524054D01*
X23053822Y-37399617D01*
X23053820Y-37399614D01*
X23051014Y-37395277D01*
X22900670Y-37230051D01*
X22896619Y-37226852D01*
X22896615Y-37226848D01*
X22729414Y-37094800D01*
X22729410Y-37094798D01*
X22725359Y-37091598D01*
X22529789Y-36983638D01*
X22524920Y-36981914D01*
X22524916Y-36981912D01*
X22324087Y-36910795D01*
X22324083Y-36910794D01*
X22319212Y-36909069D01*
X22314119Y-36908162D01*
X22314116Y-36908161D01*
X22104373Y-36870800D01*
X22104367Y-36870799D01*
X22099284Y-36869894D01*
X22025452Y-36868992D01*
X21881081Y-36867228D01*
X21881079Y-36867228D01*
X21875911Y-36867165D01*
X21655091Y-36900955D01*
X21442756Y-36970357D01*
X21244607Y-37073507D01*
X21240474Y-37076610D01*
X21240471Y-37076612D01*
X21070100Y-37204530D01*
X21065965Y-37207635D01*
X21062393Y-37211373D01*
X20954729Y-37324037D01*
X20911629Y-37369138D01*
X20804201Y-37526621D01*
X20749293Y-37571621D01*
X20678768Y-37579792D01*
X20615021Y-37548538D01*
X20594324Y-37524054D01*
X20513822Y-37399617D01*
X20513820Y-37399614D01*
X20511014Y-37395277D01*
X20360670Y-37230051D01*
X20356619Y-37226852D01*
X20356615Y-37226848D01*
X20189414Y-37094800D01*
X20189410Y-37094798D01*
X20185359Y-37091598D01*
X19989789Y-36983638D01*
X19984920Y-36981914D01*
X19984916Y-36981912D01*
X19784087Y-36910795D01*
X19784083Y-36910794D01*
X19779212Y-36909069D01*
X19774119Y-36908162D01*
X19774116Y-36908161D01*
X19564373Y-36870800D01*
X19564367Y-36870799D01*
X19559284Y-36869894D01*
X19485452Y-36868992D01*
X19341081Y-36867228D01*
X19341079Y-36867228D01*
X19335911Y-36867165D01*
X19115091Y-36900955D01*
X18902756Y-36970357D01*
X18704607Y-37073507D01*
X18700474Y-37076610D01*
X18700471Y-37076612D01*
X18530100Y-37204530D01*
X18525965Y-37207635D01*
X18522393Y-37211373D01*
X18414729Y-37324037D01*
X18371629Y-37369138D01*
X18264201Y-37526621D01*
X18209293Y-37571621D01*
X18138768Y-37579792D01*
X18075021Y-37548538D01*
X18054324Y-37524054D01*
X17973822Y-37399617D01*
X17973820Y-37399614D01*
X17971014Y-37395277D01*
X17820670Y-37230051D01*
X17816619Y-37226852D01*
X17816615Y-37226848D01*
X17649414Y-37094800D01*
X17649410Y-37094798D01*
X17645359Y-37091598D01*
X17449789Y-36983638D01*
X17444920Y-36981914D01*
X17444916Y-36981912D01*
X17244087Y-36910795D01*
X17244083Y-36910794D01*
X17239212Y-36909069D01*
X17234119Y-36908162D01*
X17234116Y-36908161D01*
X17024373Y-36870800D01*
X17024367Y-36870799D01*
X17019284Y-36869894D01*
X16945452Y-36868992D01*
X16801081Y-36867228D01*
X16801079Y-36867228D01*
X16795911Y-36867165D01*
X16575091Y-36900955D01*
X16362756Y-36970357D01*
X16164607Y-37073507D01*
X16160474Y-37076610D01*
X16160471Y-37076612D01*
X15990100Y-37204530D01*
X15985965Y-37207635D01*
X15982393Y-37211373D01*
X15874729Y-37324037D01*
X15831629Y-37369138D01*
X15724201Y-37526621D01*
X15669293Y-37571621D01*
X15598768Y-37579792D01*
X15535021Y-37548538D01*
X15514324Y-37524054D01*
X15433822Y-37399617D01*
X15433820Y-37399614D01*
X15431014Y-37395277D01*
X15280670Y-37230051D01*
X15276619Y-37226852D01*
X15276615Y-37226848D01*
X15109414Y-37094800D01*
X15109410Y-37094798D01*
X15105359Y-37091598D01*
X14909789Y-36983638D01*
X14904920Y-36981914D01*
X14904916Y-36981912D01*
X14704087Y-36910795D01*
X14704083Y-36910794D01*
X14699212Y-36909069D01*
X14694119Y-36908162D01*
X14694116Y-36908161D01*
X14484373Y-36870800D01*
X14484367Y-36870799D01*
X14479284Y-36869894D01*
X14405452Y-36868992D01*
X14261081Y-36867228D01*
X14261079Y-36867228D01*
X14255911Y-36867165D01*
X14035091Y-36900955D01*
X13822756Y-36970357D01*
X13624607Y-37073507D01*
X13620474Y-37076610D01*
X13620471Y-37076612D01*
X13450100Y-37204530D01*
X13445965Y-37207635D01*
X13442393Y-37211373D01*
X13334729Y-37324037D01*
X13291629Y-37369138D01*
X13184201Y-37526621D01*
X13129293Y-37571621D01*
X13058768Y-37579792D01*
X12995021Y-37548538D01*
X12974324Y-37524054D01*
X12893822Y-37399617D01*
X12893820Y-37399614D01*
X12891014Y-37395277D01*
X12740670Y-37230051D01*
X12736619Y-37226852D01*
X12736615Y-37226848D01*
X12569414Y-37094800D01*
X12569410Y-37094798D01*
X12565359Y-37091598D01*
X12369789Y-36983638D01*
X12364920Y-36981914D01*
X12364916Y-36981912D01*
X12164087Y-36910795D01*
X12164083Y-36910794D01*
X12159212Y-36909069D01*
X12154119Y-36908162D01*
X12154116Y-36908161D01*
X11944373Y-36870800D01*
X11944367Y-36870799D01*
X11939284Y-36869894D01*
X11865452Y-36868992D01*
X11721081Y-36867228D01*
X11721079Y-36867228D01*
X11715911Y-36867165D01*
X11495091Y-36900955D01*
X11282756Y-36970357D01*
X11084607Y-37073507D01*
X11080474Y-37076610D01*
X11080471Y-37076612D01*
X10910100Y-37204530D01*
X10905965Y-37207635D01*
X10836615Y-37280206D01*
X10825283Y-37292064D01*
X10763759Y-37327494D01*
X10692846Y-37324037D01*
X10635060Y-37282791D01*
X10616207Y-37249243D01*
X10574767Y-37138703D01*
X10571615Y-37130295D01*
X10484261Y-37013739D01*
X10367705Y-36926385D01*
X10231316Y-36875255D01*
X10169134Y-36868500D01*
X8372866Y-36868500D01*
X8310684Y-36875255D01*
X8174295Y-36926385D01*
X8057739Y-37013739D01*
X7970385Y-37130295D01*
X7919255Y-37266684D01*
X7912500Y-37328866D01*
X7912500Y-39125134D01*
X508000Y-39125134D01*
X508000Y-37500000D01*
X1886526Y-37500000D01*
X1906391Y-37752403D01*
X1907545Y-37757210D01*
X1907546Y-37757216D01*
X1914865Y-37787702D01*
X1965495Y-37998591D01*
X1967388Y-38003162D01*
X1967389Y-38003164D01*
X2058716Y-38223646D01*
X2062384Y-38232502D01*
X2194672Y-38448376D01*
X2359102Y-38640898D01*
X2551624Y-38805328D01*
X2767498Y-38937616D01*
X2772068Y-38939509D01*
X2772072Y-38939511D01*
X2996836Y-39032611D01*
X3001409Y-39034505D01*
X3086032Y-39054821D01*
X3242784Y-39092454D01*
X3242790Y-39092455D01*
X3247597Y-39093609D01*
X3347416Y-39101465D01*
X3434345Y-39108307D01*
X3434352Y-39108307D01*
X3436801Y-39108500D01*
X3563199Y-39108500D01*
X3565648Y-39108307D01*
X3565655Y-39108307D01*
X3652584Y-39101465D01*
X3752403Y-39093609D01*
X3757210Y-39092455D01*
X3757216Y-39092454D01*
X3913968Y-39054821D01*
X3998591Y-39034505D01*
X4003164Y-39032611D01*
X4227928Y-38939511D01*
X4227932Y-38939509D01*
X4232502Y-38937616D01*
X4448376Y-38805328D01*
X4640898Y-38640898D01*
X4805328Y-38448376D01*
X4937616Y-38232502D01*
X4941285Y-38223646D01*
X5032611Y-38003164D01*
X5032612Y-38003162D01*
X5034505Y-37998591D01*
X5085135Y-37787702D01*
X5092454Y-37757216D01*
X5092455Y-37757210D01*
X5093609Y-37752403D01*
X5113474Y-37500000D01*
X5093609Y-37247597D01*
X5090314Y-37233870D01*
X5051814Y-37073507D01*
X5034505Y-37001409D01*
X5003429Y-36926385D01*
X4939511Y-36772072D01*
X4939509Y-36772068D01*
X4937616Y-36767498D01*
X4805328Y-36551624D01*
X4640898Y-36359102D01*
X4448376Y-36194672D01*
X4232502Y-36062384D01*
X4227932Y-36060491D01*
X4227928Y-36060489D01*
X4003164Y-35967389D01*
X4003162Y-35967388D01*
X3998591Y-35965495D01*
X3913968Y-35945179D01*
X3757216Y-35907546D01*
X3757210Y-35907545D01*
X3752403Y-35906391D01*
X3652584Y-35898535D01*
X3565655Y-35891693D01*
X3565648Y-35891693D01*
X3563199Y-35891500D01*
X3436801Y-35891500D01*
X3434352Y-35891693D01*
X3434345Y-35891693D01*
X3347416Y-35898535D01*
X3247597Y-35906391D01*
X3242790Y-35907545D01*
X3242784Y-35907546D01*
X3086032Y-35945179D01*
X3001409Y-35965495D01*
X2996838Y-35967388D01*
X2996836Y-35967389D01*
X2772072Y-36060489D01*
X2772068Y-36060491D01*
X2767498Y-36062384D01*
X2551624Y-36194672D01*
X2359102Y-36359102D01*
X2194672Y-36551624D01*
X2062384Y-36767498D01*
X2060491Y-36772068D01*
X2060489Y-36772072D01*
X1996571Y-36926385D01*
X1965495Y-37001409D01*
X1948186Y-37073507D01*
X1909687Y-37233870D01*
X1906391Y-37247597D01*
X1886526Y-37500000D01*
X508000Y-37500000D01*
X508000Y-35687000D01*
X31471496Y-35687000D01*
X31491458Y-35876928D01*
X31550473Y-36058556D01*
X31645960Y-36223944D01*
X31773747Y-36365866D01*
X31928248Y-36478118D01*
X31934276Y-36480802D01*
X31934278Y-36480803D01*
X31970094Y-36496749D01*
X32102712Y-36555794D01*
X32196113Y-36575647D01*
X32283056Y-36594128D01*
X32283061Y-36594128D01*
X32289513Y-36595500D01*
X32480487Y-36595500D01*
X32486939Y-36594128D01*
X32486944Y-36594128D01*
X32573887Y-36575647D01*
X32667288Y-36555794D01*
X32799906Y-36496749D01*
X32835722Y-36480803D01*
X32835724Y-36480802D01*
X32841752Y-36478118D01*
X32996253Y-36365866D01*
X33124040Y-36223944D01*
X33219527Y-36058556D01*
X33278542Y-35876928D01*
X33298504Y-35687000D01*
X33291230Y-35617794D01*
X33279232Y-35503635D01*
X33279232Y-35503633D01*
X33278542Y-35497072D01*
X33219527Y-35315444D01*
X33124040Y-35150056D01*
X33078744Y-35099749D01*
X33000675Y-35013045D01*
X33000674Y-35013044D01*
X32996253Y-35008134D01*
X32868831Y-34915556D01*
X32847094Y-34899763D01*
X32847093Y-34899762D01*
X32841752Y-34895882D01*
X32835724Y-34893198D01*
X32835722Y-34893197D01*
X32673319Y-34820891D01*
X32673318Y-34820891D01*
X32667288Y-34818206D01*
X32554721Y-34794279D01*
X32486944Y-34779872D01*
X32486939Y-34779872D01*
X32480487Y-34778500D01*
X32289513Y-34778500D01*
X32283061Y-34779872D01*
X32283056Y-34779872D01*
X32215279Y-34794279D01*
X32102712Y-34818206D01*
X32096682Y-34820891D01*
X32096681Y-34820891D01*
X31934278Y-34893197D01*
X31934276Y-34893198D01*
X31928248Y-34895882D01*
X31922907Y-34899762D01*
X31922906Y-34899763D01*
X31901169Y-34915556D01*
X31773747Y-35008134D01*
X31769326Y-35013044D01*
X31769325Y-35013045D01*
X31691257Y-35099749D01*
X31645960Y-35150056D01*
X31550473Y-35315444D01*
X31491458Y-35497072D01*
X31490768Y-35503633D01*
X31490768Y-35503635D01*
X31478770Y-35617794D01*
X31471496Y-35687000D01*
X508000Y-35687000D01*
X508000Y-33401000D01*
X4674496Y-33401000D01*
X4677227Y-33426988D01*
X4689894Y-33547500D01*
X4694458Y-33590928D01*
X4753473Y-33772556D01*
X4848960Y-33937944D01*
X4853378Y-33942851D01*
X4853379Y-33942852D01*
X4940600Y-34039721D01*
X4976747Y-34079866D01*
X5075843Y-34151864D01*
X5112820Y-34178729D01*
X5131248Y-34192118D01*
X5137276Y-34194802D01*
X5137278Y-34194803D01*
X5209756Y-34227072D01*
X5305712Y-34269794D01*
X5399113Y-34289647D01*
X5486056Y-34308128D01*
X5486061Y-34308128D01*
X5492513Y-34309500D01*
X5683487Y-34309500D01*
X5689939Y-34308128D01*
X5689944Y-34308128D01*
X5776887Y-34289647D01*
X5870288Y-34269794D01*
X5966244Y-34227072D01*
X6038722Y-34194803D01*
X6038724Y-34194802D01*
X6044752Y-34192118D01*
X6063181Y-34178729D01*
X6084830Y-34163000D01*
X9500496Y-34163000D01*
X9501186Y-34169565D01*
X9518863Y-34337749D01*
X9520458Y-34352928D01*
X9579473Y-34534556D01*
X9582776Y-34540278D01*
X9582777Y-34540279D01*
X9588716Y-34550565D01*
X9674960Y-34699944D01*
X9679378Y-34704851D01*
X9679379Y-34704852D01*
X9780208Y-34816834D01*
X9802747Y-34841866D01*
X9957248Y-34954118D01*
X9963276Y-34956802D01*
X9963278Y-34956803D01*
X10125681Y-35029109D01*
X10131712Y-35031794D01*
X10225113Y-35051647D01*
X10312056Y-35070128D01*
X10312061Y-35070128D01*
X10318513Y-35071500D01*
X10509487Y-35071500D01*
X10515939Y-35070128D01*
X10515944Y-35070128D01*
X10602887Y-35051647D01*
X10696288Y-35031794D01*
X10702319Y-35029109D01*
X10864722Y-34956803D01*
X10864724Y-34956802D01*
X10870752Y-34954118D01*
X11025253Y-34841866D01*
X11047792Y-34816834D01*
X11148621Y-34704852D01*
X11148622Y-34704851D01*
X11153040Y-34699944D01*
X11239284Y-34550565D01*
X11245223Y-34540279D01*
X11245224Y-34540278D01*
X11248527Y-34534556D01*
X11248560Y-34534454D01*
X11292979Y-34482196D01*
X11360906Y-34461547D01*
X11413353Y-34472434D01*
X11522677Y-34521108D01*
X11522685Y-34521111D01*
X11528712Y-34523794D01*
X11622113Y-34543647D01*
X11709056Y-34562128D01*
X11709061Y-34562128D01*
X11715513Y-34563500D01*
X11906487Y-34563500D01*
X11912939Y-34562128D01*
X11912944Y-34562128D01*
X11999887Y-34543647D01*
X12093288Y-34523794D01*
X12139624Y-34503164D01*
X12261722Y-34448803D01*
X12261724Y-34448802D01*
X12267752Y-34446118D01*
X12298794Y-34423565D01*
X12307830Y-34417000D01*
X19787496Y-34417000D01*
X19788186Y-34423565D01*
X19802894Y-34563500D01*
X19807458Y-34606928D01*
X19866473Y-34788556D01*
X19961960Y-34953944D01*
X19966378Y-34958851D01*
X19966379Y-34958852D01*
X20010753Y-35008134D01*
X20089747Y-35095866D01*
X20244248Y-35208118D01*
X20250276Y-35210802D01*
X20250278Y-35210803D01*
X20399086Y-35277056D01*
X20418712Y-35285794D01*
X20510612Y-35305328D01*
X20599056Y-35324128D01*
X20599061Y-35324128D01*
X20605513Y-35325500D01*
X20796487Y-35325500D01*
X20802939Y-35324128D01*
X20802944Y-35324128D01*
X20891388Y-35305328D01*
X20983288Y-35285794D01*
X21002914Y-35277056D01*
X21151722Y-35210803D01*
X21151724Y-35210802D01*
X21157752Y-35208118D01*
X21312253Y-35095866D01*
X21391247Y-35008134D01*
X21435621Y-34958852D01*
X21435622Y-34958851D01*
X21440040Y-34953944D01*
X21535527Y-34788556D01*
X21594542Y-34606928D01*
X21599107Y-34563500D01*
X21613814Y-34423565D01*
X21614504Y-34417000D01*
X21607080Y-34346365D01*
X21595232Y-34233635D01*
X21595232Y-34233633D01*
X21594542Y-34227072D01*
X21535527Y-34045444D01*
X21506444Y-33995070D01*
X21443341Y-33885774D01*
X21440040Y-33880056D01*
X21414064Y-33851206D01*
X21316675Y-33743045D01*
X21316674Y-33743044D01*
X21312253Y-33738134D01*
X21197829Y-33655000D01*
X29566496Y-33655000D01*
X29567186Y-33661565D01*
X29577192Y-33756763D01*
X29586458Y-33844928D01*
X29645473Y-34026556D01*
X29740960Y-34191944D01*
X29745378Y-34196851D01*
X29745379Y-34196852D01*
X29772589Y-34227072D01*
X29868747Y-34333866D01*
X29960966Y-34400867D01*
X29992207Y-34423565D01*
X30023248Y-34446118D01*
X30029276Y-34448802D01*
X30029278Y-34448803D01*
X30151376Y-34503164D01*
X30197712Y-34523794D01*
X30291113Y-34543647D01*
X30378056Y-34562128D01*
X30378061Y-34562128D01*
X30384513Y-34563500D01*
X30575487Y-34563500D01*
X30581939Y-34562128D01*
X30581944Y-34562128D01*
X30668887Y-34543647D01*
X30762288Y-34523794D01*
X30808624Y-34503164D01*
X30930722Y-34448803D01*
X30930724Y-34448802D01*
X30936752Y-34446118D01*
X30967794Y-34423565D01*
X30999034Y-34400867D01*
X31091253Y-34333866D01*
X31187411Y-34227072D01*
X31214621Y-34196852D01*
X31214622Y-34196851D01*
X31219040Y-34191944D01*
X31314527Y-34026556D01*
X31373542Y-33844928D01*
X31382809Y-33756763D01*
X31392814Y-33661565D01*
X31393504Y-33655000D01*
X31391599Y-33636872D01*
X31374232Y-33471635D01*
X31374232Y-33471633D01*
X31373542Y-33465072D01*
X31314527Y-33283444D01*
X31307962Y-33272072D01*
X31222341Y-33123774D01*
X31219040Y-33118056D01*
X31159225Y-33051624D01*
X31095675Y-32981045D01*
X31095674Y-32981044D01*
X31091253Y-32976134D01*
X30950907Y-32874166D01*
X30942094Y-32867763D01*
X30942093Y-32867762D01*
X30936752Y-32863882D01*
X30930724Y-32861198D01*
X30930722Y-32861197D01*
X30768319Y-32788891D01*
X30768318Y-32788891D01*
X30762288Y-32786206D01*
X30668888Y-32766353D01*
X30581944Y-32747872D01*
X30581939Y-32747872D01*
X30575487Y-32746500D01*
X30384513Y-32746500D01*
X30378061Y-32747872D01*
X30378056Y-32747872D01*
X30291112Y-32766353D01*
X30197712Y-32786206D01*
X30191682Y-32788891D01*
X30191681Y-32788891D01*
X30029278Y-32861197D01*
X30029276Y-32861198D01*
X30023248Y-32863882D01*
X30017907Y-32867762D01*
X30017906Y-32867763D01*
X30009093Y-32874166D01*
X29868747Y-32976134D01*
X29864326Y-32981044D01*
X29864325Y-32981045D01*
X29800776Y-33051624D01*
X29740960Y-33118056D01*
X29737659Y-33123774D01*
X29652039Y-33272072D01*
X29645473Y-33283444D01*
X29586458Y-33465072D01*
X29585768Y-33471633D01*
X29585768Y-33471635D01*
X29568401Y-33636872D01*
X29566496Y-33655000D01*
X21197829Y-33655000D01*
X21163094Y-33629763D01*
X21163093Y-33629762D01*
X21157752Y-33625882D01*
X21151724Y-33623198D01*
X21151722Y-33623197D01*
X20989319Y-33550891D01*
X20989318Y-33550891D01*
X20983288Y-33548206D01*
X20889888Y-33528353D01*
X20802944Y-33509872D01*
X20802939Y-33509872D01*
X20796487Y-33508500D01*
X20605513Y-33508500D01*
X20599061Y-33509872D01*
X20599056Y-33509872D01*
X20512112Y-33528353D01*
X20418712Y-33548206D01*
X20412682Y-33550891D01*
X20412681Y-33550891D01*
X20250278Y-33623197D01*
X20250276Y-33623198D01*
X20244248Y-33625882D01*
X20238907Y-33629762D01*
X20238906Y-33629763D01*
X20204171Y-33655000D01*
X20089747Y-33738134D01*
X20085326Y-33743044D01*
X20085325Y-33743045D01*
X19987937Y-33851206D01*
X19961960Y-33880056D01*
X19958659Y-33885774D01*
X19895557Y-33995070D01*
X19866473Y-34045444D01*
X19807458Y-34227072D01*
X19806768Y-34233633D01*
X19806768Y-34233635D01*
X19794920Y-34346365D01*
X19787496Y-34417000D01*
X12307830Y-34417000D01*
X12330034Y-34400867D01*
X12422253Y-34333866D01*
X12518411Y-34227072D01*
X12545621Y-34196852D01*
X12545622Y-34196851D01*
X12550040Y-34191944D01*
X12645527Y-34026556D01*
X12704542Y-33844928D01*
X12713809Y-33756763D01*
X12723814Y-33661565D01*
X12724504Y-33655000D01*
X12722599Y-33636872D01*
X12705232Y-33471635D01*
X12705232Y-33471633D01*
X12704542Y-33465072D01*
X12645527Y-33283444D01*
X12638962Y-33272072D01*
X12553341Y-33123774D01*
X12550040Y-33118056D01*
X12490225Y-33051624D01*
X12426675Y-32981045D01*
X12426674Y-32981044D01*
X12422253Y-32976134D01*
X12281907Y-32874166D01*
X12273094Y-32867763D01*
X12273093Y-32867762D01*
X12267752Y-32863882D01*
X12261724Y-32861198D01*
X12261722Y-32861197D01*
X12099319Y-32788891D01*
X12099318Y-32788891D01*
X12093288Y-32786206D01*
X11999888Y-32766353D01*
X11912944Y-32747872D01*
X11912939Y-32747872D01*
X11906487Y-32746500D01*
X11715513Y-32746500D01*
X11709061Y-32747872D01*
X11709056Y-32747872D01*
X11622112Y-32766353D01*
X11528712Y-32786206D01*
X11522682Y-32788891D01*
X11522681Y-32788891D01*
X11360278Y-32861197D01*
X11360276Y-32861198D01*
X11354248Y-32863882D01*
X11348907Y-32867762D01*
X11348906Y-32867763D01*
X11340093Y-32874166D01*
X11199747Y-32976134D01*
X11195326Y-32981044D01*
X11195325Y-32981045D01*
X11131776Y-33051624D01*
X11071960Y-33118056D01*
X11068659Y-33123774D01*
X10983039Y-33272072D01*
X10976473Y-33283444D01*
X10976440Y-33283546D01*
X10932021Y-33335804D01*
X10864094Y-33356453D01*
X10811647Y-33345566D01*
X10702323Y-33296892D01*
X10702315Y-33296889D01*
X10696288Y-33294206D01*
X10602888Y-33274353D01*
X10515944Y-33255872D01*
X10515939Y-33255872D01*
X10509487Y-33254500D01*
X10318513Y-33254500D01*
X10312061Y-33255872D01*
X10312056Y-33255872D01*
X10225112Y-33274353D01*
X10131712Y-33294206D01*
X10125682Y-33296891D01*
X10125681Y-33296891D01*
X9963278Y-33369197D01*
X9963276Y-33369198D01*
X9957248Y-33371882D01*
X9951907Y-33375762D01*
X9951906Y-33375763D01*
X9917171Y-33401000D01*
X9802747Y-33484134D01*
X9798326Y-33489044D01*
X9798325Y-33489045D01*
X9700937Y-33597206D01*
X9674960Y-33626056D01*
X9579473Y-33791444D01*
X9520458Y-33973072D01*
X9519768Y-33979633D01*
X9519768Y-33979635D01*
X9501186Y-34156435D01*
X9500496Y-34163000D01*
X6084830Y-34163000D01*
X6100157Y-34151864D01*
X6199253Y-34079866D01*
X6235400Y-34039721D01*
X6322621Y-33942852D01*
X6322622Y-33942851D01*
X6327040Y-33937944D01*
X6422527Y-33772556D01*
X6481542Y-33590928D01*
X6486107Y-33547500D01*
X6498773Y-33426988D01*
X6501504Y-33401000D01*
X6494652Y-33335804D01*
X6482232Y-33217635D01*
X6482232Y-33217633D01*
X6481542Y-33211072D01*
X6422527Y-33029444D01*
X6327040Y-32864056D01*
X6322580Y-32859102D01*
X6203675Y-32727045D01*
X6203674Y-32727044D01*
X6199253Y-32722134D01*
X6084829Y-32639000D01*
X6050094Y-32613763D01*
X6050093Y-32613762D01*
X6044752Y-32609882D01*
X6038724Y-32607198D01*
X6038722Y-32607197D01*
X5876319Y-32534891D01*
X5876318Y-32534891D01*
X5870288Y-32532206D01*
X5776888Y-32512353D01*
X5689944Y-32493872D01*
X5689939Y-32493872D01*
X5683487Y-32492500D01*
X5492513Y-32492500D01*
X5486061Y-32493872D01*
X5486056Y-32493872D01*
X5399112Y-32512353D01*
X5305712Y-32532206D01*
X5299682Y-32534891D01*
X5299681Y-32534891D01*
X5137278Y-32607197D01*
X5137276Y-32607198D01*
X5131248Y-32609882D01*
X5125907Y-32613762D01*
X5125906Y-32613763D01*
X5091171Y-32639000D01*
X4976747Y-32722134D01*
X4972326Y-32727044D01*
X4972325Y-32727045D01*
X4853421Y-32859102D01*
X4848960Y-32864056D01*
X4753473Y-33029444D01*
X4694458Y-33211072D01*
X4693768Y-33217633D01*
X4693768Y-33217635D01*
X4681348Y-33335804D01*
X4674496Y-33401000D01*
X508000Y-33401000D01*
X508000Y-31755669D01*
X2198001Y-31755669D01*
X2198371Y-31762490D01*
X2203895Y-31813352D01*
X2207521Y-31828604D01*
X2252676Y-31949054D01*
X2261214Y-31964649D01*
X2337715Y-32066724D01*
X2350276Y-32079285D01*
X2452351Y-32155786D01*
X2467946Y-32164324D01*
X2588394Y-32209478D01*
X2603649Y-32213105D01*
X2654514Y-32218631D01*
X2661328Y-32219000D01*
X3283885Y-32219000D01*
X3299124Y-32214525D01*
X3300329Y-32213135D01*
X3302000Y-32205452D01*
X3302000Y-32200884D01*
X3810000Y-32200884D01*
X3814475Y-32216123D01*
X3815865Y-32217328D01*
X3823548Y-32218999D01*
X4450669Y-32218999D01*
X4457490Y-32218629D01*
X4508352Y-32213105D01*
X4523604Y-32209479D01*
X4644054Y-32164324D01*
X4659649Y-32155786D01*
X4761724Y-32079285D01*
X4774285Y-32066724D01*
X4850786Y-31964649D01*
X4859324Y-31949054D01*
X4886336Y-31877000D01*
X15977496Y-31877000D01*
X15978186Y-31883565D01*
X15985826Y-31956251D01*
X15997458Y-32066928D01*
X16056473Y-32248556D01*
X16151960Y-32413944D01*
X16156378Y-32418851D01*
X16156379Y-32418852D01*
X16257208Y-32530834D01*
X16279747Y-32555866D01*
X16292278Y-32564970D01*
X16419122Y-32657128D01*
X16434248Y-32668118D01*
X16440276Y-32670802D01*
X16440278Y-32670803D01*
X16602681Y-32743109D01*
X16608712Y-32745794D01*
X16702112Y-32765647D01*
X16789056Y-32784128D01*
X16789061Y-32784128D01*
X16795513Y-32785500D01*
X16986487Y-32785500D01*
X16992939Y-32784128D01*
X16992944Y-32784128D01*
X17079888Y-32765647D01*
X17173288Y-32745794D01*
X17179319Y-32743109D01*
X17341722Y-32670803D01*
X17341724Y-32670802D01*
X17347752Y-32668118D01*
X17362879Y-32657128D01*
X17489722Y-32564970D01*
X17502253Y-32555866D01*
X17524792Y-32530834D01*
X17625621Y-32418852D01*
X17625622Y-32418851D01*
X17630040Y-32413944D01*
X17725527Y-32248556D01*
X17784542Y-32066928D01*
X17796175Y-31956251D01*
X17803814Y-31883565D01*
X17804504Y-31877000D01*
X36043496Y-31877000D01*
X36044186Y-31883565D01*
X36051826Y-31956251D01*
X36063458Y-32066928D01*
X36122473Y-32248556D01*
X36217960Y-32413944D01*
X36222378Y-32418851D01*
X36222379Y-32418852D01*
X36323208Y-32530834D01*
X36345747Y-32555866D01*
X36358278Y-32564970D01*
X36485122Y-32657128D01*
X36500248Y-32668118D01*
X36506276Y-32670802D01*
X36506278Y-32670803D01*
X36668681Y-32743109D01*
X36674712Y-32745794D01*
X36768112Y-32765647D01*
X36855056Y-32784128D01*
X36855061Y-32784128D01*
X36861513Y-32785500D01*
X37052487Y-32785500D01*
X37058939Y-32784128D01*
X37058944Y-32784128D01*
X37145888Y-32765647D01*
X37239288Y-32745794D01*
X37245319Y-32743109D01*
X37407722Y-32670803D01*
X37407724Y-32670802D01*
X37413752Y-32668118D01*
X37428879Y-32657128D01*
X37453830Y-32639000D01*
X40996496Y-32639000D01*
X40997186Y-32645565D01*
X41013187Y-32797803D01*
X41016458Y-32828928D01*
X41075473Y-33010556D01*
X41170960Y-33175944D01*
X41175378Y-33180851D01*
X41175379Y-33180852D01*
X41202589Y-33211072D01*
X41298747Y-33317866D01*
X41453248Y-33430118D01*
X41459276Y-33432802D01*
X41459278Y-33432803D01*
X41613371Y-33501409D01*
X41627712Y-33507794D01*
X41721112Y-33527647D01*
X41808056Y-33546128D01*
X41808061Y-33546128D01*
X41814513Y-33547500D01*
X41856144Y-33547500D01*
X41924265Y-33567502D01*
X41970758Y-33621158D01*
X41980862Y-33691432D01*
X41951368Y-33756012D01*
X41930205Y-33775436D01*
X41806747Y-33865134D01*
X41678960Y-34007056D01*
X41636923Y-34079866D01*
X41588926Y-34163000D01*
X41583473Y-34172444D01*
X41524458Y-34354072D01*
X41523768Y-34360633D01*
X41523768Y-34360635D01*
X41506149Y-34528271D01*
X41504496Y-34544000D01*
X41505186Y-34550565D01*
X41506546Y-34563500D01*
X41524458Y-34733928D01*
X41583473Y-34915556D01*
X41678960Y-35080944D01*
X41691338Y-35094691D01*
X41722054Y-35158697D01*
X41713290Y-35229150D01*
X41691339Y-35263307D01*
X41678960Y-35277056D01*
X41583473Y-35442444D01*
X41524458Y-35624072D01*
X41504496Y-35814000D01*
X41505186Y-35820565D01*
X41520618Y-35967389D01*
X41524458Y-36003928D01*
X41583473Y-36185556D01*
X41678960Y-36350944D01*
X41683378Y-36355851D01*
X41683379Y-36355852D01*
X41727753Y-36405134D01*
X41806747Y-36492866D01*
X41874578Y-36542148D01*
X41946122Y-36594128D01*
X41961248Y-36605118D01*
X41967276Y-36607802D01*
X41967278Y-36607803D01*
X42129681Y-36680109D01*
X42135712Y-36682794D01*
X42229113Y-36702647D01*
X42316056Y-36721128D01*
X42316061Y-36721128D01*
X42322513Y-36722500D01*
X42513487Y-36722500D01*
X42519939Y-36721128D01*
X42519944Y-36721128D01*
X42606887Y-36702647D01*
X42700288Y-36682794D01*
X42706319Y-36680109D01*
X42868722Y-36607803D01*
X42868724Y-36607802D01*
X42874752Y-36605118D01*
X42889879Y-36594128D01*
X42961422Y-36542148D01*
X43029253Y-36492866D01*
X43108247Y-36405134D01*
X43152621Y-36355852D01*
X43152622Y-36355851D01*
X43157040Y-36350944D01*
X43252527Y-36185556D01*
X43311542Y-36003928D01*
X43315383Y-35967389D01*
X43330814Y-35820565D01*
X43331504Y-35814000D01*
X43311542Y-35624072D01*
X43252527Y-35442444D01*
X43157040Y-35277056D01*
X43144662Y-35263309D01*
X43113946Y-35199303D01*
X43122710Y-35128850D01*
X43144661Y-35094693D01*
X43157040Y-35080944D01*
X43252527Y-34915556D01*
X43311542Y-34733928D01*
X43329455Y-34563500D01*
X43330814Y-34550565D01*
X43331504Y-34544000D01*
X43329851Y-34528271D01*
X43312232Y-34360635D01*
X43312232Y-34360633D01*
X43311542Y-34354072D01*
X43252527Y-34172444D01*
X43247075Y-34163000D01*
X43199077Y-34079866D01*
X43157040Y-34007056D01*
X43150687Y-34000000D01*
X54886526Y-34000000D01*
X54906391Y-34252403D01*
X54907545Y-34257210D01*
X54907546Y-34257216D01*
X54928949Y-34346365D01*
X54965495Y-34498591D01*
X54967388Y-34503162D01*
X54967389Y-34503164D01*
X55046530Y-34694226D01*
X55062384Y-34732502D01*
X55194672Y-34948376D01*
X55359102Y-35140898D01*
X55551624Y-35305328D01*
X55767498Y-35437616D01*
X55772068Y-35439509D01*
X55772072Y-35439511D01*
X55926882Y-35503635D01*
X56001409Y-35534505D01*
X56086032Y-35554821D01*
X56242784Y-35592454D01*
X56242790Y-35592455D01*
X56247597Y-35593609D01*
X56347416Y-35601465D01*
X56434345Y-35608307D01*
X56434352Y-35608307D01*
X56436801Y-35608500D01*
X56563199Y-35608500D01*
X56565648Y-35608307D01*
X56565655Y-35608307D01*
X56652584Y-35601465D01*
X56752403Y-35593609D01*
X56757210Y-35592455D01*
X56757216Y-35592454D01*
X56913968Y-35554821D01*
X56998591Y-35534505D01*
X57073118Y-35503635D01*
X57227928Y-35439511D01*
X57227932Y-35439509D01*
X57232502Y-35437616D01*
X57448376Y-35305328D01*
X57640898Y-35140898D01*
X57805328Y-34948376D01*
X57937616Y-34732502D01*
X57953471Y-34694226D01*
X58032611Y-34503164D01*
X58032612Y-34503162D01*
X58034505Y-34498591D01*
X58071051Y-34346365D01*
X58092454Y-34257216D01*
X58092455Y-34257210D01*
X58093609Y-34252403D01*
X58113474Y-34000000D01*
X58093609Y-33747597D01*
X58091338Y-33738134D01*
X58050372Y-33567502D01*
X58034505Y-33501409D01*
X58029384Y-33489045D01*
X57939511Y-33272072D01*
X57939509Y-33272068D01*
X57937616Y-33267498D01*
X57805328Y-33051624D01*
X57640898Y-32859102D01*
X57448376Y-32694672D01*
X57232502Y-32562384D01*
X57227932Y-32560491D01*
X57227928Y-32560489D01*
X57003164Y-32467389D01*
X57003162Y-32467388D01*
X56998591Y-32465495D01*
X56871532Y-32434991D01*
X56757216Y-32407546D01*
X56757210Y-32407545D01*
X56752403Y-32406391D01*
X56652584Y-32398535D01*
X56565655Y-32391693D01*
X56565648Y-32391693D01*
X56563199Y-32391500D01*
X56436801Y-32391500D01*
X56434352Y-32391693D01*
X56434345Y-32391693D01*
X56347416Y-32398535D01*
X56247597Y-32406391D01*
X56242790Y-32407545D01*
X56242784Y-32407546D01*
X56128468Y-32434991D01*
X56001409Y-32465495D01*
X55996838Y-32467388D01*
X55996836Y-32467389D01*
X55772072Y-32560489D01*
X55772068Y-32560491D01*
X55767498Y-32562384D01*
X55551624Y-32694672D01*
X55359102Y-32859102D01*
X55194672Y-33051624D01*
X55062384Y-33267498D01*
X55060491Y-33272068D01*
X55060489Y-33272072D01*
X54970616Y-33489045D01*
X54965495Y-33501409D01*
X54949628Y-33567502D01*
X54908663Y-33738134D01*
X54906391Y-33747597D01*
X54886526Y-34000000D01*
X43150687Y-34000000D01*
X43029253Y-33865134D01*
X42901831Y-33772556D01*
X42880094Y-33756763D01*
X42880093Y-33756762D01*
X42874752Y-33752882D01*
X42868724Y-33750198D01*
X42868722Y-33750197D01*
X42706319Y-33677891D01*
X42706318Y-33677891D01*
X42700288Y-33675206D01*
X42605227Y-33655000D01*
X42519944Y-33636872D01*
X42519939Y-33636872D01*
X42513487Y-33635500D01*
X42471856Y-33635500D01*
X42403735Y-33615498D01*
X42357242Y-33561842D01*
X42347138Y-33491568D01*
X42376632Y-33426988D01*
X42397795Y-33407564D01*
X42483127Y-33345566D01*
X42521253Y-33317866D01*
X42617411Y-33211072D01*
X42644621Y-33180852D01*
X42644622Y-33180851D01*
X42649040Y-33175944D01*
X42744527Y-33010556D01*
X42803542Y-32828928D01*
X42806814Y-32797803D01*
X42822814Y-32645565D01*
X42823504Y-32639000D01*
X42822814Y-32632435D01*
X42816680Y-32574070D01*
X42829453Y-32504232D01*
X42877955Y-32452385D01*
X42946788Y-32434991D01*
X43014097Y-32457573D01*
X43051107Y-32497898D01*
X43075960Y-32540944D01*
X43080378Y-32545851D01*
X43080379Y-32545852D01*
X43097593Y-32564970D01*
X43203747Y-32682866D01*
X43224416Y-32697883D01*
X43345982Y-32786206D01*
X43358248Y-32795118D01*
X43364276Y-32797802D01*
X43364278Y-32797803D01*
X43510395Y-32862858D01*
X43532712Y-32872794D01*
X43626112Y-32892647D01*
X43713056Y-32911128D01*
X43713061Y-32911128D01*
X43719513Y-32912500D01*
X43910487Y-32912500D01*
X43916939Y-32911128D01*
X43916944Y-32911128D01*
X44003888Y-32892647D01*
X44097288Y-32872794D01*
X44119605Y-32862858D01*
X44265722Y-32797803D01*
X44265724Y-32797802D01*
X44271752Y-32795118D01*
X44284019Y-32786206D01*
X44405584Y-32697883D01*
X44426253Y-32682866D01*
X44532407Y-32564970D01*
X44549621Y-32545852D01*
X44549622Y-32545851D01*
X44554040Y-32540944D01*
X44649527Y-32375556D01*
X44708542Y-32193928D01*
X44709436Y-32185427D01*
X44727814Y-32010565D01*
X44728504Y-32004000D01*
X44714466Y-31870435D01*
X44709232Y-31820635D01*
X44709232Y-31820633D01*
X44708542Y-31814072D01*
X44687724Y-31750000D01*
X49251496Y-31750000D01*
X49252186Y-31756565D01*
X49262192Y-31851763D01*
X49271458Y-31939928D01*
X49330473Y-32121556D01*
X49333776Y-32127278D01*
X49333777Y-32127279D01*
X49350236Y-32155786D01*
X49425960Y-32286944D01*
X49430378Y-32291851D01*
X49430379Y-32291852D01*
X49520276Y-32391693D01*
X49553747Y-32428866D01*
X49606769Y-32467389D01*
X49700143Y-32535229D01*
X49708248Y-32541118D01*
X49714276Y-32543802D01*
X49714278Y-32543803D01*
X49862695Y-32609882D01*
X49882712Y-32618794D01*
X49946888Y-32632435D01*
X50063056Y-32657128D01*
X50063061Y-32657128D01*
X50069513Y-32658500D01*
X50260487Y-32658500D01*
X50266939Y-32657128D01*
X50266944Y-32657128D01*
X50383112Y-32632435D01*
X50447288Y-32618794D01*
X50467305Y-32609882D01*
X50615722Y-32543803D01*
X50615724Y-32543802D01*
X50621752Y-32541118D01*
X50629858Y-32535229D01*
X50723231Y-32467389D01*
X50776253Y-32428866D01*
X50809724Y-32391693D01*
X50899621Y-32291852D01*
X50899622Y-32291851D01*
X50904040Y-32286944D01*
X50979764Y-32155786D01*
X50996223Y-32127279D01*
X50996224Y-32127278D01*
X50999527Y-32121556D01*
X51058542Y-31939928D01*
X51067809Y-31851763D01*
X51077814Y-31756565D01*
X51078504Y-31750000D01*
X51076599Y-31731872D01*
X51070913Y-31677773D01*
X51083685Y-31607935D01*
X51132187Y-31556088D01*
X51152356Y-31546992D01*
X51153288Y-31546794D01*
X51259016Y-31499721D01*
X51321722Y-31471803D01*
X51321724Y-31471802D01*
X51327752Y-31469118D01*
X51337346Y-31462148D01*
X51443903Y-31384729D01*
X51482253Y-31356866D01*
X51610040Y-31214944D01*
X51679001Y-31095500D01*
X51702223Y-31055279D01*
X51702224Y-31055278D01*
X51705527Y-31049556D01*
X51764542Y-30867928D01*
X51765248Y-30861217D01*
X51783814Y-30684565D01*
X51784504Y-30678000D01*
X51775138Y-30588885D01*
X51765232Y-30494635D01*
X51765232Y-30494633D01*
X51764542Y-30488072D01*
X51705527Y-30306444D01*
X51610040Y-30141056D01*
X51482253Y-29999134D01*
X51327752Y-29886882D01*
X51321724Y-29884198D01*
X51321722Y-29884197D01*
X51159319Y-29811891D01*
X51159318Y-29811891D01*
X51153288Y-29809206D01*
X51059888Y-29789353D01*
X50972944Y-29770872D01*
X50972939Y-29770872D01*
X50966487Y-29769500D01*
X50775513Y-29769500D01*
X50769061Y-29770872D01*
X50769056Y-29770872D01*
X50682112Y-29789353D01*
X50588712Y-29809206D01*
X50582682Y-29811891D01*
X50582681Y-29811891D01*
X50420278Y-29884197D01*
X50420276Y-29884198D01*
X50414248Y-29886882D01*
X50259747Y-29999134D01*
X50131960Y-30141056D01*
X50036473Y-30306444D01*
X49977458Y-30488072D01*
X49976768Y-30494633D01*
X49976768Y-30494635D01*
X49966862Y-30588885D01*
X49957496Y-30678000D01*
X49958186Y-30684565D01*
X49958186Y-30684566D01*
X49965087Y-30750227D01*
X49952315Y-30820065D01*
X49903813Y-30871912D01*
X49883644Y-30881008D01*
X49882712Y-30881206D01*
X49795480Y-30920044D01*
X49714278Y-30956197D01*
X49714276Y-30956198D01*
X49708248Y-30958882D01*
X49702907Y-30962762D01*
X49702906Y-30962763D01*
X49652843Y-30999136D01*
X49553747Y-31071134D01*
X49549326Y-31076044D01*
X49549325Y-31076045D01*
X49510221Y-31119475D01*
X49425960Y-31213056D01*
X49330473Y-31378444D01*
X49271458Y-31560072D01*
X49270768Y-31566633D01*
X49270768Y-31566635D01*
X49253401Y-31731872D01*
X49251496Y-31750000D01*
X44687724Y-31750000D01*
X44649527Y-31632444D01*
X44554040Y-31467056D01*
X44474254Y-31378444D01*
X44430675Y-31330045D01*
X44430674Y-31330044D01*
X44426253Y-31325134D01*
X44285907Y-31223166D01*
X44277094Y-31216763D01*
X44277093Y-31216762D01*
X44271752Y-31212882D01*
X44265724Y-31210198D01*
X44265722Y-31210197D01*
X44103319Y-31137891D01*
X44103318Y-31137891D01*
X44097288Y-31135206D01*
X44002227Y-31115000D01*
X43916944Y-31096872D01*
X43916939Y-31096872D01*
X43910487Y-31095500D01*
X43719513Y-31095500D01*
X43713061Y-31096872D01*
X43713056Y-31096872D01*
X43627773Y-31115000D01*
X43532712Y-31135206D01*
X43526682Y-31137891D01*
X43526681Y-31137891D01*
X43364278Y-31210197D01*
X43364276Y-31210198D01*
X43358248Y-31212882D01*
X43352907Y-31216762D01*
X43352906Y-31216763D01*
X43344093Y-31223166D01*
X43203747Y-31325134D01*
X43199326Y-31330044D01*
X43199325Y-31330045D01*
X43155747Y-31378444D01*
X43075960Y-31467056D01*
X42980473Y-31632444D01*
X42921458Y-31814072D01*
X42920768Y-31820633D01*
X42920768Y-31820635D01*
X42915534Y-31870435D01*
X42901496Y-32004000D01*
X42902186Y-32010565D01*
X42908320Y-32068930D01*
X42895547Y-32138768D01*
X42847045Y-32190615D01*
X42778212Y-32208009D01*
X42710903Y-32185427D01*
X42673893Y-32145102D01*
X42649040Y-32102056D01*
X42623064Y-32073206D01*
X42525675Y-31965045D01*
X42525674Y-31965044D01*
X42521253Y-31960134D01*
X42406829Y-31877000D01*
X42372094Y-31851763D01*
X42372093Y-31851762D01*
X42366752Y-31847882D01*
X42360724Y-31845198D01*
X42360722Y-31845197D01*
X42198319Y-31772891D01*
X42198318Y-31772891D01*
X42192288Y-31770206D01*
X42097227Y-31750000D01*
X42011944Y-31731872D01*
X42011939Y-31731872D01*
X42005487Y-31730500D01*
X41814513Y-31730500D01*
X41808061Y-31731872D01*
X41808056Y-31731872D01*
X41722773Y-31750000D01*
X41627712Y-31770206D01*
X41621682Y-31772891D01*
X41621681Y-31772891D01*
X41459278Y-31845197D01*
X41459276Y-31845198D01*
X41453248Y-31847882D01*
X41447907Y-31851762D01*
X41447906Y-31851763D01*
X41413171Y-31877000D01*
X41298747Y-31960134D01*
X41294326Y-31965044D01*
X41294325Y-31965045D01*
X41196937Y-32073206D01*
X41170960Y-32102056D01*
X41075473Y-32267444D01*
X41016458Y-32449072D01*
X41015768Y-32455633D01*
X41015768Y-32455635D01*
X40997186Y-32632435D01*
X40996496Y-32639000D01*
X37453830Y-32639000D01*
X37555722Y-32564970D01*
X37568253Y-32555866D01*
X37590792Y-32530834D01*
X37691621Y-32418852D01*
X37691622Y-32418851D01*
X37696040Y-32413944D01*
X37791527Y-32248556D01*
X37850542Y-32066928D01*
X37862175Y-31956251D01*
X37869814Y-31883565D01*
X37870504Y-31877000D01*
X37859280Y-31770206D01*
X37851232Y-31693635D01*
X37851232Y-31693633D01*
X37850542Y-31687072D01*
X37791527Y-31505444D01*
X37768314Y-31465237D01*
X37699341Y-31345774D01*
X37696040Y-31340056D01*
X37568253Y-31198134D01*
X37453829Y-31115000D01*
X37419094Y-31089763D01*
X37419093Y-31089762D01*
X37413752Y-31085882D01*
X37407724Y-31083198D01*
X37407722Y-31083197D01*
X37245319Y-31010891D01*
X37245318Y-31010891D01*
X37239288Y-31008206D01*
X37145887Y-30988353D01*
X37058944Y-30969872D01*
X37058939Y-30969872D01*
X37052487Y-30968500D01*
X36861513Y-30968500D01*
X36855061Y-30969872D01*
X36855056Y-30969872D01*
X36768113Y-30988353D01*
X36674712Y-31008206D01*
X36668682Y-31010891D01*
X36668681Y-31010891D01*
X36506278Y-31083197D01*
X36506276Y-31083198D01*
X36500248Y-31085882D01*
X36494907Y-31089762D01*
X36494906Y-31089763D01*
X36460171Y-31115000D01*
X36345747Y-31198134D01*
X36217960Y-31340056D01*
X36214659Y-31345774D01*
X36145687Y-31465237D01*
X36122473Y-31505444D01*
X36063458Y-31687072D01*
X36062768Y-31693633D01*
X36062768Y-31693635D01*
X36054720Y-31770206D01*
X36043496Y-31877000D01*
X17804504Y-31877000D01*
X17793280Y-31770206D01*
X17785232Y-31693635D01*
X17785232Y-31693633D01*
X17784542Y-31687072D01*
X17725527Y-31505444D01*
X17702314Y-31465237D01*
X17633341Y-31345774D01*
X17630040Y-31340056D01*
X17502253Y-31198134D01*
X17387829Y-31115000D01*
X17353094Y-31089763D01*
X17353093Y-31089762D01*
X17347752Y-31085882D01*
X17341724Y-31083198D01*
X17341722Y-31083197D01*
X17179319Y-31010891D01*
X17179318Y-31010891D01*
X17173288Y-31008206D01*
X17079887Y-30988353D01*
X16992944Y-30969872D01*
X16992939Y-30969872D01*
X16986487Y-30968500D01*
X16795513Y-30968500D01*
X16789061Y-30969872D01*
X16789056Y-30969872D01*
X16702113Y-30988353D01*
X16608712Y-31008206D01*
X16602682Y-31010891D01*
X16602681Y-31010891D01*
X16440278Y-31083197D01*
X16440276Y-31083198D01*
X16434248Y-31085882D01*
X16428907Y-31089762D01*
X16428906Y-31089763D01*
X16394171Y-31115000D01*
X16279747Y-31198134D01*
X16151960Y-31340056D01*
X16148659Y-31345774D01*
X16079687Y-31465237D01*
X16056473Y-31505444D01*
X15997458Y-31687072D01*
X15996768Y-31693633D01*
X15996768Y-31693635D01*
X15988720Y-31770206D01*
X15977496Y-31877000D01*
X4886336Y-31877000D01*
X4904478Y-31828606D01*
X4908105Y-31813351D01*
X4913631Y-31762486D01*
X4914000Y-31755672D01*
X4914000Y-31133115D01*
X4909525Y-31117876D01*
X4908135Y-31116671D01*
X4900452Y-31115000D01*
X3828115Y-31115000D01*
X3812876Y-31119475D01*
X3811671Y-31120865D01*
X3810000Y-31128548D01*
X3810000Y-32200884D01*
X3302000Y-32200884D01*
X3302000Y-31133115D01*
X3297525Y-31117876D01*
X3296135Y-31116671D01*
X3288452Y-31115000D01*
X2216116Y-31115000D01*
X2200877Y-31119475D01*
X2199672Y-31120865D01*
X2198001Y-31128548D01*
X2198001Y-31755669D01*
X508000Y-31755669D01*
X508000Y-28287695D01*
X2193251Y-28287695D01*
X2193548Y-28292848D01*
X2193548Y-28292851D01*
X2199011Y-28387590D01*
X2206110Y-28510715D01*
X2207247Y-28515761D01*
X2207248Y-28515767D01*
X2221436Y-28578721D01*
X2255222Y-28728639D01*
X2339266Y-28935616D01*
X2341965Y-28940020D01*
X2414118Y-29057763D01*
X2455987Y-29126088D01*
X2602250Y-29294938D01*
X2606225Y-29298238D01*
X2606231Y-29298244D01*
X2611425Y-29302556D01*
X2651059Y-29361460D01*
X2652555Y-29432441D01*
X2615439Y-29492962D01*
X2575168Y-29517480D01*
X2467946Y-29557676D01*
X2452351Y-29566214D01*
X2350276Y-29642715D01*
X2337715Y-29655276D01*
X2261214Y-29757351D01*
X2252676Y-29772946D01*
X2207522Y-29893394D01*
X2203895Y-29908649D01*
X2198369Y-29959514D01*
X2198000Y-29966328D01*
X2198000Y-30588885D01*
X2202475Y-30604124D01*
X2203865Y-30605329D01*
X2211548Y-30607000D01*
X4895884Y-30607000D01*
X4929452Y-30597144D01*
X4958343Y-30578577D01*
X5029339Y-30578578D01*
X5089065Y-30616963D01*
X5113672Y-30660536D01*
X5134473Y-30724556D01*
X5229960Y-30889944D01*
X5357747Y-31031866D01*
X5389972Y-31055279D01*
X5499982Y-31135206D01*
X5512248Y-31144118D01*
X5518276Y-31146802D01*
X5518278Y-31146803D01*
X5675412Y-31216763D01*
X5686712Y-31221794D01*
X5780112Y-31241647D01*
X5867056Y-31260128D01*
X5867061Y-31260128D01*
X5873513Y-31261500D01*
X6064487Y-31261500D01*
X6070939Y-31260128D01*
X6070944Y-31260128D01*
X6157888Y-31241647D01*
X6251288Y-31221794D01*
X6262588Y-31216763D01*
X6419722Y-31146803D01*
X6419724Y-31146802D01*
X6425752Y-31144118D01*
X6438019Y-31135206D01*
X6548028Y-31055279D01*
X6580253Y-31031866D01*
X6708040Y-30889944D01*
X6803527Y-30724556D01*
X6862542Y-30542928D01*
X6864138Y-30527749D01*
X6881814Y-30359565D01*
X6882504Y-30353000D01*
X6862542Y-30163072D01*
X6803527Y-29981444D01*
X6778747Y-29938523D01*
X6724751Y-29845000D01*
X28931496Y-29845000D01*
X28932186Y-29851565D01*
X28949369Y-30015049D01*
X28951458Y-30034928D01*
X29010473Y-30216556D01*
X29105960Y-30381944D01*
X29233747Y-30523866D01*
X29309050Y-30578577D01*
X29361884Y-30616963D01*
X29388248Y-30636118D01*
X29394276Y-30638802D01*
X29394278Y-30638803D01*
X29556681Y-30711109D01*
X29562712Y-30713794D01*
X29656113Y-30733647D01*
X29743056Y-30752128D01*
X29743061Y-30752128D01*
X29749513Y-30753500D01*
X29940487Y-30753500D01*
X29946939Y-30752128D01*
X29946944Y-30752128D01*
X30033887Y-30733647D01*
X30127288Y-30713794D01*
X30133319Y-30711109D01*
X30295722Y-30638803D01*
X30295724Y-30638802D01*
X30301752Y-30636118D01*
X30328117Y-30616963D01*
X30380950Y-30578577D01*
X30456253Y-30523866D01*
X30584040Y-30381944D01*
X30679527Y-30216556D01*
X30738542Y-30034928D01*
X30738682Y-30033599D01*
X30771482Y-29972844D01*
X30833632Y-29938523D01*
X30904471Y-29943252D01*
X30961508Y-29985528D01*
X30983276Y-30033192D01*
X30983458Y-30034928D01*
X31042473Y-30216556D01*
X31137960Y-30381944D01*
X31265747Y-30523866D01*
X31341050Y-30578577D01*
X31393884Y-30616963D01*
X31420248Y-30636118D01*
X31426276Y-30638802D01*
X31426278Y-30638803D01*
X31588681Y-30711109D01*
X31594712Y-30713794D01*
X31688113Y-30733647D01*
X31775056Y-30752128D01*
X31775061Y-30752128D01*
X31781513Y-30753500D01*
X31972487Y-30753500D01*
X31978939Y-30752128D01*
X31978944Y-30752128D01*
X32065887Y-30733647D01*
X32159288Y-30713794D01*
X32165319Y-30711109D01*
X32327722Y-30638803D01*
X32327724Y-30638802D01*
X32333752Y-30636118D01*
X32360117Y-30616963D01*
X32412950Y-30578577D01*
X32488253Y-30523866D01*
X32616040Y-30381944D01*
X32711527Y-30216556D01*
X32770542Y-30034928D01*
X32772632Y-30015049D01*
X32789814Y-29851565D01*
X32790504Y-29845000D01*
X32789814Y-29838435D01*
X32771232Y-29661635D01*
X32771232Y-29661633D01*
X32770542Y-29655072D01*
X32711527Y-29473444D01*
X32616040Y-29308056D01*
X32488253Y-29166134D01*
X32333752Y-29053882D01*
X32327724Y-29051198D01*
X32327722Y-29051197D01*
X32165319Y-28978891D01*
X32165318Y-28978891D01*
X32159288Y-28976206D01*
X32064227Y-28956000D01*
X43568996Y-28956000D01*
X43569686Y-28962565D01*
X43587363Y-29130749D01*
X43588958Y-29145928D01*
X43647973Y-29327556D01*
X43651276Y-29333278D01*
X43651277Y-29333279D01*
X43667959Y-29362173D01*
X43743460Y-29492944D01*
X43747878Y-29497851D01*
X43747879Y-29497852D01*
X43831006Y-29590174D01*
X43871247Y-29634866D01*
X44025748Y-29747118D01*
X44031776Y-29749802D01*
X44031778Y-29749803D01*
X44169562Y-29811148D01*
X44200212Y-29824794D01*
X44264388Y-29838435D01*
X44380556Y-29863128D01*
X44380561Y-29863128D01*
X44387013Y-29864500D01*
X44577987Y-29864500D01*
X44584439Y-29863128D01*
X44584444Y-29863128D01*
X44700612Y-29838435D01*
X44764788Y-29824794D01*
X44795438Y-29811148D01*
X44933222Y-29749803D01*
X44933224Y-29749802D01*
X44939252Y-29747118D01*
X45093753Y-29634866D01*
X45133994Y-29590174D01*
X45217121Y-29497852D01*
X45217122Y-29497851D01*
X45221540Y-29492944D01*
X45297041Y-29362173D01*
X45313723Y-29333279D01*
X45313724Y-29333278D01*
X45317027Y-29327556D01*
X45376042Y-29145928D01*
X45377638Y-29130749D01*
X45395314Y-28962565D01*
X45396004Y-28956000D01*
X45394099Y-28937872D01*
X45376732Y-28772635D01*
X45376732Y-28772633D01*
X45376042Y-28766072D01*
X45317027Y-28584444D01*
X45221540Y-28419056D01*
X45196196Y-28390908D01*
X45098175Y-28282045D01*
X45098174Y-28282044D01*
X45093753Y-28277134D01*
X44939252Y-28164882D01*
X44933224Y-28162198D01*
X44933222Y-28162197D01*
X44770819Y-28089891D01*
X44770818Y-28089891D01*
X44764788Y-28087206D01*
X44662999Y-28065570D01*
X44584444Y-28048872D01*
X44584439Y-28048872D01*
X44577987Y-28047500D01*
X44387013Y-28047500D01*
X44380561Y-28048872D01*
X44380556Y-28048872D01*
X44302001Y-28065570D01*
X44200212Y-28087206D01*
X44194182Y-28089891D01*
X44194181Y-28089891D01*
X44031778Y-28162197D01*
X44031776Y-28162198D01*
X44025748Y-28164882D01*
X43871247Y-28277134D01*
X43866826Y-28282044D01*
X43866825Y-28282045D01*
X43768805Y-28390908D01*
X43743460Y-28419056D01*
X43647973Y-28584444D01*
X43588958Y-28766072D01*
X43588268Y-28772633D01*
X43588268Y-28772635D01*
X43570901Y-28937872D01*
X43568996Y-28956000D01*
X32064227Y-28956000D01*
X31978944Y-28937872D01*
X31978939Y-28937872D01*
X31972487Y-28936500D01*
X31781513Y-28936500D01*
X31775061Y-28937872D01*
X31775056Y-28937872D01*
X31689773Y-28956000D01*
X31594712Y-28976206D01*
X31588682Y-28978891D01*
X31588681Y-28978891D01*
X31426278Y-29051197D01*
X31426276Y-29051198D01*
X31420248Y-29053882D01*
X31265747Y-29166134D01*
X31137960Y-29308056D01*
X31042473Y-29473444D01*
X30983458Y-29655072D01*
X30983318Y-29656401D01*
X30950518Y-29717156D01*
X30888368Y-29751477D01*
X30817529Y-29746748D01*
X30760492Y-29704472D01*
X30738724Y-29656808D01*
X30738542Y-29655072D01*
X30679527Y-29473444D01*
X30584040Y-29308056D01*
X30456253Y-29166134D01*
X30301752Y-29053882D01*
X30295724Y-29051198D01*
X30295722Y-29051197D01*
X30133319Y-28978891D01*
X30133318Y-28978891D01*
X30127288Y-28976206D01*
X30032227Y-28956000D01*
X29946944Y-28937872D01*
X29946939Y-28937872D01*
X29940487Y-28936500D01*
X29749513Y-28936500D01*
X29743061Y-28937872D01*
X29743056Y-28937872D01*
X29657773Y-28956000D01*
X29562712Y-28976206D01*
X29556682Y-28978891D01*
X29556681Y-28978891D01*
X29394278Y-29051197D01*
X29394276Y-29051198D01*
X29388248Y-29053882D01*
X29233747Y-29166134D01*
X29105960Y-29308056D01*
X29010473Y-29473444D01*
X28951458Y-29655072D01*
X28950768Y-29661633D01*
X28950768Y-29661635D01*
X28932186Y-29838435D01*
X28931496Y-29845000D01*
X6724751Y-29845000D01*
X6708040Y-29816056D01*
X6607570Y-29704472D01*
X6584675Y-29679045D01*
X6584674Y-29679044D01*
X6580253Y-29674134D01*
X6481157Y-29602136D01*
X6431094Y-29565763D01*
X6431093Y-29565762D01*
X6425752Y-29561882D01*
X6419724Y-29559198D01*
X6419722Y-29559197D01*
X6257319Y-29486891D01*
X6257318Y-29486891D01*
X6251288Y-29484206D01*
X6157887Y-29464353D01*
X6070944Y-29445872D01*
X6070939Y-29445872D01*
X6064487Y-29444500D01*
X5873513Y-29444500D01*
X5867061Y-29445872D01*
X5867056Y-29445872D01*
X5780113Y-29464353D01*
X5686712Y-29484206D01*
X5680682Y-29486891D01*
X5680681Y-29486891D01*
X5518278Y-29559197D01*
X5518276Y-29559198D01*
X5512248Y-29561882D01*
X5506907Y-29565762D01*
X5506906Y-29565763D01*
X5456843Y-29602136D01*
X5357747Y-29674134D01*
X5353326Y-29679044D01*
X5353325Y-29679045D01*
X5330431Y-29704472D01*
X5229960Y-29816056D01*
X5213249Y-29845000D01*
X5143357Y-29966056D01*
X5091974Y-30015049D01*
X5022261Y-30028485D01*
X4956350Y-30002099D01*
X4915168Y-29944266D01*
X4908974Y-29916658D01*
X4908103Y-29908641D01*
X4904479Y-29893396D01*
X4859324Y-29772946D01*
X4850786Y-29757351D01*
X4774285Y-29655276D01*
X4761724Y-29642715D01*
X4659649Y-29566214D01*
X4644054Y-29557676D01*
X4533813Y-29516348D01*
X4477049Y-29473706D01*
X4452349Y-29407145D01*
X4467557Y-29337796D01*
X4489104Y-29309115D01*
X4590430Y-29208144D01*
X4590440Y-29208132D01*
X4594096Y-29204489D01*
X4649874Y-29126866D01*
X4721435Y-29027277D01*
X4724453Y-29023077D01*
X4743300Y-28984944D01*
X4821136Y-28827453D01*
X4821137Y-28827451D01*
X4823430Y-28822811D01*
X4888370Y-28609069D01*
X4909576Y-28448000D01*
X10389496Y-28448000D01*
X10390186Y-28454565D01*
X10406946Y-28614023D01*
X10409458Y-28637928D01*
X10468473Y-28819556D01*
X10563960Y-28984944D01*
X10568378Y-28989851D01*
X10568379Y-28989852D01*
X10687325Y-29121955D01*
X10691747Y-29126866D01*
X10846248Y-29239118D01*
X10852276Y-29241802D01*
X10852278Y-29241803D01*
X11013929Y-29313774D01*
X11020712Y-29316794D01*
X11114113Y-29336647D01*
X11201056Y-29355128D01*
X11201061Y-29355128D01*
X11207513Y-29356500D01*
X11398487Y-29356500D01*
X11404939Y-29355128D01*
X11404944Y-29355128D01*
X11491887Y-29336647D01*
X11585288Y-29316794D01*
X11592071Y-29313774D01*
X11753722Y-29241803D01*
X11753724Y-29241802D01*
X11759752Y-29239118D01*
X11914253Y-29126866D01*
X11918675Y-29121955D01*
X12037621Y-28989852D01*
X12037622Y-28989851D01*
X12042040Y-28984944D01*
X12137527Y-28819556D01*
X12196542Y-28637928D01*
X12199055Y-28614023D01*
X12215814Y-28454565D01*
X12216504Y-28448000D01*
X12212946Y-28414148D01*
X12197232Y-28264635D01*
X12197232Y-28264633D01*
X12196542Y-28258072D01*
X12137527Y-28076444D01*
X12132075Y-28067000D01*
X24105496Y-28067000D01*
X24106186Y-28073565D01*
X24116192Y-28168763D01*
X24125458Y-28256928D01*
X24184473Y-28438556D01*
X24187776Y-28444278D01*
X24187777Y-28444279D01*
X24193716Y-28454565D01*
X24279960Y-28603944D01*
X24284378Y-28608851D01*
X24284379Y-28608852D01*
X24289035Y-28614023D01*
X24407747Y-28745866D01*
X24562248Y-28858118D01*
X24568276Y-28860802D01*
X24568278Y-28860803D01*
X24725560Y-28930829D01*
X24736712Y-28935794D01*
X24800888Y-28949435D01*
X24917056Y-28974128D01*
X24917061Y-28974128D01*
X24923513Y-28975500D01*
X25114487Y-28975500D01*
X25120939Y-28974128D01*
X25120944Y-28974128D01*
X25237112Y-28949435D01*
X25301288Y-28935794D01*
X25312440Y-28930829D01*
X25469722Y-28860803D01*
X25469724Y-28860802D01*
X25475752Y-28858118D01*
X25630253Y-28745866D01*
X25748965Y-28614023D01*
X25753621Y-28608852D01*
X25753622Y-28608851D01*
X25758040Y-28603944D01*
X25844284Y-28454565D01*
X25850223Y-28444279D01*
X25850224Y-28444278D01*
X25853527Y-28438556D01*
X25912542Y-28256928D01*
X25921809Y-28168763D01*
X25931814Y-28073565D01*
X25932504Y-28067000D01*
X25930599Y-28048872D01*
X25913232Y-27883635D01*
X25913232Y-27883633D01*
X25912542Y-27877072D01*
X25853527Y-27695444D01*
X25845529Y-27681590D01*
X25785625Y-27577834D01*
X25758040Y-27530056D01*
X25721323Y-27489277D01*
X25634675Y-27393045D01*
X25634674Y-27393044D01*
X25630253Y-27388134D01*
X25475752Y-27275882D01*
X25469724Y-27273198D01*
X25469722Y-27273197D01*
X25307319Y-27200891D01*
X25307318Y-27200891D01*
X25301288Y-27198206D01*
X25207888Y-27178353D01*
X25120944Y-27159872D01*
X25120939Y-27159872D01*
X25114487Y-27158500D01*
X24923513Y-27158500D01*
X24917061Y-27159872D01*
X24917056Y-27159872D01*
X24830112Y-27178353D01*
X24736712Y-27198206D01*
X24730682Y-27200891D01*
X24730681Y-27200891D01*
X24568278Y-27273197D01*
X24568276Y-27273198D01*
X24562248Y-27275882D01*
X24407747Y-27388134D01*
X24403326Y-27393044D01*
X24403325Y-27393045D01*
X24316678Y-27489277D01*
X24279960Y-27530056D01*
X24252375Y-27577834D01*
X24192472Y-27681590D01*
X24184473Y-27695444D01*
X24125458Y-27877072D01*
X24124768Y-27883633D01*
X24124768Y-27883635D01*
X24107401Y-28048872D01*
X24105496Y-28067000D01*
X12132075Y-28067000D01*
X12045341Y-27916774D01*
X12042040Y-27911056D01*
X12011335Y-27876954D01*
X11918675Y-27774045D01*
X11918674Y-27774044D01*
X11914253Y-27769134D01*
X11759752Y-27656882D01*
X11753724Y-27654198D01*
X11753722Y-27654197D01*
X11591319Y-27581891D01*
X11591318Y-27581891D01*
X11585288Y-27579206D01*
X11491887Y-27559353D01*
X11404944Y-27540872D01*
X11404939Y-27540872D01*
X11398487Y-27539500D01*
X11207513Y-27539500D01*
X11201061Y-27540872D01*
X11201056Y-27540872D01*
X11114113Y-27559353D01*
X11020712Y-27579206D01*
X11014682Y-27581891D01*
X11014681Y-27581891D01*
X10852278Y-27654197D01*
X10852276Y-27654198D01*
X10846248Y-27656882D01*
X10691747Y-27769134D01*
X10687326Y-27774044D01*
X10687325Y-27774045D01*
X10594666Y-27876954D01*
X10563960Y-27911056D01*
X10560659Y-27916774D01*
X10473926Y-28067000D01*
X10468473Y-28076444D01*
X10409458Y-28258072D01*
X10408768Y-28264633D01*
X10408768Y-28264635D01*
X10393054Y-28414148D01*
X10389496Y-28448000D01*
X4909576Y-28448000D01*
X4917529Y-28387590D01*
X4919156Y-28321000D01*
X4900852Y-28098361D01*
X4846431Y-27881702D01*
X4757354Y-27676840D01*
X4693304Y-27577834D01*
X4638822Y-27493617D01*
X4638820Y-27493614D01*
X4636014Y-27489277D01*
X4485670Y-27324051D01*
X4481619Y-27320852D01*
X4481615Y-27320848D01*
X4314414Y-27188800D01*
X4314410Y-27188798D01*
X4310359Y-27185598D01*
X4269053Y-27162796D01*
X4219084Y-27112364D01*
X4204312Y-27042921D01*
X4229428Y-26976516D01*
X4256780Y-26949909D01*
X4315154Y-26908271D01*
X4435860Y-26822173D01*
X4594096Y-26664489D01*
X4653594Y-26581689D01*
X4681394Y-26543000D01*
X44679496Y-26543000D01*
X44699458Y-26732928D01*
X44758473Y-26914556D01*
X44853960Y-27079944D01*
X44858378Y-27084851D01*
X44858379Y-27084852D01*
X44949091Y-27185598D01*
X44981747Y-27221866D01*
X45052398Y-27273197D01*
X45087266Y-27298530D01*
X45136248Y-27334118D01*
X45142276Y-27336802D01*
X45142278Y-27336803D01*
X45304681Y-27409109D01*
X45310712Y-27411794D01*
X45404113Y-27431647D01*
X45491056Y-27450128D01*
X45491061Y-27450128D01*
X45497513Y-27451500D01*
X45688487Y-27451500D01*
X45694939Y-27450128D01*
X45694944Y-27450128D01*
X45781887Y-27431647D01*
X45875288Y-27411794D01*
X45881319Y-27409109D01*
X46043722Y-27336803D01*
X46043724Y-27336802D01*
X46049752Y-27334118D01*
X46098735Y-27298530D01*
X46133602Y-27273197D01*
X46204253Y-27221866D01*
X46236909Y-27185598D01*
X46327621Y-27084852D01*
X46327622Y-27084851D01*
X46332040Y-27079944D01*
X46427527Y-26914556D01*
X46486542Y-26732928D01*
X46506504Y-26543000D01*
X46499718Y-26478438D01*
X46487232Y-26359635D01*
X46487232Y-26359633D01*
X46486542Y-26353072D01*
X46427527Y-26171444D01*
X46332040Y-26006056D01*
X46286744Y-25955749D01*
X46208675Y-25869045D01*
X46208674Y-25869044D01*
X46204253Y-25864134D01*
X46049752Y-25751882D01*
X46043724Y-25749198D01*
X46043722Y-25749197D01*
X45881319Y-25676891D01*
X45881318Y-25676891D01*
X45875288Y-25674206D01*
X45762721Y-25650279D01*
X45759851Y-25649669D01*
X56046001Y-25649669D01*
X56046371Y-25656490D01*
X56051895Y-25707352D01*
X56055521Y-25722604D01*
X56100676Y-25843054D01*
X56109214Y-25858649D01*
X56185715Y-25960724D01*
X56198276Y-25973285D01*
X56300351Y-26049786D01*
X56315946Y-26058324D01*
X56436394Y-26103478D01*
X56451649Y-26107105D01*
X56502514Y-26112631D01*
X56509328Y-26113000D01*
X57131885Y-26113000D01*
X57147124Y-26108525D01*
X57148329Y-26107135D01*
X57150000Y-26099452D01*
X57150000Y-26094884D01*
X57658000Y-26094884D01*
X57662475Y-26110123D01*
X57663865Y-26111328D01*
X57671548Y-26112999D01*
X58298669Y-26112999D01*
X58305490Y-26112629D01*
X58356352Y-26107105D01*
X58371604Y-26103479D01*
X58492054Y-26058324D01*
X58507649Y-26049786D01*
X58609724Y-25973285D01*
X58622285Y-25960724D01*
X58698786Y-25858649D01*
X58707324Y-25843054D01*
X58752478Y-25722606D01*
X58756105Y-25707351D01*
X58761631Y-25656486D01*
X58762000Y-25649672D01*
X58762000Y-25027115D01*
X58757525Y-25011876D01*
X58756135Y-25010671D01*
X58748452Y-25009000D01*
X57676115Y-25009000D01*
X57660876Y-25013475D01*
X57659671Y-25014865D01*
X57658000Y-25022548D01*
X57658000Y-26094884D01*
X57150000Y-26094884D01*
X57150000Y-25027115D01*
X57145525Y-25011876D01*
X57144135Y-25010671D01*
X57136452Y-25009000D01*
X56064116Y-25009000D01*
X56048877Y-25013475D01*
X56047672Y-25014865D01*
X56046001Y-25022548D01*
X56046001Y-25649669D01*
X45759851Y-25649669D01*
X45694944Y-25635872D01*
X45694939Y-25635872D01*
X45688487Y-25634500D01*
X45497513Y-25634500D01*
X45491061Y-25635872D01*
X45491056Y-25635872D01*
X45423279Y-25650279D01*
X45310712Y-25674206D01*
X45304682Y-25676891D01*
X45304681Y-25676891D01*
X45142278Y-25749197D01*
X45142276Y-25749198D01*
X45136248Y-25751882D01*
X44981747Y-25864134D01*
X44977326Y-25869044D01*
X44977325Y-25869045D01*
X44899257Y-25955749D01*
X44853960Y-26006056D01*
X44758473Y-26171444D01*
X44699458Y-26353072D01*
X44698768Y-26359633D01*
X44698768Y-26359635D01*
X44686282Y-26478438D01*
X44679496Y-26543000D01*
X4681394Y-26543000D01*
X4721435Y-26487277D01*
X4724453Y-26483077D01*
X4785462Y-26359635D01*
X4821136Y-26287453D01*
X4821137Y-26287451D01*
X4823430Y-26282811D01*
X4875135Y-26112631D01*
X4886865Y-26074023D01*
X4886865Y-26074021D01*
X4888370Y-26069069D01*
X4917529Y-25847590D01*
X4919156Y-25781000D01*
X4900852Y-25558361D01*
X4892975Y-25527000D01*
X19152496Y-25527000D01*
X19153186Y-25533565D01*
X19171452Y-25707352D01*
X19172458Y-25716928D01*
X19231473Y-25898556D01*
X19326960Y-26063944D01*
X19331378Y-26068851D01*
X19331379Y-26068852D01*
X19362557Y-26103479D01*
X19454747Y-26205866D01*
X19609248Y-26318118D01*
X19615276Y-26320802D01*
X19615278Y-26320803D01*
X19687756Y-26353072D01*
X19783712Y-26395794D01*
X19877112Y-26415647D01*
X19964056Y-26434128D01*
X19964061Y-26434128D01*
X19970513Y-26435500D01*
X20161487Y-26435500D01*
X20167939Y-26434128D01*
X20167944Y-26434128D01*
X20254887Y-26415647D01*
X20348288Y-26395794D01*
X20444244Y-26353072D01*
X20516722Y-26320803D01*
X20516724Y-26320802D01*
X20522752Y-26318118D01*
X20677253Y-26205866D01*
X20769443Y-26103479D01*
X20800621Y-26068852D01*
X20800622Y-26068851D01*
X20805040Y-26063944D01*
X20900527Y-25898556D01*
X20959542Y-25716928D01*
X20960549Y-25707352D01*
X20978814Y-25533565D01*
X20979504Y-25527000D01*
X20959542Y-25337072D01*
X20938724Y-25273000D01*
X37821496Y-25273000D01*
X37822186Y-25279565D01*
X37825942Y-25315297D01*
X37841458Y-25462928D01*
X37900473Y-25644556D01*
X37995960Y-25809944D01*
X38000378Y-25814851D01*
X38000379Y-25814852D01*
X38119325Y-25946955D01*
X38123747Y-25951866D01*
X38278248Y-26064118D01*
X38284276Y-26066802D01*
X38284278Y-26066803D01*
X38388037Y-26112999D01*
X38452712Y-26141794D01*
X38546112Y-26161647D01*
X38633056Y-26180128D01*
X38633061Y-26180128D01*
X38639513Y-26181500D01*
X38830487Y-26181500D01*
X38836939Y-26180128D01*
X38836944Y-26180128D01*
X38923888Y-26161647D01*
X39017288Y-26141794D01*
X39081963Y-26112999D01*
X39185722Y-26066803D01*
X39185724Y-26066802D01*
X39191752Y-26064118D01*
X39346253Y-25951866D01*
X39350675Y-25946955D01*
X39469621Y-25814852D01*
X39469622Y-25814851D01*
X39474040Y-25809944D01*
X39569527Y-25644556D01*
X39628542Y-25462928D01*
X39644059Y-25315297D01*
X39647814Y-25279565D01*
X39648504Y-25273000D01*
X39635547Y-25149721D01*
X39629232Y-25089635D01*
X39629232Y-25089633D01*
X39628542Y-25083072D01*
X39569527Y-24901444D01*
X39474040Y-24736056D01*
X39428744Y-24685749D01*
X39350675Y-24599045D01*
X39350674Y-24599044D01*
X39346253Y-24594134D01*
X39209993Y-24495135D01*
X39197094Y-24485763D01*
X39197093Y-24485762D01*
X39191752Y-24481882D01*
X39185724Y-24479198D01*
X39185722Y-24479197D01*
X39023319Y-24406891D01*
X39023318Y-24406891D01*
X39017288Y-24404206D01*
X38904721Y-24380279D01*
X38836944Y-24365872D01*
X38836939Y-24365872D01*
X38830487Y-24364500D01*
X38639513Y-24364500D01*
X38633061Y-24365872D01*
X38633056Y-24365872D01*
X38565279Y-24380279D01*
X38452712Y-24404206D01*
X38446682Y-24406891D01*
X38446681Y-24406891D01*
X38284278Y-24479197D01*
X38284276Y-24479198D01*
X38278248Y-24481882D01*
X38272907Y-24485762D01*
X38272906Y-24485763D01*
X38260007Y-24495135D01*
X38123747Y-24594134D01*
X38119326Y-24599044D01*
X38119325Y-24599045D01*
X38041257Y-24685749D01*
X37995960Y-24736056D01*
X37900473Y-24901444D01*
X37841458Y-25083072D01*
X37840768Y-25089633D01*
X37840768Y-25089635D01*
X37834453Y-25149721D01*
X37821496Y-25273000D01*
X20938724Y-25273000D01*
X20900527Y-25155444D01*
X20892529Y-25141590D01*
X20823799Y-25022548D01*
X20805040Y-24990056D01*
X20768323Y-24949277D01*
X20681675Y-24853045D01*
X20681674Y-24853044D01*
X20677253Y-24848134D01*
X20522752Y-24735882D01*
X20516724Y-24733198D01*
X20516722Y-24733197D01*
X20354319Y-24660891D01*
X20354318Y-24660891D01*
X20348288Y-24658206D01*
X20254887Y-24638353D01*
X20167944Y-24619872D01*
X20167939Y-24619872D01*
X20161487Y-24618500D01*
X19970513Y-24618500D01*
X19964061Y-24619872D01*
X19964056Y-24619872D01*
X19877112Y-24638353D01*
X19783712Y-24658206D01*
X19777682Y-24660891D01*
X19777681Y-24660891D01*
X19615278Y-24733197D01*
X19615276Y-24733198D01*
X19609248Y-24735882D01*
X19454747Y-24848134D01*
X19450326Y-24853044D01*
X19450325Y-24853045D01*
X19363678Y-24949277D01*
X19326960Y-24990056D01*
X19308201Y-25022548D01*
X19239472Y-25141590D01*
X19231473Y-25155444D01*
X19172458Y-25337072D01*
X19152496Y-25527000D01*
X4892975Y-25527000D01*
X4846431Y-25341702D01*
X4757354Y-25136840D01*
X4636014Y-24949277D01*
X4485670Y-24784051D01*
X4481619Y-24780852D01*
X4481615Y-24780848D01*
X4314414Y-24648800D01*
X4314410Y-24648798D01*
X4310359Y-24645598D01*
X4114789Y-24537638D01*
X4109920Y-24535914D01*
X4109916Y-24535912D01*
X3909087Y-24464795D01*
X3909083Y-24464794D01*
X3904212Y-24463069D01*
X3899119Y-24462162D01*
X3899116Y-24462161D01*
X3689373Y-24424800D01*
X3689367Y-24424799D01*
X3684284Y-24423894D01*
X3610452Y-24422992D01*
X3466081Y-24421228D01*
X3466079Y-24421228D01*
X3460911Y-24421165D01*
X3240091Y-24454955D01*
X3027756Y-24524357D01*
X2997814Y-24539944D01*
X2844274Y-24619872D01*
X2829607Y-24627507D01*
X2825474Y-24630610D01*
X2825471Y-24630612D01*
X2677417Y-24741774D01*
X2650965Y-24761635D01*
X2617358Y-24796803D01*
X2507751Y-24911500D01*
X2496629Y-24923138D01*
X2370743Y-25107680D01*
X2323716Y-25208992D01*
X2297052Y-25266435D01*
X2276688Y-25310305D01*
X2216989Y-25525570D01*
X2193251Y-25747695D01*
X2193548Y-25752848D01*
X2193548Y-25752851D01*
X2199011Y-25847590D01*
X2206110Y-25970715D01*
X2207247Y-25975761D01*
X2207248Y-25975767D01*
X2227765Y-26066803D01*
X2255222Y-26188639D01*
X2339266Y-26395616D01*
X2455987Y-26586088D01*
X2602250Y-26754938D01*
X2774126Y-26897632D01*
X2792333Y-26908271D01*
X2847445Y-26940476D01*
X2896169Y-26992114D01*
X2909240Y-27061897D01*
X2882509Y-27127669D01*
X2842055Y-27161027D01*
X2829607Y-27167507D01*
X2825474Y-27170610D01*
X2825471Y-27170612D01*
X2655100Y-27298530D01*
X2650965Y-27301635D01*
X2617358Y-27336803D01*
X2507751Y-27451500D01*
X2496629Y-27463138D01*
X2370743Y-27647680D01*
X2323715Y-27748993D01*
X2312087Y-27774045D01*
X2276688Y-27850305D01*
X2216989Y-28065570D01*
X2193251Y-28287695D01*
X508000Y-28287695D01*
X508000Y-24003000D01*
X44965996Y-24003000D01*
X44985958Y-24192928D01*
X45044973Y-24374556D01*
X45140460Y-24539944D01*
X45144878Y-24544851D01*
X45144879Y-24544852D01*
X45189253Y-24594134D01*
X45268247Y-24681866D01*
X45336078Y-24731148D01*
X45373766Y-24758530D01*
X45422748Y-24794118D01*
X45428776Y-24796802D01*
X45428778Y-24796803D01*
X45591181Y-24869109D01*
X45597212Y-24871794D01*
X45690613Y-24891647D01*
X45777556Y-24910128D01*
X45777561Y-24910128D01*
X45784013Y-24911500D01*
X45974987Y-24911500D01*
X45981439Y-24910128D01*
X45981444Y-24910128D01*
X46068387Y-24891647D01*
X46161788Y-24871794D01*
X46167819Y-24869109D01*
X46330222Y-24796803D01*
X46330224Y-24796802D01*
X46336252Y-24794118D01*
X46385235Y-24758530D01*
X46422922Y-24731148D01*
X46490753Y-24681866D01*
X46569747Y-24594134D01*
X46614121Y-24544852D01*
X46614122Y-24544851D01*
X46618540Y-24539944D01*
X46714027Y-24374556D01*
X46773042Y-24192928D01*
X46793004Y-24003000D01*
X46773042Y-23813072D01*
X46714027Y-23631444D01*
X46618540Y-23466056D01*
X46568381Y-23410348D01*
X46495175Y-23329045D01*
X46495174Y-23329044D01*
X46490753Y-23324134D01*
X46336252Y-23211882D01*
X46330224Y-23209198D01*
X46330222Y-23209197D01*
X46167819Y-23136891D01*
X46167818Y-23136891D01*
X46161788Y-23134206D01*
X46068388Y-23114353D01*
X45981444Y-23095872D01*
X45981439Y-23095872D01*
X45974987Y-23094500D01*
X45784013Y-23094500D01*
X45777561Y-23095872D01*
X45777556Y-23095872D01*
X45690612Y-23114353D01*
X45597212Y-23134206D01*
X45591182Y-23136891D01*
X45591181Y-23136891D01*
X45428778Y-23209197D01*
X45428776Y-23209198D01*
X45422748Y-23211882D01*
X45268247Y-23324134D01*
X45263826Y-23329044D01*
X45263825Y-23329045D01*
X45190620Y-23410348D01*
X45140460Y-23466056D01*
X45044973Y-23631444D01*
X44985958Y-23813072D01*
X44965996Y-24003000D01*
X508000Y-24003000D01*
X508000Y-22181695D01*
X56041251Y-22181695D01*
X56041548Y-22186848D01*
X56041548Y-22186851D01*
X56047011Y-22281590D01*
X56054110Y-22404715D01*
X56055247Y-22409761D01*
X56055248Y-22409767D01*
X56075119Y-22497939D01*
X56103222Y-22622639D01*
X56187266Y-22829616D01*
X56303987Y-23020088D01*
X56450250Y-23188938D01*
X56454225Y-23192238D01*
X56454231Y-23192244D01*
X56459425Y-23196556D01*
X56499059Y-23255460D01*
X56500555Y-23326441D01*
X56463439Y-23386962D01*
X56423168Y-23411480D01*
X56315946Y-23451676D01*
X56300351Y-23460214D01*
X56198276Y-23536715D01*
X56185715Y-23549276D01*
X56109214Y-23651351D01*
X56100676Y-23666946D01*
X56055522Y-23787394D01*
X56051895Y-23802649D01*
X56046369Y-23853514D01*
X56046000Y-23860328D01*
X56046000Y-24482885D01*
X56050475Y-24498124D01*
X56051865Y-24499329D01*
X56059548Y-24501000D01*
X58743884Y-24501000D01*
X58759123Y-24496525D01*
X58760328Y-24495135D01*
X58761999Y-24487452D01*
X58761999Y-23860331D01*
X58761629Y-23853510D01*
X58756105Y-23802648D01*
X58752479Y-23787396D01*
X58707324Y-23666946D01*
X58698786Y-23651351D01*
X58622285Y-23549276D01*
X58609724Y-23536715D01*
X58507649Y-23460214D01*
X58492054Y-23451676D01*
X58381813Y-23410348D01*
X58325049Y-23367706D01*
X58300349Y-23301145D01*
X58315557Y-23231796D01*
X58337104Y-23203115D01*
X58438430Y-23102144D01*
X58438440Y-23102132D01*
X58442096Y-23098489D01*
X58501594Y-23015689D01*
X58569435Y-22921277D01*
X58572453Y-22917077D01*
X58671430Y-22716811D01*
X58736370Y-22503069D01*
X58765529Y-22281590D01*
X58767156Y-22215000D01*
X58748852Y-21992361D01*
X58694431Y-21775702D01*
X58605354Y-21570840D01*
X58484014Y-21383277D01*
X58333670Y-21218051D01*
X58329619Y-21214852D01*
X58329615Y-21214848D01*
X58162414Y-21082800D01*
X58162410Y-21082798D01*
X58158359Y-21079598D01*
X58117053Y-21056796D01*
X58067084Y-21006364D01*
X58052312Y-20936921D01*
X58077428Y-20870516D01*
X58104780Y-20843909D01*
X58148603Y-20812650D01*
X58283860Y-20716173D01*
X58442096Y-20558489D01*
X58501594Y-20475689D01*
X58569435Y-20381277D01*
X58572453Y-20377077D01*
X58658762Y-20202444D01*
X58669136Y-20181453D01*
X58669137Y-20181451D01*
X58671430Y-20176811D01*
X58736370Y-19963069D01*
X58765529Y-19741590D01*
X58765611Y-19738240D01*
X58767074Y-19678365D01*
X58767074Y-19678361D01*
X58767156Y-19675000D01*
X58748852Y-19452361D01*
X58694431Y-19235702D01*
X58605354Y-19030840D01*
X58484014Y-18843277D01*
X58333670Y-18678051D01*
X58329619Y-18674852D01*
X58329615Y-18674848D01*
X58162414Y-18542800D01*
X58162410Y-18542798D01*
X58158359Y-18539598D01*
X58117053Y-18516796D01*
X58067084Y-18466364D01*
X58052312Y-18396921D01*
X58077428Y-18330516D01*
X58104780Y-18303909D01*
X58148603Y-18272650D01*
X58283860Y-18176173D01*
X58442096Y-18018489D01*
X58501594Y-17935689D01*
X58569435Y-17841277D01*
X58572453Y-17837077D01*
X58671430Y-17636811D01*
X58736370Y-17423069D01*
X58765529Y-17201590D01*
X58766200Y-17174118D01*
X58767074Y-17138365D01*
X58767074Y-17138361D01*
X58767156Y-17135000D01*
X58748852Y-16912361D01*
X58694431Y-16695702D01*
X58605354Y-16490840D01*
X58484014Y-16303277D01*
X58333670Y-16138051D01*
X58329619Y-16134852D01*
X58329615Y-16134848D01*
X58162414Y-16002800D01*
X58162410Y-16002798D01*
X58158359Y-15999598D01*
X58128593Y-15983166D01*
X57990260Y-15906803D01*
X57962789Y-15891638D01*
X57957920Y-15889914D01*
X57957916Y-15889912D01*
X57757087Y-15818795D01*
X57757083Y-15818794D01*
X57752212Y-15817069D01*
X57747119Y-15816162D01*
X57747116Y-15816161D01*
X57537373Y-15778800D01*
X57537367Y-15778799D01*
X57532284Y-15777894D01*
X57458452Y-15776992D01*
X57314081Y-15775228D01*
X57314079Y-15775228D01*
X57308911Y-15775165D01*
X57088091Y-15808955D01*
X56875756Y-15878357D01*
X56845443Y-15894137D01*
X56682214Y-15979109D01*
X56677607Y-15981507D01*
X56673474Y-15984610D01*
X56673471Y-15984612D01*
X56503100Y-16112530D01*
X56498965Y-16115635D01*
X56344629Y-16277138D01*
X56341715Y-16281410D01*
X56341714Y-16281411D01*
X56256556Y-16406249D01*
X56218743Y-16461680D01*
X56203003Y-16495590D01*
X56129451Y-16654045D01*
X56124688Y-16664305D01*
X56064989Y-16879570D01*
X56041251Y-17101695D01*
X56041548Y-17106848D01*
X56041548Y-17106851D01*
X56052116Y-17290128D01*
X56054110Y-17324715D01*
X56055247Y-17329761D01*
X56055248Y-17329767D01*
X56075119Y-17417939D01*
X56103222Y-17542639D01*
X56187266Y-17749616D01*
X56303987Y-17940088D01*
X56450250Y-18108938D01*
X56622126Y-18251632D01*
X56692595Y-18292811D01*
X56695445Y-18294476D01*
X56744169Y-18346114D01*
X56757240Y-18415897D01*
X56730509Y-18481669D01*
X56690055Y-18515027D01*
X56677607Y-18521507D01*
X56673474Y-18524610D01*
X56673471Y-18524612D01*
X56649247Y-18542800D01*
X56498965Y-18655635D01*
X56344629Y-18817138D01*
X56218743Y-19001680D01*
X56124688Y-19204305D01*
X56064989Y-19419570D01*
X56041251Y-19641695D01*
X56041548Y-19646848D01*
X56041548Y-19646851D01*
X56047011Y-19741590D01*
X56054110Y-19864715D01*
X56055247Y-19869761D01*
X56055248Y-19869767D01*
X56060090Y-19891251D01*
X56103222Y-20082639D01*
X56187266Y-20289616D01*
X56189965Y-20294020D01*
X56245149Y-20384072D01*
X56303987Y-20480088D01*
X56450250Y-20648938D01*
X56622126Y-20791632D01*
X56692595Y-20832811D01*
X56695445Y-20834476D01*
X56744169Y-20886114D01*
X56757240Y-20955897D01*
X56730509Y-21021669D01*
X56690055Y-21055027D01*
X56677607Y-21061507D01*
X56673474Y-21064610D01*
X56673471Y-21064612D01*
X56605226Y-21115852D01*
X56498965Y-21195635D01*
X56344629Y-21357138D01*
X56341715Y-21361410D01*
X56341714Y-21361411D01*
X56260049Y-21481128D01*
X56218743Y-21541680D01*
X56124688Y-21744305D01*
X56064989Y-21959570D01*
X56041251Y-22181695D01*
X508000Y-22181695D01*
X508000Y-20574000D01*
X10389496Y-20574000D01*
X10390186Y-20580565D01*
X10396962Y-20645031D01*
X10409458Y-20763928D01*
X10468473Y-20945556D01*
X10563960Y-21110944D01*
X10691747Y-21252866D01*
X10790843Y-21324864D01*
X10835265Y-21357138D01*
X10846248Y-21365118D01*
X10852276Y-21367802D01*
X10852278Y-21367803D01*
X11014681Y-21440109D01*
X11020712Y-21442794D01*
X11114113Y-21462647D01*
X11201056Y-21481128D01*
X11201061Y-21481128D01*
X11207513Y-21482500D01*
X11398487Y-21482500D01*
X11404939Y-21481128D01*
X11404944Y-21481128D01*
X11491887Y-21462647D01*
X11585288Y-21442794D01*
X11591319Y-21440109D01*
X11753722Y-21367803D01*
X11753724Y-21367802D01*
X11759752Y-21365118D01*
X11770736Y-21357138D01*
X11815157Y-21324864D01*
X11914253Y-21252866D01*
X12042040Y-21110944D01*
X12137527Y-20945556D01*
X12196542Y-20763928D01*
X12209039Y-20645031D01*
X12215814Y-20580565D01*
X12216504Y-20574000D01*
X12196542Y-20384072D01*
X12137527Y-20202444D01*
X12042040Y-20037056D01*
X11979883Y-19968023D01*
X11918675Y-19900045D01*
X11918674Y-19900044D01*
X11914253Y-19895134D01*
X11759752Y-19782882D01*
X11753724Y-19780198D01*
X11753722Y-19780197D01*
X11591319Y-19707891D01*
X11591318Y-19707891D01*
X11585288Y-19705206D01*
X11491888Y-19685353D01*
X11404944Y-19666872D01*
X11404939Y-19666872D01*
X11398487Y-19665500D01*
X11207513Y-19665500D01*
X11201061Y-19666872D01*
X11201056Y-19666872D01*
X11114112Y-19685353D01*
X11020712Y-19705206D01*
X11014682Y-19707891D01*
X11014681Y-19707891D01*
X10852278Y-19780197D01*
X10852276Y-19780198D01*
X10846248Y-19782882D01*
X10691747Y-19895134D01*
X10687326Y-19900044D01*
X10687325Y-19900045D01*
X10626118Y-19968023D01*
X10563960Y-20037056D01*
X10468473Y-20202444D01*
X10409458Y-20384072D01*
X10389496Y-20574000D01*
X508000Y-20574000D01*
X508000Y-16637000D01*
X4293496Y-16637000D01*
X4294186Y-16643565D01*
X4296891Y-16669297D01*
X4313458Y-16826928D01*
X4372473Y-17008556D01*
X4467960Y-17173944D01*
X4472378Y-17178851D01*
X4472379Y-17178852D01*
X4495840Y-17204908D01*
X4595747Y-17315866D01*
X4607927Y-17324715D01*
X4743299Y-17423069D01*
X4750248Y-17428118D01*
X4756276Y-17430802D01*
X4756278Y-17430803D01*
X4918681Y-17503109D01*
X4924712Y-17505794D01*
X5011333Y-17524206D01*
X5105056Y-17544128D01*
X5105061Y-17544128D01*
X5111513Y-17545500D01*
X5302487Y-17545500D01*
X5308939Y-17544128D01*
X5308944Y-17544128D01*
X5402667Y-17524206D01*
X5489288Y-17505794D01*
X5495319Y-17503109D01*
X5657722Y-17430803D01*
X5657724Y-17430802D01*
X5663752Y-17428118D01*
X5670702Y-17423069D01*
X5801552Y-17328000D01*
X27209496Y-17328000D01*
X27210186Y-17334565D01*
X27228183Y-17505794D01*
X27229458Y-17517928D01*
X27288473Y-17699556D01*
X27383960Y-17864944D01*
X27511747Y-18006866D01*
X27666248Y-18119118D01*
X27672276Y-18121802D01*
X27672278Y-18121803D01*
X27834681Y-18194109D01*
X27840712Y-18196794D01*
X27934112Y-18216647D01*
X28021056Y-18235128D01*
X28021061Y-18235128D01*
X28027513Y-18236500D01*
X28218487Y-18236500D01*
X28224939Y-18235128D01*
X28224944Y-18235128D01*
X28311888Y-18216647D01*
X28405288Y-18196794D01*
X28411319Y-18194109D01*
X28573722Y-18121803D01*
X28573724Y-18121802D01*
X28579752Y-18119118D01*
X28734253Y-18006866D01*
X28862040Y-17864944D01*
X28957527Y-17699556D01*
X29016542Y-17517928D01*
X29017818Y-17505794D01*
X29035814Y-17334565D01*
X29036504Y-17328000D01*
X29016542Y-17138072D01*
X28957527Y-16956444D01*
X28862040Y-16791056D01*
X28734253Y-16649134D01*
X28579752Y-16536882D01*
X28573724Y-16534198D01*
X28573722Y-16534197D01*
X28411319Y-16461891D01*
X28411318Y-16461891D01*
X28405288Y-16459206D01*
X28311887Y-16439353D01*
X28224944Y-16420872D01*
X28224939Y-16420872D01*
X28218487Y-16419500D01*
X28027513Y-16419500D01*
X28021061Y-16420872D01*
X28021056Y-16420872D01*
X27934113Y-16439353D01*
X27840712Y-16459206D01*
X27834682Y-16461891D01*
X27834681Y-16461891D01*
X27672278Y-16534197D01*
X27672276Y-16534198D01*
X27666248Y-16536882D01*
X27511747Y-16649134D01*
X27383960Y-16791056D01*
X27288473Y-16956444D01*
X27229458Y-17138072D01*
X27209496Y-17328000D01*
X5801552Y-17328000D01*
X5806073Y-17324715D01*
X5818253Y-17315866D01*
X5918160Y-17204908D01*
X5941621Y-17178852D01*
X5941622Y-17178851D01*
X5946040Y-17173944D01*
X6041527Y-17008556D01*
X6100542Y-16826928D01*
X6117110Y-16669297D01*
X6119814Y-16643565D01*
X6120504Y-16637000D01*
X6109699Y-16534197D01*
X6101232Y-16453635D01*
X6101232Y-16453633D01*
X6100542Y-16447072D01*
X6079724Y-16383000D01*
X33122496Y-16383000D01*
X33123186Y-16389565D01*
X33134330Y-16495590D01*
X33142458Y-16572928D01*
X33201473Y-16754556D01*
X33296960Y-16919944D01*
X33301378Y-16924851D01*
X33301379Y-16924852D01*
X33420325Y-17056955D01*
X33424747Y-17061866D01*
X33579248Y-17174118D01*
X33585276Y-17176802D01*
X33585278Y-17176803D01*
X33747681Y-17249109D01*
X33753712Y-17251794D01*
X33847112Y-17271647D01*
X33934056Y-17290128D01*
X33934061Y-17290128D01*
X33940513Y-17291500D01*
X34131487Y-17291500D01*
X34137939Y-17290128D01*
X34137944Y-17290128D01*
X34224888Y-17271647D01*
X34318288Y-17251794D01*
X34324319Y-17249109D01*
X34486722Y-17176803D01*
X34486724Y-17176802D01*
X34492752Y-17174118D01*
X34647253Y-17061866D01*
X34651675Y-17056955D01*
X34770621Y-16924852D01*
X34770622Y-16924851D01*
X34775040Y-16919944D01*
X34870527Y-16754556D01*
X34929542Y-16572928D01*
X34937671Y-16495590D01*
X34948814Y-16389565D01*
X34949504Y-16383000D01*
X34929542Y-16193072D01*
X34870527Y-16011444D01*
X34865537Y-16002800D01*
X34806321Y-15900237D01*
X34775040Y-15846056D01*
X34748123Y-15816161D01*
X34651675Y-15709045D01*
X34651674Y-15709044D01*
X34647253Y-15704134D01*
X34506907Y-15602166D01*
X34498094Y-15595763D01*
X34498093Y-15595762D01*
X34492752Y-15591882D01*
X34486724Y-15589198D01*
X34486722Y-15589197D01*
X34324319Y-15516891D01*
X34324318Y-15516891D01*
X34318288Y-15514206D01*
X34205721Y-15490279D01*
X34137944Y-15475872D01*
X34137939Y-15475872D01*
X34131487Y-15474500D01*
X33940513Y-15474500D01*
X33934061Y-15475872D01*
X33934056Y-15475872D01*
X33866279Y-15490279D01*
X33753712Y-15514206D01*
X33747682Y-15516891D01*
X33747681Y-15516891D01*
X33585278Y-15589197D01*
X33585276Y-15589198D01*
X33579248Y-15591882D01*
X33573907Y-15595762D01*
X33573906Y-15595763D01*
X33565093Y-15602166D01*
X33424747Y-15704134D01*
X33420326Y-15709044D01*
X33420325Y-15709045D01*
X33323878Y-15816161D01*
X33296960Y-15846056D01*
X33265679Y-15900237D01*
X33206464Y-16002800D01*
X33201473Y-16011444D01*
X33142458Y-16193072D01*
X33122496Y-16383000D01*
X6079724Y-16383000D01*
X6041527Y-16265444D01*
X5946040Y-16100056D01*
X5866254Y-16011444D01*
X5822675Y-15963045D01*
X5822674Y-15963044D01*
X5818253Y-15958134D01*
X5663752Y-15845882D01*
X5657724Y-15843198D01*
X5657722Y-15843197D01*
X5495319Y-15770891D01*
X5495318Y-15770891D01*
X5489288Y-15768206D01*
X5395888Y-15748353D01*
X5308944Y-15729872D01*
X5308939Y-15729872D01*
X5302487Y-15728500D01*
X5111513Y-15728500D01*
X5105061Y-15729872D01*
X5105056Y-15729872D01*
X5018112Y-15748353D01*
X4924712Y-15768206D01*
X4918682Y-15770891D01*
X4918681Y-15770891D01*
X4756278Y-15843197D01*
X4756276Y-15843198D01*
X4750248Y-15845882D01*
X4595747Y-15958134D01*
X4591326Y-15963044D01*
X4591325Y-15963045D01*
X4547747Y-16011444D01*
X4467960Y-16100056D01*
X4372473Y-16265444D01*
X4313458Y-16447072D01*
X4312768Y-16453633D01*
X4312768Y-16453635D01*
X4304301Y-16534197D01*
X4293496Y-16637000D01*
X508000Y-16637000D01*
X508000Y-14778669D01*
X2254001Y-14778669D01*
X2254371Y-14785490D01*
X2259895Y-14836352D01*
X2263521Y-14851604D01*
X2308676Y-14972054D01*
X2317214Y-14987649D01*
X2393715Y-15089724D01*
X2406276Y-15102285D01*
X2508351Y-15178786D01*
X2523946Y-15187324D01*
X2644394Y-15232478D01*
X2659649Y-15236105D01*
X2710514Y-15241631D01*
X2717328Y-15242000D01*
X3339885Y-15242000D01*
X3355124Y-15237525D01*
X3356329Y-15236135D01*
X3358000Y-15228452D01*
X3358000Y-15223884D01*
X3866000Y-15223884D01*
X3870475Y-15239123D01*
X3871865Y-15240328D01*
X3879548Y-15241999D01*
X4506669Y-15241999D01*
X4513490Y-15241629D01*
X4564352Y-15236105D01*
X4579604Y-15232479D01*
X4700054Y-15187324D01*
X4715649Y-15178786D01*
X4817724Y-15102285D01*
X4830285Y-15089724D01*
X4906786Y-14987649D01*
X4915324Y-14972054D01*
X4960478Y-14851606D01*
X4964105Y-14836351D01*
X4969631Y-14785486D01*
X4970000Y-14778672D01*
X4970000Y-14661000D01*
X10064496Y-14661000D01*
X10065186Y-14667565D01*
X10076053Y-14770955D01*
X10084458Y-14850928D01*
X10143473Y-15032556D01*
X10238960Y-15197944D01*
X10243378Y-15202851D01*
X10243379Y-15202852D01*
X10333488Y-15302928D01*
X10366747Y-15339866D01*
X10521248Y-15452118D01*
X10527276Y-15454802D01*
X10527278Y-15454803D01*
X10666731Y-15516891D01*
X10695712Y-15529794D01*
X10789112Y-15549647D01*
X10876056Y-15568128D01*
X10876061Y-15568128D01*
X10882513Y-15569500D01*
X11073487Y-15569500D01*
X11079939Y-15568128D01*
X11079944Y-15568128D01*
X11166888Y-15549647D01*
X11260288Y-15529794D01*
X11289269Y-15516891D01*
X11428722Y-15454803D01*
X11428724Y-15454802D01*
X11434752Y-15452118D01*
X11589253Y-15339866D01*
X11622512Y-15302928D01*
X11712621Y-15202852D01*
X11712622Y-15202851D01*
X11717040Y-15197944D01*
X11766083Y-15113000D01*
X19914496Y-15113000D01*
X19915186Y-15119565D01*
X19928016Y-15241631D01*
X19934458Y-15302928D01*
X19993473Y-15484556D01*
X20088960Y-15649944D01*
X20093378Y-15654851D01*
X20093379Y-15654852D01*
X20204982Y-15778800D01*
X20216747Y-15791866D01*
X20371248Y-15904118D01*
X20377276Y-15906802D01*
X20377278Y-15906803D01*
X20539681Y-15979109D01*
X20545712Y-15981794D01*
X20629473Y-15999598D01*
X20726056Y-16020128D01*
X20726061Y-16020128D01*
X20732513Y-16021500D01*
X20923487Y-16021500D01*
X20929939Y-16020128D01*
X20929944Y-16020128D01*
X21026527Y-15999598D01*
X21110288Y-15981794D01*
X21116319Y-15979109D01*
X21278722Y-15906803D01*
X21278724Y-15906802D01*
X21284752Y-15904118D01*
X21439253Y-15791866D01*
X21451834Y-15777894D01*
X21490566Y-15734877D01*
X21551012Y-15697637D01*
X21621995Y-15698989D01*
X21635452Y-15704081D01*
X21682677Y-15725108D01*
X21682685Y-15725111D01*
X21688712Y-15727794D01*
X21782113Y-15747647D01*
X21869056Y-15766128D01*
X21869061Y-15766128D01*
X21875513Y-15767500D01*
X22066487Y-15767500D01*
X22072939Y-15766128D01*
X22072944Y-15766128D01*
X22159887Y-15747647D01*
X22253288Y-15727794D01*
X22259321Y-15725108D01*
X22421722Y-15652803D01*
X22421724Y-15652802D01*
X22427752Y-15650118D01*
X22442879Y-15639128D01*
X22511602Y-15589197D01*
X22582253Y-15537866D01*
X22604792Y-15512834D01*
X22705621Y-15400852D01*
X22705622Y-15400851D01*
X22710040Y-15395944D01*
X22798920Y-15242000D01*
X22802223Y-15236279D01*
X22802224Y-15236278D01*
X22805527Y-15230556D01*
X22864542Y-15048928D01*
X22866924Y-15026271D01*
X22883814Y-14865565D01*
X22884504Y-14859000D01*
X22876778Y-14785490D01*
X22865232Y-14675635D01*
X22865232Y-14675633D01*
X22864542Y-14669072D01*
X22805527Y-14487444D01*
X22710040Y-14322056D01*
X22694822Y-14305154D01*
X22586675Y-14185045D01*
X22586674Y-14185044D01*
X22582253Y-14180134D01*
X22465758Y-14095495D01*
X22433094Y-14071763D01*
X22433093Y-14071762D01*
X22427752Y-14067882D01*
X22421724Y-14065198D01*
X22421722Y-14065197D01*
X22259319Y-13992891D01*
X22259318Y-13992891D01*
X22253288Y-13990206D01*
X22140721Y-13966279D01*
X22072944Y-13951872D01*
X22072939Y-13951872D01*
X22066487Y-13950500D01*
X21875513Y-13950500D01*
X21869061Y-13951872D01*
X21869056Y-13951872D01*
X21801279Y-13966279D01*
X21688712Y-13990206D01*
X21682682Y-13992891D01*
X21682681Y-13992891D01*
X21520278Y-14065197D01*
X21520276Y-14065198D01*
X21514248Y-14067882D01*
X21508907Y-14071762D01*
X21508906Y-14071763D01*
X21476242Y-14095495D01*
X21359747Y-14180134D01*
X21355326Y-14185044D01*
X21355325Y-14185045D01*
X21308434Y-14237123D01*
X21247988Y-14274363D01*
X21177005Y-14273011D01*
X21163548Y-14267919D01*
X21116323Y-14246892D01*
X21116315Y-14246889D01*
X21110288Y-14244206D01*
X21016888Y-14224353D01*
X20929944Y-14205872D01*
X20929939Y-14205872D01*
X20923487Y-14204500D01*
X20732513Y-14204500D01*
X20726061Y-14205872D01*
X20726056Y-14205872D01*
X20639113Y-14224353D01*
X20545712Y-14244206D01*
X20539682Y-14246891D01*
X20539681Y-14246891D01*
X20377278Y-14319197D01*
X20377276Y-14319198D01*
X20371248Y-14321882D01*
X20216747Y-14434134D01*
X20212326Y-14439044D01*
X20212325Y-14439045D01*
X20168747Y-14487444D01*
X20088960Y-14576056D01*
X20038882Y-14662794D01*
X19998926Y-14732000D01*
X19993473Y-14741444D01*
X19934458Y-14923072D01*
X19933768Y-14929633D01*
X19933768Y-14929635D01*
X19923611Y-15026271D01*
X19914496Y-15113000D01*
X11766083Y-15113000D01*
X11812527Y-15032556D01*
X11871542Y-14850928D01*
X11879948Y-14770955D01*
X11890814Y-14667565D01*
X11891504Y-14661000D01*
X11879004Y-14542072D01*
X11872232Y-14477635D01*
X11872232Y-14477633D01*
X11871542Y-14471072D01*
X11812527Y-14289444D01*
X11803040Y-14273011D01*
X11733462Y-14152500D01*
X11716724Y-14083505D01*
X11733462Y-14026500D01*
X11738515Y-14017749D01*
X11812527Y-13889556D01*
X11871542Y-13707928D01*
X11872818Y-13695794D01*
X11890814Y-13524565D01*
X11891504Y-13518000D01*
X11878884Y-13397928D01*
X11872232Y-13334635D01*
X11872232Y-13334633D01*
X11871542Y-13328072D01*
X11812527Y-13146444D01*
X11717040Y-12981056D01*
X11692679Y-12954000D01*
X27407496Y-12954000D01*
X27408186Y-12960565D01*
X27425863Y-13128749D01*
X27427458Y-13143928D01*
X27486473Y-13325556D01*
X27489776Y-13331278D01*
X27489777Y-13331279D01*
X27495716Y-13341565D01*
X27581960Y-13490944D01*
X27586378Y-13495851D01*
X27586379Y-13495852D01*
X27670250Y-13589000D01*
X27709747Y-13632866D01*
X27792664Y-13693109D01*
X27849122Y-13734128D01*
X27864248Y-13745118D01*
X27870276Y-13747802D01*
X27870278Y-13747803D01*
X28032681Y-13820109D01*
X28038712Y-13822794D01*
X28132112Y-13842647D01*
X28219056Y-13861128D01*
X28219061Y-13861128D01*
X28225513Y-13862500D01*
X28416487Y-13862500D01*
X28422939Y-13861128D01*
X28422944Y-13861128D01*
X28509887Y-13842647D01*
X28603288Y-13822794D01*
X28609319Y-13820109D01*
X28771722Y-13747803D01*
X28771724Y-13747802D01*
X28777752Y-13745118D01*
X28792879Y-13734128D01*
X28849336Y-13693109D01*
X28932253Y-13632866D01*
X28971750Y-13589000D01*
X29055621Y-13495852D01*
X29055622Y-13495851D01*
X29060040Y-13490944D01*
X29146284Y-13341565D01*
X29152223Y-13331279D01*
X29152224Y-13331278D01*
X29155527Y-13325556D01*
X29193724Y-13208000D01*
X31217496Y-13208000D01*
X31218186Y-13214565D01*
X31228192Y-13309763D01*
X31237458Y-13397928D01*
X31296473Y-13579556D01*
X31299776Y-13585278D01*
X31299777Y-13585279D01*
X31305716Y-13595565D01*
X31391960Y-13744944D01*
X31519747Y-13886866D01*
X31590398Y-13938197D01*
X31661982Y-13990206D01*
X31674248Y-13999118D01*
X31680276Y-14001802D01*
X31680278Y-14001803D01*
X31828695Y-14067882D01*
X31848712Y-14076794D01*
X31912888Y-14090435D01*
X32029056Y-14115128D01*
X32029061Y-14115128D01*
X32035513Y-14116500D01*
X32226487Y-14116500D01*
X32232939Y-14115128D01*
X32232944Y-14115128D01*
X32318227Y-14097000D01*
X35662496Y-14097000D01*
X35663186Y-14103565D01*
X35680863Y-14271749D01*
X35682458Y-14286928D01*
X35741473Y-14468556D01*
X35836960Y-14633944D01*
X35841378Y-14638851D01*
X35841379Y-14638852D01*
X35867232Y-14667565D01*
X35964747Y-14775866D01*
X36047997Y-14836351D01*
X36088207Y-14865565D01*
X36119248Y-14888118D01*
X36125276Y-14890802D01*
X36125278Y-14890803D01*
X36212497Y-14929635D01*
X36293712Y-14965794D01*
X36387112Y-14985647D01*
X36474056Y-15004128D01*
X36474061Y-15004128D01*
X36480513Y-15005500D01*
X36671487Y-15005500D01*
X36677939Y-15004128D01*
X36677944Y-15004128D01*
X36764888Y-14985647D01*
X36858288Y-14965794D01*
X36939503Y-14929635D01*
X37026722Y-14890803D01*
X37026724Y-14890802D01*
X37032752Y-14888118D01*
X37063794Y-14865565D01*
X37104003Y-14836351D01*
X37187253Y-14775866D01*
X37226750Y-14732000D01*
X40869496Y-14732000D01*
X40870186Y-14738565D01*
X40886187Y-14890803D01*
X40889458Y-14921928D01*
X40948473Y-15103556D01*
X40951776Y-15109278D01*
X40951777Y-15109279D01*
X40957716Y-15119565D01*
X41043960Y-15268944D01*
X41048378Y-15273851D01*
X41048379Y-15273852D01*
X41107818Y-15339866D01*
X41171747Y-15410866D01*
X41232221Y-15454803D01*
X41313982Y-15514206D01*
X41326248Y-15523118D01*
X41332276Y-15525802D01*
X41332278Y-15525803D01*
X41480695Y-15591882D01*
X41500712Y-15600794D01*
X41594113Y-15620647D01*
X41681056Y-15639128D01*
X41681061Y-15639128D01*
X41687513Y-15640500D01*
X41878487Y-15640500D01*
X41884939Y-15639128D01*
X41884944Y-15639128D01*
X41971887Y-15620647D01*
X42065288Y-15600794D01*
X42085305Y-15591882D01*
X42233722Y-15525803D01*
X42233724Y-15525802D01*
X42239752Y-15523118D01*
X42252019Y-15514206D01*
X42333779Y-15454803D01*
X42394253Y-15410866D01*
X42458182Y-15339866D01*
X42517621Y-15273852D01*
X42517622Y-15273851D01*
X42522040Y-15268944D01*
X42608284Y-15119565D01*
X42614223Y-15109279D01*
X42614224Y-15109278D01*
X42617527Y-15103556D01*
X42676542Y-14921928D01*
X42679814Y-14890803D01*
X42695814Y-14738565D01*
X42696504Y-14732000D01*
X42676542Y-14542072D01*
X42617527Y-14360444D01*
X42522040Y-14195056D01*
X42486978Y-14156115D01*
X42398675Y-14058045D01*
X42398674Y-14058044D01*
X42394253Y-14053134D01*
X42266831Y-13960556D01*
X42245094Y-13944763D01*
X42245093Y-13944762D01*
X42239752Y-13940882D01*
X42233724Y-13938198D01*
X42233722Y-13938197D01*
X42071319Y-13865891D01*
X42071318Y-13865891D01*
X42065288Y-13863206D01*
X41971887Y-13843353D01*
X41884944Y-13824872D01*
X41884939Y-13824872D01*
X41878487Y-13823500D01*
X41687513Y-13823500D01*
X41681061Y-13824872D01*
X41681056Y-13824872D01*
X41594112Y-13843353D01*
X41500712Y-13863206D01*
X41494682Y-13865891D01*
X41494681Y-13865891D01*
X41332278Y-13938197D01*
X41332276Y-13938198D01*
X41326248Y-13940882D01*
X41320907Y-13944762D01*
X41320906Y-13944763D01*
X41299169Y-13960556D01*
X41171747Y-14053134D01*
X41167326Y-14058044D01*
X41167325Y-14058045D01*
X41079023Y-14156115D01*
X41043960Y-14195056D01*
X40948473Y-14360444D01*
X40889458Y-14542072D01*
X40869496Y-14732000D01*
X37226750Y-14732000D01*
X37284768Y-14667565D01*
X37310621Y-14638852D01*
X37310622Y-14638851D01*
X37315040Y-14633944D01*
X37410527Y-14468556D01*
X37469542Y-14286928D01*
X37471138Y-14271749D01*
X37488814Y-14103565D01*
X37489504Y-14097000D01*
X37488086Y-14083505D01*
X37470232Y-13913635D01*
X37470232Y-13913633D01*
X37469542Y-13907072D01*
X37410527Y-13725444D01*
X37315040Y-13560056D01*
X37289064Y-13531206D01*
X37191675Y-13423045D01*
X37191674Y-13423044D01*
X37187253Y-13418134D01*
X37067708Y-13331279D01*
X37038094Y-13309763D01*
X37038093Y-13309762D01*
X37032752Y-13305882D01*
X37026724Y-13303198D01*
X37026722Y-13303197D01*
X36864319Y-13230891D01*
X36864318Y-13230891D01*
X36858288Y-13228206D01*
X36745721Y-13204279D01*
X36677944Y-13189872D01*
X36677939Y-13189872D01*
X36671487Y-13188500D01*
X36480513Y-13188500D01*
X36474061Y-13189872D01*
X36474056Y-13189872D01*
X36406279Y-13204279D01*
X36293712Y-13228206D01*
X36287682Y-13230891D01*
X36287681Y-13230891D01*
X36125278Y-13303197D01*
X36125276Y-13303198D01*
X36119248Y-13305882D01*
X36113907Y-13309762D01*
X36113906Y-13309763D01*
X36084292Y-13331279D01*
X35964747Y-13418134D01*
X35960326Y-13423044D01*
X35960325Y-13423045D01*
X35862937Y-13531206D01*
X35836960Y-13560056D01*
X35741473Y-13725444D01*
X35682458Y-13907072D01*
X35681768Y-13913633D01*
X35681768Y-13913635D01*
X35663914Y-14083505D01*
X35662496Y-14097000D01*
X32318227Y-14097000D01*
X32349112Y-14090435D01*
X32413288Y-14076794D01*
X32433305Y-14067882D01*
X32581722Y-14001803D01*
X32581724Y-14001802D01*
X32587752Y-13999118D01*
X32600019Y-13990206D01*
X32671602Y-13938197D01*
X32742253Y-13886866D01*
X32870040Y-13744944D01*
X32956284Y-13595565D01*
X32962223Y-13585279D01*
X32962224Y-13585278D01*
X32965527Y-13579556D01*
X33024542Y-13397928D01*
X33033809Y-13309763D01*
X33043814Y-13214565D01*
X33044504Y-13208000D01*
X33042599Y-13189872D01*
X33025232Y-13024635D01*
X33025232Y-13024633D01*
X33024542Y-13018072D01*
X32965527Y-12836444D01*
X32960075Y-12827000D01*
X32898417Y-12720206D01*
X32870040Y-12671056D01*
X32853810Y-12653030D01*
X32746675Y-12534045D01*
X32746674Y-12534044D01*
X32742253Y-12529134D01*
X32636865Y-12452565D01*
X32627829Y-12446000D01*
X42520496Y-12446000D01*
X42521186Y-12452565D01*
X42538979Y-12621852D01*
X42540458Y-12635928D01*
X42599473Y-12817556D01*
X42602776Y-12823278D01*
X42602777Y-12823279D01*
X42607074Y-12830721D01*
X42694960Y-12982944D01*
X42699378Y-12987851D01*
X42699379Y-12987852D01*
X42725559Y-13016928D01*
X42822747Y-13124866D01*
X42968678Y-13230891D01*
X42977247Y-13237117D01*
X43020601Y-13293339D01*
X43028426Y-13335007D01*
X43028496Y-13335000D01*
X43029186Y-13341565D01*
X43046863Y-13509749D01*
X43048458Y-13524928D01*
X43107473Y-13706556D01*
X43202960Y-13871944D01*
X43207378Y-13876851D01*
X43207379Y-13876852D01*
X43308208Y-13988834D01*
X43330747Y-14013866D01*
X43379450Y-14049251D01*
X43470122Y-14115128D01*
X43485248Y-14126118D01*
X43491276Y-14128802D01*
X43491278Y-14128803D01*
X43629062Y-14190148D01*
X43659712Y-14203794D01*
X43753113Y-14223647D01*
X43840056Y-14242128D01*
X43840061Y-14242128D01*
X43846513Y-14243500D01*
X44037487Y-14243500D01*
X44043939Y-14242128D01*
X44043944Y-14242128D01*
X44130887Y-14223647D01*
X44224288Y-14203794D01*
X44254938Y-14190148D01*
X44392722Y-14128803D01*
X44392724Y-14128802D01*
X44398752Y-14126118D01*
X44413879Y-14115128D01*
X44504550Y-14049251D01*
X44553253Y-14013866D01*
X44575792Y-13988834D01*
X44676621Y-13876852D01*
X44676622Y-13876851D01*
X44681040Y-13871944D01*
X44776527Y-13706556D01*
X44814724Y-13589000D01*
X49251496Y-13589000D01*
X49252186Y-13595565D01*
X49268187Y-13747803D01*
X49271458Y-13778928D01*
X49330473Y-13960556D01*
X49425960Y-14125944D01*
X49430378Y-14130851D01*
X49430379Y-14130852D01*
X49474753Y-14180134D01*
X49553747Y-14267866D01*
X49621578Y-14317148D01*
X49689820Y-14366729D01*
X49708248Y-14380118D01*
X49714276Y-14382802D01*
X49714278Y-14382803D01*
X49876681Y-14455109D01*
X49882712Y-14457794D01*
X49976056Y-14477635D01*
X50063056Y-14496128D01*
X50063061Y-14496128D01*
X50069513Y-14497500D01*
X50260487Y-14497500D01*
X50266939Y-14496128D01*
X50266944Y-14496128D01*
X50353944Y-14477635D01*
X50447288Y-14457794D01*
X50453319Y-14455109D01*
X50615722Y-14382803D01*
X50615724Y-14382802D01*
X50621752Y-14380118D01*
X50640181Y-14366729D01*
X50708422Y-14317148D01*
X50776253Y-14267866D01*
X50855247Y-14180134D01*
X50899621Y-14130852D01*
X50899622Y-14130851D01*
X50904040Y-14125944D01*
X50999527Y-13960556D01*
X51058542Y-13778928D01*
X51061814Y-13747803D01*
X51077814Y-13595565D01*
X51078504Y-13589000D01*
X51070352Y-13511435D01*
X51059232Y-13405635D01*
X51059232Y-13405633D01*
X51058542Y-13399072D01*
X50999527Y-13217444D01*
X50996223Y-13211721D01*
X50914159Y-13069582D01*
X50897421Y-13000587D01*
X50920641Y-12933495D01*
X50972030Y-12891475D01*
X51011719Y-12873805D01*
X51011726Y-12873801D01*
X51017752Y-12871118D01*
X51065477Y-12836444D01*
X51100124Y-12811271D01*
X51172253Y-12758866D01*
X51197557Y-12730763D01*
X51295621Y-12621852D01*
X51295622Y-12621851D01*
X51300040Y-12616944D01*
X51395527Y-12451556D01*
X51454542Y-12269928D01*
X51455999Y-12256072D01*
X51473814Y-12086565D01*
X51474504Y-12080000D01*
X51456537Y-11909056D01*
X51455232Y-11896635D01*
X51455232Y-11896633D01*
X51454542Y-11890072D01*
X51395527Y-11708444D01*
X51300040Y-11543056D01*
X51295038Y-11537500D01*
X51176675Y-11406045D01*
X51176674Y-11406044D01*
X51172253Y-11401134D01*
X51062135Y-11321128D01*
X51023094Y-11292763D01*
X51023093Y-11292762D01*
X51017752Y-11288882D01*
X51011724Y-11286198D01*
X51011722Y-11286197D01*
X50849319Y-11213891D01*
X50849318Y-11213891D01*
X50843288Y-11211206D01*
X50749887Y-11191353D01*
X50662944Y-11172872D01*
X50662939Y-11172872D01*
X50656487Y-11171500D01*
X50465513Y-11171500D01*
X50459061Y-11172872D01*
X50459056Y-11172872D01*
X50372113Y-11191353D01*
X50278712Y-11211206D01*
X50272682Y-11213891D01*
X50272681Y-11213891D01*
X50110278Y-11286197D01*
X50110276Y-11286198D01*
X50104248Y-11288882D01*
X50098907Y-11292762D01*
X50098906Y-11292763D01*
X50059865Y-11321128D01*
X49949747Y-11401134D01*
X49945326Y-11406044D01*
X49945325Y-11406045D01*
X49826963Y-11537500D01*
X49821960Y-11543056D01*
X49726473Y-11708444D01*
X49667458Y-11890072D01*
X49666768Y-11896633D01*
X49666768Y-11896635D01*
X49665463Y-11909056D01*
X49647496Y-12080000D01*
X49648186Y-12086565D01*
X49666002Y-12256072D01*
X49667458Y-12269928D01*
X49726473Y-12451556D01*
X49729776Y-12457278D01*
X49729777Y-12457279D01*
X49811841Y-12599418D01*
X49828579Y-12668413D01*
X49805359Y-12735505D01*
X49753970Y-12777525D01*
X49714281Y-12795195D01*
X49714274Y-12795199D01*
X49708248Y-12797882D01*
X49702907Y-12801762D01*
X49702906Y-12801763D01*
X49673292Y-12823279D01*
X49553747Y-12910134D01*
X49549326Y-12915044D01*
X49549325Y-12915045D01*
X49451937Y-13023206D01*
X49425960Y-13052056D01*
X49383923Y-13124866D01*
X49335926Y-13208000D01*
X49330473Y-13217444D01*
X49271458Y-13399072D01*
X49270768Y-13405633D01*
X49270768Y-13405635D01*
X49259648Y-13511435D01*
X49251496Y-13589000D01*
X44814724Y-13589000D01*
X44835542Y-13524928D01*
X44837138Y-13509749D01*
X44854814Y-13341565D01*
X44855504Y-13335000D01*
X44844280Y-13228206D01*
X44836232Y-13151635D01*
X44836232Y-13151633D01*
X44835542Y-13145072D01*
X44776527Y-12963444D01*
X44771075Y-12954000D01*
X44703203Y-12836444D01*
X44681040Y-12798056D01*
X44665099Y-12780351D01*
X44557675Y-12661045D01*
X44557674Y-12661044D01*
X44553253Y-12656134D01*
X44547414Y-12651891D01*
X44443951Y-12576721D01*
X44398752Y-12543882D01*
X44355399Y-12487661D01*
X44347574Y-12445993D01*
X44347504Y-12446000D01*
X44347414Y-12445140D01*
X44347413Y-12445135D01*
X44336280Y-12339206D01*
X44328232Y-12262635D01*
X44328232Y-12262633D01*
X44327542Y-12256072D01*
X44268527Y-12074444D01*
X44173040Y-11909056D01*
X44127744Y-11858749D01*
X44049675Y-11772045D01*
X44049674Y-11772044D01*
X44045253Y-11767134D01*
X43890752Y-11654882D01*
X43884724Y-11652198D01*
X43884722Y-11652197D01*
X43722319Y-11579891D01*
X43722318Y-11579891D01*
X43716288Y-11577206D01*
X43603721Y-11553279D01*
X43535944Y-11538872D01*
X43535939Y-11538872D01*
X43529487Y-11537500D01*
X43338513Y-11537500D01*
X43332061Y-11538872D01*
X43332056Y-11538872D01*
X43264279Y-11553279D01*
X43151712Y-11577206D01*
X43145682Y-11579891D01*
X43145681Y-11579891D01*
X42983278Y-11652197D01*
X42983276Y-11652198D01*
X42977248Y-11654882D01*
X42822747Y-11767134D01*
X42818326Y-11772044D01*
X42818325Y-11772045D01*
X42740257Y-11858749D01*
X42694960Y-11909056D01*
X42599473Y-12074444D01*
X42540458Y-12256072D01*
X42539768Y-12262633D01*
X42539768Y-12262635D01*
X42531720Y-12339206D01*
X42520496Y-12446000D01*
X32627829Y-12446000D01*
X32593094Y-12420763D01*
X32593093Y-12420762D01*
X32587752Y-12416882D01*
X32581724Y-12414198D01*
X32581722Y-12414197D01*
X32419319Y-12341891D01*
X32419318Y-12341891D01*
X32413288Y-12339206D01*
X32319888Y-12319353D01*
X32232944Y-12300872D01*
X32232939Y-12300872D01*
X32226487Y-12299500D01*
X32035513Y-12299500D01*
X32029061Y-12300872D01*
X32029056Y-12300872D01*
X31942112Y-12319353D01*
X31848712Y-12339206D01*
X31842682Y-12341891D01*
X31842681Y-12341891D01*
X31680278Y-12414197D01*
X31680276Y-12414198D01*
X31674248Y-12416882D01*
X31668907Y-12420762D01*
X31668906Y-12420763D01*
X31625135Y-12452565D01*
X31519747Y-12529134D01*
X31515326Y-12534044D01*
X31515325Y-12534045D01*
X31408191Y-12653030D01*
X31391960Y-12671056D01*
X31363583Y-12720206D01*
X31301926Y-12827000D01*
X31296473Y-12836444D01*
X31237458Y-13018072D01*
X31236768Y-13024633D01*
X31236768Y-13024635D01*
X31219401Y-13189872D01*
X31217496Y-13208000D01*
X29193724Y-13208000D01*
X29214542Y-13143928D01*
X29216138Y-13128749D01*
X29233814Y-12960565D01*
X29234504Y-12954000D01*
X29232155Y-12931649D01*
X29215232Y-12770635D01*
X29215232Y-12770633D01*
X29214542Y-12764072D01*
X29155527Y-12582444D01*
X29060040Y-12417056D01*
X29031333Y-12385173D01*
X28936675Y-12280045D01*
X28936674Y-12280044D01*
X28932253Y-12275134D01*
X28777752Y-12162882D01*
X28771724Y-12160198D01*
X28771722Y-12160197D01*
X28609319Y-12087891D01*
X28609318Y-12087891D01*
X28603288Y-12085206D01*
X28509888Y-12065353D01*
X28422944Y-12046872D01*
X28422939Y-12046872D01*
X28416487Y-12045500D01*
X28225513Y-12045500D01*
X28219061Y-12046872D01*
X28219056Y-12046872D01*
X28132112Y-12065353D01*
X28038712Y-12085206D01*
X28032682Y-12087891D01*
X28032681Y-12087891D01*
X27870278Y-12160197D01*
X27870276Y-12160198D01*
X27864248Y-12162882D01*
X27709747Y-12275134D01*
X27705326Y-12280044D01*
X27705325Y-12280045D01*
X27610668Y-12385173D01*
X27581960Y-12417056D01*
X27486473Y-12582444D01*
X27427458Y-12764072D01*
X27426768Y-12770633D01*
X27426768Y-12770635D01*
X27409845Y-12931649D01*
X27407496Y-12954000D01*
X11692679Y-12954000D01*
X11657604Y-12915045D01*
X11593675Y-12844045D01*
X11593674Y-12844044D01*
X11589253Y-12839134D01*
X11485939Y-12764072D01*
X11440094Y-12730763D01*
X11440093Y-12730762D01*
X11434752Y-12726882D01*
X11428724Y-12724198D01*
X11428722Y-12724197D01*
X11266319Y-12651891D01*
X11266318Y-12651891D01*
X11260288Y-12649206D01*
X11227356Y-12642206D01*
X11079944Y-12610872D01*
X11079939Y-12610872D01*
X11073487Y-12609500D01*
X10882513Y-12609500D01*
X10876061Y-12610872D01*
X10876056Y-12610872D01*
X10728644Y-12642206D01*
X10695712Y-12649206D01*
X10689682Y-12651891D01*
X10689681Y-12651891D01*
X10527278Y-12724197D01*
X10527276Y-12724198D01*
X10521248Y-12726882D01*
X10515907Y-12730762D01*
X10515906Y-12730763D01*
X10470061Y-12764072D01*
X10366747Y-12839134D01*
X10362326Y-12844044D01*
X10362325Y-12844045D01*
X10298397Y-12915045D01*
X10238960Y-12981056D01*
X10143473Y-13146444D01*
X10084458Y-13328072D01*
X10083768Y-13334633D01*
X10083768Y-13334635D01*
X10077116Y-13397928D01*
X10064496Y-13518000D01*
X10065186Y-13524565D01*
X10083183Y-13695794D01*
X10084458Y-13707928D01*
X10143473Y-13889556D01*
X10217486Y-14017749D01*
X10222538Y-14026500D01*
X10239276Y-14095495D01*
X10222538Y-14152500D01*
X10152961Y-14273011D01*
X10143473Y-14289444D01*
X10084458Y-14471072D01*
X10083768Y-14477633D01*
X10083768Y-14477635D01*
X10076996Y-14542072D01*
X10064496Y-14661000D01*
X4970000Y-14661000D01*
X4970000Y-14156115D01*
X4965525Y-14140876D01*
X4964135Y-14139671D01*
X4956452Y-14138000D01*
X3884115Y-14138000D01*
X3868876Y-14142475D01*
X3867671Y-14143865D01*
X3866000Y-14151548D01*
X3866000Y-15223884D01*
X3358000Y-15223884D01*
X3358000Y-14156115D01*
X3353525Y-14140876D01*
X3352135Y-14139671D01*
X3344452Y-14138000D01*
X2272116Y-14138000D01*
X2256877Y-14142475D01*
X2255672Y-14143865D01*
X2254001Y-14151548D01*
X2254001Y-14778669D01*
X508000Y-14778669D01*
X508000Y-11310695D01*
X2249251Y-11310695D01*
X2249548Y-11315848D01*
X2249548Y-11315851D01*
X2255011Y-11410590D01*
X2262110Y-11533715D01*
X2263247Y-11538761D01*
X2263248Y-11538767D01*
X2277243Y-11600866D01*
X2311222Y-11751639D01*
X2395266Y-11958616D01*
X2429648Y-12014722D01*
X2474486Y-12087891D01*
X2511987Y-12149088D01*
X2658250Y-12317938D01*
X2662225Y-12321238D01*
X2662231Y-12321244D01*
X2667425Y-12325556D01*
X2707059Y-12384460D01*
X2708555Y-12455441D01*
X2671439Y-12515962D01*
X2631168Y-12540480D01*
X2523946Y-12580676D01*
X2508351Y-12589214D01*
X2406276Y-12665715D01*
X2393715Y-12678276D01*
X2317214Y-12780351D01*
X2308676Y-12795946D01*
X2263522Y-12916394D01*
X2259895Y-12931649D01*
X2254369Y-12982514D01*
X2254000Y-12989328D01*
X2254000Y-13611885D01*
X2258475Y-13627124D01*
X2259865Y-13628329D01*
X2267548Y-13630000D01*
X4951884Y-13630000D01*
X4979407Y-13621918D01*
X5018466Y-13596817D01*
X5089462Y-13596817D01*
X5119746Y-13611704D01*
X5120189Y-13610936D01*
X5125907Y-13614237D01*
X5131248Y-13618118D01*
X5137276Y-13620802D01*
X5137278Y-13620803D01*
X5173094Y-13636749D01*
X5305712Y-13695794D01*
X5392333Y-13714206D01*
X5486056Y-13734128D01*
X5486061Y-13734128D01*
X5492513Y-13735500D01*
X5683487Y-13735500D01*
X5689939Y-13734128D01*
X5689944Y-13734128D01*
X5783667Y-13714206D01*
X5870288Y-13695794D01*
X6002906Y-13636749D01*
X6038722Y-13620803D01*
X6038724Y-13620802D01*
X6044752Y-13618118D01*
X6075794Y-13595565D01*
X6131422Y-13555148D01*
X6199253Y-13505866D01*
X6278247Y-13418134D01*
X6322621Y-13368852D01*
X6322622Y-13368851D01*
X6327040Y-13363944D01*
X6414926Y-13211721D01*
X6419223Y-13204279D01*
X6419224Y-13204278D01*
X6422527Y-13198556D01*
X6481542Y-13016928D01*
X6483260Y-13000587D01*
X6500814Y-12833565D01*
X6501504Y-12827000D01*
X6490280Y-12720206D01*
X6482232Y-12643635D01*
X6482232Y-12643633D01*
X6481542Y-12637072D01*
X6422527Y-12455444D01*
X6417075Y-12446000D01*
X6345046Y-12321244D01*
X6327040Y-12290056D01*
X6314570Y-12276206D01*
X6203675Y-12153045D01*
X6203674Y-12153044D01*
X6199253Y-12148134D01*
X6089951Y-12068721D01*
X6050094Y-12039763D01*
X6050093Y-12039762D01*
X6044752Y-12035882D01*
X6038724Y-12033198D01*
X6038722Y-12033197D01*
X5876319Y-11960891D01*
X5876318Y-11960891D01*
X5870288Y-11958206D01*
X5776888Y-11938353D01*
X5689944Y-11919872D01*
X5689939Y-11919872D01*
X5683487Y-11918500D01*
X5492513Y-11918500D01*
X5486061Y-11919872D01*
X5486056Y-11919872D01*
X5399112Y-11938353D01*
X5305712Y-11958206D01*
X5299682Y-11960891D01*
X5299681Y-11960891D01*
X5137278Y-12033197D01*
X5137276Y-12033198D01*
X5131248Y-12035882D01*
X5125907Y-12039762D01*
X5125906Y-12039763D01*
X5005230Y-12127440D01*
X4938363Y-12151298D01*
X4869211Y-12135218D01*
X4819731Y-12084304D01*
X4805631Y-12014722D01*
X4818212Y-11969677D01*
X4877136Y-11850453D01*
X4877137Y-11850451D01*
X4879430Y-11845811D01*
X4919798Y-11712944D01*
X4942865Y-11637023D01*
X4942865Y-11637021D01*
X4944370Y-11632069D01*
X4973529Y-11410590D01*
X4975156Y-11344000D01*
X4956852Y-11121361D01*
X4902431Y-10904702D01*
X4813354Y-10699840D01*
X4747060Y-10597365D01*
X4694822Y-10516617D01*
X4694820Y-10516614D01*
X4692014Y-10512277D01*
X4602589Y-10414000D01*
X9500496Y-10414000D01*
X9501186Y-10420565D01*
X9508826Y-10493251D01*
X9520458Y-10603928D01*
X9579473Y-10785556D01*
X9674960Y-10950944D01*
X9679378Y-10955851D01*
X9679379Y-10955852D01*
X9706589Y-10986072D01*
X9802747Y-11092866D01*
X9885664Y-11153109D01*
X9942122Y-11194128D01*
X9957248Y-11205118D01*
X9963276Y-11207802D01*
X9963278Y-11207803D01*
X10125681Y-11280109D01*
X10131712Y-11282794D01*
X10225112Y-11302647D01*
X10312056Y-11321128D01*
X10312061Y-11321128D01*
X10318513Y-11322500D01*
X10509487Y-11322500D01*
X10515939Y-11321128D01*
X10515944Y-11321128D01*
X10602888Y-11302647D01*
X10696288Y-11282794D01*
X10702319Y-11280109D01*
X10864722Y-11207803D01*
X10864724Y-11207802D01*
X10870752Y-11205118D01*
X10885879Y-11194128D01*
X10910830Y-11176000D01*
X19533496Y-11176000D01*
X19534186Y-11182565D01*
X19548894Y-11322500D01*
X19553458Y-11365928D01*
X19612473Y-11547556D01*
X19707960Y-11712944D01*
X19712378Y-11717851D01*
X19712379Y-11717852D01*
X19756753Y-11767134D01*
X19835747Y-11854866D01*
X19875563Y-11883794D01*
X19984608Y-11963020D01*
X19990248Y-11967118D01*
X19996276Y-11969802D01*
X19996278Y-11969803D01*
X20144695Y-12035882D01*
X20164712Y-12044794D01*
X20258113Y-12064647D01*
X20345056Y-12083128D01*
X20345061Y-12083128D01*
X20351513Y-12084500D01*
X20542487Y-12084500D01*
X20548939Y-12083128D01*
X20548944Y-12083128D01*
X20635888Y-12064647D01*
X20729288Y-12044794D01*
X20749305Y-12035882D01*
X20897722Y-11969803D01*
X20897724Y-11969802D01*
X20903752Y-11967118D01*
X20909393Y-11963020D01*
X21018437Y-11883794D01*
X21058253Y-11854866D01*
X21137247Y-11767134D01*
X21181621Y-11717852D01*
X21181622Y-11717851D01*
X21186040Y-11712944D01*
X21281527Y-11547556D01*
X21340542Y-11365928D01*
X21345107Y-11322500D01*
X21359814Y-11182565D01*
X21360504Y-11176000D01*
X21359814Y-11169435D01*
X21341232Y-10992635D01*
X21341232Y-10992633D01*
X21340542Y-10986072D01*
X21319724Y-10922000D01*
X35662496Y-10922000D01*
X35663186Y-10928565D01*
X35680863Y-11096749D01*
X35682458Y-11111928D01*
X35741473Y-11293556D01*
X35836960Y-11458944D01*
X35841378Y-11463851D01*
X35841379Y-11463852D01*
X35942208Y-11575834D01*
X35964747Y-11600866D01*
X36119248Y-11713118D01*
X36125276Y-11715802D01*
X36125278Y-11715803D01*
X36287681Y-11788109D01*
X36293712Y-11790794D01*
X36387113Y-11810647D01*
X36474056Y-11829128D01*
X36474061Y-11829128D01*
X36480513Y-11830500D01*
X36671487Y-11830500D01*
X36677939Y-11829128D01*
X36677944Y-11829128D01*
X36764888Y-11810647D01*
X36858288Y-11790794D01*
X36864319Y-11788109D01*
X37026722Y-11715803D01*
X37026724Y-11715802D01*
X37032752Y-11713118D01*
X37187253Y-11600866D01*
X37209792Y-11575834D01*
X37310621Y-11463852D01*
X37310622Y-11463851D01*
X37315040Y-11458944D01*
X37410527Y-11293556D01*
X37469542Y-11111928D01*
X37471138Y-11096749D01*
X37488814Y-10928565D01*
X37489504Y-10922000D01*
X37469542Y-10732072D01*
X37410527Y-10550444D01*
X37315040Y-10385056D01*
X37264003Y-10328373D01*
X37226750Y-10287000D01*
X42901496Y-10287000D01*
X42902186Y-10293565D01*
X42912192Y-10388763D01*
X42921458Y-10476928D01*
X42980473Y-10658556D01*
X43075960Y-10823944D01*
X43080378Y-10828851D01*
X43080379Y-10828852D01*
X43148675Y-10904702D01*
X43203747Y-10965866D01*
X43358248Y-11078118D01*
X43364276Y-11080802D01*
X43364278Y-11080803D01*
X43526681Y-11153109D01*
X43532712Y-11155794D01*
X43626113Y-11175647D01*
X43713056Y-11194128D01*
X43713061Y-11194128D01*
X43719513Y-11195500D01*
X43910487Y-11195500D01*
X43916939Y-11194128D01*
X43916944Y-11194128D01*
X44003887Y-11175647D01*
X44097288Y-11155794D01*
X44103319Y-11153109D01*
X44265722Y-11080803D01*
X44265724Y-11080802D01*
X44271752Y-11078118D01*
X44426253Y-10965866D01*
X44481325Y-10904702D01*
X44549621Y-10828852D01*
X44549622Y-10828851D01*
X44554040Y-10823944D01*
X44649527Y-10658556D01*
X44708542Y-10476928D01*
X44717809Y-10388763D01*
X44727814Y-10293565D01*
X44728504Y-10287000D01*
X44726599Y-10268872D01*
X44709232Y-10103635D01*
X44709232Y-10103633D01*
X44708542Y-10097072D01*
X44649527Y-9915444D01*
X44554040Y-9750056D01*
X44508744Y-9699749D01*
X44430321Y-9612652D01*
X44399603Y-9548645D01*
X44408368Y-9478191D01*
X44453831Y-9423660D01*
X44521558Y-9402365D01*
X44550155Y-9405096D01*
X44602049Y-9416127D01*
X44602058Y-9416128D01*
X44608513Y-9417500D01*
X44799487Y-9417500D01*
X44805939Y-9416128D01*
X44805944Y-9416128D01*
X44892887Y-9397647D01*
X44986288Y-9377794D01*
X44998538Y-9372340D01*
X45154722Y-9302803D01*
X45154724Y-9302802D01*
X45160752Y-9300118D01*
X45315253Y-9187866D01*
X45443040Y-9045944D01*
X45538527Y-8880556D01*
X45597542Y-8698928D01*
X45617504Y-8509000D01*
X45599563Y-8338297D01*
X45598232Y-8325635D01*
X45598232Y-8325633D01*
X45597542Y-8319072D01*
X45538527Y-8137444D01*
X45443040Y-7972056D01*
X45419704Y-7946138D01*
X45319675Y-7835045D01*
X45319674Y-7835044D01*
X45315253Y-7830134D01*
X45187831Y-7737556D01*
X45166094Y-7721763D01*
X45166093Y-7721762D01*
X45160752Y-7717882D01*
X45154724Y-7715198D01*
X45154722Y-7715197D01*
X44992319Y-7642891D01*
X44992318Y-7642891D01*
X44986288Y-7640206D01*
X44892888Y-7620353D01*
X44805944Y-7601872D01*
X44805939Y-7601872D01*
X44799487Y-7600500D01*
X44608513Y-7600500D01*
X44602061Y-7601872D01*
X44602056Y-7601872D01*
X44515112Y-7620353D01*
X44421712Y-7640206D01*
X44415682Y-7642891D01*
X44415681Y-7642891D01*
X44253278Y-7715197D01*
X44253276Y-7715198D01*
X44247248Y-7717882D01*
X44241907Y-7721762D01*
X44241906Y-7721763D01*
X44220169Y-7737556D01*
X44092747Y-7830134D01*
X44088326Y-7835044D01*
X44088325Y-7835045D01*
X43988297Y-7946138D01*
X43964960Y-7972056D01*
X43869473Y-8137444D01*
X43810458Y-8319072D01*
X43809768Y-8325633D01*
X43809768Y-8325635D01*
X43808437Y-8338297D01*
X43790496Y-8509000D01*
X43810458Y-8698928D01*
X43869473Y-8880556D01*
X43964960Y-9045944D01*
X43969378Y-9050851D01*
X43969379Y-9050852D01*
X44088679Y-9183348D01*
X44119397Y-9247355D01*
X44110632Y-9317809D01*
X44065169Y-9372340D01*
X43997442Y-9393635D01*
X43968845Y-9390904D01*
X43916951Y-9379873D01*
X43916942Y-9379872D01*
X43910487Y-9378500D01*
X43719513Y-9378500D01*
X43713061Y-9379872D01*
X43713056Y-9379872D01*
X43645279Y-9394279D01*
X43532712Y-9418206D01*
X43526682Y-9420891D01*
X43526681Y-9420891D01*
X43364278Y-9493197D01*
X43364276Y-9493198D01*
X43358248Y-9495882D01*
X43352907Y-9499762D01*
X43352906Y-9499763D01*
X43302843Y-9536136D01*
X43203747Y-9608134D01*
X43199326Y-9613044D01*
X43199325Y-9613045D01*
X43121257Y-9699749D01*
X43075960Y-9750056D01*
X42980473Y-9915444D01*
X42921458Y-10097072D01*
X42920768Y-10103633D01*
X42920768Y-10103635D01*
X42903401Y-10268872D01*
X42901496Y-10287000D01*
X37226750Y-10287000D01*
X37191675Y-10248045D01*
X37191674Y-10248044D01*
X37187253Y-10243134D01*
X37088157Y-10171136D01*
X37038094Y-10134763D01*
X37038093Y-10134762D01*
X37032752Y-10130882D01*
X37026724Y-10128198D01*
X37026722Y-10128197D01*
X36864319Y-10055891D01*
X36864318Y-10055891D01*
X36858288Y-10053206D01*
X36764817Y-10033338D01*
X36677944Y-10014872D01*
X36677939Y-10014872D01*
X36671487Y-10013500D01*
X36480513Y-10013500D01*
X36474061Y-10014872D01*
X36474056Y-10014872D01*
X36387183Y-10033338D01*
X36293712Y-10053206D01*
X36287682Y-10055891D01*
X36287681Y-10055891D01*
X36125278Y-10128197D01*
X36125276Y-10128198D01*
X36119248Y-10130882D01*
X36113907Y-10134762D01*
X36113906Y-10134763D01*
X36063843Y-10171136D01*
X35964747Y-10243134D01*
X35960326Y-10248044D01*
X35960325Y-10248045D01*
X35887998Y-10328373D01*
X35836960Y-10385056D01*
X35741473Y-10550444D01*
X35682458Y-10732072D01*
X35662496Y-10922000D01*
X21319724Y-10922000D01*
X21281527Y-10804444D01*
X21186040Y-10639056D01*
X21160064Y-10610206D01*
X21062675Y-10502045D01*
X21062674Y-10502044D01*
X21058253Y-10497134D01*
X20943829Y-10414000D01*
X20909094Y-10388763D01*
X20909093Y-10388762D01*
X20903752Y-10384882D01*
X20897724Y-10382198D01*
X20897722Y-10382197D01*
X20735319Y-10309891D01*
X20735318Y-10309891D01*
X20729288Y-10307206D01*
X20634227Y-10287000D01*
X20548944Y-10268872D01*
X20548939Y-10268872D01*
X20542487Y-10267500D01*
X20351513Y-10267500D01*
X20345061Y-10268872D01*
X20345056Y-10268872D01*
X20259773Y-10287000D01*
X20164712Y-10307206D01*
X20158682Y-10309891D01*
X20158681Y-10309891D01*
X19996278Y-10382197D01*
X19996276Y-10382198D01*
X19990248Y-10384882D01*
X19984907Y-10388762D01*
X19984906Y-10388763D01*
X19950171Y-10414000D01*
X19835747Y-10497134D01*
X19831326Y-10502044D01*
X19831325Y-10502045D01*
X19733937Y-10610206D01*
X19707960Y-10639056D01*
X19612473Y-10804444D01*
X19553458Y-10986072D01*
X19552768Y-10992633D01*
X19552768Y-10992635D01*
X19534186Y-11169435D01*
X19533496Y-11176000D01*
X10910830Y-11176000D01*
X10942336Y-11153109D01*
X11025253Y-11092866D01*
X11121411Y-10986072D01*
X11148621Y-10955852D01*
X11148622Y-10955851D01*
X11153040Y-10950944D01*
X11248527Y-10785556D01*
X11307542Y-10603928D01*
X11319175Y-10493251D01*
X11326814Y-10420565D01*
X11327504Y-10414000D01*
X11320869Y-10350870D01*
X11308232Y-10230635D01*
X11308232Y-10230633D01*
X11307542Y-10224072D01*
X11248527Y-10042444D01*
X11223743Y-9999516D01*
X11180217Y-9924128D01*
X11153040Y-9877056D01*
X11124333Y-9845173D01*
X11029675Y-9740045D01*
X11029674Y-9740044D01*
X11025253Y-9735134D01*
X10870752Y-9622882D01*
X10864724Y-9620198D01*
X10864722Y-9620197D01*
X10702319Y-9547891D01*
X10702318Y-9547891D01*
X10696288Y-9545206D01*
X10599693Y-9524674D01*
X10515944Y-9506872D01*
X10515939Y-9506872D01*
X10509487Y-9505500D01*
X10318513Y-9505500D01*
X10312061Y-9506872D01*
X10312056Y-9506872D01*
X10228307Y-9524674D01*
X10131712Y-9545206D01*
X10125682Y-9547891D01*
X10125681Y-9547891D01*
X9963278Y-9620197D01*
X9963276Y-9620198D01*
X9957248Y-9622882D01*
X9802747Y-9735134D01*
X9798326Y-9740044D01*
X9798325Y-9740045D01*
X9703668Y-9845173D01*
X9674960Y-9877056D01*
X9647783Y-9924128D01*
X9604258Y-9999516D01*
X9579473Y-10042444D01*
X9520458Y-10224072D01*
X9519768Y-10230633D01*
X9519768Y-10230635D01*
X9507131Y-10350870D01*
X9500496Y-10414000D01*
X4602589Y-10414000D01*
X4541670Y-10347051D01*
X4537619Y-10343852D01*
X4537615Y-10343848D01*
X4370414Y-10211800D01*
X4370410Y-10211798D01*
X4366359Y-10208598D01*
X4325053Y-10185796D01*
X4275084Y-10135364D01*
X4260312Y-10065921D01*
X4285428Y-9999516D01*
X4312780Y-9972909D01*
X4379245Y-9925500D01*
X4491860Y-9845173D01*
X4650096Y-9687489D01*
X4709594Y-9604689D01*
X4777435Y-9510277D01*
X4780453Y-9506077D01*
X4822555Y-9420891D01*
X4877136Y-9310453D01*
X4877137Y-9310451D01*
X4879430Y-9305811D01*
X4944370Y-9092069D01*
X4954253Y-9017000D01*
X29058496Y-9017000D01*
X29059186Y-9023565D01*
X29076863Y-9191749D01*
X29078458Y-9206928D01*
X29137473Y-9388556D01*
X29140776Y-9394278D01*
X29140777Y-9394279D01*
X29146500Y-9404191D01*
X29232960Y-9553944D01*
X29237378Y-9558851D01*
X29237379Y-9558852D01*
X29278651Y-9604689D01*
X29360747Y-9695866D01*
X29515248Y-9808118D01*
X29521276Y-9810802D01*
X29521278Y-9810803D01*
X29659062Y-9872148D01*
X29689712Y-9885794D01*
X29783112Y-9905647D01*
X29870056Y-9924128D01*
X29870061Y-9924128D01*
X29876513Y-9925500D01*
X30067487Y-9925500D01*
X30073939Y-9924128D01*
X30073944Y-9924128D01*
X30160888Y-9905647D01*
X30254288Y-9885794D01*
X30284938Y-9872148D01*
X30422722Y-9810803D01*
X30422724Y-9810802D01*
X30428752Y-9808118D01*
X30583253Y-9695866D01*
X30665349Y-9604689D01*
X30703864Y-9561914D01*
X30764310Y-9524674D01*
X30835294Y-9526026D01*
X30891136Y-9561914D01*
X30929651Y-9604689D01*
X31011747Y-9695866D01*
X31166248Y-9808118D01*
X31172276Y-9810802D01*
X31172278Y-9810803D01*
X31310062Y-9872148D01*
X31340712Y-9885794D01*
X31434112Y-9905647D01*
X31521056Y-9924128D01*
X31521061Y-9924128D01*
X31527513Y-9925500D01*
X31718487Y-9925500D01*
X31724939Y-9924128D01*
X31724944Y-9924128D01*
X31811888Y-9905647D01*
X31905288Y-9885794D01*
X31935938Y-9872148D01*
X32073722Y-9810803D01*
X32073724Y-9810802D01*
X32079752Y-9808118D01*
X32234253Y-9695866D01*
X32316349Y-9604689D01*
X32357621Y-9558852D01*
X32357622Y-9558851D01*
X32362040Y-9553944D01*
X32448500Y-9404191D01*
X32454223Y-9394279D01*
X32454224Y-9394278D01*
X32457527Y-9388556D01*
X32516542Y-9206928D01*
X32518138Y-9191749D01*
X32535814Y-9023565D01*
X32536504Y-9017000D01*
X40107496Y-9017000D01*
X40108186Y-9023565D01*
X40125863Y-9191749D01*
X40127458Y-9206928D01*
X40186473Y-9388556D01*
X40189776Y-9394278D01*
X40189777Y-9394279D01*
X40195500Y-9404191D01*
X40281960Y-9553944D01*
X40286378Y-9558851D01*
X40286379Y-9558852D01*
X40327651Y-9604689D01*
X40409747Y-9695866D01*
X40564248Y-9808118D01*
X40570276Y-9810802D01*
X40570278Y-9810803D01*
X40708062Y-9872148D01*
X40738712Y-9885794D01*
X40832112Y-9905647D01*
X40919056Y-9924128D01*
X40919061Y-9924128D01*
X40925513Y-9925500D01*
X41116487Y-9925500D01*
X41122939Y-9924128D01*
X41122944Y-9924128D01*
X41209888Y-9905647D01*
X41303288Y-9885794D01*
X41333938Y-9872148D01*
X41471722Y-9810803D01*
X41471724Y-9810802D01*
X41477752Y-9808118D01*
X41632253Y-9695866D01*
X41714349Y-9604689D01*
X41755621Y-9558852D01*
X41755622Y-9558851D01*
X41760040Y-9553944D01*
X41846500Y-9404191D01*
X41852223Y-9394279D01*
X41852224Y-9394278D01*
X41855527Y-9388556D01*
X41914542Y-9206928D01*
X41916138Y-9191749D01*
X41933814Y-9023565D01*
X41934504Y-9017000D01*
X41914542Y-8827072D01*
X41855527Y-8645444D01*
X41760040Y-8480056D01*
X41632253Y-8338134D01*
X41491907Y-8236166D01*
X41483094Y-8229763D01*
X41483093Y-8229762D01*
X41477752Y-8225882D01*
X41471724Y-8223198D01*
X41471722Y-8223197D01*
X41309319Y-8150891D01*
X41309318Y-8150891D01*
X41303288Y-8148206D01*
X41200704Y-8126401D01*
X41122944Y-8109872D01*
X41122939Y-8109872D01*
X41116487Y-8108500D01*
X40925513Y-8108500D01*
X40919061Y-8109872D01*
X40919056Y-8109872D01*
X40841296Y-8126401D01*
X40738712Y-8148206D01*
X40732682Y-8150891D01*
X40732681Y-8150891D01*
X40570278Y-8223197D01*
X40570276Y-8223198D01*
X40564248Y-8225882D01*
X40558907Y-8229762D01*
X40558906Y-8229763D01*
X40550093Y-8236166D01*
X40409747Y-8338134D01*
X40281960Y-8480056D01*
X40186473Y-8645444D01*
X40127458Y-8827072D01*
X40107496Y-9017000D01*
X32536504Y-9017000D01*
X32516542Y-8827072D01*
X32457527Y-8645444D01*
X32362040Y-8480056D01*
X32234253Y-8338134D01*
X32093907Y-8236166D01*
X32085094Y-8229763D01*
X32085093Y-8229762D01*
X32079752Y-8225882D01*
X32073724Y-8223198D01*
X32073722Y-8223197D01*
X31911319Y-8150891D01*
X31911318Y-8150891D01*
X31905288Y-8148206D01*
X31802704Y-8126401D01*
X31724944Y-8109872D01*
X31724939Y-8109872D01*
X31718487Y-8108500D01*
X31527513Y-8108500D01*
X31521061Y-8109872D01*
X31521056Y-8109872D01*
X31443296Y-8126401D01*
X31340712Y-8148206D01*
X31334682Y-8150891D01*
X31334681Y-8150891D01*
X31172278Y-8223197D01*
X31172276Y-8223198D01*
X31166248Y-8225882D01*
X31160907Y-8229762D01*
X31160906Y-8229763D01*
X31152093Y-8236166D01*
X31011747Y-8338134D01*
X31007326Y-8343044D01*
X31007325Y-8343045D01*
X30891136Y-8472086D01*
X30830690Y-8509326D01*
X30759706Y-8507974D01*
X30703864Y-8472086D01*
X30587675Y-8343045D01*
X30587674Y-8343044D01*
X30583253Y-8338134D01*
X30442907Y-8236166D01*
X30434094Y-8229763D01*
X30434093Y-8229762D01*
X30428752Y-8225882D01*
X30422724Y-8223198D01*
X30422722Y-8223197D01*
X30260319Y-8150891D01*
X30260318Y-8150891D01*
X30254288Y-8148206D01*
X30151704Y-8126401D01*
X30073944Y-8109872D01*
X30073939Y-8109872D01*
X30067487Y-8108500D01*
X29876513Y-8108500D01*
X29870061Y-8109872D01*
X29870056Y-8109872D01*
X29792296Y-8126401D01*
X29689712Y-8148206D01*
X29683682Y-8150891D01*
X29683681Y-8150891D01*
X29521278Y-8223197D01*
X29521276Y-8223198D01*
X29515248Y-8225882D01*
X29509907Y-8229762D01*
X29509906Y-8229763D01*
X29501093Y-8236166D01*
X29360747Y-8338134D01*
X29232960Y-8480056D01*
X29137473Y-8645444D01*
X29078458Y-8827072D01*
X29058496Y-9017000D01*
X4954253Y-9017000D01*
X4973529Y-8870590D01*
X4975156Y-8804000D01*
X4956852Y-8581361D01*
X4902431Y-8364702D01*
X4813354Y-8159840D01*
X4692014Y-7972277D01*
X4541670Y-7807051D01*
X4537619Y-7803852D01*
X4537615Y-7803848D01*
X4370414Y-7671800D01*
X4370410Y-7671798D01*
X4366359Y-7668598D01*
X4170789Y-7560638D01*
X4165920Y-7558914D01*
X4165916Y-7558912D01*
X3965087Y-7487795D01*
X3965083Y-7487794D01*
X3960212Y-7486069D01*
X3955119Y-7485162D01*
X3955116Y-7485161D01*
X3745373Y-7447800D01*
X3745367Y-7447799D01*
X3740284Y-7446894D01*
X3666452Y-7445992D01*
X3522081Y-7444228D01*
X3522079Y-7444228D01*
X3516911Y-7444165D01*
X3296091Y-7477955D01*
X3083756Y-7547357D01*
X3055231Y-7562206D01*
X2908031Y-7638834D01*
X2885607Y-7650507D01*
X2881474Y-7653610D01*
X2881471Y-7653612D01*
X2778039Y-7731271D01*
X2706965Y-7784635D01*
X2552629Y-7946138D01*
X2549715Y-7950410D01*
X2549714Y-7950411D01*
X2464556Y-8075249D01*
X2426743Y-8130680D01*
X2411003Y-8164590D01*
X2339295Y-8319072D01*
X2332688Y-8333305D01*
X2272989Y-8548570D01*
X2249251Y-8770695D01*
X2249548Y-8775848D01*
X2249548Y-8775851D01*
X2255011Y-8870590D01*
X2262110Y-8993715D01*
X2263247Y-8998761D01*
X2263248Y-8998767D01*
X2283119Y-9086939D01*
X2311222Y-9211639D01*
X2348240Y-9302803D01*
X2389409Y-9404191D01*
X2395266Y-9418616D01*
X2440969Y-9493197D01*
X2474948Y-9548645D01*
X2511987Y-9609088D01*
X2658250Y-9777938D01*
X2830126Y-9920632D01*
X2836109Y-9924128D01*
X2903445Y-9963476D01*
X2952169Y-10015114D01*
X2965240Y-10084897D01*
X2938509Y-10150669D01*
X2898055Y-10184027D01*
X2885607Y-10190507D01*
X2881474Y-10193610D01*
X2881471Y-10193612D01*
X2730178Y-10307206D01*
X2706965Y-10324635D01*
X2552629Y-10486138D01*
X2426743Y-10670680D01*
X2379716Y-10771992D01*
X2355601Y-10823944D01*
X2332688Y-10873305D01*
X2272989Y-11088570D01*
X2249251Y-11310695D01*
X508000Y-11310695D01*
X508000Y-6731000D01*
X19025496Y-6731000D01*
X19045458Y-6920928D01*
X19104473Y-7102556D01*
X19199960Y-7267944D01*
X19327747Y-7409866D01*
X19482248Y-7522118D01*
X19488276Y-7524802D01*
X19488278Y-7524803D01*
X19650681Y-7597109D01*
X19656712Y-7599794D01*
X19750112Y-7619647D01*
X19837056Y-7638128D01*
X19837061Y-7638128D01*
X19843513Y-7639500D01*
X20034487Y-7639500D01*
X20040939Y-7638128D01*
X20040944Y-7638128D01*
X20127888Y-7619647D01*
X20221288Y-7599794D01*
X20227319Y-7597109D01*
X20389722Y-7524803D01*
X20389724Y-7524802D01*
X20395752Y-7522118D01*
X20550253Y-7409866D01*
X20589750Y-7366000D01*
X24105496Y-7366000D01*
X24106186Y-7372565D01*
X24122187Y-7524803D01*
X24125458Y-7555928D01*
X24184473Y-7737556D01*
X24279960Y-7902944D01*
X24284378Y-7907851D01*
X24284379Y-7907852D01*
X24346295Y-7976617D01*
X24407747Y-8044866D01*
X24495331Y-8108500D01*
X24549982Y-8148206D01*
X24562248Y-8157118D01*
X24568276Y-8159802D01*
X24568278Y-8159803D01*
X24716695Y-8225882D01*
X24736712Y-8234794D01*
X24830113Y-8254647D01*
X24917056Y-8273128D01*
X24917061Y-8273128D01*
X24923513Y-8274500D01*
X25114487Y-8274500D01*
X25120939Y-8273128D01*
X25120944Y-8273128D01*
X25207887Y-8254647D01*
X25301288Y-8234794D01*
X25321305Y-8225882D01*
X25469722Y-8159803D01*
X25469724Y-8159802D01*
X25475752Y-8157118D01*
X25488019Y-8148206D01*
X25542669Y-8108500D01*
X25630253Y-8044866D01*
X25691705Y-7976617D01*
X25753621Y-7907852D01*
X25753622Y-7907851D01*
X25758040Y-7902944D01*
X25853527Y-7737556D01*
X25912542Y-7555928D01*
X25915814Y-7524803D01*
X25931814Y-7372565D01*
X25932504Y-7366000D01*
X25912542Y-7176072D01*
X25853527Y-6994444D01*
X25758040Y-6829056D01*
X25630253Y-6687134D01*
X25475752Y-6574882D01*
X25469724Y-6572198D01*
X25469722Y-6572197D01*
X25307319Y-6499891D01*
X25307318Y-6499891D01*
X25301288Y-6497206D01*
X25207887Y-6477353D01*
X25120944Y-6458872D01*
X25120939Y-6458872D01*
X25114487Y-6457500D01*
X24923513Y-6457500D01*
X24917061Y-6458872D01*
X24917056Y-6458872D01*
X24830112Y-6477353D01*
X24736712Y-6497206D01*
X24730682Y-6499891D01*
X24730681Y-6499891D01*
X24568278Y-6572197D01*
X24568276Y-6572198D01*
X24562248Y-6574882D01*
X24407747Y-6687134D01*
X24279960Y-6829056D01*
X24184473Y-6994444D01*
X24125458Y-7176072D01*
X24105496Y-7366000D01*
X20589750Y-7366000D01*
X20678040Y-7267944D01*
X20773527Y-7102556D01*
X20832542Y-6920928D01*
X20852504Y-6731000D01*
X20847485Y-6683251D01*
X20833232Y-6547635D01*
X20833232Y-6547633D01*
X20832542Y-6541072D01*
X20773527Y-6359444D01*
X20678040Y-6194056D01*
X20550253Y-6052134D01*
X20395752Y-5939882D01*
X20389724Y-5937198D01*
X20389722Y-5937197D01*
X20227319Y-5864891D01*
X20227318Y-5864891D01*
X20221288Y-5862206D01*
X20127887Y-5842353D01*
X20040944Y-5823872D01*
X20040939Y-5823872D01*
X20034487Y-5822500D01*
X19843513Y-5822500D01*
X19837061Y-5823872D01*
X19837056Y-5823872D01*
X19750113Y-5842353D01*
X19656712Y-5862206D01*
X19650682Y-5864891D01*
X19650681Y-5864891D01*
X19488278Y-5937197D01*
X19488276Y-5937198D01*
X19482248Y-5939882D01*
X19327747Y-6052134D01*
X19199960Y-6194056D01*
X19104473Y-6359444D01*
X19045458Y-6541072D01*
X19044768Y-6547633D01*
X19044768Y-6547635D01*
X19030515Y-6683251D01*
X19025496Y-6731000D01*
X508000Y-6731000D01*
X508000Y-3500000D01*
X1886526Y-3500000D01*
X1906391Y-3752403D01*
X1907545Y-3757210D01*
X1907546Y-3757216D01*
X1945179Y-3913968D01*
X1965495Y-3998591D01*
X1967388Y-4003162D01*
X1967389Y-4003164D01*
X2047557Y-4196706D01*
X2062384Y-4232502D01*
X2194672Y-4448376D01*
X2359102Y-4640898D01*
X2551624Y-4805328D01*
X2767498Y-4937616D01*
X2772068Y-4939509D01*
X2772072Y-4939511D01*
X2996836Y-5032611D01*
X3001409Y-5034505D01*
X3086032Y-5054821D01*
X3242784Y-5092454D01*
X3242790Y-5092455D01*
X3247597Y-5093609D01*
X3347416Y-5101465D01*
X3434345Y-5108307D01*
X3434352Y-5108307D01*
X3436801Y-5108500D01*
X3563199Y-5108500D01*
X3565648Y-5108307D01*
X3565655Y-5108307D01*
X3652584Y-5101465D01*
X3752403Y-5093609D01*
X3757210Y-5092455D01*
X3757216Y-5092454D01*
X3913968Y-5054821D01*
X3998591Y-5034505D01*
X4003164Y-5032611D01*
X4227928Y-4939511D01*
X4227932Y-4939509D01*
X4232502Y-4937616D01*
X4448376Y-4805328D01*
X4640898Y-4640898D01*
X4805328Y-4448376D01*
X4885223Y-4318000D01*
X39472496Y-4318000D01*
X39492458Y-4507928D01*
X39551473Y-4689556D01*
X39646960Y-4854944D01*
X39774747Y-4996866D01*
X39929248Y-5109118D01*
X39935276Y-5111802D01*
X39935278Y-5111803D01*
X40097681Y-5184109D01*
X40103712Y-5186794D01*
X40197112Y-5206647D01*
X40284056Y-5225128D01*
X40284061Y-5225128D01*
X40290513Y-5226500D01*
X40481487Y-5226500D01*
X40487939Y-5225128D01*
X40487944Y-5225128D01*
X40574888Y-5206647D01*
X40668288Y-5186794D01*
X40674319Y-5184109D01*
X40836722Y-5111803D01*
X40836724Y-5111802D01*
X40842752Y-5109118D01*
X40997253Y-4996866D01*
X41125040Y-4854944D01*
X41220527Y-4689556D01*
X41279542Y-4507928D01*
X41299504Y-4318000D01*
X41298814Y-4311435D01*
X41280232Y-4134635D01*
X41280232Y-4134633D01*
X41279542Y-4128072D01*
X41238091Y-4000500D01*
X44488996Y-4000500D01*
X44508958Y-4190428D01*
X44567973Y-4372056D01*
X44663460Y-4537444D01*
X44791247Y-4679366D01*
X44945748Y-4791618D01*
X44951776Y-4794302D01*
X44951778Y-4794303D01*
X45114181Y-4866609D01*
X45120212Y-4869294D01*
X45213613Y-4889147D01*
X45300556Y-4907628D01*
X45300561Y-4907628D01*
X45307013Y-4909000D01*
X45497987Y-4909000D01*
X45504439Y-4907628D01*
X45504444Y-4907628D01*
X45591387Y-4889147D01*
X45684788Y-4869294D01*
X45690819Y-4866609D01*
X45853222Y-4794303D01*
X45853224Y-4794302D01*
X45859252Y-4791618D01*
X46013753Y-4679366D01*
X46141540Y-4537444D01*
X46237027Y-4372056D01*
X46296042Y-4190428D01*
X46316004Y-4000500D01*
X46296042Y-3810572D01*
X46237027Y-3628944D01*
X46162581Y-3500000D01*
X54886526Y-3500000D01*
X54906391Y-3752403D01*
X54907545Y-3757210D01*
X54907546Y-3757216D01*
X54945179Y-3913968D01*
X54965495Y-3998591D01*
X54967388Y-4003162D01*
X54967389Y-4003164D01*
X55047557Y-4196706D01*
X55062384Y-4232502D01*
X55194672Y-4448376D01*
X55359102Y-4640898D01*
X55551624Y-4805328D01*
X55767498Y-4937616D01*
X55772068Y-4939509D01*
X55772072Y-4939511D01*
X55996836Y-5032611D01*
X56001409Y-5034505D01*
X56086032Y-5054821D01*
X56242784Y-5092454D01*
X56242790Y-5092455D01*
X56247597Y-5093609D01*
X56347416Y-5101465D01*
X56434345Y-5108307D01*
X56434352Y-5108307D01*
X56436801Y-5108500D01*
X56563199Y-5108500D01*
X56565648Y-5108307D01*
X56565655Y-5108307D01*
X56652584Y-5101465D01*
X56752403Y-5093609D01*
X56757210Y-5092455D01*
X56757216Y-5092454D01*
X56913968Y-5054821D01*
X56998591Y-5034505D01*
X57003164Y-5032611D01*
X57227928Y-4939511D01*
X57227932Y-4939509D01*
X57232502Y-4937616D01*
X57448376Y-4805328D01*
X57640898Y-4640898D01*
X57805328Y-4448376D01*
X57937616Y-4232502D01*
X57952444Y-4196706D01*
X58032611Y-4003164D01*
X58032612Y-4003162D01*
X58034505Y-3998591D01*
X58054821Y-3913968D01*
X58092454Y-3757216D01*
X58092455Y-3757210D01*
X58093609Y-3752403D01*
X58113474Y-3500000D01*
X58093609Y-3247597D01*
X58085367Y-3213263D01*
X58035660Y-3006221D01*
X58034505Y-3001409D01*
X57937616Y-2767498D01*
X57805328Y-2551624D01*
X57640898Y-2359102D01*
X57448376Y-2194672D01*
X57232502Y-2062384D01*
X57227932Y-2060491D01*
X57227928Y-2060489D01*
X57003164Y-1967389D01*
X57003162Y-1967388D01*
X56998591Y-1965495D01*
X56908870Y-1943955D01*
X56757216Y-1907546D01*
X56757210Y-1907545D01*
X56752403Y-1906391D01*
X56652584Y-1898535D01*
X56565655Y-1891693D01*
X56565648Y-1891693D01*
X56563199Y-1891500D01*
X56436801Y-1891500D01*
X56434352Y-1891693D01*
X56434345Y-1891693D01*
X56347416Y-1898535D01*
X56247597Y-1906391D01*
X56242790Y-1907545D01*
X56242784Y-1907546D01*
X56091130Y-1943955D01*
X56001409Y-1965495D01*
X55996838Y-1967388D01*
X55996836Y-1967389D01*
X55772072Y-2060489D01*
X55772068Y-2060491D01*
X55767498Y-2062384D01*
X55551624Y-2194672D01*
X55359102Y-2359102D01*
X55194672Y-2551624D01*
X55062384Y-2767498D01*
X54965495Y-3001409D01*
X54964340Y-3006221D01*
X54914634Y-3213263D01*
X54906391Y-3247597D01*
X54886526Y-3500000D01*
X46162581Y-3500000D01*
X46141540Y-3463556D01*
X46013753Y-3321634D01*
X45859252Y-3209382D01*
X45853224Y-3206698D01*
X45853222Y-3206697D01*
X45690819Y-3134391D01*
X45690818Y-3134391D01*
X45684788Y-3131706D01*
X45591388Y-3111853D01*
X45504444Y-3093372D01*
X45504439Y-3093372D01*
X45497987Y-3092000D01*
X45307013Y-3092000D01*
X45300561Y-3093372D01*
X45300556Y-3093372D01*
X45213612Y-3111853D01*
X45120212Y-3131706D01*
X45114182Y-3134391D01*
X45114181Y-3134391D01*
X44951778Y-3206697D01*
X44951776Y-3206698D01*
X44945748Y-3209382D01*
X44791247Y-3321634D01*
X44663460Y-3463556D01*
X44567973Y-3628944D01*
X44508958Y-3810572D01*
X44488996Y-4000500D01*
X41238091Y-4000500D01*
X41220527Y-3946444D01*
X41125040Y-3781056D01*
X41103575Y-3757216D01*
X41001675Y-3644045D01*
X41001674Y-3644044D01*
X40997253Y-3639134D01*
X40842752Y-3526882D01*
X40836724Y-3524198D01*
X40836722Y-3524197D01*
X40674319Y-3451891D01*
X40674318Y-3451891D01*
X40668288Y-3449206D01*
X40574888Y-3429353D01*
X40487944Y-3410872D01*
X40487939Y-3410872D01*
X40481487Y-3409500D01*
X40290513Y-3409500D01*
X40284061Y-3410872D01*
X40284056Y-3410872D01*
X40197113Y-3429353D01*
X40103712Y-3449206D01*
X40097682Y-3451891D01*
X40097681Y-3451891D01*
X39935278Y-3524197D01*
X39935276Y-3524198D01*
X39929248Y-3526882D01*
X39774747Y-3639134D01*
X39770326Y-3644044D01*
X39770325Y-3644045D01*
X39668426Y-3757216D01*
X39646960Y-3781056D01*
X39551473Y-3946444D01*
X39492458Y-4128072D01*
X39491768Y-4134633D01*
X39491768Y-4134635D01*
X39473186Y-4311435D01*
X39472496Y-4318000D01*
X4885223Y-4318000D01*
X4937616Y-4232502D01*
X4952444Y-4196706D01*
X5032611Y-4003164D01*
X5032612Y-4003162D01*
X5034505Y-3998591D01*
X5054821Y-3913968D01*
X5092454Y-3757216D01*
X5092455Y-3757210D01*
X5093609Y-3752403D01*
X5113474Y-3500000D01*
X5093609Y-3247597D01*
X5085367Y-3213263D01*
X5035660Y-3006221D01*
X5034505Y-3001409D01*
X4937616Y-2767498D01*
X4805328Y-2551624D01*
X4640898Y-2359102D01*
X4448376Y-2194672D01*
X4232502Y-2062384D01*
X4227932Y-2060491D01*
X4227928Y-2060489D01*
X4003164Y-1967389D01*
X4003162Y-1967388D01*
X3998591Y-1965495D01*
X3908870Y-1943955D01*
X3757216Y-1907546D01*
X3757210Y-1907545D01*
X3752403Y-1906391D01*
X3652584Y-1898535D01*
X3565655Y-1891693D01*
X3565648Y-1891693D01*
X3563199Y-1891500D01*
X3436801Y-1891500D01*
X3434352Y-1891693D01*
X3434345Y-1891693D01*
X3347416Y-1898535D01*
X3247597Y-1906391D01*
X3242790Y-1907545D01*
X3242784Y-1907546D01*
X3091130Y-1943955D01*
X3001409Y-1965495D01*
X2996838Y-1967388D01*
X2996836Y-1967389D01*
X2772072Y-2060489D01*
X2772068Y-2060491D01*
X2767498Y-2062384D01*
X2551624Y-2194672D01*
X2359102Y-2359102D01*
X2194672Y-2551624D01*
X2062384Y-2767498D01*
X1965495Y-3001409D01*
X1964340Y-3006221D01*
X1914634Y-3213263D01*
X1906391Y-3247597D01*
X1886526Y-3500000D01*
X508000Y-3500000D01*
X508000Y-634000D01*
X528002Y-565879D01*
X581658Y-519386D01*
X634000Y-508000D01*
X49599601Y-508000D01*
X49667722Y-528002D01*
G37*
%TD.AperFunction*%
M02*
