%TF.GenerationSoftware,KiCad,Pcbnew,(6.99.0)*%
%TF.CreationDate,2022-12-27T22:07:25-08:00*%
%TF.ProjectId,eog-pcb-kicad,656f672d-7063-4622-9d6b-696361642e6b,rev?*%
%TF.SameCoordinates,Original*%
%TF.FileFunction,Soldermask,Top*%
%TF.FilePolarity,Negative*%
%FSLAX46Y46*%
G04 Gerber Fmt 4.6, Leading zero omitted, Abs format (unit mm)*
G04 Created by KiCad (PCBNEW (6.99.0)) date 2022-12-27 22:07:25*
%MOMM*%
%LPD*%
G01*
G04 APERTURE LIST*
G04 Aperture macros list*
%AMRoundRect*
0 Rectangle with rounded corners*
0 $1 Rounding radius*
0 $2 $3 $4 $5 $6 $7 $8 $9 X,Y pos of 4 corners*
0 Add a 4 corners polygon primitive as box body*
4,1,4,$2,$3,$4,$5,$6,$7,$8,$9,$2,$3,0*
0 Add four circle primitives for the rounded corners*
1,1,$1+$1,$2,$3*
1,1,$1+$1,$4,$5*
1,1,$1+$1,$6,$7*
1,1,$1+$1,$8,$9*
0 Add four rect primitives between the rounded corners*
20,1,$1+$1,$2,$3,$4,$5,0*
20,1,$1+$1,$4,$5,$6,$7,0*
20,1,$1+$1,$6,$7,$8,$9,0*
20,1,$1+$1,$8,$9,$2,$3,0*%
G04 Aperture macros list end*
%ADD10RoundRect,0.218750X0.218750X0.256250X-0.218750X0.256250X-0.218750X-0.256250X0.218750X-0.256250X0*%
%ADD11RoundRect,0.225000X-0.250000X0.225000X-0.250000X-0.225000X0.250000X-0.225000X0.250000X0.225000X0*%
%ADD12RoundRect,0.150000X-0.825000X-0.150000X0.825000X-0.150000X0.825000X0.150000X-0.825000X0.150000X0*%
%ADD13RoundRect,0.200000X0.200000X0.275000X-0.200000X0.275000X-0.200000X-0.275000X0.200000X-0.275000X0*%
%ADD14RoundRect,0.225000X0.250000X-0.225000X0.250000X0.225000X-0.250000X0.225000X-0.250000X-0.225000X0*%
%ADD15RoundRect,0.200000X-0.200000X-0.275000X0.200000X-0.275000X0.200000X0.275000X-0.200000X0.275000X0*%
%ADD16R,1.700000X1.700000*%
%ADD17O,1.700000X1.700000*%
%ADD18RoundRect,0.225000X-0.225000X-0.250000X0.225000X-0.250000X0.225000X0.250000X-0.225000X0.250000X0*%
%ADD19RoundRect,0.225000X0.225000X0.250000X-0.225000X0.250000X-0.225000X-0.250000X0.225000X-0.250000X0*%
%ADD20C,2.200000*%
%ADD21R,1.600000X5.700000*%
%ADD22R,2.250000X3.120000*%
%ADD23RoundRect,0.200000X-0.275000X0.200000X-0.275000X-0.200000X0.275000X-0.200000X0.275000X0.200000X0*%
%ADD24R,2.400000X2.900000*%
%ADD25RoundRect,0.125000X-0.537500X-0.125000X0.537500X-0.125000X0.537500X0.125000X-0.537500X0.125000X0*%
G04 APERTURE END LIST*
D10*
X56362500Y-9652000D03*
X57937500Y-9652000D03*
D11*
X20066000Y-22466000D03*
X20066000Y-24016000D03*
X18542000Y-11333500D03*
X18542000Y-9783500D03*
D12*
X43150500Y-22733000D03*
X43150500Y-24003000D03*
X43150500Y-25273000D03*
X43150500Y-26543000D03*
X48100500Y-26543000D03*
X48100500Y-25273000D03*
X48100500Y-24003000D03*
X48100500Y-22733000D03*
D13*
X26796000Y-5461000D03*
X25146000Y-5461000D03*
D11*
X19685000Y-29083000D03*
X19685000Y-30633000D03*
D13*
X52800500Y-26924000D03*
X51150500Y-26924000D03*
D11*
X18034000Y-30633000D03*
X18034000Y-29083000D03*
D14*
X12001500Y-11346500D03*
X12001500Y-9796500D03*
D15*
X7232000Y-23876000D03*
X8882000Y-23876000D03*
D13*
X21971000Y-2159000D03*
X23621000Y-2159000D03*
D16*
X57404000Y-24755000D03*
D17*
X57404000Y-22215000D03*
X57404000Y-19675000D03*
X57404000Y-17135000D03*
D18*
X25148000Y-22423000D03*
X26698000Y-22423000D03*
D15*
X6724000Y-7295000D03*
X8374000Y-7295000D03*
D19*
X25196000Y-3810000D03*
X26746000Y-3810000D03*
D15*
X50356000Y-7620000D03*
X52006000Y-7620000D03*
X6795000Y-10541000D03*
X8445000Y-10541000D03*
D12*
X22468500Y-7366000D03*
X22468500Y-8636000D03*
X22468500Y-9906000D03*
X22468500Y-11176000D03*
X27418500Y-11176000D03*
X27418500Y-9906000D03*
X27418500Y-8636000D03*
X27418500Y-7366000D03*
D15*
X7176000Y-27305000D03*
X8826000Y-27305000D03*
D14*
X13081000Y-29083000D03*
X13081000Y-30633000D03*
D20*
X56500000Y-3500000D03*
D12*
X34355000Y-28067000D03*
X34355000Y-29337000D03*
X34355000Y-30607000D03*
X34355000Y-31877000D03*
X34355000Y-33147000D03*
X34355000Y-34417000D03*
X34355000Y-35687000D03*
X39305000Y-35687000D03*
X39305000Y-34417000D03*
X39305000Y-33147000D03*
X39305000Y-31877000D03*
X39305000Y-30607000D03*
X39305000Y-29337000D03*
X39305000Y-28067000D03*
X13474500Y-13899000D03*
X13474500Y-15169000D03*
X13474500Y-16439000D03*
X13474500Y-17709000D03*
X18424500Y-17709000D03*
X18424500Y-16439000D03*
X18424500Y-15169000D03*
X18424500Y-13899000D03*
D21*
X34480000Y-20955000D03*
X39180000Y-20955000D03*
D18*
X18936000Y-33274000D03*
X17386000Y-33274000D03*
D13*
X52800500Y-23622000D03*
X51150500Y-23622000D03*
D19*
X30213000Y-31877000D03*
X31763000Y-31877000D03*
D15*
X6724000Y-8946000D03*
X8374000Y-8946000D03*
D18*
X14674000Y-19614000D03*
X13124000Y-19614000D03*
D11*
X29972000Y-5816000D03*
X29972000Y-7366000D03*
X29972000Y-26530000D03*
X29972000Y-28080000D03*
D13*
X21852000Y-25781000D03*
X23502000Y-25781000D03*
X26791000Y-25781000D03*
X25141000Y-25781000D03*
D12*
X12638000Y-23241000D03*
X12638000Y-24511000D03*
X12638000Y-25781000D03*
X12638000Y-27051000D03*
X17588000Y-27051000D03*
X17588000Y-25781000D03*
X17588000Y-24511000D03*
X17588000Y-23241000D03*
D13*
X57975000Y-11430000D03*
X56325000Y-11430000D03*
D18*
X23439000Y-24130000D03*
X21889000Y-24130000D03*
D22*
X23760500Y-17328000D03*
X30670500Y-17328000D03*
D14*
X42704500Y-29985000D03*
X42704500Y-28435000D03*
D12*
X12638000Y-3954500D03*
X12638000Y-5224500D03*
X12638000Y-6494500D03*
X12638000Y-7764500D03*
X17588000Y-7764500D03*
X17588000Y-6494500D03*
X17588000Y-5224500D03*
X17588000Y-3954500D03*
D11*
X31623000Y-5829000D03*
X31623000Y-7379000D03*
D20*
X3500000Y-37500000D03*
D19*
X26741000Y-24130000D03*
X25191000Y-24130000D03*
X51956000Y-2667000D03*
X50406000Y-2667000D03*
D15*
X14161000Y-2176500D03*
X15811000Y-2176500D03*
D16*
X3612000Y-13884000D03*
D17*
X3612000Y-11344000D03*
X3612000Y-8804000D03*
D20*
X56500000Y-37500000D03*
D13*
X23621000Y-5461000D03*
X21971000Y-5461000D03*
D15*
X16065000Y-21463000D03*
X14415000Y-21463000D03*
D16*
X3556000Y-30861000D03*
D17*
X3556000Y-28321000D03*
X3556000Y-25781000D03*
D14*
X42418000Y-10046000D03*
X42418000Y-8496000D03*
D20*
X3500000Y-3500000D03*
D19*
X21831000Y-13081000D03*
X23381000Y-13081000D03*
D11*
X14732000Y-30607000D03*
X14732000Y-29057000D03*
D13*
X52006000Y-5969000D03*
X50356000Y-5969000D03*
D11*
X31750000Y-26543000D03*
X31750000Y-28093000D03*
X15240000Y-11333500D03*
X15240000Y-9783500D03*
X16891000Y-11333500D03*
X16891000Y-9783500D03*
X19939000Y-3670000D03*
X19939000Y-5220000D03*
D18*
X25196000Y-2159000D03*
X26746000Y-2159000D03*
D12*
X34101000Y-7112000D03*
X34101000Y-8382000D03*
X34101000Y-9652000D03*
X34101000Y-10922000D03*
X34101000Y-12192000D03*
X34101000Y-13462000D03*
X34101000Y-14732000D03*
X39051000Y-14732000D03*
X39051000Y-13462000D03*
X39051000Y-12192000D03*
X39051000Y-10922000D03*
X39051000Y-9652000D03*
X39051000Y-8382000D03*
X39051000Y-7112000D03*
D23*
X8311000Y-3676000D03*
X8311000Y-5326000D03*
D24*
X51351500Y-17145000D03*
X45251500Y-17145000D03*
D25*
X45466000Y-10780000D03*
X45466000Y-11430000D03*
X45466000Y-12080000D03*
X45466000Y-12730000D03*
X47741000Y-12730000D03*
X47741000Y-12080000D03*
X47741000Y-11430000D03*
X47741000Y-10780000D03*
D15*
X7232000Y-25654000D03*
X8882000Y-25654000D03*
D25*
X46139000Y-29378000D03*
X46139000Y-30028000D03*
X46139000Y-30678000D03*
X46139000Y-31328000D03*
X48414000Y-31328000D03*
X48414000Y-30678000D03*
X48414000Y-30028000D03*
X48414000Y-29378000D03*
D11*
X16383000Y-30620000D03*
X16383000Y-29070000D03*
D16*
X9271000Y-38227000D03*
D17*
X11811000Y-38227000D03*
X14351000Y-38227000D03*
X16891000Y-38227000D03*
X19431000Y-38227000D03*
X21971000Y-38227000D03*
X24511000Y-38227000D03*
X27051000Y-38227000D03*
D12*
X42546500Y-2786500D03*
X42546500Y-4056500D03*
X42546500Y-5326500D03*
X42546500Y-6596500D03*
X47496500Y-6596500D03*
X47496500Y-5326500D03*
X47496500Y-4056500D03*
X47496500Y-2786500D03*
D24*
X3102000Y-20066000D03*
X9202000Y-20066000D03*
D25*
X7244500Y-31029000D03*
X7244500Y-31679000D03*
X7244500Y-32329000D03*
X7244500Y-32979000D03*
X9519500Y-32979000D03*
X9519500Y-32329000D03*
X9519500Y-31679000D03*
X9519500Y-31029000D03*
D19*
X52750500Y-21971000D03*
X51200500Y-21971000D03*
D13*
X23502000Y-22479000D03*
X21852000Y-22479000D03*
D12*
X22417000Y-28067000D03*
X22417000Y-29337000D03*
X22417000Y-30607000D03*
X22417000Y-31877000D03*
X27367000Y-31877000D03*
X27367000Y-30607000D03*
X27367000Y-29337000D03*
X27367000Y-28067000D03*
D11*
X21011000Y-16426000D03*
X21011000Y-17976000D03*
D15*
X7176000Y-28956000D03*
X8826000Y-28956000D03*
D13*
X52006000Y-4318000D03*
X50356000Y-4318000D03*
D19*
X31636000Y-10922000D03*
X30086000Y-10922000D03*
D18*
X22021000Y-3810000D03*
X23571000Y-3810000D03*
D25*
X7041000Y-13107000D03*
X7041000Y-13757000D03*
X7041000Y-14407000D03*
X7041000Y-15057000D03*
X9316000Y-15057000D03*
X9316000Y-14407000D03*
X9316000Y-13757000D03*
X9316000Y-13107000D03*
D11*
X13589000Y-9783500D03*
X13589000Y-11333500D03*
D13*
X52800500Y-25273000D03*
X51150500Y-25273000D03*
M02*
