%TF.GenerationSoftware,KiCad,Pcbnew,(6.99.0)*%
%TF.CreationDate,2022-12-27T22:07:24-08:00*%
%TF.ProjectId,eog-pcb-kicad,656f672d-7063-4622-9d6b-696361642e6b,rev?*%
%TF.SameCoordinates,Original*%
%TF.FileFunction,Copper,L1,Top*%
%TF.FilePolarity,Positive*%
%FSLAX46Y46*%
G04 Gerber Fmt 4.6, Leading zero omitted, Abs format (unit mm)*
G04 Created by KiCad (PCBNEW (6.99.0)) date 2022-12-27 22:07:24*
%MOMM*%
%LPD*%
G01*
G04 APERTURE LIST*
G04 Aperture macros list*
%AMRoundRect*
0 Rectangle with rounded corners*
0 $1 Rounding radius*
0 $2 $3 $4 $5 $6 $7 $8 $9 X,Y pos of 4 corners*
0 Add a 4 corners polygon primitive as box body*
4,1,4,$2,$3,$4,$5,$6,$7,$8,$9,$2,$3,0*
0 Add four circle primitives for the rounded corners*
1,1,$1+$1,$2,$3*
1,1,$1+$1,$4,$5*
1,1,$1+$1,$6,$7*
1,1,$1+$1,$8,$9*
0 Add four rect primitives between the rounded corners*
20,1,$1+$1,$2,$3,$4,$5,0*
20,1,$1+$1,$4,$5,$6,$7,0*
20,1,$1+$1,$6,$7,$8,$9,0*
20,1,$1+$1,$8,$9,$2,$3,0*%
G04 Aperture macros list end*
%TA.AperFunction,SMDPad,CuDef*%
%ADD10RoundRect,0.218750X0.218750X0.256250X-0.218750X0.256250X-0.218750X-0.256250X0.218750X-0.256250X0*%
%TD*%
%TA.AperFunction,SMDPad,CuDef*%
%ADD11RoundRect,0.225000X-0.250000X0.225000X-0.250000X-0.225000X0.250000X-0.225000X0.250000X0.225000X0*%
%TD*%
%TA.AperFunction,SMDPad,CuDef*%
%ADD12RoundRect,0.150000X-0.825000X-0.150000X0.825000X-0.150000X0.825000X0.150000X-0.825000X0.150000X0*%
%TD*%
%TA.AperFunction,SMDPad,CuDef*%
%ADD13RoundRect,0.200000X0.200000X0.275000X-0.200000X0.275000X-0.200000X-0.275000X0.200000X-0.275000X0*%
%TD*%
%TA.AperFunction,SMDPad,CuDef*%
%ADD14RoundRect,0.225000X0.250000X-0.225000X0.250000X0.225000X-0.250000X0.225000X-0.250000X-0.225000X0*%
%TD*%
%TA.AperFunction,SMDPad,CuDef*%
%ADD15RoundRect,0.200000X-0.200000X-0.275000X0.200000X-0.275000X0.200000X0.275000X-0.200000X0.275000X0*%
%TD*%
%TA.AperFunction,ComponentPad*%
%ADD16R,1.700000X1.700000*%
%TD*%
%TA.AperFunction,ComponentPad*%
%ADD17O,1.700000X1.700000*%
%TD*%
%TA.AperFunction,SMDPad,CuDef*%
%ADD18RoundRect,0.225000X-0.225000X-0.250000X0.225000X-0.250000X0.225000X0.250000X-0.225000X0.250000X0*%
%TD*%
%TA.AperFunction,SMDPad,CuDef*%
%ADD19RoundRect,0.225000X0.225000X0.250000X-0.225000X0.250000X-0.225000X-0.250000X0.225000X-0.250000X0*%
%TD*%
%TA.AperFunction,SMDPad,CuDef*%
%ADD20R,1.600000X5.700000*%
%TD*%
%TA.AperFunction,SMDPad,CuDef*%
%ADD21R,2.250000X3.120000*%
%TD*%
%TA.AperFunction,SMDPad,CuDef*%
%ADD22RoundRect,0.200000X-0.275000X0.200000X-0.275000X-0.200000X0.275000X-0.200000X0.275000X0.200000X0*%
%TD*%
%TA.AperFunction,SMDPad,CuDef*%
%ADD23R,2.400000X2.900000*%
%TD*%
%TA.AperFunction,SMDPad,CuDef*%
%ADD24RoundRect,0.125000X-0.537500X-0.125000X0.537500X-0.125000X0.537500X0.125000X-0.537500X0.125000X0*%
%TD*%
%TA.AperFunction,ViaPad*%
%ADD25C,0.800000*%
%TD*%
%TA.AperFunction,Conductor*%
%ADD26C,0.355600*%
%TD*%
%TA.AperFunction,Conductor*%
%ADD27C,0.250000*%
%TD*%
%TA.AperFunction,Conductor*%
%ADD28C,0.203200*%
%TD*%
%TA.AperFunction,Conductor*%
%ADD29C,0.254000*%
%TD*%
%TA.AperFunction,Conductor*%
%ADD30C,0.508000*%
%TD*%
G04 APERTURE END LIST*
D10*
X56362500Y-9652000D03*
X57937500Y-9652000D03*
D11*
X20066000Y-22466000D03*
X20066000Y-24016000D03*
X18542000Y-11333500D03*
X18542000Y-9783500D03*
D12*
X43150500Y-22733000D03*
X43150500Y-24003000D03*
X43150500Y-25273000D03*
X43150500Y-26543000D03*
X48100500Y-26543000D03*
X48100500Y-25273000D03*
X48100500Y-24003000D03*
X48100500Y-22733000D03*
D13*
X26796000Y-5461000D03*
X25146000Y-5461000D03*
D11*
X19685000Y-29083000D03*
X19685000Y-30633000D03*
D13*
X52800500Y-26924000D03*
X51150500Y-26924000D03*
D11*
X18034000Y-30633000D03*
X18034000Y-29083000D03*
D14*
X12001500Y-11346500D03*
X12001500Y-9796500D03*
D15*
X7232000Y-23876000D03*
X8882000Y-23876000D03*
D13*
X21971000Y-2159000D03*
X23621000Y-2159000D03*
D16*
X57404000Y-24755000D03*
D17*
X57404000Y-22215000D03*
X57404000Y-19675000D03*
X57404000Y-17135000D03*
D18*
X25148000Y-22423000D03*
X26698000Y-22423000D03*
D15*
X6724000Y-7295000D03*
X8374000Y-7295000D03*
D19*
X25196000Y-3810000D03*
X26746000Y-3810000D03*
D15*
X50356000Y-7620000D03*
X52006000Y-7620000D03*
X6795000Y-10541000D03*
X8445000Y-10541000D03*
D12*
X22468500Y-7366000D03*
X22468500Y-8636000D03*
X22468500Y-9906000D03*
X22468500Y-11176000D03*
X27418500Y-11176000D03*
X27418500Y-9906000D03*
X27418500Y-8636000D03*
X27418500Y-7366000D03*
D15*
X7176000Y-27305000D03*
X8826000Y-27305000D03*
D14*
X13081000Y-29083000D03*
X13081000Y-30633000D03*
D12*
X34355000Y-28067000D03*
X34355000Y-29337000D03*
X34355000Y-30607000D03*
X34355000Y-31877000D03*
X34355000Y-33147000D03*
X34355000Y-34417000D03*
X34355000Y-35687000D03*
X39305000Y-35687000D03*
X39305000Y-34417000D03*
X39305000Y-33147000D03*
X39305000Y-31877000D03*
X39305000Y-30607000D03*
X39305000Y-29337000D03*
X39305000Y-28067000D03*
X13474500Y-13899000D03*
X13474500Y-15169000D03*
X13474500Y-16439000D03*
X13474500Y-17709000D03*
X18424500Y-17709000D03*
X18424500Y-16439000D03*
X18424500Y-15169000D03*
X18424500Y-13899000D03*
D20*
X34480000Y-20955000D03*
X39180000Y-20955000D03*
D18*
X18936000Y-33274000D03*
X17386000Y-33274000D03*
D13*
X52800500Y-23622000D03*
X51150500Y-23622000D03*
D19*
X30213000Y-31877000D03*
X31763000Y-31877000D03*
D15*
X6724000Y-8946000D03*
X8374000Y-8946000D03*
D18*
X14674000Y-19614000D03*
X13124000Y-19614000D03*
D11*
X29972000Y-5816000D03*
X29972000Y-7366000D03*
X29972000Y-26530000D03*
X29972000Y-28080000D03*
D13*
X21852000Y-25781000D03*
X23502000Y-25781000D03*
X26791000Y-25781000D03*
X25141000Y-25781000D03*
D12*
X12638000Y-23241000D03*
X12638000Y-24511000D03*
X12638000Y-25781000D03*
X12638000Y-27051000D03*
X17588000Y-27051000D03*
X17588000Y-25781000D03*
X17588000Y-24511000D03*
X17588000Y-23241000D03*
D13*
X57975000Y-11430000D03*
X56325000Y-11430000D03*
D18*
X23439000Y-24130000D03*
X21889000Y-24130000D03*
D21*
X23760500Y-17328000D03*
X30670500Y-17328000D03*
D14*
X42704500Y-29985000D03*
X42704500Y-28435000D03*
D12*
X12638000Y-3954500D03*
X12638000Y-5224500D03*
X12638000Y-6494500D03*
X12638000Y-7764500D03*
X17588000Y-7764500D03*
X17588000Y-6494500D03*
X17588000Y-5224500D03*
X17588000Y-3954500D03*
D11*
X31623000Y-5829000D03*
X31623000Y-7379000D03*
D19*
X26741000Y-24130000D03*
X25191000Y-24130000D03*
X51956000Y-2667000D03*
X50406000Y-2667000D03*
D15*
X14161000Y-2176500D03*
X15811000Y-2176500D03*
D16*
X3612000Y-13884000D03*
D17*
X3612000Y-11344000D03*
X3612000Y-8804000D03*
D13*
X23621000Y-5461000D03*
X21971000Y-5461000D03*
D15*
X16065000Y-21463000D03*
X14415000Y-21463000D03*
D16*
X3556000Y-30861000D03*
D17*
X3556000Y-28321000D03*
X3556000Y-25781000D03*
D14*
X42418000Y-10046000D03*
X42418000Y-8496000D03*
D19*
X21831000Y-13081000D03*
X23381000Y-13081000D03*
D11*
X14732000Y-30607000D03*
X14732000Y-29057000D03*
D13*
X52006000Y-5969000D03*
X50356000Y-5969000D03*
D11*
X31750000Y-26543000D03*
X31750000Y-28093000D03*
X15240000Y-11333500D03*
X15240000Y-9783500D03*
X16891000Y-11333500D03*
X16891000Y-9783500D03*
X19939000Y-3670000D03*
X19939000Y-5220000D03*
D18*
X25196000Y-2159000D03*
X26746000Y-2159000D03*
D12*
X34101000Y-7112000D03*
X34101000Y-8382000D03*
X34101000Y-9652000D03*
X34101000Y-10922000D03*
X34101000Y-12192000D03*
X34101000Y-13462000D03*
X34101000Y-14732000D03*
X39051000Y-14732000D03*
X39051000Y-13462000D03*
X39051000Y-12192000D03*
X39051000Y-10922000D03*
X39051000Y-9652000D03*
X39051000Y-8382000D03*
X39051000Y-7112000D03*
D22*
X8311000Y-3676000D03*
X8311000Y-5326000D03*
D23*
X51351500Y-17145000D03*
X45251500Y-17145000D03*
D24*
X45466000Y-10780000D03*
X45466000Y-11430000D03*
X45466000Y-12080000D03*
X45466000Y-12730000D03*
X47741000Y-12730000D03*
X47741000Y-12080000D03*
X47741000Y-11430000D03*
X47741000Y-10780000D03*
D15*
X7232000Y-25654000D03*
X8882000Y-25654000D03*
D24*
X46139000Y-29378000D03*
X46139000Y-30028000D03*
X46139000Y-30678000D03*
X46139000Y-31328000D03*
X48414000Y-31328000D03*
X48414000Y-30678000D03*
X48414000Y-30028000D03*
X48414000Y-29378000D03*
D11*
X16383000Y-30620000D03*
X16383000Y-29070000D03*
D16*
X9271000Y-38227000D03*
D17*
X11811000Y-38227000D03*
X14351000Y-38227000D03*
X16891000Y-38227000D03*
X19431000Y-38227000D03*
X21971000Y-38227000D03*
X24511000Y-38227000D03*
X27051000Y-38227000D03*
D12*
X42546500Y-2786500D03*
X42546500Y-4056500D03*
X42546500Y-5326500D03*
X42546500Y-6596500D03*
X47496500Y-6596500D03*
X47496500Y-5326500D03*
X47496500Y-4056500D03*
X47496500Y-2786500D03*
D23*
X3102000Y-20066000D03*
X9202000Y-20066000D03*
D24*
X7244500Y-31029000D03*
X7244500Y-31679000D03*
X7244500Y-32329000D03*
X7244500Y-32979000D03*
X9519500Y-32979000D03*
X9519500Y-32329000D03*
X9519500Y-31679000D03*
X9519500Y-31029000D03*
D19*
X52750500Y-21971000D03*
X51200500Y-21971000D03*
D13*
X23502000Y-22479000D03*
X21852000Y-22479000D03*
D12*
X22417000Y-28067000D03*
X22417000Y-29337000D03*
X22417000Y-30607000D03*
X22417000Y-31877000D03*
X27367000Y-31877000D03*
X27367000Y-30607000D03*
X27367000Y-29337000D03*
X27367000Y-28067000D03*
D11*
X21011000Y-16426000D03*
X21011000Y-17976000D03*
D15*
X7176000Y-28956000D03*
X8826000Y-28956000D03*
D13*
X52006000Y-4318000D03*
X50356000Y-4318000D03*
D19*
X31636000Y-10922000D03*
X30086000Y-10922000D03*
D18*
X22021000Y-3810000D03*
X23571000Y-3810000D03*
D24*
X7041000Y-13107000D03*
X7041000Y-13757000D03*
X7041000Y-14407000D03*
X7041000Y-15057000D03*
X9316000Y-15057000D03*
X9316000Y-14407000D03*
X9316000Y-13757000D03*
X9316000Y-13107000D03*
D11*
X13589000Y-9783500D03*
X13589000Y-11333500D03*
D13*
X52800500Y-25273000D03*
X51150500Y-25273000D03*
D25*
X43688000Y-11430000D03*
X54864000Y-26924000D03*
X29972000Y-3810000D03*
X43053000Y-20320000D03*
X3556000Y-33528000D03*
X9779000Y-11684000D03*
X16891000Y-31877000D03*
X41021000Y-9017000D03*
X32131000Y-13208000D03*
X45593000Y-26543000D03*
X44704000Y-8509000D03*
X20828000Y-15113000D03*
X5969000Y-30353000D03*
X5588000Y-12827000D03*
X19939000Y-6731000D03*
X20066000Y-25527000D03*
X11303000Y-20574000D03*
X11303000Y-28448000D03*
X10414000Y-10414000D03*
X20447000Y-11176000D03*
X15494000Y-32639000D03*
X3048000Y-16637000D03*
X43815000Y-32004000D03*
X36576000Y-14097000D03*
X10414000Y-34163000D03*
X42418000Y-35814000D03*
X43942000Y-13335000D03*
X41783000Y-14732000D03*
X41910000Y-31369000D03*
X41910000Y-32639000D03*
X34036000Y-37084000D03*
X20701000Y-34417000D03*
X32385000Y-35687000D03*
X34036000Y-16383000D03*
X11811000Y-33655000D03*
X5588000Y-33401000D03*
X5207000Y-16637000D03*
X42418000Y-34544000D03*
X25019000Y-7366000D03*
X36576000Y-10922000D03*
X50561000Y-12080000D03*
X36957000Y-31877000D03*
X50419000Y-1270000D03*
X50871000Y-30678000D03*
X25019000Y-28067000D03*
X51181000Y-9144000D03*
X27998000Y-24130000D03*
X11486000Y-17074000D03*
X28067000Y-3810000D03*
X8311000Y-2215000D03*
X57912000Y-8001000D03*
X24765000Y-13081000D03*
X21011000Y-19487000D03*
X36557500Y-12192000D03*
X20066000Y-27051000D03*
X51943000Y-1270000D03*
X34036000Y-26543000D03*
X52864500Y-20447000D03*
X19939000Y-2032000D03*
X19939000Y-8128000D03*
X36957000Y-33147000D03*
X11557000Y-29845000D03*
X45879500Y-24003000D03*
X44482500Y-28956000D03*
X31623000Y-9017000D03*
X28321000Y-12954000D03*
X29972000Y-9017000D03*
X40386000Y-4318000D03*
X30480000Y-33655000D03*
X31877000Y-29845000D03*
X38735000Y-25273000D03*
X29845000Y-29845000D03*
X21971000Y-14859000D03*
X28123000Y-17328000D03*
X50165000Y-31750000D03*
X50165000Y-13589000D03*
X10978000Y-14661000D03*
X10978000Y-13518000D03*
X43434000Y-12446000D03*
X43815000Y-10287000D03*
X45402500Y-4000500D03*
D26*
X45593000Y-26543000D02*
X43150500Y-26543000D01*
D27*
X43942000Y-13335000D02*
X44861000Y-13335000D01*
X44861000Y-13335000D02*
X45466000Y-12730000D01*
D28*
X44562000Y-12080000D02*
X45466000Y-12080000D01*
X43434000Y-12446000D02*
X44196000Y-12446000D01*
X44196000Y-12446000D02*
X44562000Y-12080000D01*
X42659000Y-11430000D02*
X43688000Y-11430000D01*
X45466000Y-11430000D02*
X43688000Y-11430000D01*
D29*
X57404000Y-24755000D02*
X57404000Y-25654000D01*
X57404000Y-25654000D02*
X56134000Y-26924000D01*
X56134000Y-26924000D02*
X54864000Y-26924000D01*
X52800500Y-26924000D02*
X54864000Y-26924000D01*
X29972000Y-5816000D02*
X29972000Y-3810000D01*
D26*
X45251500Y-17145000D02*
X45251500Y-18121500D01*
X45251500Y-18121500D02*
X43053000Y-20320000D01*
X42418000Y-20955000D02*
X43053000Y-20320000D01*
X39180000Y-20955000D02*
X42418000Y-20955000D01*
X3048000Y-16637000D02*
X3048000Y-14448000D01*
X3048000Y-14448000D02*
X3612000Y-13884000D01*
D30*
X3048000Y-16637000D02*
X3102000Y-16691000D01*
D26*
X3102000Y-16691000D02*
X3102000Y-20066000D01*
D27*
X3556000Y-30861000D02*
X3556000Y-33528000D01*
X9779000Y-11684000D02*
X11664000Y-11684000D01*
X11664000Y-11684000D02*
X12001500Y-11346500D01*
X6985000Y-11684000D02*
X9779000Y-11684000D01*
X6795000Y-10668000D02*
X6795000Y-11494000D01*
X6795000Y-11494000D02*
X6985000Y-11684000D01*
D26*
X22417000Y-31877000D02*
X16891000Y-31877000D01*
X18936000Y-33274000D02*
X21020000Y-33274000D01*
X21020000Y-33274000D02*
X22417000Y-31877000D01*
D28*
X17386000Y-33274000D02*
X16751000Y-32639000D01*
X16751000Y-32639000D02*
X15494000Y-32639000D01*
D27*
X41542000Y-8496000D02*
X42418000Y-8496000D01*
X41021000Y-9017000D02*
X41542000Y-8496000D01*
D28*
X42659000Y-11430000D02*
X42418000Y-11189000D01*
X42418000Y-11189000D02*
X42418000Y-10046000D01*
D29*
X44704000Y-8509000D02*
X44691000Y-8496000D01*
X44691000Y-8496000D02*
X42418000Y-8496000D01*
X42418000Y-8496000D02*
X42418000Y-6725000D01*
X42418000Y-6725000D02*
X42546500Y-6596500D01*
D27*
X31877000Y-13208000D02*
X32131000Y-13208000D01*
X29972000Y-13589000D02*
X30353000Y-13208000D01*
X30353000Y-13208000D02*
X31877000Y-13208000D01*
X23760500Y-17328000D02*
X26233000Y-17328000D01*
X26233000Y-17328000D02*
X29972000Y-13589000D01*
D28*
X20828000Y-15113000D02*
X20574000Y-15113000D01*
X20574000Y-15113000D02*
X20518000Y-15169000D01*
D29*
X20518000Y-15169000D02*
X18424500Y-15169000D01*
D27*
X21971000Y-14859000D02*
X21011000Y-13899000D01*
X21011000Y-13899000D02*
X18424500Y-13899000D01*
X23760500Y-17328000D02*
X23760500Y-15378500D01*
X23760500Y-15378500D02*
X21831000Y-13449000D01*
X21831000Y-13449000D02*
X21831000Y-13081000D01*
D28*
X7244500Y-31679000D02*
X6406000Y-31679000D01*
X6406000Y-31679000D02*
X5969000Y-31242000D01*
X5969000Y-31242000D02*
X5969000Y-30353000D01*
D29*
X5207000Y-16637000D02*
X5207000Y-15748000D01*
X5207000Y-15748000D02*
X5898000Y-15057000D01*
X5898000Y-15057000D02*
X7041000Y-15057000D01*
D28*
X5588000Y-12827000D02*
X5588000Y-13208000D01*
X5588000Y-13208000D02*
X6137000Y-13757000D01*
X6137000Y-13757000D02*
X7041000Y-13757000D01*
D26*
X19939000Y-5220000D02*
X19939000Y-6731000D01*
D27*
X19939000Y-8128000D02*
X19575500Y-7764500D01*
X19575500Y-7764500D02*
X17588000Y-7764500D01*
D29*
X20066000Y-27051000D02*
X17588000Y-27051000D01*
X20066000Y-24016000D02*
X20066000Y-25527000D01*
D28*
X11303000Y-20574000D02*
X10795000Y-20066000D01*
X10795000Y-20066000D02*
X9202000Y-20066000D01*
D26*
X12638000Y-27051000D02*
X13081000Y-27494000D01*
X13081000Y-27494000D02*
X13081000Y-29083000D01*
D28*
X12446000Y-28448000D02*
X11303000Y-28448000D01*
X13081000Y-29083000D02*
X12446000Y-28448000D01*
D26*
X12001500Y-9796500D02*
X11031500Y-9796500D01*
X11031500Y-9796500D02*
X10414000Y-10414000D01*
D27*
X22468500Y-11176000D02*
X20447000Y-11176000D01*
D29*
X11953000Y-32639000D02*
X15494000Y-32639000D01*
X10993000Y-31679000D02*
X11953000Y-32639000D01*
D27*
X9519500Y-31029000D02*
X11471000Y-31029000D01*
X11471000Y-31029000D02*
X12319000Y-31877000D01*
X12319000Y-31877000D02*
X14224000Y-31877000D01*
X14224000Y-31877000D02*
X14732000Y-31369000D01*
X14732000Y-31369000D02*
X14732000Y-30607000D01*
D29*
X11557000Y-29845000D02*
X12345000Y-30633000D01*
X12345000Y-30633000D02*
X13081000Y-30633000D01*
D28*
X11811000Y-33655000D02*
X10485000Y-32329000D01*
X10485000Y-32329000D02*
X9519500Y-32329000D01*
D27*
X17588000Y-25781000D02*
X16256000Y-25781000D01*
X16256000Y-25781000D02*
X14732000Y-27305000D01*
X14732000Y-27305000D02*
X14732000Y-29057000D01*
X19685000Y-30633000D02*
X22391000Y-30633000D01*
X22391000Y-30633000D02*
X22417000Y-30607000D01*
X18034000Y-29083000D02*
X19685000Y-29083000D01*
X16383000Y-29070000D02*
X18021000Y-29070000D01*
X18021000Y-29070000D02*
X18034000Y-29083000D01*
D29*
X5588000Y-33401000D02*
X5588000Y-33655000D01*
X5588000Y-33655000D02*
X8001000Y-36068000D01*
X8001000Y-36068000D02*
X26289000Y-36068000D01*
X26289000Y-36068000D02*
X27051000Y-36830000D01*
X27051000Y-36830000D02*
X27051000Y-38227000D01*
X5588000Y-33401000D02*
X6010000Y-32979000D01*
X6010000Y-32979000D02*
X7244500Y-32979000D01*
X34036000Y-37084000D02*
X30480000Y-37084000D01*
X30480000Y-37084000D02*
X27305000Y-33909000D01*
X27305000Y-33909000D02*
X21209000Y-33909000D01*
X21209000Y-33909000D02*
X20701000Y-34417000D01*
D27*
X16383000Y-30620000D02*
X18021000Y-30620000D01*
D29*
X8826000Y-28956000D02*
X8826000Y-27305000D01*
X8826000Y-27305000D02*
X10033000Y-27305000D01*
X10033000Y-27305000D02*
X11557000Y-25781000D01*
X11557000Y-25781000D02*
X12638000Y-25781000D01*
X10160000Y-23876000D02*
X10795000Y-24511000D01*
X10795000Y-24511000D02*
X12638000Y-24511000D01*
X8882000Y-23876000D02*
X10160000Y-23876000D01*
X15240000Y-9783500D02*
X16891000Y-9783500D01*
D27*
X21971000Y-2159000D02*
X21844000Y-2032000D01*
X21844000Y-2032000D02*
X19939000Y-2032000D01*
X34101000Y-12192000D02*
X36557500Y-12192000D01*
D29*
X56325000Y-11430000D02*
X56261000Y-11366000D01*
X56261000Y-11366000D02*
X56261000Y-9753500D01*
X56261000Y-9753500D02*
X56362500Y-9652000D01*
D30*
X57975000Y-11430000D02*
X57912000Y-11493000D01*
X57912000Y-11493000D02*
X57912000Y-16627000D01*
X57912000Y-16627000D02*
X57404000Y-17135000D01*
D26*
X52006000Y-7620000D02*
X52006000Y-8319000D01*
X52006000Y-8319000D02*
X51181000Y-9144000D01*
D29*
X57912000Y-8001000D02*
X57937500Y-8026500D01*
X57937500Y-8026500D02*
X57937500Y-9652000D01*
D27*
X23381000Y-13081000D02*
X24765000Y-13081000D01*
D30*
X3102000Y-20066000D02*
X4445000Y-20066000D01*
X4445000Y-20066000D02*
X7232000Y-22853000D01*
X7232000Y-22853000D02*
X7232000Y-23876000D01*
D27*
X9316000Y-13107000D02*
X9850000Y-12573000D01*
X9850000Y-12573000D02*
X13081000Y-12573000D01*
X13081000Y-12573000D02*
X13589000Y-12065000D01*
X13589000Y-12065000D02*
X13589000Y-11333500D01*
D29*
X9202000Y-20066000D02*
X9202000Y-18103000D01*
X12136000Y-13899000D02*
X13474500Y-13899000D01*
X9202000Y-18103000D02*
X11811000Y-15494000D01*
X11811000Y-15494000D02*
X11811000Y-14224000D01*
X11811000Y-14224000D02*
X12136000Y-13899000D01*
D28*
X10414000Y-34163000D02*
X11557000Y-35306000D01*
X27686000Y-35306000D02*
X29464000Y-37084000D01*
X11557000Y-35306000D02*
X27686000Y-35306000D01*
X29464000Y-37084000D02*
X29464000Y-39116000D01*
X29464000Y-39116000D02*
X28829000Y-39751000D01*
X28829000Y-39751000D02*
X26035000Y-39751000D01*
X26035000Y-39751000D02*
X24511000Y-38227000D01*
D29*
X43815000Y-32004000D02*
X45463000Y-32004000D01*
X45463000Y-32004000D02*
X46139000Y-31328000D01*
X42037000Y-32639000D02*
X43998000Y-30678000D01*
X41910000Y-32639000D02*
X42037000Y-32639000D01*
X43998000Y-30678000D02*
X46139000Y-30678000D01*
D28*
X41910000Y-31369000D02*
X42704500Y-30574500D01*
X42704500Y-30574500D02*
X42704500Y-29985000D01*
D29*
X39051000Y-14732000D02*
X37211000Y-14732000D01*
X37211000Y-14732000D02*
X36576000Y-14097000D01*
D28*
X10414000Y-34163000D02*
X10414000Y-33274000D01*
X10414000Y-33274000D02*
X10119000Y-32979000D01*
X10119000Y-32979000D02*
X9519500Y-32979000D01*
D29*
X42418000Y-35814000D02*
X43180000Y-35814000D01*
X43180000Y-35814000D02*
X46139000Y-32855000D01*
X46139000Y-32855000D02*
X46139000Y-31328000D01*
X39305000Y-35687000D02*
X42291000Y-35687000D01*
X42291000Y-35687000D02*
X42418000Y-35814000D01*
X42418000Y-13462000D02*
X43180000Y-14224000D01*
X39051000Y-13462000D02*
X42418000Y-13462000D01*
X49530000Y-14224000D02*
X50165000Y-13589000D01*
X43180000Y-14224000D02*
X49530000Y-14224000D01*
X39051000Y-14732000D02*
X41402000Y-14732000D01*
X41402000Y-14732000D02*
X41783000Y-14732000D01*
X42291000Y-34417000D02*
X42418000Y-34544000D01*
X39305000Y-34417000D02*
X42291000Y-34417000D01*
X43150500Y-25273000D02*
X38735000Y-25273000D01*
X30480000Y-33655000D02*
X28321000Y-33655000D01*
X28321000Y-33655000D02*
X27367000Y-32701000D01*
X27367000Y-32701000D02*
X27367000Y-31877000D01*
X34355000Y-35687000D02*
X32385000Y-35687000D01*
X34101000Y-16318000D02*
X34036000Y-16383000D01*
X34101000Y-14732000D02*
X34101000Y-16318000D01*
X7244500Y-32329000D02*
X5024000Y-32329000D01*
X5024000Y-32329000D02*
X3556000Y-30861000D01*
X7176000Y-28956000D02*
X6096000Y-28956000D01*
X6096000Y-28956000D02*
X4191000Y-30861000D01*
X7176000Y-27305000D02*
X4572000Y-27305000D01*
X4572000Y-27305000D02*
X3556000Y-28321000D01*
X7232000Y-25654000D02*
X3683000Y-25654000D01*
X3683000Y-25654000D02*
X3556000Y-25781000D01*
X55636000Y-22215000D02*
X54229000Y-23622000D01*
X57404000Y-22215000D02*
X55636000Y-22215000D01*
X54229000Y-23622000D02*
X52800500Y-23622000D01*
X34355000Y-28067000D02*
X34355000Y-26862000D01*
X34355000Y-26862000D02*
X34036000Y-26543000D01*
X34036000Y-26543000D02*
X31750000Y-26543000D01*
D26*
X51351500Y-17145000D02*
X51181000Y-17315500D01*
X51181000Y-17315500D02*
X51181000Y-21951500D01*
D29*
X52006000Y-5969000D02*
X53086000Y-5969000D01*
X53086000Y-5969000D02*
X53848000Y-6731000D01*
X53848000Y-6731000D02*
X53848000Y-18923000D01*
X53848000Y-18923000D02*
X54600000Y-19675000D01*
X54600000Y-19675000D02*
X57404000Y-19675000D01*
D26*
X42704500Y-26989000D02*
X43150500Y-26543000D01*
D27*
X21379000Y-12629000D02*
X21831000Y-13081000D01*
X13474500Y-13899000D02*
X13474500Y-13180500D01*
X14026000Y-12629000D02*
X21379000Y-12629000D01*
X21831000Y-13081000D02*
X21831000Y-11813500D01*
X13474500Y-13180500D02*
X14026000Y-12629000D01*
D26*
X42704500Y-28435000D02*
X42704500Y-26989000D01*
X12001500Y-9796500D02*
X12001500Y-8401000D01*
D27*
X21831000Y-11813500D02*
X22468500Y-11176000D01*
D26*
X12001500Y-8401000D02*
X12638000Y-7764500D01*
D27*
X15240000Y-9783500D02*
X15240000Y-7002500D01*
X15240000Y-7002500D02*
X15748000Y-6494500D01*
D29*
X16891000Y-9783500D02*
X18542000Y-9783500D01*
X15748000Y-6494500D02*
X17588000Y-6494500D01*
X13589000Y-9783500D02*
X15240000Y-9783500D01*
D27*
X22021000Y-3810000D02*
X22021000Y-5411000D01*
X21971000Y-6868500D02*
X22468500Y-7366000D01*
X21971000Y-5461000D02*
X21971000Y-6868500D01*
X22021000Y-5411000D02*
X21971000Y-5461000D01*
D26*
X22549000Y-8509000D02*
X22549000Y-7239000D01*
D27*
X23621000Y-2159000D02*
X25196000Y-2159000D01*
X23571000Y-3810000D02*
X23571000Y-2209000D01*
X23571000Y-2209000D02*
X23621000Y-2159000D01*
X23621000Y-5461000D02*
X25146000Y-5461000D01*
X25146000Y-3860000D02*
X25196000Y-3810000D01*
X25146000Y-5461000D02*
X25146000Y-3860000D01*
D29*
X28829000Y-2540000D02*
X28829000Y-5080000D01*
X28448000Y-2159000D02*
X28829000Y-2540000D01*
D27*
X39051000Y-8382000D02*
X40386000Y-8382000D01*
D29*
X28829000Y-5080000D02*
X28448000Y-5461000D01*
D27*
X40386000Y-8382000D02*
X40767000Y-8001000D01*
D29*
X28448000Y-5461000D02*
X26796000Y-5461000D01*
D27*
X40767000Y-5969000D02*
X40386000Y-5588000D01*
X34036000Y-5588000D02*
X30988000Y-2540000D01*
X39051000Y-9652000D02*
X39051000Y-8382000D01*
X30988000Y-2540000D02*
X28829000Y-2540000D01*
X40386000Y-5588000D02*
X34036000Y-5588000D01*
D29*
X26746000Y-2159000D02*
X28448000Y-2159000D01*
D27*
X40767000Y-8001000D02*
X40767000Y-5969000D01*
D26*
X50576000Y-12065000D02*
X50561000Y-12080000D01*
D27*
X27418500Y-7366000D02*
X25273000Y-7366000D01*
D30*
X18424500Y-15169000D02*
X18424500Y-16439000D01*
D29*
X50406000Y-4268000D02*
X50356000Y-4318000D01*
X39305000Y-31877000D02*
X36957000Y-31877000D01*
D26*
X51351500Y-12840500D02*
X50576000Y-12065000D01*
X51351500Y-17145000D02*
X51351500Y-12840500D01*
D28*
X51150500Y-23622000D02*
X51150500Y-22021000D01*
D26*
X47741000Y-12080000D02*
X50561000Y-12080000D01*
D29*
X27367000Y-28067000D02*
X29959000Y-28067000D01*
D27*
X27418500Y-7366000D02*
X29972000Y-7366000D01*
D29*
X49435500Y-22733000D02*
X50324500Y-23622000D01*
X29959000Y-28067000D02*
X29972000Y-28080000D01*
D28*
X48414000Y-30678000D02*
X50871000Y-30678000D01*
D29*
X48100500Y-22733000D02*
X49435500Y-22733000D01*
D27*
X25273000Y-7366000D02*
X25019000Y-7366000D01*
D29*
X50286500Y-2786500D02*
X50406000Y-2667000D01*
X50406000Y-2667000D02*
X50406000Y-4268000D01*
D30*
X20998000Y-16439000D02*
X21011000Y-16426000D01*
D29*
X50324500Y-23622000D02*
X51150500Y-23622000D01*
D30*
X18424500Y-16439000D02*
X20998000Y-16439000D01*
D29*
X27367000Y-28067000D02*
X25019000Y-28067000D01*
X47496500Y-2786500D02*
X50286500Y-2786500D01*
X39051000Y-10922000D02*
X36576000Y-10922000D01*
X17588000Y-24511000D02*
X19571000Y-24511000D01*
D28*
X51150500Y-22021000D02*
X51200500Y-21971000D01*
D29*
X50406000Y-1283000D02*
X50419000Y-1270000D01*
D27*
X17588000Y-5224500D02*
X19934500Y-5224500D01*
D29*
X50406000Y-2667000D02*
X50406000Y-1283000D01*
X19571000Y-24511000D02*
X20066000Y-24016000D01*
D27*
X12638000Y-3954500D02*
X12638000Y-2746500D01*
X12638000Y-2746500D02*
X13208000Y-2176500D01*
X13208000Y-2176500D02*
X14161000Y-2176500D01*
X17588000Y-3954500D02*
X17588000Y-2746500D01*
X17588000Y-2746500D02*
X17018000Y-2176500D01*
X17018000Y-2176500D02*
X15811000Y-2176500D01*
X23439000Y-24130000D02*
X23439000Y-22542000D01*
X25092000Y-22479000D02*
X25148000Y-22423000D01*
X23502000Y-22479000D02*
X25092000Y-22479000D01*
X23439000Y-22542000D02*
X23502000Y-22479000D01*
X23502000Y-25781000D02*
X25141000Y-25781000D01*
X25141000Y-25781000D02*
X25141000Y-24180000D01*
X25141000Y-24180000D02*
X25191000Y-24130000D01*
D28*
X46139000Y-30028000D02*
X42747500Y-30028000D01*
D29*
X51956000Y-1410000D02*
X51943000Y-1397000D01*
X32880000Y-5829000D02*
X31623000Y-5829000D01*
X16203500Y-17709000D02*
X18424500Y-17709000D01*
X34101000Y-7050000D02*
X32880000Y-5829000D01*
X52750500Y-21971000D02*
X52750500Y-20561000D01*
D27*
X7986000Y-14407000D02*
X7041000Y-14407000D01*
D29*
X9519500Y-31679000D02*
X10993000Y-31679000D01*
D27*
X12121000Y-16439000D02*
X11486000Y-17074000D01*
D29*
X51943000Y-1397000D02*
X51943000Y-1270000D01*
X21011000Y-19360000D02*
X21011000Y-19487000D01*
X21852000Y-20328000D02*
X21011000Y-19487000D01*
D27*
X26741000Y-24130000D02*
X27871000Y-24130000D01*
D29*
X31610000Y-5816000D02*
X31623000Y-5829000D01*
X34101000Y-7112000D02*
X34101000Y-7050000D01*
D27*
X14674000Y-19614000D02*
X14674000Y-19238500D01*
X3627000Y-13899000D02*
X3612000Y-13884000D01*
X8311000Y-2342000D02*
X8311000Y-2215000D01*
D29*
X52750500Y-20561000D02*
X52864500Y-20447000D01*
D27*
X14674000Y-19238500D02*
X16203500Y-17709000D01*
D29*
X21852000Y-22479000D02*
X21852000Y-20328000D01*
X20066000Y-22466000D02*
X21839000Y-22466000D01*
D27*
X8636000Y-13757000D02*
X7986000Y-14407000D01*
X8311000Y-3676000D02*
X8311000Y-2342000D01*
D29*
X29972000Y-5816000D02*
X31610000Y-5816000D01*
D27*
X3556000Y-30861000D02*
X4191000Y-30861000D01*
X9316000Y-13757000D02*
X8636000Y-13757000D01*
D29*
X20744000Y-17709000D02*
X21011000Y-17976000D01*
D27*
X5898000Y-14407000D02*
X5390000Y-13899000D01*
D29*
X18424500Y-17709000D02*
X20744000Y-17709000D01*
D27*
X5390000Y-13899000D02*
X3627000Y-13899000D01*
D29*
X51956000Y-2667000D02*
X51956000Y-1410000D01*
D27*
X19939000Y-3670000D02*
X19939000Y-2032000D01*
D28*
X42747500Y-30028000D02*
X42704500Y-29985000D01*
D29*
X21839000Y-22466000D02*
X21852000Y-22479000D01*
X28067000Y-3810000D02*
X26746000Y-3810000D01*
D27*
X7041000Y-14407000D02*
X5898000Y-14407000D01*
D29*
X21011000Y-17976000D02*
X21011000Y-19360000D01*
X29972000Y-26530000D02*
X31737000Y-26530000D01*
X34355000Y-33147000D02*
X36957000Y-33147000D01*
D27*
X27871000Y-24130000D02*
X27998000Y-24130000D01*
X13474500Y-16439000D02*
X12121000Y-16439000D01*
X5898000Y-8946000D02*
X6724000Y-8946000D01*
X3612000Y-11232000D02*
X5898000Y-8946000D01*
X3612000Y-11344000D02*
X3612000Y-11232000D01*
X5121000Y-7295000D02*
X6724000Y-7295000D01*
X3612000Y-8804000D02*
X5121000Y-7295000D01*
X12536500Y-5326000D02*
X8565000Y-5326000D01*
X8374000Y-5389000D02*
X8311000Y-5326000D01*
X12638000Y-5224500D02*
X12536500Y-5326000D01*
X8374000Y-7295000D02*
X8374000Y-5389000D01*
D29*
X50356000Y-9588000D02*
X50356000Y-7620000D01*
X48379500Y-5326500D02*
X49149000Y-6096000D01*
X49164000Y-10780000D02*
X50356000Y-9588000D01*
X49657000Y-7620000D02*
X50356000Y-7620000D01*
X49149000Y-6096000D02*
X49149000Y-7112000D01*
X47496500Y-5326500D02*
X48379500Y-5326500D01*
X47741000Y-10780000D02*
X49164000Y-10780000D01*
X49149000Y-7112000D02*
X49657000Y-7620000D01*
X47741000Y-11430000D02*
X47741000Y-10780000D01*
X37973000Y-28067000D02*
X39305000Y-28067000D01*
X35433000Y-30607000D02*
X37973000Y-28067000D01*
X34355000Y-31877000D02*
X34355000Y-30607000D01*
X34355000Y-31877000D02*
X31763000Y-31877000D01*
X34355000Y-30607000D02*
X35433000Y-30607000D01*
D27*
X13462000Y-21463000D02*
X14415000Y-21463000D01*
X12638000Y-22287000D02*
X13462000Y-21463000D01*
X12638000Y-23241000D02*
X12638000Y-22287000D01*
X17588000Y-21906000D02*
X17145000Y-21463000D01*
X17588000Y-23241000D02*
X17588000Y-21906000D01*
X17145000Y-21463000D02*
X16065000Y-21463000D01*
D26*
X42546500Y-4056500D02*
X43751500Y-4056500D01*
X43751500Y-4056500D02*
X46291500Y-6596500D01*
X42546500Y-4056500D02*
X42546500Y-2786500D01*
X46291500Y-6596500D02*
X47496500Y-6596500D01*
D27*
X8374000Y-10470000D02*
X8445000Y-10541000D01*
X8374000Y-8946000D02*
X8374000Y-10470000D01*
X9088000Y-8946000D02*
X11539500Y-6494500D01*
X8374000Y-8946000D02*
X9088000Y-8946000D01*
X11539500Y-6494500D02*
X12638000Y-6494500D01*
X16370000Y-29057000D02*
X16383000Y-29070000D01*
X14732000Y-29057000D02*
X16370000Y-29057000D01*
X21852000Y-25781000D02*
X21852000Y-27502000D01*
X21852000Y-27502000D02*
X22417000Y-28067000D01*
X21852000Y-24167000D02*
X21889000Y-24130000D01*
X21852000Y-25781000D02*
X21852000Y-24167000D01*
D29*
X22417000Y-29337000D02*
X22417000Y-28067000D01*
X40767000Y-26543000D02*
X35814000Y-26543000D01*
X39305000Y-30607000D02*
X39305000Y-29337000D01*
X39305000Y-29337000D02*
X40767000Y-29337000D01*
X34417000Y-25146000D02*
X28829000Y-25146000D01*
X28265000Y-22423000D02*
X26698000Y-22423000D01*
X28829000Y-22987000D02*
X28265000Y-22423000D01*
X28829000Y-25146000D02*
X28829000Y-22987000D01*
X40767000Y-29337000D02*
X41148000Y-28956000D01*
X28194000Y-25781000D02*
X28829000Y-25146000D01*
X26791000Y-25781000D02*
X28194000Y-25781000D01*
X35814000Y-26543000D02*
X34417000Y-25146000D01*
X41148000Y-28956000D02*
X41148000Y-26924000D01*
X41148000Y-26924000D02*
X40767000Y-26543000D01*
X8882000Y-25654000D02*
X8882000Y-23876000D01*
D28*
X50705500Y-26924000D02*
X49054500Y-25273000D01*
X51150500Y-26924000D02*
X50705500Y-26924000D01*
X48414000Y-29378000D02*
X50283500Y-29378000D01*
X48414000Y-30028000D02*
X48414000Y-29378000D01*
X50283500Y-29378000D02*
X51150500Y-28511000D01*
X49054500Y-25273000D02*
X48100500Y-25273000D01*
X51150500Y-28511000D02*
X51150500Y-26924000D01*
X44482500Y-28956000D02*
X44904500Y-29378000D01*
X50578500Y-25273000D02*
X49308500Y-24003000D01*
X49308500Y-24003000D02*
X48100500Y-24003000D01*
X48100500Y-24003000D02*
X46387500Y-24003000D01*
X46387500Y-24003000D02*
X45879500Y-24003000D01*
X51150500Y-25273000D02*
X50578500Y-25273000D01*
X44904500Y-29378000D02*
X46139000Y-29378000D01*
D29*
X43150500Y-24003000D02*
X44355500Y-24003000D01*
X44355500Y-24003000D02*
X46895500Y-26543000D01*
X46895500Y-26543000D02*
X48100500Y-26543000D01*
D26*
X43150500Y-22733000D02*
X43150500Y-24003000D01*
D29*
X27418500Y-12051500D02*
X28321000Y-12954000D01*
X27418500Y-11176000D02*
X27418500Y-12051500D01*
D27*
X32626000Y-8382000D02*
X31623000Y-7379000D01*
X34101000Y-8382000D02*
X32626000Y-8382000D01*
X31623000Y-7379000D02*
X31623000Y-9017000D01*
X27499000Y-9779000D02*
X27499000Y-8509000D01*
D29*
X29083000Y-9906000D02*
X29972000Y-9017000D01*
X41394500Y-5326500D02*
X40767000Y-4699000D01*
X29070000Y-9906000D02*
X29083000Y-9906000D01*
X29070000Y-9906000D02*
X30086000Y-10922000D01*
X42546500Y-5326500D02*
X41394500Y-5326500D01*
X40767000Y-4699000D02*
X40386000Y-4318000D01*
X27418500Y-9906000D02*
X29070000Y-9906000D01*
D27*
X16891000Y-11333500D02*
X15240000Y-11333500D01*
X18542000Y-11333500D02*
X16891000Y-11333500D01*
X15240000Y-11333500D02*
X13589000Y-11333500D01*
X18542000Y-11333500D02*
X19146500Y-11333500D01*
X20574000Y-9906000D02*
X22468500Y-9906000D01*
X19146500Y-11333500D02*
X20574000Y-9906000D01*
X7041000Y-13107000D02*
X9316000Y-13107000D01*
D29*
X32385000Y-29337000D02*
X31877000Y-29845000D01*
X31877000Y-28220000D02*
X31750000Y-28093000D01*
X31877000Y-29845000D02*
X31877000Y-28220000D01*
X34355000Y-29337000D02*
X32385000Y-29337000D01*
D27*
X27367000Y-30607000D02*
X29210000Y-30607000D01*
X27367000Y-30607000D02*
X27367000Y-29337000D01*
D29*
X30213000Y-31877000D02*
X30213000Y-31610000D01*
X29845000Y-29845000D02*
X29845000Y-29972000D01*
X30213000Y-31610000D02*
X29210000Y-30607000D01*
X29845000Y-29972000D02*
X29210000Y-30607000D01*
D27*
X18021000Y-30620000D02*
X18034000Y-30633000D01*
X14732000Y-30607000D02*
X16370000Y-30607000D01*
X7244500Y-31029000D02*
X9519500Y-31029000D01*
X18034000Y-30633000D02*
X19685000Y-30633000D01*
X14915000Y-17709000D02*
X13474500Y-17709000D01*
X13124000Y-18059500D02*
X13474500Y-17709000D01*
X15296000Y-17328000D02*
X14915000Y-17709000D01*
X13124000Y-19614000D02*
X13124000Y-18059500D01*
X14788000Y-15169000D02*
X15296000Y-15677000D01*
X13474500Y-15169000D02*
X14788000Y-15169000D01*
X15296000Y-15677000D02*
X15296000Y-17328000D01*
D30*
X34480000Y-20955000D02*
X34297500Y-20955000D01*
D27*
X28123000Y-17328000D02*
X30670500Y-17328000D01*
D30*
X34297500Y-20955000D02*
X30670500Y-17328000D01*
D28*
X49743000Y-31328000D02*
X50165000Y-31750000D01*
X48414000Y-31328000D02*
X49743000Y-31328000D01*
X49306000Y-12730000D02*
X47741000Y-12730000D01*
X50165000Y-13589000D02*
X49306000Y-12730000D01*
D27*
X9316000Y-15057000D02*
X10582000Y-15057000D01*
X10582000Y-15057000D02*
X10978000Y-14661000D01*
X10978000Y-13518000D02*
X10089000Y-14407000D01*
X10089000Y-14407000D02*
X9316000Y-14407000D01*
X35433000Y-9652000D02*
X37973000Y-7112000D01*
X34101000Y-9652000D02*
X35433000Y-9652000D01*
X34101000Y-10922000D02*
X34101000Y-9652000D01*
X37973000Y-7112000D02*
X39051000Y-7112000D01*
D29*
X31636000Y-10922000D02*
X34101000Y-10922000D01*
D28*
X47496500Y-4056500D02*
X48633500Y-4056500D01*
X48633500Y-4056500D02*
X49276000Y-4699000D01*
X45402500Y-4000500D02*
X45458500Y-4056500D01*
X49276000Y-5461000D02*
X49784000Y-5969000D01*
X45466000Y-10780000D02*
X44308000Y-10780000D01*
X49276000Y-4699000D02*
X49276000Y-5461000D01*
X49784000Y-5969000D02*
X50356000Y-5969000D01*
X44308000Y-10780000D02*
X43815000Y-10287000D01*
X45458500Y-4056500D02*
X47496500Y-4056500D01*
D29*
X52006000Y-4318000D02*
X52006000Y-5969000D01*
X52800500Y-25273000D02*
X52800500Y-23622000D01*
M02*
