%TF.GenerationSoftware,KiCad,Pcbnew,(6.99.0)*%
%TF.CreationDate,2022-12-27T22:07:25-08:00*%
%TF.ProjectId,eog-pcb-kicad,656f672d-7063-4622-9d6b-696361642e6b,rev?*%
%TF.SameCoordinates,Original*%
%TF.FileFunction,Legend,Bot*%
%TF.FilePolarity,Positive*%
%FSLAX46Y46*%
G04 Gerber Fmt 4.6, Leading zero omitted, Abs format (unit mm)*
G04 Created by KiCad (PCBNEW (6.99.0)) date 2022-12-27 22:07:25*
%MOMM*%
%LPD*%
G01*
G04 APERTURE LIST*
%ADD10C,0.190500*%
%ADD11R,1.700000X1.700000*%
%ADD12O,1.700000X1.700000*%
%ADD13C,2.200000*%
G04 APERTURE END LIST*
D10*
X34640317Y-19218751D02*
X34386317Y-19218751D01*
X34327353Y-19617894D02*
X34690210Y-19617894D01*
X34594960Y-18855894D01*
X34232103Y-18855894D01*
X33760389Y-18855894D02*
X33615246Y-18855894D01*
X33547210Y-18892180D01*
X33483710Y-18964751D01*
X33465567Y-19109894D01*
X33497317Y-19363894D01*
X33551746Y-19509037D01*
X33633389Y-19581608D01*
X33710496Y-19617894D01*
X33855639Y-19617894D01*
X33923675Y-19581608D01*
X33987175Y-19509037D01*
X34005317Y-19363894D01*
X33973567Y-19109894D01*
X33919139Y-18964751D01*
X33837496Y-18892180D01*
X33760389Y-18855894D01*
X32712639Y-18892180D02*
X32780675Y-18855894D01*
X32889532Y-18855894D01*
X33002925Y-18892180D01*
X33084567Y-18964751D01*
X33129925Y-19037322D01*
X33184353Y-19182465D01*
X33197960Y-19291322D01*
X33179817Y-19436465D01*
X33152603Y-19509037D01*
X33089103Y-19581608D01*
X32984782Y-19617894D01*
X32912210Y-19617894D01*
X32798817Y-19581608D01*
X32757996Y-19545322D01*
X32726246Y-19291322D01*
X32871389Y-19291322D01*
X31859924Y-19617894D02*
X31796424Y-19109894D01*
X31814567Y-19255037D02*
X31769210Y-19182465D01*
X31728389Y-19146180D01*
X31651282Y-19109894D01*
X31578710Y-19109894D01*
X31093389Y-19581608D02*
X31170496Y-19617894D01*
X31315639Y-19617894D01*
X31383675Y-19581608D01*
X31410889Y-19509037D01*
X31374603Y-19218751D01*
X31329246Y-19146180D01*
X31252139Y-19109894D01*
X31106996Y-19109894D01*
X31038960Y-19146180D01*
X31011746Y-19218751D01*
X31020817Y-19291322D01*
X31392746Y-19363894D01*
X30403960Y-19581608D02*
X30481067Y-19617894D01*
X30626210Y-19617894D01*
X30694246Y-19581608D01*
X30725996Y-19545322D01*
X30753210Y-19472751D01*
X30725996Y-19255037D01*
X30680639Y-19182465D01*
X30639817Y-19146180D01*
X30562710Y-19109894D01*
X30417567Y-19109894D01*
X30349532Y-19146180D01*
X29973067Y-19617894D02*
X30041103Y-19581608D01*
X30072853Y-19545322D01*
X30100067Y-19472751D01*
X30072853Y-19255037D01*
X30027496Y-19182465D01*
X29986675Y-19146180D01*
X29909567Y-19109894D01*
X29800710Y-19109894D01*
X29732675Y-19146180D01*
X29700925Y-19182465D01*
X29673710Y-19255037D01*
X29700924Y-19472751D01*
X29746282Y-19545322D01*
X29787103Y-19581608D01*
X29864210Y-19617894D01*
X29973067Y-19617894D01*
X29392496Y-19617894D02*
X29328996Y-19109894D01*
X29347139Y-19255037D02*
X29301782Y-19182465D01*
X29260960Y-19146180D01*
X29183853Y-19109894D01*
X29111282Y-19109894D01*
X28594210Y-19617894D02*
X28498960Y-18855894D01*
X28589675Y-19581608D02*
X28666782Y-19617894D01*
X28811925Y-19617894D01*
X28879960Y-19581608D01*
X28911710Y-19545322D01*
X28938925Y-19472751D01*
X28911710Y-19255037D01*
X28866353Y-19182465D01*
X28825532Y-19146180D01*
X28748425Y-19109894D01*
X28603282Y-19109894D01*
X28535246Y-19146180D01*
X28231353Y-19617894D02*
X28167853Y-19109894D01*
X28136103Y-18855894D02*
X28176925Y-18892180D01*
X28145175Y-18928465D01*
X28104353Y-18892180D01*
X28136103Y-18855894D01*
X28145175Y-18928465D01*
X27804996Y-19109894D02*
X27868496Y-19617894D01*
X27814067Y-19182465D02*
X27773246Y-19146180D01*
X27696139Y-19109894D01*
X27587282Y-19109894D01*
X27519246Y-19146180D01*
X27492032Y-19218751D01*
X27541925Y-19617894D01*
X26788996Y-19109894D02*
X26866103Y-19726751D01*
X26911460Y-19799322D01*
X26952282Y-19835608D01*
X27029389Y-19871894D01*
X27138246Y-19871894D01*
X27206282Y-19835608D01*
X26847960Y-19581608D02*
X26925067Y-19617894D01*
X27070210Y-19617894D01*
X27138246Y-19581608D01*
X27169996Y-19545322D01*
X27197210Y-19472751D01*
X27169996Y-19255037D01*
X27124639Y-19182465D01*
X27083817Y-19146180D01*
X27006710Y-19109894D01*
X26861567Y-19109894D01*
X26793532Y-19146180D01*
X25909067Y-19617894D02*
X25813817Y-18855894D01*
X25523532Y-18855894D01*
X25455496Y-18892180D01*
X25423746Y-18928465D01*
X25396532Y-19001037D01*
X25410139Y-19109894D01*
X25455496Y-19182465D01*
X25496317Y-19218751D01*
X25573425Y-19255037D01*
X25863710Y-19255037D01*
X24702567Y-19545322D02*
X24743389Y-19581608D01*
X24856782Y-19617894D01*
X24929353Y-19617894D01*
X25033675Y-19581608D01*
X25097175Y-19509037D01*
X25124389Y-19436465D01*
X25142532Y-19291322D01*
X25128925Y-19182465D01*
X25074496Y-19037322D01*
X25029139Y-18964751D01*
X24947496Y-18892180D01*
X24834103Y-18855894D01*
X24761532Y-18855894D01*
X24657210Y-18892180D01*
X24625460Y-18928465D01*
X24081175Y-19218751D02*
X23976853Y-19255037D01*
X23945103Y-19291322D01*
X23917889Y-19363894D01*
X23931496Y-19472751D01*
X23976853Y-19545322D01*
X24017675Y-19581608D01*
X24094782Y-19617894D01*
X24385067Y-19617894D01*
X24289817Y-18855894D01*
X24035817Y-18855894D01*
X23967782Y-18892180D01*
X23936032Y-18928465D01*
X23908817Y-19001037D01*
X23917889Y-19073608D01*
X23963246Y-19146180D01*
X24004067Y-19182465D01*
X24081175Y-19218751D01*
X24335175Y-19218751D01*
X34626710Y-20336714D02*
X34690210Y-20844714D01*
X34635782Y-20409285D02*
X34594960Y-20373000D01*
X34517853Y-20336714D01*
X34408996Y-20336714D01*
X34340960Y-20373000D01*
X34313746Y-20445571D01*
X34363639Y-20844714D01*
X33705960Y-20808428D02*
X33783067Y-20844714D01*
X33928210Y-20844714D01*
X33996246Y-20808428D01*
X34023460Y-20735857D01*
X33987175Y-20445571D01*
X33941817Y-20373000D01*
X33864710Y-20336714D01*
X33719567Y-20336714D01*
X33651532Y-20373000D01*
X33624317Y-20445571D01*
X33633389Y-20518142D01*
X34005317Y-20590714D01*
X32957567Y-20336714D02*
X33021067Y-20844714D01*
X33284139Y-20336714D02*
X33334032Y-20735857D01*
X33306817Y-20808428D01*
X33238782Y-20844714D01*
X33129925Y-20844714D01*
X33052817Y-20808428D01*
X33011996Y-20772142D01*
X32658210Y-20844714D02*
X32594710Y-20336714D01*
X32612853Y-20481857D02*
X32567496Y-20409285D01*
X32526675Y-20373000D01*
X32449567Y-20336714D01*
X32376996Y-20336714D01*
X32077639Y-20844714D02*
X32145675Y-20808428D01*
X32177425Y-20772142D01*
X32204639Y-20699571D01*
X32177425Y-20481857D01*
X32132067Y-20409285D01*
X32091246Y-20373000D01*
X32014139Y-20336714D01*
X31905282Y-20336714D01*
X31837246Y-20373000D01*
X31805496Y-20409285D01*
X31778282Y-20481857D01*
X31805496Y-20699571D01*
X31850853Y-20772142D01*
X31891675Y-20808428D01*
X31968782Y-20844714D01*
X32077639Y-20844714D01*
X31542425Y-20336714D02*
X31252139Y-20336714D01*
X31401817Y-20082714D02*
X31483460Y-20735857D01*
X31456246Y-20808428D01*
X31388210Y-20844714D01*
X31315639Y-20844714D01*
X30766817Y-20808428D02*
X30843925Y-20844714D01*
X30989067Y-20844714D01*
X31057103Y-20808428D01*
X31084317Y-20735857D01*
X31048032Y-20445571D01*
X31002675Y-20373000D01*
X30925567Y-20336714D01*
X30780425Y-20336714D01*
X30712389Y-20373000D01*
X30685175Y-20445571D01*
X30694246Y-20518142D01*
X31066175Y-20590714D01*
X30077389Y-20808428D02*
X30154496Y-20844714D01*
X30299639Y-20844714D01*
X30367675Y-20808428D01*
X30399425Y-20772142D01*
X30426639Y-20699571D01*
X30399425Y-20481857D01*
X30354067Y-20409285D01*
X30313246Y-20373000D01*
X30236139Y-20336714D01*
X30090996Y-20336714D01*
X30022960Y-20373000D01*
X29755353Y-20844714D02*
X29660103Y-20082714D01*
X29428782Y-20844714D02*
X29378889Y-20445571D01*
X29406103Y-20373000D01*
X29474139Y-20336714D01*
X29582996Y-20336714D01*
X29660103Y-20373000D01*
X29700925Y-20409285D01*
X29056853Y-20772142D02*
X29025103Y-20808428D01*
X29065925Y-20844714D01*
X29097675Y-20808428D01*
X29056853Y-20772142D01*
X29065925Y-20844714D01*
X28703067Y-20844714D02*
X28607817Y-20082714D01*
X28644103Y-20373000D02*
X28566996Y-20336714D01*
X28421853Y-20336714D01*
X28353817Y-20373000D01*
X28322067Y-20409285D01*
X28294853Y-20481857D01*
X28322067Y-20699571D01*
X28367425Y-20772142D01*
X28408246Y-20808428D01*
X28485353Y-20844714D01*
X28630496Y-20844714D01*
X28698532Y-20808428D01*
X27718817Y-20808428D02*
X27795925Y-20844714D01*
X27941067Y-20844714D01*
X28009103Y-20808428D01*
X28036317Y-20735857D01*
X28000032Y-20445571D01*
X27954675Y-20373000D01*
X27877567Y-20336714D01*
X27732425Y-20336714D01*
X27664389Y-20373000D01*
X27637175Y-20445571D01*
X27646246Y-20518142D01*
X28018175Y-20590714D01*
X27360496Y-20844714D02*
X27296996Y-20336714D01*
X27315139Y-20481857D02*
X27269782Y-20409285D01*
X27228960Y-20373000D01*
X27151853Y-20336714D01*
X27079282Y-20336714D01*
X26888782Y-20844714D02*
X26793532Y-20082714D01*
X26779925Y-20554428D02*
X26598496Y-20844714D01*
X26534996Y-20336714D02*
X26861567Y-20627000D01*
X25977103Y-20808428D02*
X26054210Y-20844714D01*
X26199353Y-20844714D01*
X26267389Y-20808428D01*
X26294603Y-20735857D01*
X26258317Y-20445571D01*
X26212960Y-20373000D01*
X26135853Y-20336714D01*
X25990710Y-20336714D01*
X25922675Y-20373000D01*
X25895460Y-20445571D01*
X25904532Y-20518142D01*
X26276460Y-20590714D01*
X25509925Y-20844714D02*
X25577960Y-20808428D01*
X25605175Y-20735857D01*
X25523532Y-20082714D01*
X24924817Y-20808428D02*
X25001925Y-20844714D01*
X25147067Y-20844714D01*
X25215103Y-20808428D01*
X25242317Y-20735857D01*
X25206032Y-20445571D01*
X25160675Y-20373000D01*
X25083567Y-20336714D01*
X24938425Y-20336714D01*
X24870389Y-20373000D01*
X24843175Y-20445571D01*
X24852246Y-20518142D01*
X25224175Y-20590714D01*
X24575567Y-20336714D02*
X24457639Y-20844714D01*
X24212710Y-20336714D02*
X24457639Y-20844714D01*
X24552889Y-21026142D01*
X24593710Y-21062428D01*
X24670817Y-21098714D01*
X23976853Y-20772142D02*
X23945103Y-20808428D01*
X23985925Y-20844714D01*
X24017675Y-20808428D01*
X23976853Y-20772142D01*
X23985925Y-20844714D01*
X23328246Y-20808428D02*
X23405353Y-20844714D01*
X23550496Y-20844714D01*
X23618532Y-20808428D01*
X23645746Y-20735857D01*
X23609460Y-20445571D01*
X23564103Y-20373000D01*
X23486996Y-20336714D01*
X23341853Y-20336714D01*
X23273817Y-20373000D01*
X23246603Y-20445571D01*
X23255675Y-20518142D01*
X23627603Y-20590714D01*
X22643353Y-20844714D02*
X22548103Y-20082714D01*
X22638817Y-20808428D02*
X22715925Y-20844714D01*
X22861067Y-20844714D01*
X22929103Y-20808428D01*
X22960853Y-20772142D01*
X22988067Y-20699571D01*
X22960853Y-20481857D01*
X22915496Y-20409285D01*
X22874675Y-20373000D01*
X22797567Y-20336714D01*
X22652425Y-20336714D01*
X22584389Y-20373000D01*
X21890425Y-20336714D02*
X21953925Y-20844714D01*
X22216996Y-20336714D02*
X22266889Y-20735857D01*
X22239675Y-20808428D01*
X22171639Y-20844714D01*
X22062782Y-20844714D01*
X21985675Y-20808428D01*
X21944853Y-20772142D01*
X34721960Y-22035248D02*
X34617639Y-22071534D01*
X34436210Y-22071534D01*
X34359103Y-22035248D01*
X34318282Y-21998962D01*
X34272925Y-21926391D01*
X34263853Y-21853820D01*
X34291067Y-21781248D01*
X34322817Y-21744962D01*
X34390853Y-21708677D01*
X34531460Y-21672391D01*
X34599496Y-21636105D01*
X34631246Y-21599820D01*
X34658460Y-21527248D01*
X34649389Y-21454677D01*
X34604032Y-21382105D01*
X34563210Y-21345820D01*
X34486103Y-21309534D01*
X34304675Y-21309534D01*
X34200353Y-21345820D01*
X33964496Y-22071534D02*
X33869246Y-21309534D01*
X33578960Y-21309534D01*
X33510925Y-21345820D01*
X33479175Y-21382105D01*
X33451960Y-21454677D01*
X33465567Y-21563534D01*
X33510925Y-21636105D01*
X33551746Y-21672391D01*
X33628853Y-21708677D01*
X33919139Y-21708677D01*
X33152603Y-21382105D02*
X33111782Y-21345820D01*
X33034675Y-21309534D01*
X32853246Y-21309534D01*
X32785210Y-21345820D01*
X32753460Y-21382105D01*
X32726246Y-21454677D01*
X32735317Y-21527248D01*
X32785210Y-21636105D01*
X33275067Y-22071534D01*
X32803353Y-22071534D01*
X32454103Y-21309534D02*
X31982389Y-21309534D01*
X32272675Y-21599820D01*
X32163817Y-21599820D01*
X32095782Y-21636105D01*
X32064032Y-21672391D01*
X32036817Y-21744962D01*
X32059496Y-21926391D01*
X32104853Y-21998962D01*
X32145675Y-22035248D01*
X32222782Y-22071534D01*
X32440496Y-22071534D01*
X32508532Y-22035248D01*
X32540282Y-21998962D01*
X30989067Y-22361820D02*
X31020817Y-22325534D01*
X31079782Y-22216677D01*
X31106996Y-22144105D01*
X31129675Y-22035248D01*
X31143282Y-21853820D01*
X31125139Y-21708677D01*
X31066175Y-21527248D01*
X31016282Y-21418391D01*
X30970925Y-21345820D01*
X30884746Y-21236962D01*
X30843925Y-21200677D01*
X30671567Y-21563534D02*
X30553639Y-22071534D01*
X30308710Y-21563534D01*
X30032032Y-21382105D02*
X29991210Y-21345820D01*
X29914103Y-21309534D01*
X29732675Y-21309534D01*
X29664639Y-21345820D01*
X29632889Y-21382105D01*
X29605675Y-21454677D01*
X29614746Y-21527248D01*
X29664639Y-21636105D01*
X30154496Y-22071534D01*
X29682782Y-22071534D01*
X29347139Y-21998962D02*
X29315389Y-22035248D01*
X29356210Y-22071534D01*
X29387960Y-22035248D01*
X29347139Y-21998962D01*
X29356210Y-22071534D01*
X28752960Y-21309534D02*
X28680389Y-21309534D01*
X28612353Y-21345820D01*
X28580603Y-21382105D01*
X28553389Y-21454677D01*
X28535246Y-21599820D01*
X28557925Y-21781248D01*
X28612353Y-21926391D01*
X28657710Y-21998962D01*
X28698532Y-22035248D01*
X28775639Y-22071534D01*
X28848210Y-22071534D01*
X28916246Y-22035248D01*
X28947996Y-21998962D01*
X28975210Y-21926391D01*
X28993353Y-21781248D01*
X28970675Y-21599820D01*
X28916246Y-21454677D01*
X28870889Y-21382105D01*
X28830067Y-21345820D01*
X28752960Y-21309534D01*
X28376496Y-22361820D02*
X28335675Y-22325534D01*
X28249496Y-22216677D01*
X28204139Y-22144105D01*
X28154246Y-22035248D01*
X28095282Y-21853820D01*
X28077139Y-21708677D01*
X28090746Y-21527248D01*
X28113425Y-21418391D01*
X28140639Y-21345820D01*
X28199603Y-21236962D01*
X28231353Y-21200677D01*
%LPC*%
D11*
X57404000Y-24755000D03*
D12*
X57404000Y-22215000D03*
X57404000Y-19675000D03*
X57404000Y-17135000D03*
D13*
X56500000Y-3500000D03*
X3500000Y-37500000D03*
D11*
X3612000Y-13884000D03*
D12*
X3612000Y-11344000D03*
X3612000Y-8804000D03*
D13*
X56500000Y-37500000D03*
D11*
X3556000Y-30861000D03*
D12*
X3556000Y-28321000D03*
X3556000Y-25781000D03*
D13*
X3500000Y-3500000D03*
D11*
X9271000Y-38227000D03*
D12*
X11811000Y-38227000D03*
X14351000Y-38227000D03*
X16891000Y-38227000D03*
X19431000Y-38227000D03*
X21971000Y-38227000D03*
X24511000Y-38227000D03*
X27051000Y-38227000D03*
M02*
