%TF.GenerationSoftware,KiCad,Pcbnew,(6.99.0)*%
%TF.CreationDate,2022-12-27T21:53:31-08:00*%
%TF.ProjectId,eog-pcb-kicad,656f672d-7063-4622-9d6b-696361642e6b,rev?*%
%TF.SameCoordinates,Original*%
%TF.FileFunction,Legend,Top*%
%TF.FilePolarity,Positive*%
%FSLAX46Y46*%
G04 Gerber Fmt 4.6, Leading zero omitted, Abs format (unit mm)*
G04 Created by KiCad (PCBNEW (6.99.0)) date 2022-12-27 21:53:31*
%MOMM*%
%LPD*%
G01*
G04 APERTURE LIST*
G04 Aperture macros list*
%AMRoundRect*
0 Rectangle with rounded corners*
0 $1 Rounding radius*
0 $2 $3 $4 $5 $6 $7 $8 $9 X,Y pos of 4 corners*
0 Add a 4 corners polygon primitive as box body*
4,1,4,$2,$3,$4,$5,$6,$7,$8,$9,$2,$3,0*
0 Add four circle primitives for the rounded corners*
1,1,$1+$1,$2,$3*
1,1,$1+$1,$4,$5*
1,1,$1+$1,$6,$7*
1,1,$1+$1,$8,$9*
0 Add four rect primitives between the rounded corners*
20,1,$1+$1,$2,$3,$4,$5,0*
20,1,$1+$1,$4,$5,$6,$7,0*
20,1,$1+$1,$6,$7,$8,$9,0*
20,1,$1+$1,$8,$9,$2,$3,0*%
G04 Aperture macros list end*
%ADD10C,0.120000*%
%ADD11C,0.200000*%
%ADD12C,0.150000*%
%ADD13C,0.127000*%
%ADD14RoundRect,0.218750X0.218750X0.256250X-0.218750X0.256250X-0.218750X-0.256250X0.218750X-0.256250X0*%
%ADD15RoundRect,0.225000X-0.250000X0.225000X-0.250000X-0.225000X0.250000X-0.225000X0.250000X0.225000X0*%
%ADD16RoundRect,0.150000X-0.825000X-0.150000X0.825000X-0.150000X0.825000X0.150000X-0.825000X0.150000X0*%
%ADD17RoundRect,0.200000X0.200000X0.275000X-0.200000X0.275000X-0.200000X-0.275000X0.200000X-0.275000X0*%
%ADD18RoundRect,0.225000X0.250000X-0.225000X0.250000X0.225000X-0.250000X0.225000X-0.250000X-0.225000X0*%
%ADD19RoundRect,0.200000X-0.200000X-0.275000X0.200000X-0.275000X0.200000X0.275000X-0.200000X0.275000X0*%
%ADD20R,1.700000X1.700000*%
%ADD21O,1.700000X1.700000*%
%ADD22RoundRect,0.225000X-0.225000X-0.250000X0.225000X-0.250000X0.225000X0.250000X-0.225000X0.250000X0*%
%ADD23RoundRect,0.225000X0.225000X0.250000X-0.225000X0.250000X-0.225000X-0.250000X0.225000X-0.250000X0*%
%ADD24C,2.200000*%
%ADD25R,1.600000X5.700000*%
%ADD26R,2.250000X3.120000*%
%ADD27RoundRect,0.200000X-0.275000X0.200000X-0.275000X-0.200000X0.275000X-0.200000X0.275000X0.200000X0*%
%ADD28R,2.400000X2.900000*%
%ADD29RoundRect,0.125000X-0.537500X-0.125000X0.537500X-0.125000X0.537500X0.125000X-0.537500X0.125000X0*%
G04 APERTURE END LIST*
D10*
X40391428Y-39333714D02*
X40391428Y-38571714D01*
X40826857Y-39333714D01*
X40826857Y-38571714D01*
X41189714Y-38934571D02*
X41443714Y-38934571D01*
X41552571Y-39333714D02*
X41189714Y-39333714D01*
X41189714Y-38571714D01*
X41552571Y-38571714D01*
X41879142Y-38571714D02*
X41879142Y-39188571D01*
X41915428Y-39261142D01*
X41951714Y-39297428D01*
X42024285Y-39333714D01*
X42169428Y-39333714D01*
X42242000Y-39297428D01*
X42278285Y-39261142D01*
X42314571Y-39188571D01*
X42314571Y-38571714D01*
X43112857Y-39333714D02*
X42858857Y-38970857D01*
X42677428Y-39333714D02*
X42677428Y-38571714D01*
X42967714Y-38571714D01*
X43040285Y-38608000D01*
X43076571Y-38644285D01*
X43112857Y-38716857D01*
X43112857Y-38825714D01*
X43076571Y-38898285D01*
X43040285Y-38934571D01*
X42967714Y-38970857D01*
X42677428Y-38970857D01*
X43584571Y-38571714D02*
X43729714Y-38571714D01*
X43802285Y-38608000D01*
X43874857Y-38680571D01*
X43911142Y-38825714D01*
X43911142Y-39079714D01*
X43874857Y-39224857D01*
X43802285Y-39297428D01*
X43729714Y-39333714D01*
X43584571Y-39333714D01*
X43512000Y-39297428D01*
X43439428Y-39224857D01*
X43403142Y-39079714D01*
X43403142Y-38825714D01*
X43439428Y-38680571D01*
X43512000Y-38608000D01*
X43584571Y-38571714D01*
X44128857Y-38571714D02*
X44564285Y-38571714D01*
X44346571Y-39333714D02*
X44346571Y-38571714D01*
X44818285Y-38934571D02*
X45072285Y-38934571D01*
X45181142Y-39333714D02*
X44818285Y-39333714D01*
X44818285Y-38571714D01*
X45181142Y-38571714D01*
X45943142Y-39261142D02*
X45906857Y-39297428D01*
X45798000Y-39333714D01*
X45725428Y-39333714D01*
X45616571Y-39297428D01*
X45544000Y-39224857D01*
X45507714Y-39152285D01*
X45471428Y-39007142D01*
X45471428Y-38898285D01*
X45507714Y-38753142D01*
X45544000Y-38680571D01*
X45616571Y-38608000D01*
X45725428Y-38571714D01*
X45798000Y-38571714D01*
X45906857Y-38608000D01*
X45943142Y-38644285D01*
X46269714Y-39333714D02*
X46269714Y-38571714D01*
X46269714Y-38934571D02*
X46705142Y-38934571D01*
X46705142Y-39333714D02*
X46705142Y-38571714D01*
X47539714Y-38970857D02*
X47503428Y-38934571D01*
X47430857Y-38898285D01*
X47358285Y-38898285D01*
X47285714Y-38934571D01*
X47249428Y-38970857D01*
X47213142Y-39043428D01*
X47213142Y-39116000D01*
X47249428Y-39188571D01*
X47285714Y-39224857D01*
X47358285Y-39261142D01*
X47430857Y-39261142D01*
X47503428Y-39224857D01*
X47539714Y-39188571D01*
X47539714Y-38898285D02*
X47539714Y-39188571D01*
X47576000Y-39224857D01*
X47612285Y-39224857D01*
X47684857Y-39188571D01*
X47721142Y-39116000D01*
X47721142Y-38934571D01*
X47648571Y-38825714D01*
X47539714Y-38753142D01*
X47394571Y-38716857D01*
X47249428Y-38753142D01*
X47140571Y-38825714D01*
X47068000Y-38934571D01*
X47031714Y-39079714D01*
X47068000Y-39224857D01*
X47140571Y-39333714D01*
X47249428Y-39406285D01*
X47394571Y-39442571D01*
X47539714Y-39406285D01*
X47648571Y-39333714D01*
X48301714Y-38934571D02*
X48410571Y-38970857D01*
X48446857Y-39007142D01*
X48483142Y-39079714D01*
X48483142Y-39188571D01*
X48446857Y-39261142D01*
X48410571Y-39297428D01*
X48338000Y-39333714D01*
X48047714Y-39333714D01*
X48047714Y-38571714D01*
X48301714Y-38571714D01*
X48374285Y-38608000D01*
X48410571Y-38644285D01*
X48446857Y-38716857D01*
X48446857Y-38789428D01*
X48410571Y-38862000D01*
X48374285Y-38898285D01*
X48301714Y-38934571D01*
X48047714Y-38934571D01*
X48809714Y-38934571D02*
X49063714Y-38934571D01*
X49172571Y-39333714D02*
X48809714Y-39333714D01*
X48809714Y-38571714D01*
X49172571Y-38571714D01*
X49934571Y-39333714D02*
X49680571Y-38970857D01*
X49499142Y-39333714D02*
X49499142Y-38571714D01*
X49789428Y-38571714D01*
X49862000Y-38608000D01*
X49898285Y-38644285D01*
X49934571Y-38716857D01*
X49934571Y-38825714D01*
X49898285Y-38898285D01*
X49862000Y-38934571D01*
X49789428Y-38970857D01*
X49499142Y-38970857D01*
X50261142Y-39333714D02*
X50261142Y-38571714D01*
X50696571Y-39333714D02*
X50370000Y-38898285D01*
X50696571Y-38571714D02*
X50261142Y-39007142D01*
X51023142Y-38934571D02*
X51277142Y-38934571D01*
X51386000Y-39333714D02*
X51023142Y-39333714D01*
X51023142Y-38571714D01*
X51386000Y-38571714D01*
X52075428Y-39333714D02*
X51712571Y-39333714D01*
X51712571Y-38571714D01*
X52329428Y-38934571D02*
X52583428Y-38934571D01*
X52692285Y-39333714D02*
X52329428Y-39333714D01*
X52329428Y-38571714D01*
X52692285Y-38571714D01*
X53164000Y-38970857D02*
X53164000Y-39333714D01*
X52910000Y-38571714D02*
X53164000Y-38970857D01*
X53418000Y-38571714D01*
D11*
X1327142Y-29754809D02*
X1327142Y-30021476D01*
X908095Y-30135761D02*
X908095Y-29754809D01*
X1708095Y-29754809D01*
X1708095Y-30135761D01*
X908095Y-30935761D02*
X1289047Y-30669095D01*
X908095Y-30478619D02*
X1708095Y-30478619D01*
X1708095Y-30783380D01*
X1670000Y-30859571D01*
X1631904Y-30897666D01*
X1555714Y-30935761D01*
X1441428Y-30935761D01*
X1365238Y-30897666D01*
X1327142Y-30859571D01*
X1289047Y-30783380D01*
X1289047Y-30478619D01*
X1327142Y-31278619D02*
X1327142Y-31545285D01*
X908095Y-31659571D02*
X908095Y-31278619D01*
X1708095Y-31278619D01*
X1708095Y-31659571D01*
X1327142Y-32269095D02*
X1327142Y-32002428D01*
X908095Y-32002428D02*
X1708095Y-32002428D01*
X1708095Y-32383380D01*
X1327142Y-27768619D02*
X1327142Y-28035285D01*
X908095Y-28149571D02*
X908095Y-27768619D01*
X1708095Y-27768619D01*
X1708095Y-28149571D01*
X908095Y-28911476D02*
X908095Y-28454333D01*
X908095Y-28682904D02*
X1708095Y-28682904D01*
X1593809Y-28606714D01*
X1517619Y-28530523D01*
X1479523Y-28454333D01*
X1327142Y-25271619D02*
X1327142Y-25538285D01*
X908095Y-25652571D02*
X908095Y-25271619D01*
X1708095Y-25271619D01*
X1708095Y-25652571D01*
X1631904Y-25957333D02*
X1670000Y-25995428D01*
X1708095Y-26071619D01*
X1708095Y-26262095D01*
X1670000Y-26338285D01*
X1631904Y-26376380D01*
X1555714Y-26414476D01*
X1479523Y-26414476D01*
X1365238Y-26376380D01*
X908095Y-25919238D01*
X908095Y-26414476D01*
X54679904Y-17424380D02*
X54679904Y-17805333D01*
X55060857Y-17843428D01*
X55022761Y-17805333D01*
X54984666Y-17729142D01*
X54984666Y-17538666D01*
X55022761Y-17462476D01*
X55060857Y-17424380D01*
X55137047Y-17386285D01*
X55327523Y-17386285D01*
X55403714Y-17424380D01*
X55441809Y-17462476D01*
X55479904Y-17538666D01*
X55479904Y-17729142D01*
X55441809Y-17805333D01*
X55403714Y-17843428D01*
X54679904Y-17157714D02*
X55479904Y-16891047D01*
X54679904Y-16624380D01*
X24819809Y-36252047D02*
X24857904Y-36137761D01*
X24857904Y-35947285D01*
X24819809Y-35871095D01*
X24781714Y-35833000D01*
X24705523Y-35794904D01*
X24629333Y-35794904D01*
X24553142Y-35833000D01*
X24515047Y-35871095D01*
X24476952Y-35947285D01*
X24438857Y-36099666D01*
X24400761Y-36175857D01*
X24362666Y-36213952D01*
X24286476Y-36252047D01*
X24210285Y-36252047D01*
X24134095Y-36213952D01*
X24096000Y-36175857D01*
X24057904Y-36099666D01*
X24057904Y-35909190D01*
X24096000Y-35794904D01*
X24857904Y-35452047D02*
X24057904Y-35452047D01*
X24057904Y-35261571D01*
X24096000Y-35147285D01*
X24172190Y-35071095D01*
X24248380Y-35033000D01*
X24400761Y-34994904D01*
X24515047Y-34994904D01*
X24667428Y-35033000D01*
X24743619Y-35071095D01*
X24819809Y-35147285D01*
X24857904Y-35261571D01*
X24857904Y-35452047D01*
X24857904Y-34652047D02*
X24057904Y-34652047D01*
X55251333Y-20256428D02*
X55251333Y-19875476D01*
X55479904Y-20332619D02*
X54679904Y-20065952D01*
X55479904Y-19799285D01*
X54679904Y-19380238D02*
X54679904Y-19304047D01*
X54718000Y-19227857D01*
X54756095Y-19189761D01*
X54832285Y-19151666D01*
X54984666Y-19113571D01*
X55175142Y-19113571D01*
X55327523Y-19151666D01*
X55403714Y-19189761D01*
X55441809Y-19227857D01*
X55479904Y-19304047D01*
X55479904Y-19380238D01*
X55441809Y-19456428D01*
X55403714Y-19494523D01*
X55327523Y-19532619D01*
X55175142Y-19570714D01*
X54984666Y-19570714D01*
X54832285Y-19532619D01*
X54756095Y-19494523D01*
X54718000Y-19456428D01*
X54679904Y-19380238D01*
X14636714Y-35820285D02*
X14674809Y-35858380D01*
X14712904Y-35972666D01*
X14712904Y-36048857D01*
X14674809Y-36163142D01*
X14598619Y-36239333D01*
X14522428Y-36277428D01*
X14370047Y-36315523D01*
X14255761Y-36315523D01*
X14103380Y-36277428D01*
X14027190Y-36239333D01*
X13951000Y-36163142D01*
X13912904Y-36048857D01*
X13912904Y-35972666D01*
X13951000Y-35858380D01*
X13989095Y-35820285D01*
X14674809Y-35515523D02*
X14712904Y-35401238D01*
X14712904Y-35210761D01*
X14674809Y-35134571D01*
X14636714Y-35096476D01*
X14560523Y-35058380D01*
X14484333Y-35058380D01*
X14408142Y-35096476D01*
X14370047Y-35134571D01*
X14331952Y-35210761D01*
X14293857Y-35363142D01*
X14255761Y-35439333D01*
X14217666Y-35477428D01*
X14141476Y-35515523D01*
X14065285Y-35515523D01*
X13989095Y-35477428D01*
X13951000Y-35439333D01*
X13912904Y-35363142D01*
X13912904Y-35172666D01*
X13951000Y-35058380D01*
X13912904Y-34791714D02*
X13912904Y-34296476D01*
X14217666Y-34563142D01*
X14217666Y-34448857D01*
X14255761Y-34372666D01*
X14293857Y-34334571D01*
X14370047Y-34296476D01*
X14560523Y-34296476D01*
X14636714Y-34334571D01*
X14674809Y-34372666D01*
X14712904Y-34448857D01*
X14712904Y-34677428D01*
X14674809Y-34753619D01*
X14636714Y-34791714D01*
X55251333Y-22796428D02*
X55251333Y-22415476D01*
X55479904Y-22872619D02*
X54679904Y-22605952D01*
X55479904Y-22339285D01*
X55479904Y-21653571D02*
X55479904Y-22110714D01*
X55479904Y-21882142D02*
X54679904Y-21882142D01*
X54794190Y-21958333D01*
X54870380Y-22034523D01*
X54908476Y-22110714D01*
X1327142Y-8380619D02*
X1327142Y-8647285D01*
X908095Y-8761571D02*
X908095Y-8380619D01*
X1708095Y-8380619D01*
X1708095Y-8761571D01*
X1631904Y-9066333D02*
X1670000Y-9104428D01*
X1708095Y-9180619D01*
X1708095Y-9371095D01*
X1670000Y-9447285D01*
X1631904Y-9485380D01*
X1555714Y-9523476D01*
X1479523Y-9523476D01*
X1365238Y-9485380D01*
X908095Y-9028238D01*
X908095Y-9523476D01*
X27321714Y-35782190D02*
X27359809Y-35820285D01*
X27397904Y-35934571D01*
X27397904Y-36010761D01*
X27359809Y-36125047D01*
X27283619Y-36201238D01*
X27207428Y-36239333D01*
X27055047Y-36277428D01*
X26940761Y-36277428D01*
X26788380Y-36239333D01*
X26712190Y-36201238D01*
X26636000Y-36125047D01*
X26597904Y-36010761D01*
X26597904Y-35934571D01*
X26636000Y-35820285D01*
X26674095Y-35782190D01*
X27397904Y-35058380D02*
X27397904Y-35439333D01*
X26597904Y-35439333D01*
X27397904Y-34791714D02*
X26597904Y-34791714D01*
X27397904Y-34334571D02*
X26940761Y-34677428D01*
X26597904Y-34334571D02*
X27055047Y-34791714D01*
X12081714Y-35820285D02*
X12119809Y-35858380D01*
X12157904Y-35972666D01*
X12157904Y-36048857D01*
X12119809Y-36163142D01*
X12043619Y-36239333D01*
X11967428Y-36277428D01*
X11815047Y-36315523D01*
X11700761Y-36315523D01*
X11548380Y-36277428D01*
X11472190Y-36239333D01*
X11396000Y-36163142D01*
X11357904Y-36048857D01*
X11357904Y-35972666D01*
X11396000Y-35858380D01*
X11434095Y-35820285D01*
X12119809Y-35515523D02*
X12157904Y-35401238D01*
X12157904Y-35210761D01*
X12119809Y-35134571D01*
X12081714Y-35096476D01*
X12005523Y-35058380D01*
X11929333Y-35058380D01*
X11853142Y-35096476D01*
X11815047Y-35134571D01*
X11776952Y-35210761D01*
X11738857Y-35363142D01*
X11700761Y-35439333D01*
X11662666Y-35477428D01*
X11586476Y-35515523D01*
X11510285Y-35515523D01*
X11434095Y-35477428D01*
X11396000Y-35439333D01*
X11357904Y-35363142D01*
X11357904Y-35172666D01*
X11396000Y-35058380D01*
X11434095Y-34753619D02*
X11396000Y-34715523D01*
X11357904Y-34639333D01*
X11357904Y-34448857D01*
X11396000Y-34372666D01*
X11434095Y-34334571D01*
X11510285Y-34296476D01*
X11586476Y-34296476D01*
X11700761Y-34334571D01*
X12157904Y-34791714D01*
X12157904Y-34296476D01*
X19701714Y-35820285D02*
X19739809Y-35858380D01*
X19777904Y-35972666D01*
X19777904Y-36048857D01*
X19739809Y-36163142D01*
X19663619Y-36239333D01*
X19587428Y-36277428D01*
X19435047Y-36315523D01*
X19320761Y-36315523D01*
X19168380Y-36277428D01*
X19092190Y-36239333D01*
X19016000Y-36163142D01*
X18977904Y-36048857D01*
X18977904Y-35972666D01*
X19016000Y-35858380D01*
X19054095Y-35820285D01*
X19739809Y-35515523D02*
X19777904Y-35401238D01*
X19777904Y-35210761D01*
X19739809Y-35134571D01*
X19701714Y-35096476D01*
X19625523Y-35058380D01*
X19549333Y-35058380D01*
X19473142Y-35096476D01*
X19435047Y-35134571D01*
X19396952Y-35210761D01*
X19358857Y-35363142D01*
X19320761Y-35439333D01*
X19282666Y-35477428D01*
X19206476Y-35515523D01*
X19130285Y-35515523D01*
X19054095Y-35477428D01*
X19016000Y-35439333D01*
X18977904Y-35363142D01*
X18977904Y-35172666D01*
X19016000Y-35058380D01*
X18977904Y-34334571D02*
X18977904Y-34715523D01*
X19358857Y-34753619D01*
X19320761Y-34715523D01*
X19282666Y-34639333D01*
X19282666Y-34448857D01*
X19320761Y-34372666D01*
X19358857Y-34334571D01*
X19435047Y-34296476D01*
X19625523Y-34296476D01*
X19701714Y-34334571D01*
X19739809Y-34372666D01*
X19777904Y-34448857D01*
X19777904Y-34639333D01*
X19739809Y-34715523D01*
X19701714Y-34753619D01*
X22256714Y-35820285D02*
X22294809Y-35858380D01*
X22332904Y-35972666D01*
X22332904Y-36048857D01*
X22294809Y-36163142D01*
X22218619Y-36239333D01*
X22142428Y-36277428D01*
X21990047Y-36315523D01*
X21875761Y-36315523D01*
X21723380Y-36277428D01*
X21647190Y-36239333D01*
X21571000Y-36163142D01*
X21532904Y-36048857D01*
X21532904Y-35972666D01*
X21571000Y-35858380D01*
X21609095Y-35820285D01*
X22294809Y-35515523D02*
X22332904Y-35401238D01*
X22332904Y-35210761D01*
X22294809Y-35134571D01*
X22256714Y-35096476D01*
X22180523Y-35058380D01*
X22104333Y-35058380D01*
X22028142Y-35096476D01*
X21990047Y-35134571D01*
X21951952Y-35210761D01*
X21913857Y-35363142D01*
X21875761Y-35439333D01*
X21837666Y-35477428D01*
X21761476Y-35515523D01*
X21685285Y-35515523D01*
X21609095Y-35477428D01*
X21571000Y-35439333D01*
X21532904Y-35363142D01*
X21532904Y-35172666D01*
X21571000Y-35058380D01*
X21532904Y-34372666D02*
X21532904Y-34525047D01*
X21571000Y-34601238D01*
X21609095Y-34639333D01*
X21723380Y-34715523D01*
X21875761Y-34753619D01*
X22180523Y-34753619D01*
X22256714Y-34715523D01*
X22294809Y-34677428D01*
X22332904Y-34601238D01*
X22332904Y-34448857D01*
X22294809Y-34372666D01*
X22256714Y-34334571D01*
X22180523Y-34296476D01*
X21990047Y-34296476D01*
X21913857Y-34334571D01*
X21875761Y-34372666D01*
X21837666Y-34448857D01*
X21837666Y-34601238D01*
X21875761Y-34677428D01*
X21913857Y-34715523D01*
X21990047Y-34753619D01*
X9541714Y-35820285D02*
X9579809Y-35858380D01*
X9617904Y-35972666D01*
X9617904Y-36048857D01*
X9579809Y-36163142D01*
X9503619Y-36239333D01*
X9427428Y-36277428D01*
X9275047Y-36315523D01*
X9160761Y-36315523D01*
X9008380Y-36277428D01*
X8932190Y-36239333D01*
X8856000Y-36163142D01*
X8817904Y-36048857D01*
X8817904Y-35972666D01*
X8856000Y-35858380D01*
X8894095Y-35820285D01*
X9579809Y-35515523D02*
X9617904Y-35401238D01*
X9617904Y-35210761D01*
X9579809Y-35134571D01*
X9541714Y-35096476D01*
X9465523Y-35058380D01*
X9389333Y-35058380D01*
X9313142Y-35096476D01*
X9275047Y-35134571D01*
X9236952Y-35210761D01*
X9198857Y-35363142D01*
X9160761Y-35439333D01*
X9122666Y-35477428D01*
X9046476Y-35515523D01*
X8970285Y-35515523D01*
X8894095Y-35477428D01*
X8856000Y-35439333D01*
X8817904Y-35363142D01*
X8817904Y-35172666D01*
X8856000Y-35058380D01*
X9617904Y-34296476D02*
X9617904Y-34753619D01*
X9617904Y-34525047D02*
X8817904Y-34525047D01*
X8932190Y-34601238D01*
X9008380Y-34677428D01*
X9046476Y-34753619D01*
X17176714Y-35820285D02*
X17214809Y-35858380D01*
X17252904Y-35972666D01*
X17252904Y-36048857D01*
X17214809Y-36163142D01*
X17138619Y-36239333D01*
X17062428Y-36277428D01*
X16910047Y-36315523D01*
X16795761Y-36315523D01*
X16643380Y-36277428D01*
X16567190Y-36239333D01*
X16491000Y-36163142D01*
X16452904Y-36048857D01*
X16452904Y-35972666D01*
X16491000Y-35858380D01*
X16529095Y-35820285D01*
X17214809Y-35515523D02*
X17252904Y-35401238D01*
X17252904Y-35210761D01*
X17214809Y-35134571D01*
X17176714Y-35096476D01*
X17100523Y-35058380D01*
X17024333Y-35058380D01*
X16948142Y-35096476D01*
X16910047Y-35134571D01*
X16871952Y-35210761D01*
X16833857Y-35363142D01*
X16795761Y-35439333D01*
X16757666Y-35477428D01*
X16681476Y-35515523D01*
X16605285Y-35515523D01*
X16529095Y-35477428D01*
X16491000Y-35439333D01*
X16452904Y-35363142D01*
X16452904Y-35172666D01*
X16491000Y-35058380D01*
X16719571Y-34372666D02*
X17252904Y-34372666D01*
X16414809Y-34563142D02*
X16986238Y-34753619D01*
X16986238Y-34258380D01*
X54718000Y-25501523D02*
X54679904Y-25577714D01*
X54679904Y-25692000D01*
X54718000Y-25806285D01*
X54794190Y-25882476D01*
X54870380Y-25920571D01*
X55022761Y-25958666D01*
X55137047Y-25958666D01*
X55289428Y-25920571D01*
X55365619Y-25882476D01*
X55441809Y-25806285D01*
X55479904Y-25692000D01*
X55479904Y-25615809D01*
X55441809Y-25501523D01*
X55403714Y-25463428D01*
X55137047Y-25463428D01*
X55137047Y-25615809D01*
X55479904Y-25120571D02*
X54679904Y-25120571D01*
X55479904Y-24663428D01*
X54679904Y-24663428D01*
X55479904Y-24282476D02*
X54679904Y-24282476D01*
X54679904Y-24092000D01*
X54718000Y-23977714D01*
X54794190Y-23901523D01*
X54870380Y-23863428D01*
X55022761Y-23825333D01*
X55137047Y-23825333D01*
X55289428Y-23863428D01*
X55365619Y-23901523D01*
X55441809Y-23977714D01*
X55479904Y-24092000D01*
X55479904Y-24282476D01*
X1327142Y-10877619D02*
X1327142Y-11144285D01*
X908095Y-11258571D02*
X908095Y-10877619D01*
X1708095Y-10877619D01*
X1708095Y-11258571D01*
X908095Y-12020476D02*
X908095Y-11563333D01*
X908095Y-11791904D02*
X1708095Y-11791904D01*
X1593809Y-11715714D01*
X1517619Y-11639523D01*
X1479523Y-11563333D01*
X1327142Y-12863809D02*
X1327142Y-13130476D01*
X908095Y-13244761D02*
X908095Y-12863809D01*
X1708095Y-12863809D01*
X1708095Y-13244761D01*
X908095Y-14044761D02*
X1289047Y-13778095D01*
X908095Y-13587619D02*
X1708095Y-13587619D01*
X1708095Y-13892380D01*
X1670000Y-13968571D01*
X1631904Y-14006666D01*
X1555714Y-14044761D01*
X1441428Y-14044761D01*
X1365238Y-14006666D01*
X1327142Y-13968571D01*
X1289047Y-13892380D01*
X1289047Y-13587619D01*
X1327142Y-14387619D02*
X1327142Y-14654285D01*
X908095Y-14768571D02*
X908095Y-14387619D01*
X1708095Y-14387619D01*
X1708095Y-14768571D01*
X1327142Y-15378095D02*
X1327142Y-15111428D01*
X908095Y-15111428D02*
X1708095Y-15111428D01*
X1708095Y-15492380D01*
D12*
X45262857Y-21134428D02*
X45262857Y-21620142D01*
X45291428Y-21677285D01*
X45320000Y-21705857D01*
X45377142Y-21734428D01*
X45491428Y-21734428D01*
X45548571Y-21705857D01*
X45577142Y-21677285D01*
X45605714Y-21620142D01*
X45605714Y-21134428D01*
X46148571Y-21134428D02*
X46034285Y-21134428D01*
X45977142Y-21163000D01*
X45948571Y-21191571D01*
X45891428Y-21277285D01*
X45862857Y-21391571D01*
X45862857Y-21620142D01*
X45891428Y-21677285D01*
X45920000Y-21705857D01*
X45977142Y-21734428D01*
X46091428Y-21734428D01*
X46148571Y-21705857D01*
X46177142Y-21677285D01*
X46205714Y-21620142D01*
X46205714Y-21477285D01*
X46177142Y-21420142D01*
X46148571Y-21391571D01*
X46091428Y-21363000D01*
X45977142Y-21363000D01*
X45920000Y-21391571D01*
X45891428Y-21420142D01*
X45862857Y-21477285D01*
X56943666Y-27138380D02*
X56943666Y-27852666D01*
X56896047Y-27995523D01*
X56800809Y-28090761D01*
X56657952Y-28138380D01*
X56562714Y-28138380D01*
X57324619Y-27138380D02*
X57943666Y-27138380D01*
X57610333Y-27519333D01*
X57753190Y-27519333D01*
X57848428Y-27566952D01*
X57896047Y-27614571D01*
X57943666Y-27709809D01*
X57943666Y-27947904D01*
X57896047Y-28043142D01*
X57848428Y-28090761D01*
X57753190Y-28138380D01*
X57467476Y-28138380D01*
X57372238Y-28090761D01*
X57324619Y-28043142D01*
X25831857Y-12244428D02*
X25831857Y-12730142D01*
X25860428Y-12787285D01*
X25889000Y-12815857D01*
X25946142Y-12844428D01*
X26060428Y-12844428D01*
X26117571Y-12815857D01*
X26146142Y-12787285D01*
X26174714Y-12730142D01*
X26174714Y-12244428D01*
X26717571Y-12444428D02*
X26717571Y-12844428D01*
X26574714Y-12215857D02*
X26431857Y-12644428D01*
X26803285Y-12644428D01*
X35591904Y-36663380D02*
X35591904Y-37472904D01*
X35639523Y-37568142D01*
X35687142Y-37615761D01*
X35782380Y-37663380D01*
X35972857Y-37663380D01*
X36068095Y-37615761D01*
X36115714Y-37568142D01*
X36163333Y-37472904D01*
X36163333Y-36663380D01*
X37163333Y-37663380D02*
X36591904Y-37663380D01*
X36877619Y-37663380D02*
X36877619Y-36663380D01*
X36782380Y-36806238D01*
X36687142Y-36901476D01*
X36591904Y-36949095D01*
X38115714Y-37663380D02*
X37544285Y-37663380D01*
X37830000Y-37663380D02*
X37830000Y-36663380D01*
X37734761Y-36806238D01*
X37639523Y-36901476D01*
X37544285Y-36949095D01*
X16052857Y-18848428D02*
X16052857Y-19334142D01*
X16081428Y-19391285D01*
X16110000Y-19419857D01*
X16167142Y-19448428D01*
X16281428Y-19448428D01*
X16338571Y-19419857D01*
X16367142Y-19391285D01*
X16395714Y-19334142D01*
X16395714Y-18848428D01*
X16767142Y-19105571D02*
X16710000Y-19077000D01*
X16681428Y-19048428D01*
X16652857Y-18991285D01*
X16652857Y-18962714D01*
X16681428Y-18905571D01*
X16710000Y-18877000D01*
X16767142Y-18848428D01*
X16881428Y-18848428D01*
X16938571Y-18877000D01*
X16967142Y-18905571D01*
X16995714Y-18962714D01*
X16995714Y-18991285D01*
X16967142Y-19048428D01*
X16938571Y-19077000D01*
X16881428Y-19105571D01*
X16767142Y-19105571D01*
X16710000Y-19134142D01*
X16681428Y-19162714D01*
X16652857Y-19219857D01*
X16652857Y-19334142D01*
X16681428Y-19391285D01*
X16710000Y-19419857D01*
X16767142Y-19448428D01*
X16881428Y-19448428D01*
X16938571Y-19419857D01*
X16967142Y-19391285D01*
X16995714Y-19334142D01*
X16995714Y-19219857D01*
X16967142Y-19162714D01*
X16938571Y-19134142D01*
X16881428Y-19105571D01*
X36663333Y-21407380D02*
X36187142Y-21407380D01*
X36187142Y-20407380D01*
X37520476Y-21407380D02*
X36949047Y-21407380D01*
X37234761Y-21407380D02*
X37234761Y-20407380D01*
X37139523Y-20550238D01*
X37044285Y-20645476D01*
X36949047Y-20693095D01*
X11988857Y-21515428D02*
X11988857Y-22001142D01*
X12017428Y-22058285D01*
X12046000Y-22086857D01*
X12103142Y-22115428D01*
X12217428Y-22115428D01*
X12274571Y-22086857D01*
X12303142Y-22058285D01*
X12331714Y-22001142D01*
X12331714Y-21515428D01*
X12903142Y-21515428D02*
X12617428Y-21515428D01*
X12588857Y-21801142D01*
X12617428Y-21772571D01*
X12674571Y-21744000D01*
X12817428Y-21744000D01*
X12874571Y-21772571D01*
X12903142Y-21801142D01*
X12931714Y-21858285D01*
X12931714Y-22001142D01*
X12903142Y-22058285D01*
X12874571Y-22086857D01*
X12817428Y-22115428D01*
X12674571Y-22115428D01*
X12617428Y-22086857D01*
X12588857Y-22058285D01*
X11607857Y-2211428D02*
X11607857Y-2697142D01*
X11636428Y-2754285D01*
X11665000Y-2782857D01*
X11722142Y-2811428D01*
X11836428Y-2811428D01*
X11893571Y-2782857D01*
X11922142Y-2754285D01*
X11950714Y-2697142D01*
X11950714Y-2211428D01*
X12207857Y-2268571D02*
X12236428Y-2240000D01*
X12293571Y-2211428D01*
X12436428Y-2211428D01*
X12493571Y-2240000D01*
X12522142Y-2268571D01*
X12550714Y-2325714D01*
X12550714Y-2382857D01*
X12522142Y-2468571D01*
X12179285Y-2811428D01*
X12550714Y-2811428D01*
X36118857Y-5640428D02*
X36118857Y-6126142D01*
X36147428Y-6183285D01*
X36176000Y-6211857D01*
X36233142Y-6240428D01*
X36347428Y-6240428D01*
X36404571Y-6211857D01*
X36433142Y-6183285D01*
X36461714Y-6126142D01*
X36461714Y-5640428D01*
X37061714Y-6240428D02*
X36718857Y-6240428D01*
X36890285Y-6240428D02*
X36890285Y-5640428D01*
X36833142Y-5726142D01*
X36776000Y-5783285D01*
X36718857Y-5811857D01*
X45866142Y-9196428D02*
X45866142Y-9682142D01*
X45894714Y-9739285D01*
X45923285Y-9767857D01*
X45980428Y-9796428D01*
X46094714Y-9796428D01*
X46151857Y-9767857D01*
X46180428Y-9739285D01*
X46209000Y-9682142D01*
X46209000Y-9196428D01*
X46809000Y-9796428D02*
X46466142Y-9796428D01*
X46637571Y-9796428D02*
X46637571Y-9196428D01*
X46580428Y-9282142D01*
X46523285Y-9339285D01*
X46466142Y-9367857D01*
X47180428Y-9196428D02*
X47237571Y-9196428D01*
X47294714Y-9225000D01*
X47323285Y-9253571D01*
X47351857Y-9310714D01*
X47380428Y-9425000D01*
X47380428Y-9567857D01*
X47351857Y-9682142D01*
X47323285Y-9739285D01*
X47294714Y-9767857D01*
X47237571Y-9796428D01*
X47180428Y-9796428D01*
X47123285Y-9767857D01*
X47094714Y-9739285D01*
X47066142Y-9682142D01*
X47037571Y-9567857D01*
X47037571Y-9425000D01*
X47066142Y-9310714D01*
X47094714Y-9253571D01*
X47123285Y-9225000D01*
X47180428Y-9196428D01*
X46501142Y-27738428D02*
X46501142Y-28224142D01*
X46529714Y-28281285D01*
X46558285Y-28309857D01*
X46615428Y-28338428D01*
X46729714Y-28338428D01*
X46786857Y-28309857D01*
X46815428Y-28281285D01*
X46844000Y-28224142D01*
X46844000Y-27738428D01*
X47444000Y-28338428D02*
X47101142Y-28338428D01*
X47272571Y-28338428D02*
X47272571Y-27738428D01*
X47215428Y-27824142D01*
X47158285Y-27881285D01*
X47101142Y-27909857D01*
X47644000Y-27738428D02*
X48015428Y-27738428D01*
X47815428Y-27967000D01*
X47901142Y-27967000D01*
X47958285Y-27995571D01*
X47986857Y-28024142D01*
X48015428Y-28081285D01*
X48015428Y-28224142D01*
X47986857Y-28281285D01*
X47958285Y-28309857D01*
X47901142Y-28338428D01*
X47729714Y-28338428D01*
X47672571Y-28309857D01*
X47644000Y-28281285D01*
X29638666Y-37552380D02*
X29638666Y-38266666D01*
X29591047Y-38409523D01*
X29495809Y-38504761D01*
X29352952Y-38552380D01*
X29257714Y-38552380D01*
X30067238Y-37647619D02*
X30114857Y-37600000D01*
X30210095Y-37552380D01*
X30448190Y-37552380D01*
X30543428Y-37600000D01*
X30591047Y-37647619D01*
X30638666Y-37742857D01*
X30638666Y-37838095D01*
X30591047Y-37980952D01*
X30019619Y-38552380D01*
X30638666Y-38552380D01*
X44627857Y-1195428D02*
X44627857Y-1681142D01*
X44656428Y-1738285D01*
X44685000Y-1766857D01*
X44742142Y-1795428D01*
X44856428Y-1795428D01*
X44913571Y-1766857D01*
X44942142Y-1738285D01*
X44970714Y-1681142D01*
X44970714Y-1195428D01*
X45199285Y-1195428D02*
X45570714Y-1195428D01*
X45370714Y-1424000D01*
X45456428Y-1424000D01*
X45513571Y-1452571D01*
X45542142Y-1481142D01*
X45570714Y-1538285D01*
X45570714Y-1681142D01*
X45542142Y-1738285D01*
X45513571Y-1766857D01*
X45456428Y-1795428D01*
X45285000Y-1795428D01*
X45227857Y-1766857D01*
X45199285Y-1738285D01*
X6369142Y-33961428D02*
X6369142Y-34447142D01*
X6397714Y-34504285D01*
X6426285Y-34532857D01*
X6483428Y-34561428D01*
X6597714Y-34561428D01*
X6654857Y-34532857D01*
X6683428Y-34504285D01*
X6712000Y-34447142D01*
X6712000Y-33961428D01*
X7312000Y-34561428D02*
X6969142Y-34561428D01*
X7140571Y-34561428D02*
X7140571Y-33961428D01*
X7083428Y-34047142D01*
X7026285Y-34104285D01*
X6969142Y-34132857D01*
X7540571Y-34018571D02*
X7569142Y-33990000D01*
X7626285Y-33961428D01*
X7769142Y-33961428D01*
X7826285Y-33990000D01*
X7854857Y-34018571D01*
X7883428Y-34075714D01*
X7883428Y-34132857D01*
X7854857Y-34218571D01*
X7512000Y-34561428D01*
X7883428Y-34561428D01*
X24434857Y-32945428D02*
X24434857Y-33431142D01*
X24463428Y-33488285D01*
X24492000Y-33516857D01*
X24549142Y-33545428D01*
X24663428Y-33545428D01*
X24720571Y-33516857D01*
X24749142Y-33488285D01*
X24777714Y-33431142D01*
X24777714Y-32945428D01*
X25006285Y-32945428D02*
X25406285Y-32945428D01*
X25149142Y-33545428D01*
X7670857Y-16054428D02*
X7670857Y-16540142D01*
X7699428Y-16597285D01*
X7728000Y-16625857D01*
X7785142Y-16654428D01*
X7899428Y-16654428D01*
X7956571Y-16625857D01*
X7985142Y-16597285D01*
X8013714Y-16540142D01*
X8013714Y-16054428D01*
X8328000Y-16654428D02*
X8442285Y-16654428D01*
X8499428Y-16625857D01*
X8528000Y-16597285D01*
X8585142Y-16511571D01*
X8613714Y-16397285D01*
X8613714Y-16168714D01*
X8585142Y-16111571D01*
X8556571Y-16083000D01*
X8499428Y-16054428D01*
X8385142Y-16054428D01*
X8328000Y-16083000D01*
X8299428Y-16111571D01*
X8270857Y-16168714D01*
X8270857Y-16311571D01*
X8299428Y-16368714D01*
X8328000Y-16397285D01*
X8385142Y-16425857D01*
X8499428Y-16425857D01*
X8556571Y-16397285D01*
X8585142Y-16368714D01*
X8613714Y-16311571D01*
G36*
X46266058Y-34825829D02*
G01*
X46278695Y-34821049D01*
X46280335Y-34820509D01*
X46301834Y-34814535D01*
X46324751Y-34809873D01*
X46347988Y-34806675D01*
X46370448Y-34805092D01*
X46390699Y-34805258D01*
X46408311Y-34806247D01*
X46414287Y-34793711D01*
X46422713Y-34779946D01*
X46433910Y-34767665D01*
X46447271Y-34757361D01*
X46462186Y-34749528D01*
X46473549Y-34745694D01*
X46484569Y-34743793D01*
X46497294Y-34743107D01*
X46510122Y-34743637D01*
X46521451Y-34745382D01*
X46522716Y-34745694D01*
X46537591Y-34751162D01*
X46551844Y-34759392D01*
X46564748Y-34769803D01*
X46575579Y-34781815D01*
X46583329Y-34794264D01*
X46587832Y-34805368D01*
X46591363Y-34817841D01*
X46593541Y-34830123D01*
X46594057Y-34838102D01*
X46592356Y-34855005D01*
X46587472Y-34871570D01*
X46579731Y-34887165D01*
X46569459Y-34901159D01*
X46556984Y-34912921D01*
X46554330Y-34914895D01*
X46538700Y-34924026D01*
X46522172Y-34929976D01*
X46505168Y-34932786D01*
X46488109Y-34932494D01*
X46471417Y-34929138D01*
X46455512Y-34922757D01*
X46440815Y-34913390D01*
X46429901Y-34903445D01*
X46418551Y-34889335D01*
X46410354Y-34874613D01*
X46405435Y-34859556D01*
X46403908Y-34845392D01*
X46403908Y-34837571D01*
X46387617Y-34838645D01*
X46368639Y-34840700D01*
X46348272Y-34844310D01*
X46328112Y-34849155D01*
X46314336Y-34853325D01*
X46288095Y-34863391D01*
X46263968Y-34875446D01*
X46241312Y-34889892D01*
X46219485Y-34907126D01*
X46202251Y-34923129D01*
X46179356Y-34945761D01*
X46198729Y-34964611D01*
X46221647Y-34985423D01*
X46245352Y-35003871D01*
X46270771Y-35020624D01*
X46296723Y-35035248D01*
X46333362Y-35052577D01*
X46372017Y-35067188D01*
X46412348Y-35078981D01*
X46454015Y-35087857D01*
X46496679Y-35093717D01*
X46497016Y-35093751D01*
X46505317Y-35094658D01*
X46512436Y-35095584D01*
X46517577Y-35096416D01*
X46519873Y-35097000D01*
X46519327Y-35097827D01*
X46515782Y-35099104D01*
X46509715Y-35100722D01*
X46501606Y-35102574D01*
X46491934Y-35104552D01*
X46481176Y-35106548D01*
X46469811Y-35108453D01*
X46467312Y-35108845D01*
X46456402Y-35110111D01*
X46442791Y-35111043D01*
X46427280Y-35111641D01*
X46410676Y-35111905D01*
X46393781Y-35111836D01*
X46377399Y-35111436D01*
X46362335Y-35110703D01*
X46349392Y-35109640D01*
X46342267Y-35108737D01*
X46303450Y-35101452D01*
X46267072Y-35091840D01*
X46232840Y-35079802D01*
X46200462Y-35065238D01*
X46175525Y-35051597D01*
X46144125Y-35031170D01*
X46115647Y-35008820D01*
X46090009Y-34984456D01*
X46067124Y-34957989D01*
X46046909Y-34929330D01*
X46029280Y-34898388D01*
X46026871Y-34893580D01*
X46014464Y-34865256D01*
X46004497Y-34835842D01*
X45997211Y-34806174D01*
X45992846Y-34777089D01*
X45992581Y-34774259D01*
X45991820Y-34767834D01*
X45990884Y-34763036D01*
X45989948Y-34760707D01*
X45989745Y-34760610D01*
X45986018Y-34761283D01*
X45979651Y-34763155D01*
X45971230Y-34766002D01*
X45961340Y-34769601D01*
X45950563Y-34773730D01*
X45939485Y-34778165D01*
X45928690Y-34782683D01*
X45918762Y-34787062D01*
X45911553Y-34790453D01*
X45879015Y-34808040D01*
X45848433Y-34827930D01*
X45819886Y-34849929D01*
X45793455Y-34873843D01*
X45769218Y-34899477D01*
X45747255Y-34926636D01*
X45727647Y-34955125D01*
X45710473Y-34984752D01*
X45695813Y-35015320D01*
X45683746Y-35046636D01*
X45674353Y-35078504D01*
X45667712Y-35110732D01*
X45663905Y-35143123D01*
X45663010Y-35175484D01*
X45665107Y-35207620D01*
X45670276Y-35239337D01*
X45678597Y-35270439D01*
X45690150Y-35300734D01*
X45696649Y-35314500D01*
X45701930Y-35324521D01*
X45708049Y-35335376D01*
X45714187Y-35345652D01*
X45718802Y-35352860D01*
X45724027Y-35360455D01*
X45727914Y-35365537D01*
X45730938Y-35368615D01*
X45733574Y-35370194D01*
X45735534Y-35370693D01*
X45739102Y-35371145D01*
X45745417Y-35371875D01*
X45753720Y-35372798D01*
X45763255Y-35373830D01*
X45768114Y-35374346D01*
X45799799Y-35378633D01*
X45829141Y-35384656D01*
X45856984Y-35392649D01*
X45884172Y-35402844D01*
X45904609Y-35412060D01*
X45927128Y-35423439D01*
X45949976Y-35435947D01*
X45971612Y-35448730D01*
X45979936Y-35453954D01*
X45991860Y-35461590D01*
X46000600Y-35457160D01*
X46016987Y-35450763D01*
X46034101Y-35447586D01*
X46051440Y-35447550D01*
X46068502Y-35450574D01*
X46084785Y-35456579D01*
X46099789Y-35465483D01*
X46110669Y-35474776D01*
X46122294Y-35488610D01*
X46130662Y-35503674D01*
X46135845Y-35520150D01*
X46137919Y-35538222D01*
X46137968Y-35541651D01*
X46136946Y-35558604D01*
X46133674Y-35573403D01*
X46127846Y-35586834D01*
X46119153Y-35599680D01*
X46111975Y-35607924D01*
X46098335Y-35619989D01*
X46083094Y-35628950D01*
X46066466Y-35634724D01*
X46048662Y-35637228D01*
X46037579Y-35637130D01*
X46019734Y-35634389D01*
X46003374Y-35628683D01*
X45988716Y-35620335D01*
X45975980Y-35609667D01*
X45965386Y-35597001D01*
X45957152Y-35582662D01*
X45951497Y-35566970D01*
X45948641Y-35550249D01*
X45948709Y-35542968D01*
X45985013Y-35542968D01*
X45986888Y-35556056D01*
X45987098Y-35556798D01*
X45992515Y-35569817D01*
X46000345Y-35580884D01*
X46010127Y-35589751D01*
X46021402Y-35596169D01*
X46033707Y-35599892D01*
X46046583Y-35600673D01*
X46059569Y-35598263D01*
X46062442Y-35597263D01*
X46075750Y-35590508D01*
X46086476Y-35581370D01*
X46094555Y-35569920D01*
X46099924Y-35556228D01*
X46100206Y-35555151D01*
X46101828Y-35541946D01*
X46100244Y-35528895D01*
X46095748Y-35516553D01*
X46088634Y-35505471D01*
X46079194Y-35496206D01*
X46067724Y-35489311D01*
X46064631Y-35488043D01*
X46051446Y-35484804D01*
X46037845Y-35484531D01*
X46024808Y-35487193D01*
X46019087Y-35489482D01*
X46007311Y-35496836D01*
X45997766Y-35506386D01*
X45990702Y-35517608D01*
X45986368Y-35529977D01*
X45985013Y-35542968D01*
X45948709Y-35542968D01*
X45948803Y-35532821D01*
X45952202Y-35515009D01*
X45952941Y-35512527D01*
X45954779Y-35506016D01*
X45955358Y-35501978D01*
X45954759Y-35499629D01*
X45954311Y-35499085D01*
X45951437Y-35496923D01*
X45946004Y-35493444D01*
X45938576Y-35488966D01*
X45929712Y-35483809D01*
X45919976Y-35478293D01*
X45909928Y-35472735D01*
X45900129Y-35467456D01*
X45891142Y-35462774D01*
X45885236Y-35459828D01*
X45854066Y-35446415D01*
X45822039Y-35436085D01*
X45788726Y-35428729D01*
X45753702Y-35424235D01*
X45746101Y-35423645D01*
X45730250Y-35422547D01*
X45706474Y-35437789D01*
X45689686Y-35448781D01*
X45675274Y-35458792D01*
X45662471Y-35468432D01*
X45650513Y-35478312D01*
X45638632Y-35489043D01*
X45626063Y-35501236D01*
X45622805Y-35504501D01*
X45603912Y-35524559D01*
X45587814Y-35543978D01*
X45574038Y-35563440D01*
X45562113Y-35583626D01*
X45551570Y-35605219D01*
X45548881Y-35611420D01*
X45538243Y-35640932D01*
X45531050Y-35670902D01*
X45527280Y-35701161D01*
X45526911Y-35731540D01*
X45529922Y-35761869D01*
X45536292Y-35791977D01*
X45545998Y-35821696D01*
X45559020Y-35850856D01*
X45575336Y-35879287D01*
X45584578Y-35892973D01*
X45592197Y-35902902D01*
X45601903Y-35914331D01*
X45613029Y-35926562D01*
X45624906Y-35938899D01*
X45636869Y-35950644D01*
X45648251Y-35961099D01*
X45656084Y-35967739D01*
X45687598Y-35990992D01*
X45721478Y-36011722D01*
X45757577Y-36029875D01*
X45795750Y-36045399D01*
X45835851Y-36058239D01*
X45877733Y-36068342D01*
X45921250Y-36075654D01*
X45961962Y-36079824D01*
X45979836Y-36080758D01*
X45997342Y-36080876D01*
X46015183Y-36080126D01*
X46034059Y-36078458D01*
X46054673Y-36075822D01*
X46077728Y-36072165D01*
X46085132Y-36070877D01*
X46126221Y-36062286D01*
X46165763Y-36051373D01*
X46203616Y-36038246D01*
X46239637Y-36023016D01*
X46273684Y-36005791D01*
X46305617Y-35986680D01*
X46335292Y-35965794D01*
X46362568Y-35943240D01*
X46387303Y-35919128D01*
X46409356Y-35893568D01*
X46428583Y-35866669D01*
X46444844Y-35838539D01*
X46457996Y-35809288D01*
X46467898Y-35779025D01*
X46468777Y-35775661D01*
X46472341Y-35760676D01*
X46474905Y-35747198D01*
X46476577Y-35734183D01*
X46477464Y-35720589D01*
X46477673Y-35705372D01*
X46477429Y-35691523D01*
X46475727Y-35663954D01*
X46472039Y-35638182D01*
X46466148Y-35613344D01*
X46457833Y-35588578D01*
X46446876Y-35563020D01*
X46442527Y-35554029D01*
X46424968Y-35522430D01*
X46404022Y-35491475D01*
X46379781Y-35461272D01*
X46352338Y-35431927D01*
X46321787Y-35403544D01*
X46288220Y-35376230D01*
X46282386Y-35371825D01*
X46276046Y-35367066D01*
X46270700Y-35363014D01*
X46267018Y-35360178D01*
X46265763Y-35359167D01*
X46266304Y-35358788D01*
X46269623Y-35359386D01*
X46275161Y-35360801D01*
X46282360Y-35362877D01*
X46290661Y-35365456D01*
X46299508Y-35368381D01*
X46304364Y-35370066D01*
X46341232Y-35384916D01*
X46376484Y-35402810D01*
X46409909Y-35423614D01*
X46441296Y-35447194D01*
X46470432Y-35473417D01*
X46473730Y-35476698D01*
X46493357Y-35496432D01*
X46507979Y-35476888D01*
X46533903Y-35445163D01*
X46562439Y-35415790D01*
X46593532Y-35388817D01*
X46627130Y-35364293D01*
X46646197Y-35352143D01*
X46655609Y-35346658D01*
X46666553Y-35340642D01*
X46678290Y-35334471D01*
X46690079Y-35328516D01*
X46701177Y-35323151D01*
X46710844Y-35318749D01*
X46718339Y-35315682D01*
X46719370Y-35315312D01*
X46725741Y-35313087D01*
X46726132Y-35307462D01*
X46763193Y-35307462D01*
X46764781Y-35321385D01*
X46769272Y-35333861D01*
X46776252Y-35344634D01*
X46785311Y-35353451D01*
X46796036Y-35360056D01*
X46808015Y-35364196D01*
X46820836Y-35365615D01*
X46834087Y-35364060D01*
X46847197Y-35359353D01*
X46858894Y-35351878D01*
X46867981Y-35342509D01*
X46874462Y-35331713D01*
X46878342Y-35319960D01*
X46879623Y-35307717D01*
X46878309Y-35295453D01*
X46874403Y-35283635D01*
X46867910Y-35272731D01*
X46858833Y-35263211D01*
X46847175Y-35255541D01*
X46846401Y-35255154D01*
X46839424Y-35251988D01*
X46833620Y-35250236D01*
X46827274Y-35249505D01*
X46821312Y-35249389D01*
X46813489Y-35249624D01*
X46807458Y-35250592D01*
X46801506Y-35252686D01*
X46796224Y-35255154D01*
X46783873Y-35263018D01*
X46774253Y-35272986D01*
X46767529Y-35284801D01*
X46763861Y-35298206D01*
X46763193Y-35307462D01*
X46726132Y-35307462D01*
X46726671Y-35299707D01*
X46729578Y-35282161D01*
X46735600Y-35265858D01*
X46744451Y-35251120D01*
X46755845Y-35238269D01*
X46769499Y-35227626D01*
X46785126Y-35219513D01*
X46802422Y-35214256D01*
X46811653Y-35212518D01*
X46818931Y-35211716D01*
X46825698Y-35211853D01*
X46833396Y-35212927D01*
X46840203Y-35214256D01*
X46857880Y-35219592D01*
X46873711Y-35227858D01*
X46887499Y-35238922D01*
X46899045Y-35252654D01*
X46899331Y-35253072D01*
X46905934Y-35263528D01*
X46910521Y-35272984D01*
X46913415Y-35282531D01*
X46914938Y-35293258D01*
X46915413Y-35306258D01*
X46915415Y-35307462D01*
X46915012Y-35320697D01*
X46913587Y-35331570D01*
X46910818Y-35341172D01*
X46906383Y-35350595D01*
X46899958Y-35360927D01*
X46899331Y-35361852D01*
X46887851Y-35375656D01*
X46874122Y-35386796D01*
X46858345Y-35395141D01*
X46840717Y-35400560D01*
X46840203Y-35400667D01*
X46830972Y-35402406D01*
X46823694Y-35403207D01*
X46816927Y-35403070D01*
X46809229Y-35401996D01*
X46802422Y-35400667D01*
X46784685Y-35395318D01*
X46768846Y-35387025D01*
X46755018Y-35375862D01*
X46743314Y-35361905D01*
X46742979Y-35361418D01*
X46734401Y-35348863D01*
X46722819Y-35355197D01*
X46698900Y-35369450D01*
X46674390Y-35386251D01*
X46650164Y-35404946D01*
X46627097Y-35424881D01*
X46617185Y-35434220D01*
X46596566Y-35455171D01*
X46578699Y-35475464D01*
X46563067Y-35495756D01*
X46549154Y-35516702D01*
X46540613Y-35531289D01*
X46530711Y-35549056D01*
X46539504Y-35564741D01*
X46553455Y-35592914D01*
X46565044Y-35623177D01*
X46574138Y-35654892D01*
X46580603Y-35687422D01*
X46584305Y-35720129D01*
X46585111Y-35752376D01*
X46583728Y-35775940D01*
X46578341Y-35813224D01*
X46569558Y-35849663D01*
X46557420Y-35885167D01*
X46541973Y-35919648D01*
X46523258Y-35953016D01*
X46501320Y-35985182D01*
X46476203Y-36016057D01*
X46457170Y-36036428D01*
X46426106Y-36065432D01*
X46392602Y-36091999D01*
X46356837Y-36116044D01*
X46318991Y-36137487D01*
X46279243Y-36156243D01*
X46237771Y-36172232D01*
X46194757Y-36185369D01*
X46150377Y-36195572D01*
X46104813Y-36202759D01*
X46093594Y-36204039D01*
X46082188Y-36204950D01*
X46067908Y-36205626D01*
X46051393Y-36206072D01*
X46033283Y-36206296D01*
X46014217Y-36206303D01*
X45994835Y-36206101D01*
X45975776Y-36205696D01*
X45957680Y-36205095D01*
X45941187Y-36204303D01*
X45926936Y-36203327D01*
X45916057Y-36202237D01*
X45867391Y-36194629D01*
X45820247Y-36184135D01*
X45774753Y-36170812D01*
X45731035Y-36154719D01*
X45689221Y-36135915D01*
X45649440Y-36114460D01*
X45611819Y-36090412D01*
X45576485Y-36063830D01*
X45543566Y-36034773D01*
X45534698Y-36026100D01*
X45520755Y-36011795D01*
X45508716Y-35998566D01*
X45497785Y-35985440D01*
X45487164Y-35971444D01*
X45476057Y-35955606D01*
X45471888Y-35949418D01*
X45452306Y-35917110D01*
X45435613Y-35883232D01*
X45422022Y-35848267D01*
X45412254Y-35814790D01*
X45405367Y-35779504D01*
X45401700Y-35743336D01*
X45401245Y-35706806D01*
X45403995Y-35670432D01*
X45409944Y-35634733D01*
X45414949Y-35614204D01*
X45426427Y-35578841D01*
X45441210Y-35544164D01*
X45459105Y-35510458D01*
X45479920Y-35478006D01*
X45503459Y-35447093D01*
X45529531Y-35418004D01*
X45557940Y-35391021D01*
X45578447Y-35374060D01*
X45583377Y-35370211D01*
X45579974Y-35363493D01*
X45576366Y-35355703D01*
X45572112Y-35345472D01*
X45567564Y-35333738D01*
X45563071Y-35321440D01*
X45558985Y-35309515D01*
X45555655Y-35298902D01*
X45554997Y-35296618D01*
X45545923Y-35257977D01*
X45540222Y-35218690D01*
X45537847Y-35178964D01*
X45538750Y-35139002D01*
X45542887Y-35099009D01*
X45550211Y-35059189D01*
X45560675Y-35019748D01*
X45574233Y-34980890D01*
X45590839Y-34942820D01*
X45610447Y-34905742D01*
X45633009Y-34869861D01*
X45658480Y-34835381D01*
X45659802Y-34833731D01*
X45687488Y-34801932D01*
X45717691Y-34772125D01*
X45750112Y-34744494D01*
X45784451Y-34719227D01*
X45820408Y-34696510D01*
X45857683Y-34676528D01*
X45895976Y-34659468D01*
X45934988Y-34645516D01*
X45974418Y-34634858D01*
X45983313Y-34632933D01*
X45990698Y-34631329D01*
X45995393Y-34629971D01*
X45998171Y-34628476D01*
X45999808Y-34626462D01*
X46000784Y-34624305D01*
X46015529Y-34590899D01*
X46032529Y-34559580D01*
X46052080Y-34529911D01*
X46074477Y-34501455D01*
X46100015Y-34473774D01*
X46107431Y-34466431D01*
X46138231Y-34438908D01*
X46171319Y-34413910D01*
X46206467Y-34391497D01*
X46243446Y-34371729D01*
X46282028Y-34354667D01*
X46321986Y-34340369D01*
X46363092Y-34328897D01*
X46405116Y-34320310D01*
X46447831Y-34314668D01*
X46491009Y-34312031D01*
X46534422Y-34312460D01*
X46577841Y-34316013D01*
X46621038Y-34322752D01*
X46639214Y-34326581D01*
X46658772Y-34331028D01*
X46671796Y-34317538D01*
X46693047Y-34297311D01*
X46717103Y-34277581D01*
X46743245Y-34258845D01*
X46770756Y-34241599D01*
X46798917Y-34226338D01*
X46814777Y-34218812D01*
X46855604Y-34202353D01*
X46897850Y-34188956D01*
X46941219Y-34178622D01*
X46985414Y-34171351D01*
X47030141Y-34167147D01*
X47075103Y-34166010D01*
X47120004Y-34167941D01*
X47164549Y-34172944D01*
X47208440Y-34181018D01*
X47251383Y-34192166D01*
X47293082Y-34206390D01*
X47316674Y-34216091D01*
X47351825Y-34233117D01*
X47385030Y-34252460D01*
X47416006Y-34273912D01*
X47444468Y-34297268D01*
X47470130Y-34322319D01*
X47483197Y-34337042D01*
X47493540Y-34350111D01*
X47504041Y-34364759D01*
X47514063Y-34380009D01*
X47522967Y-34394881D01*
X47530114Y-34408398D01*
X47531033Y-34410330D01*
X47538762Y-34426863D01*
X47579389Y-34426958D01*
X47611883Y-34427854D01*
X47642107Y-34430499D01*
X47670941Y-34435059D01*
X47699263Y-34441703D01*
X47727953Y-34450600D01*
X47754258Y-34460449D01*
X47791509Y-34477161D01*
X47826352Y-34496442D01*
X47858793Y-34518298D01*
X47888838Y-34542734D01*
X47916493Y-34569755D01*
X47941765Y-34599367D01*
X47964661Y-34631575D01*
X47968524Y-34637638D01*
X47986473Y-34669578D01*
X48001477Y-34703306D01*
X48013426Y-34738522D01*
X48022209Y-34774923D01*
X48025351Y-34793280D01*
X48026579Y-34804173D01*
X48027506Y-34817725D01*
X48028126Y-34833082D01*
X48028433Y-34849393D01*
X48028420Y-34865805D01*
X48028081Y-34881467D01*
X48027409Y-34895526D01*
X48026398Y-34907129D01*
X48026223Y-34908550D01*
X48019508Y-34947481D01*
X48009554Y-34985138D01*
X47996433Y-35021389D01*
X47980217Y-35056100D01*
X47960978Y-35089138D01*
X47938786Y-35120370D01*
X47913714Y-35149662D01*
X47885833Y-35176882D01*
X47878912Y-35182937D01*
X47851824Y-35204214D01*
X47822409Y-35223766D01*
X47791279Y-35241289D01*
X47759047Y-35256479D01*
X47726326Y-35269032D01*
X47693727Y-35278644D01*
X47679791Y-35281819D01*
X47669119Y-35284025D01*
X47670663Y-35295743D01*
X47671573Y-35305564D01*
X47672146Y-35318004D01*
X47672392Y-35332176D01*
X47672322Y-35347194D01*
X47671946Y-35362171D01*
X47671275Y-35376221D01*
X47670319Y-35388458D01*
X47669490Y-35395434D01*
X47662454Y-35432174D01*
X47652060Y-35467935D01*
X47638353Y-35502654D01*
X47621376Y-35536267D01*
X47601174Y-35568711D01*
X47577790Y-35599921D01*
X47551268Y-35629835D01*
X47521654Y-35658388D01*
X47488989Y-35685518D01*
X47453319Y-35711160D01*
X47449151Y-35713928D01*
X47411127Y-35737018D01*
X47370917Y-35757711D01*
X47329071Y-35775793D01*
X47286135Y-35791048D01*
X47242661Y-35803261D01*
X47199196Y-35812215D01*
X47198597Y-35812316D01*
X47175210Y-35816210D01*
X47162600Y-35838344D01*
X47124359Y-35902699D01*
X47084385Y-35964600D01*
X47042774Y-36023925D01*
X46999627Y-36080554D01*
X46955041Y-36134367D01*
X46909117Y-36185243D01*
X46861952Y-36233060D01*
X46813645Y-36277699D01*
X46778469Y-36307593D01*
X46725788Y-36348675D01*
X46672105Y-36386384D01*
X46617388Y-36420734D01*
X46561604Y-36451740D01*
X46504720Y-36479415D01*
X46446704Y-36503773D01*
X46387523Y-36524828D01*
X46327145Y-36542595D01*
X46265535Y-36557087D01*
X46202663Y-36568317D01*
X46152057Y-36574896D01*
X46137852Y-36576182D01*
X46120815Y-36577292D01*
X46101633Y-36578212D01*
X46080995Y-36578931D01*
X46059587Y-36579435D01*
X46038096Y-36579712D01*
X46017209Y-36579749D01*
X45997614Y-36579534D01*
X45979998Y-36579054D01*
X45965370Y-36578318D01*
X45901889Y-36572393D01*
X45838940Y-36563115D01*
X45776678Y-36550555D01*
X45715262Y-36534785D01*
X45654849Y-36515877D01*
X45595596Y-36493902D01*
X45537661Y-36468933D01*
X45481202Y-36441040D01*
X45426375Y-36410296D01*
X45373338Y-36376772D01*
X45322248Y-36340540D01*
X45273263Y-36301671D01*
X45226540Y-36260238D01*
X45191303Y-36225711D01*
X45152185Y-36183491D01*
X45116098Y-36140124D01*
X45083074Y-36095707D01*
X45053149Y-36050339D01*
X45026353Y-36004116D01*
X45002722Y-35957137D01*
X44982287Y-35909500D01*
X44965082Y-35861302D01*
X44951141Y-35812641D01*
X44940497Y-35763615D01*
X44933182Y-35714322D01*
X44929230Y-35664859D01*
X44928675Y-35615325D01*
X44931549Y-35565816D01*
X44937886Y-35516432D01*
X44942249Y-35492388D01*
X44953648Y-35442029D01*
X44968059Y-35390182D01*
X44985393Y-35337035D01*
X45005568Y-35282782D01*
X45028496Y-35227611D01*
X45054092Y-35171714D01*
X45082271Y-35115281D01*
X45112947Y-35058504D01*
X45146035Y-35001573D01*
X45181449Y-34944679D01*
X45201646Y-34913834D01*
X45243766Y-34852471D01*
X45287375Y-34792634D01*
X45332769Y-34733965D01*
X45380247Y-34676108D01*
X45430106Y-34618704D01*
X45482643Y-34561398D01*
X45538157Y-34503831D01*
X45568454Y-34473522D01*
X45643337Y-34401871D01*
X45719965Y-34333264D01*
X45798327Y-34267709D01*
X45878411Y-34205216D01*
X45960207Y-34145792D01*
X46043703Y-34089446D01*
X46128887Y-34036187D01*
X46209296Y-33989610D01*
X46226448Y-33980215D01*
X46245955Y-33969825D01*
X46267185Y-33958757D01*
X46289505Y-33947328D01*
X46312283Y-33935854D01*
X46334887Y-33924653D01*
X46356686Y-33914042D01*
X46377046Y-33904337D01*
X46395335Y-33895856D01*
X46404789Y-33891604D01*
X46482088Y-33858918D01*
X46558800Y-33829679D01*
X46634916Y-33803889D01*
X46710430Y-33781549D01*
X46785332Y-33762663D01*
X46859614Y-33747231D01*
X46933269Y-33735256D01*
X47006288Y-33726741D01*
X47034977Y-33724330D01*
X47045390Y-33723519D01*
X47054536Y-33722744D01*
X47061858Y-33722059D01*
X47066799Y-33721516D01*
X47068803Y-33721165D01*
X47068813Y-33721157D01*
X47068752Y-33719256D01*
X47068038Y-33714679D01*
X47066798Y-33708184D01*
X47065694Y-33702930D01*
X47063897Y-33692036D01*
X47062596Y-33678729D01*
X47061799Y-33663892D01*
X47061511Y-33648409D01*
X47061740Y-33633164D01*
X47062491Y-33619038D01*
X47063772Y-33606917D01*
X47064933Y-33600339D01*
X47072439Y-33573703D01*
X47082784Y-33549147D01*
X47095967Y-33526675D01*
X47111982Y-33506290D01*
X47130827Y-33487994D01*
X47152497Y-33471791D01*
X47176989Y-33457683D01*
X47204298Y-33445673D01*
X47234422Y-33435765D01*
X47267357Y-33427961D01*
X47290903Y-33423924D01*
X47319965Y-33420487D01*
X47351199Y-33418342D01*
X47383918Y-33417457D01*
X47417438Y-33417801D01*
X47451072Y-33419340D01*
X47484134Y-33422043D01*
X47515939Y-33425876D01*
X47545802Y-33430809D01*
X47573036Y-33436808D01*
X47575038Y-33437322D01*
X47603736Y-33445924D01*
X47629855Y-33456129D01*
X47653250Y-33467853D01*
X47673773Y-33481013D01*
X47691280Y-33495526D01*
X47705624Y-33511307D01*
X47706500Y-33512450D01*
X47718152Y-33530706D01*
X47726783Y-33550678D01*
X47732393Y-33572271D01*
X47734983Y-33595393D01*
X47734555Y-33619949D01*
X47731108Y-33645847D01*
X47724645Y-33672993D01*
X47715166Y-33701293D01*
X47704400Y-33726924D01*
X47690923Y-33754189D01*
X47674918Y-33782756D01*
X47662487Y-33803043D01*
X47655663Y-33813467D01*
X47647480Y-33825424D01*
X47638434Y-33838238D01*
X47629017Y-33851231D01*
X47619725Y-33863729D01*
X47611052Y-33875053D01*
X47603491Y-33884528D01*
X47599509Y-33889257D01*
X47595491Y-33894039D01*
X47592754Y-33897603D01*
X47591777Y-33899318D01*
X47591849Y-33899384D01*
X47593805Y-33898554D01*
X47597971Y-33896354D01*
X47603532Y-33893218D01*
X47604920Y-33892413D01*
X47628150Y-33880351D01*
X47653387Y-33869957D01*
X47679311Y-33861742D01*
X47691610Y-33858725D01*
X47704392Y-33856517D01*
X47719223Y-33854952D01*
X47735026Y-33854064D01*
X47750728Y-33853886D01*
X47765255Y-33854452D01*
X47777532Y-33855797D01*
X47778551Y-33855968D01*
X47802064Y-33861381D01*
X47824350Y-33869295D01*
X47845654Y-33879874D01*
X47866226Y-33893284D01*
X47886312Y-33909688D01*
X47906161Y-33929251D01*
X47926019Y-33952136D01*
X47928838Y-33955644D01*
X47944745Y-33974918D01*
X47960689Y-33992720D01*
X47977243Y-34009596D01*
X47994979Y-34026089D01*
X48014469Y-34042745D01*
X48036285Y-34060107D01*
X48047987Y-34069029D01*
X48060864Y-34078611D01*
X48073908Y-34088063D01*
X48087321Y-34097507D01*
X48101301Y-34107066D01*
X48116047Y-34116860D01*
X48131758Y-34127013D01*
X48148635Y-34137645D01*
X48166877Y-34148880D01*
X48186682Y-34160837D01*
X48208250Y-34173640D01*
X48231781Y-34187411D01*
X48257474Y-34202270D01*
X48285529Y-34218340D01*
X48316144Y-34235744D01*
X48349519Y-34254602D01*
X48375570Y-34269261D01*
X48412312Y-34290028D01*
X48446061Y-34309367D01*
X48476989Y-34327394D01*
X48505269Y-34344224D01*
X48531073Y-34359974D01*
X48554574Y-34374758D01*
X48575945Y-34388692D01*
X48595359Y-34401892D01*
X48612988Y-34414473D01*
X48629005Y-34426550D01*
X48643583Y-34438240D01*
X48656894Y-34449658D01*
X48669111Y-34460918D01*
X48680407Y-34472138D01*
X48683176Y-34475022D01*
X48703019Y-34498021D01*
X48719498Y-34521817D01*
X48732725Y-34546639D01*
X48742815Y-34572716D01*
X48749879Y-34600279D01*
X48752520Y-34616191D01*
X48754664Y-34644041D01*
X48753773Y-34673096D01*
X48749943Y-34702948D01*
X48743271Y-34733187D01*
X48733852Y-34763406D01*
X48721783Y-34793195D01*
X48707160Y-34822146D01*
X48701950Y-34831178D01*
X48694017Y-34844507D01*
X48723423Y-34859664D01*
X48761536Y-34880250D01*
X48799697Y-34902676D01*
X48837193Y-34926473D01*
X48873307Y-34951171D01*
X48907327Y-34976300D01*
X48937079Y-35000163D01*
X48954041Y-35014973D01*
X48972062Y-35031759D01*
X48990192Y-35049600D01*
X49007483Y-35067579D01*
X49014712Y-35075439D01*
X49034258Y-35097030D01*
X49179983Y-35192119D01*
X49200497Y-35205488D01*
X49220206Y-35218297D01*
X49238906Y-35230418D01*
X49256394Y-35241718D01*
X49272466Y-35252069D01*
X49286919Y-35261340D01*
X49299551Y-35269401D01*
X49310157Y-35276121D01*
X49318535Y-35281371D01*
X49324481Y-35285020D01*
X49327793Y-35286938D01*
X49328411Y-35287208D01*
X49331916Y-35286830D01*
X49338307Y-35285772D01*
X49347038Y-35284146D01*
X49357564Y-35282064D01*
X49369338Y-35279641D01*
X49381814Y-35276987D01*
X49394448Y-35274217D01*
X49406692Y-35271442D01*
X49418001Y-35268776D01*
X49419843Y-35268329D01*
X49431460Y-35265522D01*
X49440252Y-35263495D01*
X49446809Y-35262165D01*
X49451719Y-35261449D01*
X49455573Y-35261262D01*
X49458960Y-35261523D01*
X49462469Y-35262146D01*
X49462896Y-35262234D01*
X49475393Y-35266599D01*
X49486855Y-35274027D01*
X49497230Y-35284201D01*
X49506465Y-35296802D01*
X49514506Y-35311510D01*
X49521302Y-35328008D01*
X49526800Y-35345977D01*
X49530947Y-35365097D01*
X49533689Y-35385051D01*
X49534975Y-35405519D01*
X49534751Y-35426183D01*
X49532966Y-35446724D01*
X49529565Y-35466824D01*
X49524496Y-35486164D01*
X49517707Y-35504424D01*
X49509144Y-35521287D01*
X49506500Y-35525593D01*
X49504002Y-35529693D01*
X49502288Y-35533326D01*
X49501158Y-35537362D01*
X49500412Y-35542671D01*
X49499847Y-35550121D01*
X49499522Y-35555812D01*
X49496908Y-35580895D01*
X49491879Y-35603655D01*
X49484334Y-35624423D01*
X49474170Y-35643533D01*
X49471561Y-35647565D01*
X49459129Y-35663108D01*
X49444460Y-35675951D01*
X49427620Y-35686056D01*
X49408677Y-35693388D01*
X49387697Y-35697910D01*
X49377167Y-35699052D01*
X49362161Y-35700209D01*
X49351854Y-35740716D01*
X49339210Y-35789046D01*
X49326457Y-35835115D01*
X49313631Y-35878837D01*
X49300767Y-35920126D01*
X49287902Y-35958897D01*
X49275071Y-35995064D01*
X49262311Y-36028541D01*
X49249657Y-36059243D01*
X49237146Y-36087084D01*
X49224813Y-36111979D01*
X49212695Y-36133842D01*
X49200826Y-36152587D01*
X49189244Y-36168129D01*
X49177985Y-36180381D01*
X49167083Y-36189259D01*
X49162355Y-36192103D01*
X49153201Y-36196286D01*
X49141066Y-36200764D01*
X49126464Y-36205409D01*
X49109912Y-36210091D01*
X49091924Y-36214682D01*
X49073017Y-36219053D01*
X49053705Y-36223076D01*
X49034503Y-36226623D01*
X49015928Y-36229564D01*
X49007840Y-36230665D01*
X48995919Y-36231854D01*
X48981166Y-36232783D01*
X48964264Y-36233452D01*
X48945893Y-36233860D01*
X48926735Y-36234008D01*
X48907471Y-36233897D01*
X48888783Y-36233524D01*
X48871353Y-36232892D01*
X48855861Y-36232000D01*
X48842989Y-36230847D01*
X48841407Y-36230662D01*
X48820017Y-36227824D01*
X48797506Y-36224413D01*
X48775165Y-36220641D01*
X48754281Y-36216722D01*
X48743029Y-36214397D01*
X48734967Y-36212588D01*
X48725355Y-36210316D01*
X48714882Y-36207757D01*
X48704237Y-36205086D01*
X48694108Y-36202480D01*
X48685183Y-36200113D01*
X48678151Y-36198160D01*
X48673702Y-36196798D01*
X48673115Y-36196586D01*
X48671220Y-36196532D01*
X48671135Y-36199008D01*
X48671276Y-36199726D01*
X48672013Y-36203377D01*
X48673188Y-36209360D01*
X48674580Y-36216550D01*
X48674972Y-36218593D01*
X48679683Y-36237931D01*
X48686339Y-36257709D01*
X48694524Y-36276953D01*
X48703820Y-36294689D01*
X48713811Y-36309944D01*
X48714423Y-36310759D01*
X48730106Y-36328598D01*
X48748771Y-36344732D01*
X48770276Y-36359074D01*
X48794474Y-36371537D01*
X48821221Y-36382037D01*
X48847501Y-36389774D01*
X48863574Y-36393387D01*
X48880467Y-36396397D01*
X48897070Y-36398647D01*
X48912274Y-36399981D01*
X48921822Y-36400285D01*
X48935132Y-36400285D01*
X48933953Y-36405128D01*
X48932853Y-36408628D01*
X48930735Y-36414557D01*
X48927906Y-36422082D01*
X48924729Y-36430226D01*
X48908497Y-36466632D01*
X48888970Y-36502593D01*
X48866370Y-36537826D01*
X48840921Y-36572046D01*
X48812847Y-36604970D01*
X48782370Y-36636314D01*
X48749713Y-36665794D01*
X48722045Y-36687939D01*
X48682484Y-36715739D01*
X48640258Y-36741243D01*
X48595375Y-36764446D01*
X48547843Y-36785343D01*
X48526920Y-36793495D01*
X48517748Y-36796845D01*
X48509340Y-36799655D01*
X48501201Y-36802010D01*
X48492836Y-36803995D01*
X48483750Y-36805696D01*
X48473449Y-36807198D01*
X48461436Y-36808586D01*
X48447218Y-36809946D01*
X48430300Y-36811364D01*
X48417635Y-36812355D01*
X48391966Y-36814480D01*
X48368600Y-36816767D01*
X48346331Y-36819367D01*
X48323949Y-36822428D01*
X48300248Y-36826100D01*
X48281346Y-36829266D01*
X48231300Y-36838596D01*
X48179786Y-36849657D01*
X48126688Y-36862488D01*
X48071888Y-36877127D01*
X48015271Y-36893613D01*
X47956718Y-36911984D01*
X47896114Y-36932277D01*
X47833342Y-36954532D01*
X47768284Y-36978786D01*
X47700824Y-37005077D01*
X47630846Y-37033444D01*
X47558232Y-37063925D01*
X47539881Y-37071782D01*
X47500151Y-37089005D01*
X47462906Y-37105476D01*
X47427301Y-37121589D01*
X47392491Y-37137737D01*
X47357631Y-37154315D01*
X47321874Y-37171714D01*
X47284376Y-37190330D01*
X47273940Y-37195567D01*
X47193152Y-37237247D01*
X47115636Y-37279387D01*
X47041417Y-37321971D01*
X46970515Y-37364983D01*
X46902956Y-37408408D01*
X46838762Y-37452229D01*
X46777957Y-37496431D01*
X46720563Y-37540997D01*
X46666603Y-37585912D01*
X46616102Y-37631160D01*
X46569082Y-37676724D01*
X46558153Y-37687875D01*
X46549383Y-37697092D01*
X46538984Y-37708310D01*
X46527587Y-37720829D01*
X46515824Y-37733951D01*
X46504328Y-37746975D01*
X46493986Y-37758902D01*
X46476727Y-37778904D01*
X46461005Y-37796834D01*
X46446180Y-37813389D01*
X46431609Y-37829263D01*
X46416652Y-37845152D01*
X46400668Y-37861753D01*
X46383013Y-37879760D01*
X46376110Y-37886736D01*
X46338566Y-37924602D01*
X46347021Y-37910570D01*
X46351414Y-37903478D01*
X46357535Y-37893888D01*
X46365117Y-37882199D01*
X46373890Y-37868815D01*
X46383588Y-37854136D01*
X46393941Y-37838566D01*
X46404682Y-37822506D01*
X46415541Y-37806358D01*
X46426251Y-37790524D01*
X46436544Y-37775405D01*
X46446150Y-37761404D01*
X46454802Y-37748923D01*
X46457575Y-37744960D01*
X46517635Y-37661034D01*
X46578690Y-37579005D01*
X46640625Y-37498996D01*
X46703326Y-37421131D01*
X46766679Y-37345529D01*
X46830572Y-37272316D01*
X46894891Y-37201611D01*
X46959521Y-37133538D01*
X47024349Y-37068220D01*
X47089262Y-37005778D01*
X47154145Y-36946335D01*
X47218886Y-36890012D01*
X47283369Y-36836934D01*
X47347483Y-36787221D01*
X47347911Y-36786899D01*
X47376763Y-36764909D01*
X47403252Y-36743987D01*
X47428102Y-36723512D01*
X47452040Y-36702862D01*
X47475793Y-36681415D01*
X47500086Y-36658552D01*
X47516598Y-36642551D01*
X47567553Y-36590781D01*
X47618030Y-36535747D01*
X47667845Y-36477693D01*
X47716819Y-36416865D01*
X47764769Y-36353509D01*
X47811513Y-36287868D01*
X47856871Y-36220190D01*
X47900660Y-36150718D01*
X47942699Y-36079698D01*
X47971959Y-36027420D01*
X48011520Y-35952356D01*
X48048456Y-35876848D01*
X48082666Y-35801142D01*
X48114053Y-35725487D01*
X48142516Y-35650130D01*
X48167956Y-35575321D01*
X48190274Y-35501306D01*
X48205419Y-35444411D01*
X48221880Y-35373127D01*
X48235258Y-35303127D01*
X48245551Y-35234448D01*
X48252761Y-35167132D01*
X48256888Y-35101217D01*
X48257931Y-35036742D01*
X48255890Y-34973747D01*
X48250766Y-34912271D01*
X48242558Y-34852353D01*
X48231266Y-34794034D01*
X48216891Y-34737351D01*
X48205672Y-34700729D01*
X48186415Y-34647324D01*
X48164318Y-34595912D01*
X48139280Y-34546309D01*
X48111200Y-34498334D01*
X48079978Y-34451803D01*
X48045511Y-34406533D01*
X48038376Y-34397803D01*
X48030336Y-34388477D01*
X48020153Y-34377292D01*
X48008312Y-34364733D01*
X47995299Y-34351284D01*
X47981599Y-34337431D01*
X47967698Y-34323660D01*
X47954081Y-34310455D01*
X47941233Y-34298301D01*
X47929641Y-34287685D01*
X47919788Y-34279090D01*
X47918636Y-34278126D01*
X47869501Y-34239530D01*
X47817988Y-34203426D01*
X47764295Y-34169904D01*
X47708620Y-34139054D01*
X47651161Y-34110965D01*
X47592114Y-34085726D01*
X47531677Y-34063427D01*
X47470049Y-34044157D01*
X47407426Y-34028005D01*
X47344006Y-34015061D01*
X47332940Y-34013149D01*
X47308815Y-34009218D01*
X47286534Y-34005883D01*
X47265516Y-34003100D01*
X47245181Y-34000825D01*
X47224948Y-33999015D01*
X47204237Y-33997626D01*
X47182467Y-33996614D01*
X47159059Y-33995936D01*
X47133431Y-33995546D01*
X47105004Y-33995403D01*
X47097821Y-33995400D01*
X47073413Y-33995451D01*
X47051968Y-33995605D01*
X47032925Y-33995895D01*
X47015726Y-33996350D01*
X46999811Y-33997002D01*
X46984620Y-33997882D01*
X46969594Y-33999021D01*
X46954174Y-34000450D01*
X46937800Y-34002200D01*
X46919913Y-34004301D01*
X46905850Y-34006042D01*
X46830997Y-34017143D01*
X46755734Y-34031657D01*
X46680204Y-34049519D01*
X46604549Y-34070664D01*
X46528908Y-34095024D01*
X46453425Y-34122535D01*
X46378241Y-34153131D01*
X46303497Y-34186746D01*
X46229335Y-34223314D01*
X46155897Y-34262770D01*
X46083323Y-34305049D01*
X46011757Y-34350083D01*
X45941338Y-34397808D01*
X45872209Y-34448159D01*
X45804511Y-34501068D01*
X45760191Y-34537776D01*
X45738348Y-34556638D01*
X45715068Y-34577380D01*
X45690793Y-34599573D01*
X45665963Y-34622791D01*
X45641020Y-34646605D01*
X45616403Y-34670588D01*
X45592555Y-34694313D01*
X45569916Y-34717351D01*
X45548928Y-34739276D01*
X45530031Y-34759659D01*
X45521260Y-34769416D01*
X45473106Y-34825377D01*
X45427860Y-34881527D01*
X45385561Y-34937789D01*
X45346249Y-34994085D01*
X45309965Y-35050336D01*
X45276748Y-35106463D01*
X45246639Y-35162390D01*
X45219678Y-35218038D01*
X45195905Y-35273328D01*
X45175360Y-35328182D01*
X45158084Y-35382523D01*
X45144117Y-35436272D01*
X45133498Y-35489350D01*
X45126746Y-35537298D01*
X45125797Y-35548590D01*
X45125105Y-35562671D01*
X45124666Y-35578816D01*
X45124475Y-35596304D01*
X45124527Y-35614409D01*
X45124819Y-35632407D01*
X45125344Y-35649577D01*
X45126100Y-35665192D01*
X45127080Y-35678530D01*
X45127681Y-35684358D01*
X45135443Y-35735788D01*
X45146537Y-35786081D01*
X45160955Y-35835219D01*
X45178689Y-35883183D01*
X45199731Y-35929956D01*
X45224072Y-35975519D01*
X45251706Y-36019856D01*
X45282623Y-36062947D01*
X45311938Y-36099120D01*
X45321286Y-36109640D01*
X45332688Y-36121818D01*
X45345538Y-36135058D01*
X45359229Y-36148761D01*
X45373155Y-36162331D01*
X45386709Y-36175171D01*
X45399285Y-36186682D01*
X45410276Y-36196269D01*
X45412354Y-36198004D01*
X45457579Y-36233196D01*
X45504386Y-36265241D01*
X45552767Y-36294137D01*
X45602715Y-36319880D01*
X45654222Y-36342467D01*
X45707279Y-36361894D01*
X45761880Y-36378160D01*
X45818017Y-36391260D01*
X45875681Y-36401191D01*
X45921340Y-36406699D01*
X45936788Y-36407916D01*
X45954915Y-36408831D01*
X45974951Y-36409442D01*
X45996122Y-36409750D01*
X46017656Y-36409755D01*
X46038782Y-36409456D01*
X46058726Y-36408854D01*
X46076716Y-36407948D01*
X46091981Y-36406738D01*
X46092176Y-36406719D01*
X46148527Y-36399746D01*
X46202874Y-36390288D01*
X46255858Y-36378184D01*
X46308121Y-36363274D01*
X46360304Y-36345397D01*
X46400386Y-36329695D01*
X46414607Y-36323575D01*
X46431160Y-36316022D01*
X46449342Y-36307390D01*
X46468449Y-36298032D01*
X46487779Y-36288301D01*
X46506628Y-36278550D01*
X46524291Y-36269133D01*
X46540067Y-36260402D01*
X46550969Y-36254082D01*
X46597752Y-36224928D01*
X46643075Y-36194049D01*
X46687324Y-36161138D01*
X46730886Y-36125888D01*
X46774146Y-36087991D01*
X46817491Y-36047140D01*
X46844292Y-36020481D01*
X46880085Y-35983211D01*
X46914363Y-35945463D01*
X46947540Y-35906727D01*
X46980029Y-35866497D01*
X47012243Y-35824263D01*
X47044596Y-35779517D01*
X47070003Y-35742824D01*
X47077470Y-35731771D01*
X47083129Y-35723173D01*
X47087215Y-35716614D01*
X47089962Y-35711680D01*
X47091607Y-35707954D01*
X47092383Y-35705023D01*
X47092537Y-35703030D01*
X47092537Y-35696353D01*
X47117634Y-35695171D01*
X47154831Y-35692224D01*
X47190545Y-35686856D01*
X47226036Y-35678856D01*
X47241626Y-35674530D01*
X47277503Y-35662574D01*
X47311939Y-35648186D01*
X47344757Y-35631533D01*
X47375780Y-35612783D01*
X47404833Y-35592102D01*
X47431738Y-35569657D01*
X47456320Y-35545616D01*
X47478402Y-35520146D01*
X47497808Y-35493413D01*
X47514361Y-35465584D01*
X47527884Y-35436828D01*
X47538203Y-35407310D01*
X47542770Y-35389357D01*
X47544036Y-35382697D01*
X47544948Y-35375578D01*
X47545552Y-35367289D01*
X47545896Y-35357115D01*
X47546026Y-35344342D01*
X47546031Y-35340044D01*
X47545944Y-35327679D01*
X47545633Y-35316634D01*
X47545007Y-35306406D01*
X47543975Y-35296492D01*
X47542446Y-35286389D01*
X47540329Y-35275593D01*
X47537533Y-35263602D01*
X47533967Y-35249912D01*
X47529539Y-35234020D01*
X47524160Y-35215423D01*
X47522388Y-35209381D01*
X47519236Y-35198582D01*
X47516453Y-35188898D01*
X47514183Y-35180847D01*
X47512573Y-35174948D01*
X47511767Y-35171719D01*
X47511702Y-35171308D01*
X47513396Y-35170660D01*
X47518208Y-35170011D01*
X47525735Y-35169397D01*
X47535572Y-35168851D01*
X47544725Y-35168491D01*
X47569346Y-35167521D01*
X47590930Y-35166313D01*
X47609957Y-35164800D01*
X47626908Y-35162916D01*
X47642263Y-35160593D01*
X47656504Y-35157762D01*
X47670110Y-35154358D01*
X47683563Y-35150312D01*
X47690196Y-35148091D01*
X47721314Y-35135598D01*
X47750624Y-35120268D01*
X47777936Y-35102266D01*
X47803064Y-35081757D01*
X47825819Y-35058904D01*
X47846013Y-35033874D01*
X47863457Y-35006830D01*
X47873456Y-34987783D01*
X47885389Y-34959601D01*
X47894205Y-34931390D01*
X47899862Y-34903412D01*
X47902314Y-34875931D01*
X47901517Y-34849208D01*
X47899470Y-34833699D01*
X47892010Y-34800071D01*
X47881508Y-34768204D01*
X47867918Y-34738010D01*
X47851195Y-34709400D01*
X47831295Y-34682286D01*
X47811106Y-34659577D01*
X47792636Y-34641487D01*
X47774530Y-34625982D01*
X47755852Y-34612374D01*
X47735664Y-34599974D01*
X47715847Y-34589483D01*
X47690696Y-34578316D01*
X47664121Y-34569015D01*
X47636798Y-34561720D01*
X47609405Y-34556571D01*
X47582619Y-34553706D01*
X47557117Y-34553266D01*
X47543945Y-34554102D01*
X47535191Y-34555171D01*
X47523954Y-34556893D01*
X47510955Y-34559125D01*
X47496910Y-34561726D01*
X47482538Y-34564552D01*
X47468559Y-34567461D01*
X47455690Y-34570310D01*
X47444650Y-34572958D01*
X47436158Y-34575261D01*
X47434209Y-34575864D01*
X47428851Y-34577760D01*
X47422198Y-34580346D01*
X47414994Y-34583301D01*
X47407981Y-34586307D01*
X47401901Y-34589044D01*
X47397495Y-34591193D01*
X47395507Y-34592436D01*
X47395463Y-34592532D01*
X47396207Y-34594181D01*
X47398308Y-34598587D01*
X47401569Y-34605346D01*
X47405796Y-34614053D01*
X47410792Y-34624303D01*
X47416360Y-34635693D01*
X47417313Y-34637638D01*
X47428600Y-34660940D01*
X47438360Y-34681734D01*
X47446805Y-34700572D01*
X47454148Y-34718009D01*
X47460600Y-34734597D01*
X47466374Y-34750890D01*
X47471683Y-34767443D01*
X47476739Y-34784808D01*
X47481754Y-34803539D01*
X47483368Y-34809845D01*
X47486133Y-34820362D01*
X47488769Y-34829681D01*
X47491112Y-34837268D01*
X47492993Y-34842586D01*
X47494245Y-34845099D01*
X47494374Y-34845204D01*
X47497558Y-34846303D01*
X47502487Y-34847453D01*
X47503777Y-34847692D01*
X47514724Y-34850883D01*
X47526461Y-34856482D01*
X47537935Y-34863891D01*
X47548094Y-34872516D01*
X47548734Y-34873156D01*
X47560710Y-34887527D01*
X47569376Y-34903099D01*
X47574747Y-34919905D01*
X47576835Y-34937977D01*
X47576866Y-34940576D01*
X47575434Y-34958206D01*
X47571029Y-34974262D01*
X47563489Y-34989131D01*
X47552650Y-35003197D01*
X47548731Y-35007318D01*
X47535630Y-35018831D01*
X47522159Y-35027098D01*
X47507682Y-35032385D01*
X47491562Y-35034959D01*
X47481762Y-35035315D01*
X47464466Y-35034120D01*
X47449164Y-35030359D01*
X47435218Y-35023764D01*
X47421992Y-35014070D01*
X47414792Y-35007318D01*
X47402933Y-34993417D01*
X47394420Y-34978830D01*
X47389091Y-34963171D01*
X47386784Y-34946053D01*
X47386693Y-34942141D01*
X47423810Y-34942141D01*
X47425765Y-34955455D01*
X47430822Y-34968514D01*
X47436439Y-34977494D01*
X47441480Y-34982791D01*
X47448527Y-34988317D01*
X47456264Y-34993128D01*
X47461902Y-34995765D01*
X47469597Y-34997529D01*
X47479257Y-34998105D01*
X47489558Y-34997562D01*
X47499174Y-34995970D01*
X47506758Y-34993411D01*
X47518395Y-34985903D01*
X47527613Y-34976314D01*
X47534316Y-34965155D01*
X47538406Y-34952938D01*
X47539784Y-34940174D01*
X47538352Y-34927374D01*
X47534013Y-34915049D01*
X47526669Y-34903710D01*
X47524432Y-34901176D01*
X47518339Y-34895641D01*
X47511120Y-34890441D01*
X47506638Y-34887878D01*
X47500919Y-34885342D01*
X47495694Y-34883863D01*
X47489607Y-34883175D01*
X47481762Y-34883013D01*
X47473591Y-34883194D01*
X47467575Y-34883913D01*
X47462358Y-34885436D01*
X47456886Y-34887878D01*
X47444908Y-34895554D01*
X47435506Y-34905279D01*
X47428786Y-34916592D01*
X47424852Y-34929034D01*
X47423810Y-34942141D01*
X47386693Y-34942141D01*
X47386657Y-34940576D01*
X47388325Y-34922844D01*
X47393159Y-34905902D01*
X47400901Y-34890219D01*
X47411295Y-34876266D01*
X47424083Y-34864509D01*
X47430899Y-34859844D01*
X47437054Y-34855640D01*
X47440123Y-34852483D01*
X47440504Y-34850601D01*
X47439815Y-34848019D01*
X47438425Y-34842651D01*
X47436494Y-34835123D01*
X47434183Y-34826064D01*
X47432321Y-34818731D01*
X47425006Y-34792099D01*
X47416729Y-34765882D01*
X47407879Y-34741262D01*
X47402238Y-34727232D01*
X47399431Y-34720816D01*
X47395632Y-34712491D01*
X47391057Y-34702694D01*
X47385918Y-34691862D01*
X47380430Y-34680431D01*
X47374806Y-34668840D01*
X47369260Y-34657524D01*
X47364006Y-34646922D01*
X47359258Y-34637469D01*
X47355230Y-34629604D01*
X47352135Y-34623763D01*
X47350187Y-34620384D01*
X47349635Y-34619714D01*
X47347462Y-34620800D01*
X47343172Y-34623777D01*
X47337303Y-34628221D01*
X47330393Y-34633708D01*
X47322981Y-34639815D01*
X47315604Y-34646119D01*
X47311806Y-34649473D01*
X47286630Y-34674353D01*
X47263976Y-34701622D01*
X47243937Y-34731117D01*
X47226606Y-34762676D01*
X47212075Y-34796138D01*
X47200436Y-34831340D01*
X47194549Y-34854701D01*
X47193248Y-34860273D01*
X47192382Y-34862780D01*
X47191683Y-34862606D01*
X47190878Y-34860136D01*
X47190837Y-34859985D01*
X47189313Y-34852209D01*
X47188093Y-34841789D01*
X47187216Y-34829591D01*
X47186724Y-34816482D01*
X47186655Y-34803331D01*
X47187048Y-34791004D01*
X47187429Y-34785443D01*
X47191970Y-34750415D01*
X47199661Y-34716654D01*
X47210571Y-34683978D01*
X47224772Y-34652206D01*
X47242334Y-34621158D01*
X47263329Y-34590650D01*
X47263648Y-34590226D01*
X47266640Y-34585925D01*
X47268325Y-34582856D01*
X47268457Y-34581942D01*
X47266548Y-34581240D01*
X47261851Y-34579863D01*
X47254996Y-34577985D01*
X47246613Y-34575783D01*
X47243054Y-34574870D01*
X47205721Y-34566902D01*
X47169254Y-34562208D01*
X47133743Y-34560788D01*
X47099279Y-34562644D01*
X47065956Y-34567776D01*
X47046354Y-34572483D01*
X47039402Y-34574524D01*
X47035354Y-34576133D01*
X47033666Y-34577593D01*
X47033737Y-34579063D01*
X47038281Y-34593022D01*
X47040622Y-34608622D01*
X47040727Y-34624727D01*
X47038563Y-34640203D01*
X47035817Y-34649681D01*
X47027924Y-34666494D01*
X47017469Y-34680998D01*
X47004704Y-34693005D01*
X46989876Y-34702332D01*
X46973236Y-34708790D01*
X46955033Y-34712194D01*
X46951641Y-34712466D01*
X46933531Y-34711963D01*
X46916378Y-34708213D01*
X46900499Y-34701430D01*
X46886210Y-34691832D01*
X46873827Y-34679633D01*
X46863666Y-34665050D01*
X46856043Y-34648299D01*
X46855546Y-34646853D01*
X46853385Y-34639981D01*
X46852077Y-34634253D01*
X46851474Y-34628419D01*
X46851435Y-34622986D01*
X46888295Y-34622986D01*
X46891013Y-34636057D01*
X46893318Y-34641729D01*
X46900940Y-34653794D01*
X46910996Y-34663782D01*
X46922872Y-34671100D01*
X46924487Y-34671812D01*
X46931009Y-34674244D01*
X46936833Y-34675458D01*
X46943611Y-34675716D01*
X46948119Y-34675556D01*
X46959068Y-34674298D01*
X46968172Y-34671821D01*
X46969562Y-34671244D01*
X46981243Y-34664245D01*
X46990799Y-34654888D01*
X46997994Y-34643730D01*
X47002589Y-34631329D01*
X47004348Y-34618242D01*
X47003033Y-34605024D01*
X47000870Y-34597788D01*
X46994680Y-34586064D01*
X46985748Y-34575659D01*
X46974819Y-34567368D01*
X46970134Y-34564861D01*
X46957607Y-34560774D01*
X46944069Y-34559681D01*
X46930402Y-34561609D01*
X46924268Y-34563535D01*
X46914041Y-34568977D01*
X46904549Y-34576978D01*
X46896748Y-34586580D01*
X46891940Y-34595863D01*
X46888596Y-34609301D01*
X46888295Y-34622986D01*
X46851435Y-34622986D01*
X46851423Y-34621230D01*
X46851646Y-34614462D01*
X46852839Y-34600283D01*
X46855401Y-34588274D01*
X46859724Y-34577216D01*
X46866202Y-34565895D01*
X46868374Y-34562630D01*
X46879707Y-34549012D01*
X46893182Y-34538116D01*
X46908574Y-34530057D01*
X46925658Y-34524949D01*
X46944210Y-34522904D01*
X46946928Y-34522869D01*
X46964002Y-34524389D01*
X46980385Y-34528827D01*
X46995207Y-34535929D01*
X46998074Y-34537758D01*
X47006913Y-34543682D01*
X47020374Y-34536915D01*
X47036667Y-34529622D01*
X47055314Y-34522814D01*
X47075146Y-34516886D01*
X47091534Y-34512945D01*
X47106138Y-34510483D01*
X47123198Y-34508660D01*
X47141699Y-34507507D01*
X47160627Y-34507055D01*
X47178969Y-34507335D01*
X47195711Y-34508377D01*
X47205254Y-34509478D01*
X47228837Y-34513621D01*
X47252939Y-34519274D01*
X47276061Y-34526058D01*
X47290257Y-34531045D01*
X47310977Y-34538906D01*
X47325481Y-34527218D01*
X47342896Y-34514006D01*
X47361978Y-34500960D01*
X47381409Y-34488940D01*
X47399238Y-34479127D01*
X47419744Y-34468648D01*
X47412717Y-34455681D01*
X47408053Y-34447551D01*
X47402608Y-34438752D01*
X47397614Y-34431266D01*
X47391388Y-34423324D01*
X47383052Y-34413957D01*
X47373309Y-34403857D01*
X47362865Y-34393718D01*
X47352422Y-34384231D01*
X47342686Y-34376089D01*
X47337658Y-34372271D01*
X47308200Y-34353077D01*
X47276272Y-34336303D01*
X47242019Y-34322004D01*
X47205584Y-34310235D01*
X47167109Y-34301053D01*
X47144492Y-34297025D01*
X47131734Y-34295449D01*
X47116304Y-34294233D01*
X47098975Y-34293382D01*
X47080517Y-34292901D01*
X47061703Y-34292794D01*
X47043303Y-34293065D01*
X47026089Y-34293718D01*
X47010833Y-34294759D01*
X46998313Y-34296190D01*
X46960849Y-34303130D01*
X46924866Y-34312488D01*
X46890633Y-34324150D01*
X46858416Y-34338003D01*
X46828483Y-34353934D01*
X46801102Y-34371828D01*
X46778988Y-34389406D01*
X46768638Y-34398887D01*
X46759117Y-34408621D01*
X46749871Y-34419259D01*
X46740346Y-34431454D01*
X46729990Y-34445857D01*
X46725317Y-34452638D01*
X46719657Y-34460923D01*
X46714702Y-34468158D01*
X46710786Y-34473858D01*
X46708241Y-34477535D01*
X46707412Y-34478704D01*
X46707112Y-34478915D01*
X46706426Y-34478926D01*
X46704989Y-34478618D01*
X46702435Y-34477873D01*
X46698398Y-34476574D01*
X46692514Y-34474603D01*
X46684417Y-34471841D01*
X46673741Y-34468172D01*
X46660122Y-34463478D01*
X46659282Y-34463188D01*
X46628585Y-34453611D01*
X46598802Y-34446489D01*
X46568925Y-34441656D01*
X46537942Y-34438945D01*
X46508230Y-34438180D01*
X46480544Y-34438747D01*
X46455261Y-34440564D01*
X46431443Y-34443777D01*
X46408149Y-34448532D01*
X46384439Y-34454973D01*
X46370446Y-34459431D01*
X46334811Y-34472838D01*
X46301097Y-34488577D01*
X46269479Y-34506505D01*
X46240131Y-34526482D01*
X46213228Y-34548366D01*
X46188945Y-34572017D01*
X46167457Y-34597291D01*
X46148938Y-34624049D01*
X46134341Y-34650535D01*
X46124772Y-34672067D01*
X46117669Y-34692589D01*
X46112760Y-34713207D01*
X46109769Y-34735029D01*
X46108552Y-34754735D01*
X46108512Y-34778426D01*
X46110226Y-34800190D01*
X46113887Y-34820882D01*
X46119685Y-34841354D01*
X46127815Y-34862459D01*
X46137439Y-34883013D01*
X46141782Y-34891588D01*
X46144906Y-34897384D01*
X46147136Y-34900786D01*
X46148798Y-34902181D01*
X46150216Y-34901954D01*
X46151718Y-34900493D01*
X46151946Y-34900219D01*
X46155792Y-34896219D01*
X46161844Y-34890680D01*
X46169458Y-34884137D01*
X46177994Y-34877125D01*
X46186810Y-34870180D01*
X46195264Y-34863837D01*
X46197488Y-34862235D01*
X46208584Y-34854967D01*
X46221990Y-34847188D01*
X46236705Y-34839403D01*
X46242864Y-34836415D01*
X46439757Y-34836415D01*
X46440077Y-34843014D01*
X46441670Y-34850671D01*
X46446903Y-34864516D01*
X46454952Y-34876353D01*
X46465578Y-34885929D01*
X46478542Y-34892991D01*
X46483151Y-34894680D01*
X46489453Y-34895730D01*
X46497796Y-34895782D01*
X46506882Y-34894955D01*
X46515411Y-34893368D01*
X46522085Y-34891140D01*
X46522148Y-34891110D01*
X46534329Y-34883604D01*
X46543928Y-34873808D01*
X46550454Y-34863163D01*
X46553515Y-34856487D01*
X46555265Y-34850984D01*
X46556052Y-34845093D01*
X46556226Y-34837259D01*
X46555341Y-34825141D01*
X46552431Y-34814990D01*
X46547038Y-34805636D01*
X46540999Y-34798341D01*
X46530271Y-34789088D01*
X46518067Y-34783014D01*
X46504550Y-34780191D01*
X46499520Y-34779984D01*
X46484844Y-34781583D01*
X46471693Y-34786210D01*
X46460376Y-34793608D01*
X46451203Y-34803519D01*
X46444483Y-34815685D01*
X46440663Y-34829037D01*
X46439757Y-34836415D01*
X46242864Y-34836415D01*
X46251728Y-34832115D01*
X46266058Y-34825829D01*
G37*
D10*
X58635000Y-8917000D02*
X56350000Y-8917000D01*
X58635000Y-10387000D02*
X58635000Y-8917000D01*
X56350000Y-10387000D02*
X58635000Y-10387000D01*
X20576000Y-23100420D02*
X20576000Y-23381580D01*
X19556000Y-23100420D02*
X19556000Y-23381580D01*
X18032000Y-10417920D02*
X18032000Y-10699080D01*
X19052000Y-10417920D02*
X19052000Y-10699080D01*
X45625500Y-22078000D02*
X42175500Y-22078000D01*
X45625500Y-27198000D02*
X47575500Y-27198000D01*
X45625500Y-22078000D02*
X47575500Y-22078000D01*
X45625500Y-27198000D02*
X43675500Y-27198000D01*
X26208258Y-4938500D02*
X25733742Y-4938500D01*
X26208258Y-5983500D02*
X25733742Y-5983500D01*
X20195000Y-29717420D02*
X20195000Y-29998580D01*
X19175000Y-29717420D02*
X19175000Y-29998580D01*
X52212758Y-26401500D02*
X51738242Y-26401500D01*
X52212758Y-27446500D02*
X51738242Y-27446500D01*
X18544000Y-29717420D02*
X18544000Y-29998580D01*
X17524000Y-29717420D02*
X17524000Y-29998580D01*
X11491500Y-10712080D02*
X11491500Y-10430920D01*
X12511500Y-10712080D02*
X12511500Y-10430920D01*
X7819742Y-23353500D02*
X8294258Y-23353500D01*
X7819742Y-24398500D02*
X8294258Y-24398500D01*
X23033258Y-1636500D02*
X22558742Y-1636500D01*
X23033258Y-2681500D02*
X22558742Y-2681500D01*
X56074000Y-23485000D02*
X56074000Y-15805000D01*
X58734000Y-23485000D02*
X58734000Y-15805000D01*
X58734000Y-26085000D02*
X57404000Y-26085000D01*
X58734000Y-24755000D02*
X58734000Y-26085000D01*
X58734000Y-23485000D02*
X56074000Y-23485000D01*
X58734000Y-15805000D02*
X56074000Y-15805000D01*
X25782420Y-21913000D02*
X26063580Y-21913000D01*
X25782420Y-22933000D02*
X26063580Y-22933000D01*
X7311742Y-7817500D02*
X7786258Y-7817500D01*
X7311742Y-6772500D02*
X7786258Y-6772500D01*
X26111580Y-3300000D02*
X25830420Y-3300000D01*
X26111580Y-4320000D02*
X25830420Y-4320000D01*
X50943742Y-7097500D02*
X51418258Y-7097500D01*
X50943742Y-8142500D02*
X51418258Y-8142500D01*
X7382742Y-11063500D02*
X7857258Y-11063500D01*
X7382742Y-10018500D02*
X7857258Y-10018500D01*
X24943500Y-11831000D02*
X22993500Y-11831000D01*
X24943500Y-6711000D02*
X21493500Y-6711000D01*
X24943500Y-11831000D02*
X26893500Y-11831000D01*
X24943500Y-6711000D02*
X26893500Y-6711000D01*
X7763742Y-27827500D02*
X8238258Y-27827500D01*
X7763742Y-26782500D02*
X8238258Y-26782500D01*
X13591000Y-29998580D02*
X13591000Y-29717420D01*
X12571000Y-29998580D02*
X12571000Y-29717420D01*
X36830000Y-27442000D02*
X33380000Y-27442000D01*
X36830000Y-27442000D02*
X38780000Y-27442000D01*
X36830000Y-36312000D02*
X34880000Y-36312000D01*
X36830000Y-36312000D02*
X38780000Y-36312000D01*
X15949500Y-13244000D02*
X17899500Y-13244000D01*
X15949500Y-13244000D02*
X12499500Y-13244000D01*
X15949500Y-18364000D02*
X13999500Y-18364000D01*
X15949500Y-18364000D02*
X17899500Y-18364000D01*
D13*
X35600000Y-23955000D02*
X38060000Y-23955000D01*
X35600000Y-17955000D02*
X38060000Y-17955000D01*
D10*
X18020420Y-33784000D02*
X18301580Y-33784000D01*
X18020420Y-32764000D02*
X18301580Y-32764000D01*
X52212758Y-24144500D02*
X51738242Y-24144500D01*
X52212758Y-23099500D02*
X51738242Y-23099500D01*
X31128580Y-31367000D02*
X30847420Y-31367000D01*
X31128580Y-32387000D02*
X30847420Y-32387000D01*
X7311742Y-9468500D02*
X7786258Y-9468500D01*
X7311742Y-8423500D02*
X7786258Y-8423500D01*
X13758420Y-19104000D02*
X14039580Y-19104000D01*
X13758420Y-20124000D02*
X14039580Y-20124000D01*
X29462000Y-6450420D02*
X29462000Y-6731580D01*
X30482000Y-6450420D02*
X30482000Y-6731580D01*
X29462000Y-27164420D02*
X29462000Y-27445580D01*
X30482000Y-27164420D02*
X30482000Y-27445580D01*
X22914258Y-26303500D02*
X22439742Y-26303500D01*
X22914258Y-25258500D02*
X22439742Y-25258500D01*
X26203258Y-25258500D02*
X25728742Y-25258500D01*
X26203258Y-26303500D02*
X25728742Y-26303500D01*
X15113000Y-27706000D02*
X17063000Y-27706000D01*
X15113000Y-22586000D02*
X17063000Y-22586000D01*
X15113000Y-22586000D02*
X11663000Y-22586000D01*
X15113000Y-27706000D02*
X13163000Y-27706000D01*
X57387258Y-11952500D02*
X56912742Y-11952500D01*
X57387258Y-10907500D02*
X56912742Y-10907500D01*
X22523420Y-23620000D02*
X22804580Y-23620000D01*
X22523420Y-24640000D02*
X22804580Y-24640000D01*
D13*
X30653000Y-14378000D02*
X23778000Y-14378000D01*
X23778000Y-20278000D02*
X30653000Y-20278000D01*
D11*
X32515500Y-17328000D02*
G75*
G03*
X32515500Y-17328000I-100000J0D01*
G01*
D10*
X42194500Y-29350580D02*
X42194500Y-29069420D01*
X43214500Y-29350580D02*
X43214500Y-29069420D01*
X15113000Y-3299500D02*
X11663000Y-3299500D01*
X15113000Y-8419500D02*
X17063000Y-8419500D01*
X15113000Y-3299500D02*
X17063000Y-3299500D01*
X15113000Y-8419500D02*
X13163000Y-8419500D01*
X31113000Y-6463420D02*
X31113000Y-6744580D01*
X32133000Y-6463420D02*
X32133000Y-6744580D01*
X26106580Y-23620000D02*
X25825420Y-23620000D01*
X26106580Y-24640000D02*
X25825420Y-24640000D01*
X51321580Y-2157000D02*
X51040420Y-2157000D01*
X51321580Y-3177000D02*
X51040420Y-3177000D01*
X14748742Y-1654000D02*
X15223258Y-1654000D01*
X14748742Y-2699000D02*
X15223258Y-2699000D01*
X4942000Y-12614000D02*
X4942000Y-7474000D01*
X4942000Y-12614000D02*
X2282000Y-12614000D01*
X4942000Y-7474000D02*
X2282000Y-7474000D01*
X4942000Y-13884000D02*
X4942000Y-15214000D01*
X4942000Y-15214000D02*
X3612000Y-15214000D01*
X2282000Y-12614000D02*
X2282000Y-7474000D01*
X23033258Y-4938500D02*
X22558742Y-4938500D01*
X23033258Y-5983500D02*
X22558742Y-5983500D01*
X15002742Y-21985500D02*
X15477258Y-21985500D01*
X15002742Y-20940500D02*
X15477258Y-20940500D01*
X4886000Y-24451000D02*
X2226000Y-24451000D01*
X4886000Y-32191000D02*
X3556000Y-32191000D01*
X4886000Y-29591000D02*
X2226000Y-29591000D01*
X2226000Y-29591000D02*
X2226000Y-24451000D01*
X4886000Y-30861000D02*
X4886000Y-32191000D01*
X4886000Y-29591000D02*
X4886000Y-24451000D01*
X42928000Y-9411580D02*
X42928000Y-9130420D01*
X41908000Y-9411580D02*
X41908000Y-9130420D01*
X22746580Y-12571000D02*
X22465420Y-12571000D01*
X22746580Y-13591000D02*
X22465420Y-13591000D01*
X15242000Y-29691420D02*
X15242000Y-29972580D01*
X14222000Y-29691420D02*
X14222000Y-29972580D01*
X51418258Y-6491500D02*
X50943742Y-6491500D01*
X51418258Y-5446500D02*
X50943742Y-5446500D01*
X31240000Y-27177420D02*
X31240000Y-27458580D01*
X32260000Y-27177420D02*
X32260000Y-27458580D01*
X15750000Y-10417920D02*
X15750000Y-10699080D01*
X14730000Y-10417920D02*
X14730000Y-10699080D01*
X17401000Y-10417920D02*
X17401000Y-10699080D01*
X16381000Y-10417920D02*
X16381000Y-10699080D01*
X19429000Y-4304420D02*
X19429000Y-4585580D01*
X20449000Y-4304420D02*
X20449000Y-4585580D01*
X25830420Y-2669000D02*
X26111580Y-2669000D01*
X25830420Y-1649000D02*
X26111580Y-1649000D01*
X36576000Y-15357000D02*
X38526000Y-15357000D01*
X36576000Y-15357000D02*
X34626000Y-15357000D01*
X36576000Y-6487000D02*
X38526000Y-6487000D01*
X36576000Y-6487000D02*
X33126000Y-6487000D01*
X8833500Y-4263742D02*
X8833500Y-4738258D01*
X7788500Y-4263742D02*
X7788500Y-4738258D01*
D13*
X51951500Y-19295000D02*
X44651500Y-19295000D01*
X51951500Y-14995000D02*
X44651500Y-14995000D01*
D11*
X53151500Y-17145000D02*
G75*
G03*
X53151500Y-17145000I-100000J0D01*
G01*
D10*
X46603500Y-13315000D02*
X47403500Y-13315000D01*
X46603500Y-10195000D02*
X47403500Y-10195000D01*
X46603500Y-13315000D02*
X45803500Y-13315000D01*
X46603500Y-10195000D02*
X44803500Y-10195000D01*
X7819742Y-25131500D02*
X8294258Y-25131500D01*
X7819742Y-26176500D02*
X8294258Y-26176500D01*
X47276500Y-31913000D02*
X46476500Y-31913000D01*
X47276500Y-28793000D02*
X45476500Y-28793000D01*
X47276500Y-28793000D02*
X48076500Y-28793000D01*
X47276500Y-31913000D02*
X48076500Y-31913000D01*
X15873000Y-29704420D02*
X15873000Y-29985580D01*
X16893000Y-29704420D02*
X16893000Y-29985580D01*
X10541000Y-39557000D02*
X28381000Y-39557000D01*
X9271000Y-39557000D02*
X7941000Y-39557000D01*
X10541000Y-36897000D02*
X28381000Y-36897000D01*
X28381000Y-39557000D02*
X28381000Y-36897000D01*
X7941000Y-39557000D02*
X7941000Y-38227000D01*
X10541000Y-39557000D02*
X10541000Y-36897000D01*
X45021500Y-2131500D02*
X46971500Y-2131500D01*
X45021500Y-2131500D02*
X41571500Y-2131500D01*
X45021500Y-7251500D02*
X46971500Y-7251500D01*
X45021500Y-7251500D02*
X43071500Y-7251500D01*
D13*
X2502000Y-22216000D02*
X9802000Y-22216000D01*
X2502000Y-17916000D02*
X9802000Y-17916000D01*
D11*
X1502000Y-20066000D02*
G75*
G03*
X1502000Y-20066000I-100000J0D01*
G01*
D10*
X8382000Y-33564000D02*
X7582000Y-33564000D01*
X8382000Y-30444000D02*
X9182000Y-30444000D01*
X8382000Y-33564000D02*
X9182000Y-33564000D01*
X8382000Y-30444000D02*
X6582000Y-30444000D01*
X52116080Y-21461000D02*
X51834920Y-21461000D01*
X52116080Y-22481000D02*
X51834920Y-22481000D01*
X22914258Y-23001500D02*
X22439742Y-23001500D01*
X22914258Y-21956500D02*
X22439742Y-21956500D01*
X24892000Y-32532000D02*
X26842000Y-32532000D01*
X24892000Y-27412000D02*
X21442000Y-27412000D01*
X24892000Y-32532000D02*
X22942000Y-32532000D01*
X24892000Y-27412000D02*
X26842000Y-27412000D01*
X21521000Y-17060420D02*
X21521000Y-17341580D01*
X20501000Y-17060420D02*
X20501000Y-17341580D01*
X7763742Y-29478500D02*
X8238258Y-29478500D01*
X7763742Y-28433500D02*
X8238258Y-28433500D01*
X51418258Y-4840500D02*
X50943742Y-4840500D01*
X51418258Y-3795500D02*
X50943742Y-3795500D01*
X31001580Y-11432000D02*
X30720420Y-11432000D01*
X31001580Y-10412000D02*
X30720420Y-10412000D01*
X22655420Y-3300000D02*
X22936580Y-3300000D01*
X22655420Y-4320000D02*
X22936580Y-4320000D01*
X8178500Y-12522000D02*
X8978500Y-12522000D01*
X8178500Y-15642000D02*
X7378500Y-15642000D01*
X8178500Y-15642000D02*
X8978500Y-15642000D01*
X8178500Y-12522000D02*
X6378500Y-12522000D01*
X13079000Y-10417920D02*
X13079000Y-10699080D01*
X14099000Y-10417920D02*
X14099000Y-10699080D01*
X52212758Y-24750500D02*
X51738242Y-24750500D01*
X52212758Y-25795500D02*
X51738242Y-25795500D01*
%LPC*%
D14*
X56362500Y-9652000D03*
X57937500Y-9652000D03*
D15*
X20066000Y-22466000D03*
X20066000Y-24016000D03*
X18542000Y-11333500D03*
X18542000Y-9783500D03*
D16*
X43150500Y-22733000D03*
X43150500Y-24003000D03*
X43150500Y-25273000D03*
X43150500Y-26543000D03*
X48100500Y-26543000D03*
X48100500Y-25273000D03*
X48100500Y-24003000D03*
X48100500Y-22733000D03*
D17*
X26796000Y-5461000D03*
X25146000Y-5461000D03*
D15*
X19685000Y-29083000D03*
X19685000Y-30633000D03*
D17*
X52800500Y-26924000D03*
X51150500Y-26924000D03*
D15*
X18034000Y-30633000D03*
X18034000Y-29083000D03*
D18*
X12001500Y-11346500D03*
X12001500Y-9796500D03*
D19*
X7232000Y-23876000D03*
X8882000Y-23876000D03*
D17*
X21971000Y-2159000D03*
X23621000Y-2159000D03*
D20*
X57404000Y-24755000D03*
D21*
X57404000Y-22215000D03*
X57404000Y-19675000D03*
X57404000Y-17135000D03*
D22*
X25148000Y-22423000D03*
X26698000Y-22423000D03*
D19*
X6724000Y-7295000D03*
X8374000Y-7295000D03*
D23*
X25196000Y-3810000D03*
X26746000Y-3810000D03*
D19*
X50356000Y-7620000D03*
X52006000Y-7620000D03*
X6795000Y-10541000D03*
X8445000Y-10541000D03*
D16*
X22468500Y-7366000D03*
X22468500Y-8636000D03*
X22468500Y-9906000D03*
X22468500Y-11176000D03*
X27418500Y-11176000D03*
X27418500Y-9906000D03*
X27418500Y-8636000D03*
X27418500Y-7366000D03*
D19*
X7176000Y-27305000D03*
X8826000Y-27305000D03*
D18*
X13081000Y-29083000D03*
X13081000Y-30633000D03*
D24*
X56500000Y-3500000D03*
D16*
X34355000Y-28067000D03*
X34355000Y-29337000D03*
X34355000Y-30607000D03*
X34355000Y-31877000D03*
X34355000Y-33147000D03*
X34355000Y-34417000D03*
X34355000Y-35687000D03*
X39305000Y-35687000D03*
X39305000Y-34417000D03*
X39305000Y-33147000D03*
X39305000Y-31877000D03*
X39305000Y-30607000D03*
X39305000Y-29337000D03*
X39305000Y-28067000D03*
X13474500Y-13899000D03*
X13474500Y-15169000D03*
X13474500Y-16439000D03*
X13474500Y-17709000D03*
X18424500Y-17709000D03*
X18424500Y-16439000D03*
X18424500Y-15169000D03*
X18424500Y-13899000D03*
D25*
X34480000Y-20955000D03*
X39180000Y-20955000D03*
D22*
X18936000Y-33274000D03*
X17386000Y-33274000D03*
D17*
X52800500Y-23622000D03*
X51150500Y-23622000D03*
D23*
X30213000Y-31877000D03*
X31763000Y-31877000D03*
D19*
X6724000Y-8946000D03*
X8374000Y-8946000D03*
D22*
X14674000Y-19614000D03*
X13124000Y-19614000D03*
D15*
X29972000Y-5816000D03*
X29972000Y-7366000D03*
X29972000Y-26530000D03*
X29972000Y-28080000D03*
D17*
X21852000Y-25781000D03*
X23502000Y-25781000D03*
X26791000Y-25781000D03*
X25141000Y-25781000D03*
D16*
X12638000Y-23241000D03*
X12638000Y-24511000D03*
X12638000Y-25781000D03*
X12638000Y-27051000D03*
X17588000Y-27051000D03*
X17588000Y-25781000D03*
X17588000Y-24511000D03*
X17588000Y-23241000D03*
D17*
X57975000Y-11430000D03*
X56325000Y-11430000D03*
D22*
X23439000Y-24130000D03*
X21889000Y-24130000D03*
D26*
X23760500Y-17328000D03*
X30670500Y-17328000D03*
D18*
X42704500Y-29985000D03*
X42704500Y-28435000D03*
D16*
X12638000Y-3954500D03*
X12638000Y-5224500D03*
X12638000Y-6494500D03*
X12638000Y-7764500D03*
X17588000Y-7764500D03*
X17588000Y-6494500D03*
X17588000Y-5224500D03*
X17588000Y-3954500D03*
D15*
X31623000Y-5829000D03*
X31623000Y-7379000D03*
D24*
X3500000Y-37500000D03*
D23*
X26741000Y-24130000D03*
X25191000Y-24130000D03*
X51956000Y-2667000D03*
X50406000Y-2667000D03*
D19*
X14161000Y-2176500D03*
X15811000Y-2176500D03*
D20*
X3612000Y-13884000D03*
D21*
X3612000Y-11344000D03*
X3612000Y-8804000D03*
D24*
X56500000Y-34000000D03*
D17*
X23621000Y-5461000D03*
X21971000Y-5461000D03*
D19*
X16065000Y-21463000D03*
X14415000Y-21463000D03*
D20*
X3556000Y-30861000D03*
D21*
X3556000Y-28321000D03*
X3556000Y-25781000D03*
D18*
X42418000Y-10046000D03*
X42418000Y-8496000D03*
D24*
X3500000Y-3500000D03*
D23*
X21831000Y-13081000D03*
X23381000Y-13081000D03*
D15*
X14732000Y-30607000D03*
X14732000Y-29057000D03*
D17*
X52006000Y-5969000D03*
X50356000Y-5969000D03*
D15*
X31750000Y-26543000D03*
X31750000Y-28093000D03*
X15240000Y-11333500D03*
X15240000Y-9783500D03*
X16891000Y-11333500D03*
X16891000Y-9783500D03*
X19939000Y-3670000D03*
X19939000Y-5220000D03*
D22*
X25196000Y-2159000D03*
X26746000Y-2159000D03*
D16*
X34101000Y-7112000D03*
X34101000Y-8382000D03*
X34101000Y-9652000D03*
X34101000Y-10922000D03*
X34101000Y-12192000D03*
X34101000Y-13462000D03*
X34101000Y-14732000D03*
X39051000Y-14732000D03*
X39051000Y-13462000D03*
X39051000Y-12192000D03*
X39051000Y-10922000D03*
X39051000Y-9652000D03*
X39051000Y-8382000D03*
X39051000Y-7112000D03*
D27*
X8311000Y-3676000D03*
X8311000Y-5326000D03*
D28*
X51351500Y-17145000D03*
X45251500Y-17145000D03*
D29*
X45466000Y-10780000D03*
X45466000Y-11430000D03*
X45466000Y-12080000D03*
X45466000Y-12730000D03*
X47741000Y-12730000D03*
X47741000Y-12080000D03*
X47741000Y-11430000D03*
X47741000Y-10780000D03*
D19*
X7232000Y-25654000D03*
X8882000Y-25654000D03*
D29*
X46139000Y-29378000D03*
X46139000Y-30028000D03*
X46139000Y-30678000D03*
X46139000Y-31328000D03*
X48414000Y-31328000D03*
X48414000Y-30678000D03*
X48414000Y-30028000D03*
X48414000Y-29378000D03*
D15*
X16383000Y-30620000D03*
X16383000Y-29070000D03*
D20*
X9271000Y-38227000D03*
D21*
X11811000Y-38227000D03*
X14351000Y-38227000D03*
X16891000Y-38227000D03*
X19431000Y-38227000D03*
X21971000Y-38227000D03*
X24511000Y-38227000D03*
X27051000Y-38227000D03*
D16*
X42546500Y-2786500D03*
X42546500Y-4056500D03*
X42546500Y-5326500D03*
X42546500Y-6596500D03*
X47496500Y-6596500D03*
X47496500Y-5326500D03*
X47496500Y-4056500D03*
X47496500Y-2786500D03*
D28*
X3102000Y-20066000D03*
X9202000Y-20066000D03*
D29*
X7244500Y-31029000D03*
X7244500Y-31679000D03*
X7244500Y-32329000D03*
X7244500Y-32979000D03*
X9519500Y-32979000D03*
X9519500Y-32329000D03*
X9519500Y-31679000D03*
X9519500Y-31029000D03*
D23*
X52750500Y-21971000D03*
X51200500Y-21971000D03*
D17*
X23502000Y-22479000D03*
X21852000Y-22479000D03*
D16*
X22417000Y-28067000D03*
X22417000Y-29337000D03*
X22417000Y-30607000D03*
X22417000Y-31877000D03*
X27367000Y-31877000D03*
X27367000Y-30607000D03*
X27367000Y-29337000D03*
X27367000Y-28067000D03*
D15*
X21011000Y-16426000D03*
X21011000Y-17976000D03*
D19*
X7176000Y-28956000D03*
X8826000Y-28956000D03*
D17*
X52006000Y-4318000D03*
X50356000Y-4318000D03*
D23*
X31636000Y-10922000D03*
X30086000Y-10922000D03*
D22*
X22021000Y-3810000D03*
X23571000Y-3810000D03*
D29*
X7041000Y-13107000D03*
X7041000Y-13757000D03*
X7041000Y-14407000D03*
X7041000Y-15057000D03*
X9316000Y-15057000D03*
X9316000Y-14407000D03*
X9316000Y-13757000D03*
X9316000Y-13107000D03*
D15*
X13589000Y-9783500D03*
X13589000Y-11333500D03*
D17*
X52800500Y-25273000D03*
X51150500Y-25273000D03*
M02*
