%FSLAX45Y45*%
G04 Gerber Fmt 4.5, Leading zero omitted, Abs format (unit mm)*
G04 Created by KiCad (PCBNEW (6.99.0)) date 2022-12-27 22:07:31*
%MOMM*%
%LPD*%
G01*
G04 APERTURE LIST*
%TA.AperFunction,Profile*%
%ADD10C,0.100000*%
%TD*%
%ADD11C,0.200000*%
%ADD12C,0.220000*%
G04 APERTURE END LIST*
D10*
X0Y0D02*
X6000000Y0D01*
X6000000Y0D02*
X6000000Y-4100000D01*
X6000000Y-4100000D02*
X0Y-4100000D01*
X0Y-4100000D02*
X0Y0D01*
D11*
D12*
X240000Y-240000D02*
X460000Y-460000D01*
X460000Y-240000D02*
X240000Y-460000D01*
X240000Y-3640000D02*
X460000Y-3860000D01*
X460000Y-3640000D02*
X240000Y-3860000D01*
X5540000Y-240000D02*
X5760000Y-460000D01*
X5760000Y-240000D02*
X5540000Y-460000D01*
X5540000Y-3640000D02*
X5760000Y-3860000D01*
X5760000Y-3640000D02*
X5540000Y-3860000D01*
D11*
X252619Y-4415476D02*
X252619Y-4215476D01*
X300238Y-4215476D01*
X328810Y-4225000D01*
X347857Y-4244048D01*
X357381Y-4263095D01*
X366905Y-4301190D01*
X366905Y-4329762D01*
X357381Y-4367857D01*
X347857Y-4386905D01*
X328810Y-4405952D01*
X300238Y-4415476D01*
X252619Y-4415476D01*
X452619Y-4415476D02*
X452619Y-4282143D01*
X452619Y-4320238D02*
X462143Y-4301190D01*
X471667Y-4291667D01*
X490714Y-4282143D01*
X509762Y-4282143D01*
X576429Y-4415476D02*
X576429Y-4282143D01*
X576429Y-4215476D02*
X566905Y-4225000D01*
X576429Y-4234524D01*
X585952Y-4225000D01*
X576429Y-4215476D01*
X576429Y-4234524D01*
X700238Y-4415476D02*
X681190Y-4405952D01*
X671667Y-4386905D01*
X671667Y-4215476D01*
X805000Y-4415476D02*
X785952Y-4405952D01*
X776428Y-4386905D01*
X776428Y-4215476D01*
X1033571Y-4415476D02*
X1033571Y-4215476D01*
X1100238Y-4358333D01*
X1166905Y-4215476D01*
X1166905Y-4415476D01*
X1347857Y-4415476D02*
X1347857Y-4310714D01*
X1338333Y-4291667D01*
X1319286Y-4282143D01*
X1281190Y-4282143D01*
X1262143Y-4291667D01*
X1347857Y-4405952D02*
X1328810Y-4415476D01*
X1281190Y-4415476D01*
X1262143Y-4405952D01*
X1252619Y-4386905D01*
X1252619Y-4367857D01*
X1262143Y-4348810D01*
X1281190Y-4339286D01*
X1328810Y-4339286D01*
X1347857Y-4329762D01*
X1443095Y-4282143D02*
X1443095Y-4482143D01*
X1443095Y-4291667D02*
X1462143Y-4282143D01*
X1500238Y-4282143D01*
X1519286Y-4291667D01*
X1528809Y-4301190D01*
X1538333Y-4320238D01*
X1538333Y-4377381D01*
X1528809Y-4396429D01*
X1519286Y-4405952D01*
X1500238Y-4415476D01*
X1462143Y-4415476D01*
X1443095Y-4405952D01*
X1624048Y-4396429D02*
X1633571Y-4405952D01*
X1624048Y-4415476D01*
X1614524Y-4405952D01*
X1624048Y-4396429D01*
X1624048Y-4415476D01*
X1624048Y-4291667D02*
X1633571Y-4301190D01*
X1624048Y-4310714D01*
X1614524Y-4301190D01*
X1624048Y-4291667D01*
X1624048Y-4310714D01*
X-205000Y-4645000D02*
X-5000Y-4845000D01*
X-5000Y-4645000D02*
X-205000Y-4845000D01*
X243095Y-4654524D02*
X252619Y-4645000D01*
X271667Y-4635476D01*
X319286Y-4635476D01*
X338333Y-4645000D01*
X347857Y-4654524D01*
X357381Y-4673571D01*
X357381Y-4692619D01*
X347857Y-4721190D01*
X233571Y-4835476D01*
X357381Y-4835476D01*
X443095Y-4816429D02*
X452619Y-4825952D01*
X443095Y-4835476D01*
X433571Y-4825952D01*
X443095Y-4816429D01*
X443095Y-4835476D01*
X528810Y-4654524D02*
X538333Y-4645000D01*
X557381Y-4635476D01*
X605000Y-4635476D01*
X624048Y-4645000D01*
X633571Y-4654524D01*
X643095Y-4673571D01*
X643095Y-4692619D01*
X633571Y-4721190D01*
X519286Y-4835476D01*
X643095Y-4835476D01*
X766905Y-4635476D02*
X785952Y-4635476D01*
X805000Y-4645000D01*
X814524Y-4654524D01*
X824048Y-4673571D01*
X833571Y-4711667D01*
X833571Y-4759286D01*
X824048Y-4797381D01*
X814524Y-4816429D01*
X805000Y-4825952D01*
X785952Y-4835476D01*
X766905Y-4835476D01*
X747857Y-4825952D01*
X738333Y-4816429D01*
X728809Y-4797381D01*
X719286Y-4759286D01*
X719286Y-4711667D01*
X728809Y-4673571D01*
X738333Y-4654524D01*
X747857Y-4645000D01*
X766905Y-4635476D01*
X957381Y-4635476D02*
X976428Y-4635476D01*
X995476Y-4645000D01*
X1005000Y-4654524D01*
X1014524Y-4673571D01*
X1024048Y-4711667D01*
X1024048Y-4759286D01*
X1014524Y-4797381D01*
X1005000Y-4816429D01*
X995476Y-4825952D01*
X976428Y-4835476D01*
X957381Y-4835476D01*
X938333Y-4825952D01*
X928809Y-4816429D01*
X919286Y-4797381D01*
X909762Y-4759286D01*
X909762Y-4711667D01*
X919286Y-4673571D01*
X928809Y-4654524D01*
X938333Y-4645000D01*
X957381Y-4635476D01*
X1109762Y-4835476D02*
X1109762Y-4702143D01*
X1109762Y-4721190D02*
X1119286Y-4711667D01*
X1138333Y-4702143D01*
X1166905Y-4702143D01*
X1185952Y-4711667D01*
X1195476Y-4730714D01*
X1195476Y-4835476D01*
X1195476Y-4730714D02*
X1205000Y-4711667D01*
X1224048Y-4702143D01*
X1252619Y-4702143D01*
X1271667Y-4711667D01*
X1281190Y-4730714D01*
X1281190Y-4835476D01*
X1376429Y-4835476D02*
X1376429Y-4702143D01*
X1376429Y-4721190D02*
X1385952Y-4711667D01*
X1405000Y-4702143D01*
X1433571Y-4702143D01*
X1452619Y-4711667D01*
X1462143Y-4730714D01*
X1462143Y-4835476D01*
X1462143Y-4730714D02*
X1471667Y-4711667D01*
X1490714Y-4702143D01*
X1519286Y-4702143D01*
X1538333Y-4711667D01*
X1547857Y-4730714D01*
X1547857Y-4835476D01*
X1938333Y-4625952D02*
X1766905Y-4883095D01*
X2195476Y-4635476D02*
X2214524Y-4635476D01*
X2233571Y-4645000D01*
X2243095Y-4654524D01*
X2252619Y-4673571D01*
X2262143Y-4711667D01*
X2262143Y-4759286D01*
X2252619Y-4797381D01*
X2243095Y-4816429D01*
X2233571Y-4825952D01*
X2214524Y-4835476D01*
X2195476Y-4835476D01*
X2176429Y-4825952D01*
X2166905Y-4816429D01*
X2157381Y-4797381D01*
X2147857Y-4759286D01*
X2147857Y-4711667D01*
X2157381Y-4673571D01*
X2166905Y-4654524D01*
X2176429Y-4645000D01*
X2195476Y-4635476D01*
X2347857Y-4816429D02*
X2357381Y-4825952D01*
X2347857Y-4835476D01*
X2338333Y-4825952D01*
X2347857Y-4816429D01*
X2347857Y-4835476D01*
X2481190Y-4635476D02*
X2500238Y-4635476D01*
X2519286Y-4645000D01*
X2528810Y-4654524D01*
X2538333Y-4673571D01*
X2547857Y-4711667D01*
X2547857Y-4759286D01*
X2538333Y-4797381D01*
X2528810Y-4816429D01*
X2519286Y-4825952D01*
X2500238Y-4835476D01*
X2481190Y-4835476D01*
X2462143Y-4825952D01*
X2452619Y-4816429D01*
X2443095Y-4797381D01*
X2433571Y-4759286D01*
X2433571Y-4711667D01*
X2443095Y-4673571D01*
X2452619Y-4654524D01*
X2462143Y-4645000D01*
X2481190Y-4635476D01*
X2662143Y-4721190D02*
X2643095Y-4711667D01*
X2633571Y-4702143D01*
X2624048Y-4683095D01*
X2624048Y-4673571D01*
X2633571Y-4654524D01*
X2643095Y-4645000D01*
X2662143Y-4635476D01*
X2700238Y-4635476D01*
X2719286Y-4645000D01*
X2728810Y-4654524D01*
X2738333Y-4673571D01*
X2738333Y-4683095D01*
X2728810Y-4702143D01*
X2719286Y-4711667D01*
X2700238Y-4721190D01*
X2662143Y-4721190D01*
X2643095Y-4730714D01*
X2633571Y-4740238D01*
X2624048Y-4759286D01*
X2624048Y-4797381D01*
X2633571Y-4816429D01*
X2643095Y-4825952D01*
X2662143Y-4835476D01*
X2700238Y-4835476D01*
X2719286Y-4825952D01*
X2728810Y-4816429D01*
X2738333Y-4797381D01*
X2738333Y-4759286D01*
X2728810Y-4740238D01*
X2719286Y-4730714D01*
X2700238Y-4721190D01*
X2909762Y-4635476D02*
X2871667Y-4635476D01*
X2852619Y-4645000D01*
X2843095Y-4654524D01*
X2824048Y-4683095D01*
X2814524Y-4721190D01*
X2814524Y-4797381D01*
X2824048Y-4816429D01*
X2833571Y-4825952D01*
X2852619Y-4835476D01*
X2890714Y-4835476D01*
X2909762Y-4825952D01*
X2919286Y-4816429D01*
X2928809Y-4797381D01*
X2928809Y-4749762D01*
X2919286Y-4730714D01*
X2909762Y-4721190D01*
X2890714Y-4711667D01*
X2852619Y-4711667D01*
X2833571Y-4721190D01*
X2824048Y-4730714D01*
X2814524Y-4749762D01*
X3100238Y-4635476D02*
X3062143Y-4635476D01*
X3043095Y-4645000D01*
X3033571Y-4654524D01*
X3014524Y-4683095D01*
X3005000Y-4721190D01*
X3005000Y-4797381D01*
X3014524Y-4816429D01*
X3024048Y-4825952D01*
X3043095Y-4835476D01*
X3081190Y-4835476D01*
X3100238Y-4825952D01*
X3109762Y-4816429D01*
X3119286Y-4797381D01*
X3119286Y-4749762D01*
X3109762Y-4730714D01*
X3100238Y-4721190D01*
X3081190Y-4711667D01*
X3043095Y-4711667D01*
X3024048Y-4721190D01*
X3014524Y-4730714D01*
X3005000Y-4749762D01*
X3195476Y-4635476D02*
X3195476Y-4673571D01*
X3271667Y-4635476D02*
X3271667Y-4673571D01*
X3566905Y-4911667D02*
X3557381Y-4902143D01*
X3538333Y-4873571D01*
X3528809Y-4854524D01*
X3519286Y-4825952D01*
X3509762Y-4778333D01*
X3509762Y-4740238D01*
X3519286Y-4692619D01*
X3528809Y-4664048D01*
X3538333Y-4645000D01*
X3557381Y-4616429D01*
X3566905Y-4606905D01*
X3728809Y-4702143D02*
X3728809Y-4835476D01*
X3681190Y-4625952D02*
X3633571Y-4768810D01*
X3757381Y-4768810D01*
X3985952Y-4835476D02*
X3985952Y-4635476D01*
X4071667Y-4835476D02*
X4071667Y-4730714D01*
X4062143Y-4711667D01*
X4043095Y-4702143D01*
X4014524Y-4702143D01*
X3995476Y-4711667D01*
X3985952Y-4721190D01*
X4195476Y-4835476D02*
X4176428Y-4825952D01*
X4166905Y-4816429D01*
X4157381Y-4797381D01*
X4157381Y-4740238D01*
X4166905Y-4721190D01*
X4176428Y-4711667D01*
X4195476Y-4702143D01*
X4224048Y-4702143D01*
X4243095Y-4711667D01*
X4252619Y-4721190D01*
X4262143Y-4740238D01*
X4262143Y-4797381D01*
X4252619Y-4816429D01*
X4243095Y-4825952D01*
X4224048Y-4835476D01*
X4195476Y-4835476D01*
X4376429Y-4835476D02*
X4357381Y-4825952D01*
X4347857Y-4806905D01*
X4347857Y-4635476D01*
X4528810Y-4825952D02*
X4509762Y-4835476D01*
X4471667Y-4835476D01*
X4452619Y-4825952D01*
X4443095Y-4806905D01*
X4443095Y-4730714D01*
X4452619Y-4711667D01*
X4471667Y-4702143D01*
X4509762Y-4702143D01*
X4528810Y-4711667D01*
X4538333Y-4730714D01*
X4538333Y-4749762D01*
X4443095Y-4768810D01*
X4614524Y-4825952D02*
X4633571Y-4835476D01*
X4671667Y-4835476D01*
X4690714Y-4825952D01*
X4700238Y-4806905D01*
X4700238Y-4797381D01*
X4690714Y-4778333D01*
X4671667Y-4768810D01*
X4643095Y-4768810D01*
X4624048Y-4759286D01*
X4614524Y-4740238D01*
X4614524Y-4730714D01*
X4624048Y-4711667D01*
X4643095Y-4702143D01*
X4671667Y-4702143D01*
X4690714Y-4711667D01*
X4766905Y-4911667D02*
X4776429Y-4902143D01*
X4795476Y-4873571D01*
X4805000Y-4854524D01*
X4814524Y-4825952D01*
X4824048Y-4778333D01*
X4824048Y-4740238D01*
X4814524Y-4692619D01*
X4805000Y-4664048D01*
X4795476Y-4645000D01*
X4776429Y-4616429D01*
X4766905Y-4606905D01*
X5128810Y-4911667D02*
X5119286Y-4902143D01*
X5100238Y-4873571D01*
X5090714Y-4854524D01*
X5081190Y-4825952D01*
X5071667Y-4778333D01*
X5071667Y-4740238D01*
X5081190Y-4692619D01*
X5090714Y-4664048D01*
X5100238Y-4645000D01*
X5119286Y-4616429D01*
X5128810Y-4606905D01*
X5205000Y-4702143D02*
X5205000Y-4835476D01*
X5205000Y-4721190D02*
X5214524Y-4711667D01*
X5233571Y-4702143D01*
X5262143Y-4702143D01*
X5281190Y-4711667D01*
X5290714Y-4730714D01*
X5290714Y-4835476D01*
X5414524Y-4835476D02*
X5395476Y-4825952D01*
X5385952Y-4816429D01*
X5376429Y-4797381D01*
X5376429Y-4740238D01*
X5385952Y-4721190D01*
X5395476Y-4711667D01*
X5414524Y-4702143D01*
X5443095Y-4702143D01*
X5462143Y-4711667D01*
X5471667Y-4721190D01*
X5481190Y-4740238D01*
X5481190Y-4797381D01*
X5471667Y-4816429D01*
X5462143Y-4825952D01*
X5443095Y-4835476D01*
X5414524Y-4835476D01*
X5538333Y-4702143D02*
X5614524Y-4702143D01*
X5566905Y-4635476D02*
X5566905Y-4806905D01*
X5576429Y-4825952D01*
X5595476Y-4835476D01*
X5614524Y-4835476D01*
X5833571Y-4702143D02*
X5833571Y-4902143D01*
X5833571Y-4711667D02*
X5852619Y-4702143D01*
X5890714Y-4702143D01*
X5909762Y-4711667D01*
X5919286Y-4721190D01*
X5928809Y-4740238D01*
X5928809Y-4797381D01*
X5919286Y-4816429D01*
X5909762Y-4825952D01*
X5890714Y-4835476D01*
X5852619Y-4835476D01*
X5833571Y-4825952D01*
X6043095Y-4835476D02*
X6024048Y-4825952D01*
X6014524Y-4806905D01*
X6014524Y-4635476D01*
X6205000Y-4835476D02*
X6205000Y-4730714D01*
X6195476Y-4711667D01*
X6176428Y-4702143D01*
X6138333Y-4702143D01*
X6119286Y-4711667D01*
X6205000Y-4825952D02*
X6185952Y-4835476D01*
X6138333Y-4835476D01*
X6119286Y-4825952D01*
X6109762Y-4806905D01*
X6109762Y-4787857D01*
X6119286Y-4768810D01*
X6138333Y-4759286D01*
X6185952Y-4759286D01*
X6205000Y-4749762D01*
X6271667Y-4702143D02*
X6347857Y-4702143D01*
X6300238Y-4635476D02*
X6300238Y-4806905D01*
X6309762Y-4825952D01*
X6328809Y-4835476D01*
X6347857Y-4835476D01*
X6490714Y-4825952D02*
X6471667Y-4835476D01*
X6433571Y-4835476D01*
X6414524Y-4825952D01*
X6405000Y-4806905D01*
X6405000Y-4730714D01*
X6414524Y-4711667D01*
X6433571Y-4702143D01*
X6471667Y-4702143D01*
X6490714Y-4711667D01*
X6500238Y-4730714D01*
X6500238Y-4749762D01*
X6405000Y-4768810D01*
X6671667Y-4835476D02*
X6671667Y-4635476D01*
X6671667Y-4825952D02*
X6652619Y-4835476D01*
X6614524Y-4835476D01*
X6595476Y-4825952D01*
X6585952Y-4816429D01*
X6576428Y-4797381D01*
X6576428Y-4740238D01*
X6585952Y-4721190D01*
X6595476Y-4711667D01*
X6614524Y-4702143D01*
X6652619Y-4702143D01*
X6671667Y-4711667D01*
X6747857Y-4911667D02*
X6757381Y-4902143D01*
X6776428Y-4873571D01*
X6785952Y-4854524D01*
X6795476Y-4825952D01*
X6805000Y-4778333D01*
X6805000Y-4740238D01*
X6795476Y-4692619D01*
X6785952Y-4664048D01*
X6776428Y-4645000D01*
X6757381Y-4616429D01*
X6747857Y-4606905D01*
M02*
