M48
METRIC
T1C0.400
T2C1.000
%
G90
G05
T1
X3.048Y-16.637
X3.556Y-33.528
X5.207Y-16.637
X5.588Y-12.827
X5.588Y-33.401
X5.969Y-30.353
X8.311Y-2.215
X9.779Y-11.684
X10.414Y-10.414
X10.414Y-34.163
X10.978Y-13.518
X10.978Y-14.661
X11.303Y-20.574
X11.303Y-28.448
X11.486Y-17.074
X11.557Y-29.845
X11.811Y-33.655
X15.494Y-32.639
X16.891Y-31.877
X19.939Y-2.032
X19.939Y-6.731
X19.939Y-8.128
X20.066Y-25.527
X20.066Y-27.051
X20.447Y-11.176
X20.701Y-34.417
X20.828Y-15.113
X21.011Y-19.487
X21.971Y-14.859
X24.765Y-13.081
X25.019Y-7.366
X25.019Y-28.067
X27.998Y-24.13
X28.067Y-3.81
X28.123Y-17.328
X28.321Y-12.954
X29.845Y-29.845
X29.972Y-3.81
X29.972Y-9.017
X30.48Y-33.655
X31.623Y-9.017
X31.877Y-29.845
X32.131Y-13.208
X32.385Y-35.687
X34.036Y-16.383
X34.036Y-26.543
X34.036Y-37.084
X36.557Y-12.192
X36.576Y-10.922
X36.576Y-14.097
X36.957Y-31.877
X36.957Y-33.147
X38.735Y-25.273
X40.386Y-4.318
X41.021Y-9.017
X41.783Y-14.732
X41.91Y-31.369
X41.91Y-32.639
X42.418Y-34.544
X42.418Y-35.814
X43.053Y-20.32
X43.434Y-12.446
X43.688Y-11.43
X43.815Y-10.287
X43.815Y-32.004
X43.942Y-13.335
X44.482Y-28.956
X44.704Y-8.509
X45.402Y-4.0
X45.593Y-26.543
X45.88Y-24.003
X50.165Y-13.589
X50.165Y-31.75
X50.419Y-1.27
X50.561Y-12.08
X50.871Y-30.678
X51.181Y-9.144
X51.943Y-1.27
X52.864Y-20.447
X54.864Y-26.924
X57.912Y-8.001
T2
X3.556Y-25.781
X3.556Y-28.321
X3.556Y-30.861
X3.612Y-8.804
X3.612Y-11.344
X3.612Y-13.884
X9.271Y-38.227
X11.811Y-38.227
X14.351Y-38.227
X16.891Y-38.227
X19.431Y-38.227
X21.971Y-38.227
X24.511Y-38.227
X27.051Y-38.227
X57.404Y-17.135
X57.404Y-19.675
X57.404Y-22.215
X57.404Y-24.755
T0
M30
