%TF.GenerationSoftware,KiCad,Pcbnew,(6.99.0)*%
%TF.CreationDate,2022-07-26T17:29:38-07:00*%
%TF.ProjectId,eog-pcb-kicad,656f672d-7063-4622-9d6b-696361642e6b,rev?*%
%TF.SameCoordinates,Original*%
%TF.FileFunction,Copper,L1,Top*%
%TF.FilePolarity,Positive*%
%FSLAX46Y46*%
G04 Gerber Fmt 4.6, Leading zero omitted, Abs format (unit mm)*
G04 Created by KiCad (PCBNEW (6.99.0)) date 2022-07-26 17:29:38*
%MOMM*%
%LPD*%
G01*
G04 APERTURE LIST*
G04 Aperture macros list*
%AMRoundRect*
0 Rectangle with rounded corners*
0 $1 Rounding radius*
0 $2 $3 $4 $5 $6 $7 $8 $9 X,Y pos of 4 corners*
0 Add a 4 corners polygon primitive as box body*
4,1,4,$2,$3,$4,$5,$6,$7,$8,$9,$2,$3,0*
0 Add four circle primitives for the rounded corners*
1,1,$1+$1,$2,$3*
1,1,$1+$1,$4,$5*
1,1,$1+$1,$6,$7*
1,1,$1+$1,$8,$9*
0 Add four rect primitives between the rounded corners*
20,1,$1+$1,$2,$3,$4,$5,0*
20,1,$1+$1,$4,$5,$6,$7,0*
20,1,$1+$1,$6,$7,$8,$9,0*
20,1,$1+$1,$8,$9,$2,$3,0*%
G04 Aperture macros list end*
%TA.AperFunction,SMDPad,CuDef*%
%ADD10RoundRect,0.041300X-0.943700X-0.253700X0.943700X-0.253700X0.943700X0.253700X-0.943700X0.253700X0*%
%TD*%
%TA.AperFunction,SMDPad,CuDef*%
%ADD11R,1.600000X5.700000*%
%TD*%
%TA.AperFunction,SMDPad,CuDef*%
%ADD12R,2.250000X3.120000*%
%TD*%
%TA.AperFunction,SMDPad,CuDef*%
%ADD13R,2.400000X2.900000*%
%TD*%
%TA.AperFunction,SMDPad,CuDef*%
%ADD14RoundRect,0.225000X-0.225000X-0.250000X0.225000X-0.250000X0.225000X0.250000X-0.225000X0.250000X0*%
%TD*%
%TA.AperFunction,SMDPad,CuDef*%
%ADD15RoundRect,0.225000X-0.250000X0.225000X-0.250000X-0.225000X0.250000X-0.225000X0.250000X0.225000X0*%
%TD*%
%TA.AperFunction,SMDPad,CuDef*%
%ADD16RoundRect,0.150000X-0.825000X-0.150000X0.825000X-0.150000X0.825000X0.150000X-0.825000X0.150000X0*%
%TD*%
%TA.AperFunction,SMDPad,CuDef*%
%ADD17RoundRect,0.200000X0.200000X0.275000X-0.200000X0.275000X-0.200000X-0.275000X0.200000X-0.275000X0*%
%TD*%
%TA.AperFunction,ComponentPad*%
%ADD18R,1.700000X1.700000*%
%TD*%
%TA.AperFunction,ComponentPad*%
%ADD19O,1.700000X1.700000*%
%TD*%
%TA.AperFunction,SMDPad,CuDef*%
%ADD20RoundRect,0.200000X-0.200000X-0.275000X0.200000X-0.275000X0.200000X0.275000X-0.200000X0.275000X0*%
%TD*%
%TA.AperFunction,SMDPad,CuDef*%
%ADD21RoundRect,0.200000X-0.275000X0.200000X-0.275000X-0.200000X0.275000X-0.200000X0.275000X0.200000X0*%
%TD*%
%TA.AperFunction,SMDPad,CuDef*%
%ADD22R,1.000000X1.000000*%
%TD*%
%TA.AperFunction,SMDPad,CuDef*%
%ADD23RoundRect,0.225000X0.250000X-0.225000X0.250000X0.225000X-0.250000X0.225000X-0.250000X-0.225000X0*%
%TD*%
%TA.AperFunction,SMDPad,CuDef*%
%ADD24RoundRect,0.200000X0.275000X-0.200000X0.275000X0.200000X-0.275000X0.200000X-0.275000X-0.200000X0*%
%TD*%
%TA.AperFunction,SMDPad,CuDef*%
%ADD25RoundRect,0.225000X0.225000X0.250000X-0.225000X0.250000X-0.225000X-0.250000X0.225000X-0.250000X0*%
%TD*%
%TA.AperFunction,ComponentPad*%
%ADD26R,1.600000X1.600000*%
%TD*%
%TA.AperFunction,ComponentPad*%
%ADD27O,1.600000X1.600000*%
%TD*%
%TA.AperFunction,ViaPad*%
%ADD28C,0.800000*%
%TD*%
%TA.AperFunction,Conductor*%
%ADD29C,0.254000*%
%TD*%
%TA.AperFunction,Conductor*%
%ADD30C,0.250000*%
%TD*%
%TA.AperFunction,Conductor*%
%ADD31C,0.508000*%
%TD*%
%TA.AperFunction,Conductor*%
%ADD32C,0.355600*%
%TD*%
%TA.AperFunction,Conductor*%
%ADD33C,0.177800*%
%TD*%
G04 APERTURE END LIST*
D10*
%TO.P,U8,1,OUT*%
%TO.N,VDD_NEG_5V*%
X110364500Y-97396000D03*
%TO.P,U8,2,FB*%
%TO.N,/FB{slash}REF*%
X110364500Y-98666000D03*
%TO.P,U8,3,SHDN*%
%TO.N,GND*%
X110364500Y-99936000D03*
%TO.P,U8,4,REF*%
%TO.N,/FB{slash}REF*%
X110364500Y-101206000D03*
%TO.P,U8,5,GND*%
%TO.N,GND*%
X115314500Y-101206000D03*
%TO.P,U8,6,V+*%
%TO.N,VDD*%
X115314500Y-99936000D03*
%TO.P,U8,7,V+*%
X115314500Y-98666000D03*
%TO.P,U8,8,LX*%
%TO.N,/LX*%
X115314500Y-97396000D03*
%TD*%
D11*
%TO.P,L1,1*%
%TO.N,/LX*%
X120321500Y-93840000D03*
%TO.P,L1,2*%
%TO.N,GND*%
X125021500Y-93840000D03*
%TD*%
D12*
%TO.P,D1,C*%
%TO.N,/LX*%
X116784000Y-91173000D03*
%TO.P,D1,A*%
%TO.N,VDD_NEG_5V*%
X109874000Y-91173000D03*
%TD*%
D13*
%TO.P,C4,1*%
%TO.N,GND*%
X99682500Y-95491000D03*
%TO.P,C4,2*%
%TO.N,VDD_NEG_5V*%
X105782500Y-95491000D03*
%TD*%
%TO.P,C1,1*%
%TO.N,VDD*%
X120764500Y-101079000D03*
%TO.P,C1,2*%
%TO.N,GND*%
X126864500Y-101079000D03*
%TD*%
D14*
%TO.P,C203,1*%
%TO.N,/IA_OUT_CH1*%
X132842000Y-107950000D03*
%TO.P,C203,2*%
%TO.N,/HPF_OUT_CH1*%
X134392000Y-107950000D03*
%TD*%
%TO.P,C202,1*%
%TO.N,/IA_OUT_CH1*%
X132842000Y-109728000D03*
%TO.P,C202,2*%
%TO.N,/HPF_OUT_CH1*%
X134392000Y-109728000D03*
%TD*%
%TO.P,C201,1*%
%TO.N,/IA_OUT_CH1*%
X132829000Y-111506000D03*
%TO.P,C201,2*%
%TO.N,/HPF_OUT_CH1*%
X134379000Y-111506000D03*
%TD*%
%TO.P,C83,1*%
%TO.N,/IA_OUT_CH0*%
X131432000Y-73787000D03*
%TO.P,C83,2*%
%TO.N,/HPF_OUT_CH0*%
X132982000Y-73787000D03*
%TD*%
%TO.P,C82,1*%
%TO.N,/IA_OUT_CH0*%
X131432000Y-75438000D03*
%TO.P,C82,2*%
%TO.N,/HPF_OUT_CH0*%
X132982000Y-75438000D03*
%TD*%
%TO.P,C81,1*%
%TO.N,/IA_OUT_CH0*%
X131432000Y-77089000D03*
%TO.P,C81,2*%
%TO.N,/HPF_OUT_CH0*%
X132982000Y-77089000D03*
%TD*%
D15*
%TO.P,C19,1*%
%TO.N,GND*%
X130238500Y-107416000D03*
%TO.P,C19,2*%
%TO.N,VDD*%
X130238500Y-108966000D03*
%TD*%
D16*
%TO.P,U6,1*%
%TO.N,/AMP_IN+_CH1*%
X159404500Y-112712500D03*
%TO.P,U6,2,-*%
X159404500Y-113982500D03*
%TO.P,U6,3,+*%
%TO.N,/LPF_OUT_CH1*%
X159404500Y-115252500D03*
%TO.P,U6,4,V-*%
%TO.N,VDD_NEG_5V*%
X159404500Y-116522500D03*
%TO.P,U6,5,+*%
%TO.N,/AMP_IN+_CH1*%
X164354500Y-116522500D03*
%TO.P,U6,6,-*%
%TO.N,/AMP_IN-_CH1*%
X164354500Y-115252500D03*
%TO.P,U6,7*%
%TO.N,/AMP_OUT_CH1*%
X164354500Y-113982500D03*
%TO.P,U6,8,V+*%
%TO.N,VDD*%
X164354500Y-112712500D03*
%TD*%
D17*
%TO.P,R15,1*%
%TO.N,NOTCH_OUT_CH0*%
X143945000Y-68707000D03*
%TO.P,R15,2*%
%TO.N,Net-(C14-Pad2)*%
X142295000Y-68707000D03*
%TD*%
%TO.P,R25,1*%
%TO.N,/AMP_OUT_CH1*%
X173431000Y-113144000D03*
%TO.P,R25,2*%
%TO.N,/AMP_IN-_CH1*%
X171781000Y-113144000D03*
%TD*%
D18*
%TO.P,J3,1,Pin_1*%
%TO.N,/AOUT_CH0*%
X184143000Y-78331000D03*
D19*
%TO.P,J3,2,Pin_2*%
%TO.N,GND*%
X184143000Y-80871000D03*
%TD*%
D14*
%TO.P,C6,1*%
%TO.N,GND*%
X114531000Y-82270000D03*
%TO.P,C6,2*%
%TO.N,VDD_NEG_5V*%
X116081000Y-82270000D03*
%TD*%
D20*
%TO.P,R4,2*%
%TO.N,Net-(C5-Pad1)*%
X151447000Y-73406000D03*
%TO.P,R4,1*%
%TO.N,NOTCH_OUT_CH0*%
X149797000Y-73406000D03*
%TD*%
D21*
%TO.P,D5,1,A1*%
%TO.N,GND*%
X111061500Y-105842000D03*
%TO.P,D5,2,A2*%
%TO.N,/IA_IN-_CH1*%
X111061500Y-107492000D03*
%TD*%
D22*
%TO.P,TP8,1,1*%
%TO.N,/NOTCH_IN_CH1*%
X137731500Y-108445000D03*
%TD*%
D21*
%TO.P,R13,1*%
%TO.N,Net-(C13-Pad2)*%
X140233000Y-74092000D03*
%TO.P,R13,2*%
%TO.N,GND*%
X140233000Y-75742000D03*
%TD*%
D22*
%TO.P,TP18,1,1*%
%TO.N,VDD_NEG_5V*%
X116141500Y-85839000D03*
%TD*%
%TO.P,TP19,1,1*%
%TO.N,VDD_NEG_5V*%
X116395500Y-118605000D03*
%TD*%
D14*
%TO.P,C23,1*%
%TO.N,Net-(C21-Pad2)*%
X144449500Y-104762000D03*
%TO.P,C23,2*%
%TO.N,NOTCH_OUT_CH1*%
X145999500Y-104762000D03*
%TD*%
D20*
%TO.P,R2,1*%
%TO.N,E2_CH0*%
X109020000Y-77126000D03*
%TO.P,R2,2*%
%TO.N,/IA_IN-_CH0*%
X110670000Y-77126000D03*
%TD*%
D17*
%TO.P,R9,1*%
%TO.N,GND*%
X172025000Y-82029000D03*
%TO.P,R9,2*%
%TO.N,/AMP_IN-_CH0*%
X170375000Y-82029000D03*
%TD*%
D23*
%TO.P,C14,1*%
%TO.N,GND*%
X142612000Y-75692000D03*
%TO.P,C14,2*%
%TO.N,Net-(C14-Pad2)*%
X142612000Y-74142000D03*
%TD*%
D22*
%TO.P,TP13,1,1*%
%TO.N,GND*%
X172011000Y-85077000D03*
%TD*%
D24*
%TO.P,D2,1,A1*%
%TO.N,GND*%
X110680500Y-83235000D03*
%TO.P,D2,2,A2*%
%TO.N,/IA_IN+_CH0*%
X110680500Y-81585000D03*
%TD*%
D16*
%TO.P,U4,1*%
%TO.N,/NOTCH_IN_CH0*%
X138939500Y-79362000D03*
%TO.P,U4,2,-*%
X138939500Y-80632000D03*
%TO.P,U4,3,+*%
%TO.N,/HPF_OUT_CH0*%
X138939500Y-81902000D03*
%TO.P,U4,4,V-*%
%TO.N,VDD_NEG_5V*%
X138939500Y-83172000D03*
%TO.P,U4,5,+*%
%TO.N,/LPF_IN+_CH0*%
X143889500Y-83172000D03*
%TO.P,U4,6,-*%
%TO.N,/LPF_OUT_CH0*%
X143889500Y-81902000D03*
%TO.P,U4,7*%
X143889500Y-80632000D03*
%TO.P,U4,8,V+*%
%TO.N,VDD*%
X143889500Y-79362000D03*
%TD*%
D20*
%TO.P,R17,1*%
%TO.N,E1_CH1*%
X109284000Y-111772500D03*
%TO.P,R17,2*%
%TO.N,/IA_IN+_CH1*%
X110934000Y-111772500D03*
%TD*%
D22*
%TO.P,TP4,1,1*%
%TO.N,/LPF_OUT_CH0*%
X153416000Y-80645000D03*
%TD*%
%TO.P,TP6,1,1*%
%TO.N,/AOUT_CH0*%
X177345000Y-78346000D03*
%TD*%
D20*
%TO.P,R20,1*%
%TO.N,Net-(C17-Pad1)*%
X155829000Y-105835250D03*
%TO.P,R20,2*%
%TO.N,/LPF_IN+_CH1*%
X157479000Y-105835250D03*
%TD*%
D22*
%TO.P,TP3,1,1*%
%TO.N,NOTCH_OUT_CH0*%
X149733000Y-69850000D03*
%TD*%
D14*
%TO.P,C18,1*%
%TO.N,GND*%
X114810000Y-115775500D03*
%TO.P,C18,2*%
%TO.N,VDD_NEG_5V*%
X116360000Y-115775500D03*
%TD*%
%TO.P,C27,1*%
%TO.N,GND*%
X138798000Y-118478000D03*
%TO.P,C27,2*%
%TO.N,VDD_NEG_5V*%
X140348000Y-118478000D03*
%TD*%
D17*
%TO.P,R29,1*%
%TO.N,/AOUT_CH1*%
X173431000Y-109080000D03*
%TO.P,R29,2*%
%TO.N,VDD*%
X171781000Y-109080000D03*
%TD*%
D25*
%TO.P,C17,1*%
%TO.N,Net-(C17-Pad1)*%
X156616000Y-108552750D03*
%TO.P,C17,2*%
%TO.N,/LPF_OUT_CH1*%
X155066000Y-108552750D03*
%TD*%
D20*
%TO.P,R1,1*%
%TO.N,E1_CH0*%
X109020000Y-79730000D03*
%TO.P,R1,2*%
%TO.N,/IA_IN+_CH0*%
X110670000Y-79730000D03*
%TD*%
%TO.P,R5,2*%
%TO.N,/LPF_IN+_CH0*%
X155003000Y-73406000D03*
%TO.P,R5,1*%
%TO.N,Net-(C5-Pad1)*%
X153353000Y-73406000D03*
%TD*%
D18*
%TO.P,J6,1,Pin_1*%
%TO.N,/AOUT_CH1*%
X184406000Y-107043000D03*
D19*
%TO.P,J6,2,Pin_2*%
%TO.N,GND*%
X184406000Y-109583000D03*
%TD*%
D22*
%TO.P,TP9,1,1*%
%TO.N,NOTCH_OUT_CH1*%
X152146000Y-102108000D03*
%TD*%
D25*
%TO.P,C33,1*%
%TO.N,/FB{slash}REF*%
X107698500Y-101206000D03*
%TO.P,C33,2*%
%TO.N,GND*%
X106148500Y-101206000D03*
%TD*%
D22*
%TO.P,TP5,1,1*%
%TO.N,/AMP_OUT_CH0*%
X174629000Y-80124000D03*
%TD*%
D25*
%TO.P,C11,2*%
%TO.N,VDD*%
X147552000Y-79362000D03*
%TO.P,C11,1*%
%TO.N,GND*%
X149102000Y-79362000D03*
%TD*%
%TO.P,C26,1*%
%TO.N,GND*%
X150000000Y-112636000D03*
%TO.P,C26,2*%
%TO.N,VDD*%
X148450000Y-112636000D03*
%TD*%
D17*
%TO.P,R26,1*%
%TO.N,Net-(C22-Pad2)*%
X141921500Y-102095000D03*
%TO.P,R26,2*%
%TO.N,/NOTCH_IN_CH1*%
X140271500Y-102095000D03*
%TD*%
%TO.P,R30,1*%
%TO.N,NOTCH_OUT_CH1*%
X146049500Y-102095000D03*
%TO.P,R30,2*%
%TO.N,Net-(C22-Pad2)*%
X144399500Y-102095000D03*
%TD*%
D26*
%TO.P,U5,1,Rg*%
%TO.N,Net-(R19-Pad1)*%
X120279000Y-108201000D03*
D27*
%TO.P,U5,2,-*%
%TO.N,/IA_IN-_CH1*%
X120279000Y-110741000D03*
%TO.P,U5,3,+*%
%TO.N,/IA_IN+_CH1*%
X120279000Y-113281000D03*
%TO.P,U5,4,Vs-*%
%TO.N,VDD_NEG_5V*%
X120279000Y-115821000D03*
%TO.P,U5,5,Ref*%
%TO.N,GND*%
X127899000Y-115821000D03*
%TO.P,U5,6*%
%TO.N,/IA_OUT_CH1*%
X127899000Y-113281000D03*
%TO.P,U5,7,Vs+*%
%TO.N,VDD*%
X127899000Y-110741000D03*
%TO.P,U5,8,Rg*%
%TO.N,Net-(R19-Pad2)*%
X127899000Y-108201000D03*
%TD*%
D14*
%TO.P,C21,1*%
%TO.N,/NOTCH_IN_CH1*%
X140258500Y-104762000D03*
%TO.P,C21,2*%
%TO.N,Net-(C21-Pad2)*%
X141808500Y-104762000D03*
%TD*%
D22*
%TO.P,TP14,1,1*%
%TO.N,GND*%
X128704000Y-85331000D03*
%TD*%
D25*
%TO.P,C25,1*%
%TO.N,GND*%
X159398000Y-118808500D03*
%TO.P,C25,2*%
%TO.N,VDD_NEG_5V*%
X157848000Y-118808500D03*
%TD*%
D26*
%TO.P,U2,1,Rg*%
%TO.N,Net-(R3-Pad1)*%
X118818500Y-74673000D03*
D27*
%TO.P,U2,2,-*%
%TO.N,/IA_IN-_CH0*%
X118818500Y-77213000D03*
%TO.P,U2,3,+*%
%TO.N,/IA_IN+_CH0*%
X118818500Y-79753000D03*
%TO.P,U2,4,Vs-*%
%TO.N,VDD_NEG_5V*%
X118818500Y-82293000D03*
%TO.P,U2,5,Ref*%
%TO.N,GND*%
X126438500Y-82293000D03*
%TO.P,U2,6*%
%TO.N,/IA_OUT_CH0*%
X126438500Y-79753000D03*
%TO.P,U2,7,Vs+*%
%TO.N,VDD*%
X126438500Y-77213000D03*
%TO.P,U2,8,Rg*%
%TO.N,Net-(R3-Pad2)*%
X126438500Y-74673000D03*
%TD*%
D22*
%TO.P,TP1,1,1*%
%TO.N,/IA_OUT_CH0*%
X128905000Y-79756000D03*
%TD*%
D15*
%TO.P,C3,2*%
%TO.N,/LPF_IN+_CH0*%
X158305000Y-75235000D03*
%TO.P,C3,1*%
%TO.N,GND*%
X158305000Y-73685000D03*
%TD*%
D22*
%TO.P,TP2,1,1*%
%TO.N,/NOTCH_IN_CH0*%
X136451000Y-75425000D03*
%TD*%
D17*
%TO.P,R24,1*%
%TO.N,GND*%
X173431000Y-115303000D03*
%TO.P,R24,2*%
%TO.N,/AMP_IN-_CH1*%
X171781000Y-115303000D03*
%TD*%
D23*
%TO.P,C22,1*%
%TO.N,GND*%
X144716500Y-108839000D03*
%TO.P,C22,2*%
%TO.N,Net-(C22-Pad2)*%
X144716500Y-107289000D03*
%TD*%
D14*
%TO.P,C9,1*%
%TO.N,GND*%
X161902000Y-77444000D03*
%TO.P,C9,2*%
%TO.N,VDD*%
X163452000Y-77444000D03*
%TD*%
D20*
%TO.P,R3,1*%
%TO.N,Net-(R3-Pad1)*%
X121920500Y-71234000D03*
%TO.P,R3,2*%
%TO.N,Net-(R3-Pad2)*%
X123570500Y-71234000D03*
%TD*%
D18*
%TO.P,J1,1,Pin_1*%
%TO.N,GND*%
X100295000Y-82206000D03*
D19*
%TO.P,J1,2,Pin_2*%
%TO.N,E1_CH0*%
X100295000Y-79666000D03*
%TO.P,J1,3,Pin_3*%
%TO.N,E2_CH0*%
X100295000Y-77126000D03*
%TD*%
D17*
%TO.P,R11,1*%
%TO.N,Net-(C14-Pad2)*%
X140261000Y-68694000D03*
%TO.P,R11,2*%
%TO.N,/NOTCH_IN_CH0*%
X138611000Y-68694000D03*
%TD*%
D20*
%TO.P,R19,1*%
%TO.N,Net-(R19-Pad1)*%
X123127000Y-104889000D03*
%TO.P,R19,2*%
%TO.N,Net-(R19-Pad2)*%
X124777000Y-104889000D03*
%TD*%
D22*
%TO.P,TP11,1,1*%
%TO.N,/AMP_OUT_CH1*%
X175908000Y-113144000D03*
%TD*%
D18*
%TO.P,J4,1,Pin_1*%
%TO.N,GND*%
X100584000Y-114297500D03*
D19*
%TO.P,J4,2,Pin_2*%
%TO.N,E1_CH1*%
X100584000Y-111757500D03*
%TO.P,J4,3,Pin_3*%
%TO.N,E2_CH1*%
X100584000Y-109217500D03*
%TD*%
D25*
%TO.P,C10,1*%
%TO.N,GND*%
X158245000Y-85699000D03*
%TO.P,C10,2*%
%TO.N,VDD_NEG_5V*%
X156695000Y-85699000D03*
%TD*%
D22*
%TO.P,TP16,1,1*%
%TO.N,VDD*%
X164719000Y-106667000D03*
%TD*%
D24*
%TO.P,R23,1*%
%TO.N,GND*%
X134353000Y-117652000D03*
%TO.P,R23,2*%
%TO.N,/HPF_OUT_CH1*%
X134353000Y-116002000D03*
%TD*%
D14*
%TO.P,C12,1*%
%TO.N,GND*%
X137337500Y-85445000D03*
%TO.P,C12,2*%
%TO.N,VDD_NEG_5V*%
X138887500Y-85445000D03*
%TD*%
%TO.P,C20,1*%
%TO.N,/IA_OUT_CH1*%
X132816000Y-113284000D03*
%TO.P,C20,2*%
%TO.N,/HPF_OUT_CH1*%
X134366000Y-113284000D03*
%TD*%
D17*
%TO.P,R12,1*%
%TO.N,/AOUT_CH0*%
X172025000Y-78092000D03*
%TO.P,R12,2*%
%TO.N,/AMP_OUT_CH0*%
X170375000Y-78092000D03*
%TD*%
D22*
%TO.P,TP10,1,1*%
%TO.N,/LPF_OUT_CH1*%
X154559000Y-114046000D03*
%TD*%
D15*
%TO.P,C16,1*%
%TO.N,GND*%
X160413000Y-106647750D03*
%TO.P,C16,2*%
%TO.N,/LPF_IN+_CH1*%
X160413000Y-108197750D03*
%TD*%
%TO.P,C7,1*%
%TO.N,GND*%
X128905000Y-74523000D03*
%TO.P,C7,2*%
%TO.N,VDD*%
X128905000Y-76073000D03*
%TD*%
D14*
%TO.P,C15,1*%
%TO.N,Net-(C13-Pad2)*%
X142345000Y-71615000D03*
%TO.P,C15,2*%
%TO.N,NOTCH_OUT_CH0*%
X143895000Y-71615000D03*
%TD*%
D22*
%TO.P,TP17,1,1*%
%TO.N,VDD*%
X163440000Y-73901000D03*
%TD*%
D24*
%TO.P,R8,1*%
%TO.N,GND*%
X133032500Y-83426000D03*
%TO.P,R8,2*%
%TO.N,/HPF_OUT_CH0*%
X133032500Y-81776000D03*
%TD*%
D21*
%TO.P,D3,1,A1*%
%TO.N,GND*%
X110680500Y-73584000D03*
%TO.P,D3,2,A2*%
%TO.N,/IA_IN-_CH0*%
X110680500Y-75234000D03*
%TD*%
D20*
%TO.P,R16,1*%
%TO.N,E2_CH1*%
X109347000Y-109232500D03*
%TO.P,R16,2*%
%TO.N,/IA_IN-_CH1*%
X110997000Y-109232500D03*
%TD*%
D18*
%TO.P,J2,1,Pin_1*%
%TO.N,GND*%
X184086500Y-94475000D03*
D19*
%TO.P,J2,2,Pin_2*%
%TO.N,VDD*%
X184086500Y-91935000D03*
%TD*%
D16*
%TO.P,U3,1*%
%TO.N,/AMP_IN+_CH0*%
X158043000Y-79476000D03*
%TO.P,U3,2,-*%
X158043000Y-80746000D03*
%TO.P,U3,3,+*%
%TO.N,/LPF_OUT_CH0*%
X158043000Y-82016000D03*
%TO.P,U3,4,V-*%
%TO.N,VDD_NEG_5V*%
X158043000Y-83286000D03*
%TO.P,U3,5,+*%
%TO.N,/AMP_IN+_CH0*%
X162993000Y-83286000D03*
%TO.P,U3,6,-*%
%TO.N,/AMP_IN-_CH0*%
X162993000Y-82016000D03*
%TO.P,U3,7*%
%TO.N,/AMP_OUT_CH0*%
X162993000Y-80746000D03*
%TO.P,U3,8,V+*%
%TO.N,VDD*%
X162993000Y-79476000D03*
%TD*%
D22*
%TO.P,TP15,1,1*%
%TO.N,GND*%
X130048000Y-119367000D03*
%TD*%
%TO.P,TP7,1,1*%
%TO.N,/IA_OUT_CH1*%
X130302000Y-113284000D03*
%TD*%
D20*
%TO.P,R18,1*%
%TO.N,NOTCH_OUT_CH1*%
X152146000Y-105835250D03*
%TO.P,R18,2*%
%TO.N,Net-(C17-Pad1)*%
X153796000Y-105835250D03*
%TD*%
D14*
%TO.P,C24,1*%
%TO.N,GND*%
X163136500Y-110553500D03*
%TO.P,C24,2*%
%TO.N,VDD*%
X164686500Y-110553500D03*
%TD*%
D21*
%TO.P,R28,1*%
%TO.N,Net-(C21-Pad2)*%
X142430500Y-107239000D03*
%TO.P,R28,2*%
%TO.N,GND*%
X142430500Y-108889000D03*
%TD*%
D16*
%TO.P,U7,1*%
%TO.N,/NOTCH_IN_CH1*%
X140400000Y-112763000D03*
%TO.P,U7,2,-*%
X140400000Y-114033000D03*
%TO.P,U7,3,+*%
%TO.N,/HPF_OUT_CH1*%
X140400000Y-115303000D03*
%TO.P,U7,4,V-*%
%TO.N,VDD_NEG_5V*%
X140400000Y-116573000D03*
%TO.P,U7,5,+*%
%TO.N,/LPF_IN+_CH1*%
X145350000Y-116573000D03*
%TO.P,U7,6,-*%
%TO.N,/LPF_OUT_CH1*%
X145350000Y-115303000D03*
%TO.P,U7,7*%
X145350000Y-114033000D03*
%TO.P,U7,8,V+*%
%TO.N,VDD*%
X145350000Y-112763000D03*
%TD*%
D22*
%TO.P,TP12,1,1*%
%TO.N,/AOUT_CH1*%
X176924000Y-108572000D03*
%TD*%
D25*
%TO.P,C2,1*%
%TO.N,VDD*%
X117551500Y-104140000D03*
%TO.P,C2,2*%
%TO.N,GND*%
X116001500Y-104140000D03*
%TD*%
D24*
%TO.P,D4,1,A1*%
%TO.N,GND*%
X110934500Y-115366000D03*
%TO.P,D4,2,A2*%
%TO.N,/IA_IN+_CH1*%
X110934500Y-113716000D03*
%TD*%
D17*
%TO.P,R14,1*%
%TO.N,/AOUT_CH0*%
X172011000Y-76047000D03*
%TO.P,R14,2*%
%TO.N,VDD*%
X170361000Y-76047000D03*
%TD*%
D25*
%TO.P,C5,2*%
%TO.N,/LPF_OUT_CH0*%
X153403000Y-75946000D03*
%TO.P,C5,1*%
%TO.N,Net-(C5-Pad1)*%
X154953000Y-75946000D03*
%TD*%
D14*
%TO.P,C13,1*%
%TO.N,/NOTCH_IN_CH0*%
X138662000Y-71615000D03*
%TO.P,C13,2*%
%TO.N,Net-(C13-Pad2)*%
X140212000Y-71615000D03*
%TD*%
%TO.P,C8,1*%
%TO.N,/IA_OUT_CH0*%
X131432000Y-78740000D03*
%TO.P,C8,2*%
%TO.N,/HPF_OUT_CH0*%
X132982000Y-78740000D03*
%TD*%
D17*
%TO.P,R27,1*%
%TO.N,/AOUT_CH1*%
X173431000Y-111112000D03*
%TO.P,R27,2*%
%TO.N,/AMP_OUT_CH1*%
X171781000Y-111112000D03*
%TD*%
%TO.P,R10,1*%
%TO.N,/AMP_OUT_CH0*%
X172025000Y-80124000D03*
%TO.P,R10,2*%
%TO.N,/AMP_IN-_CH0*%
X170375000Y-80124000D03*
%TD*%
D28*
%TO.N,/LPF_IN+_CH1*%
X159258000Y-110617000D03*
%TO.N,/LPF_IN+_CH0*%
X158242000Y-77724000D03*
%TO.N,GND*%
X134366000Y-119634000D03*
X129400000Y-101079000D03*
%TO.N,VDD_NEG_5V*%
X142240000Y-119595500D03*
X154231000Y-85712000D03*
X118808500Y-87363000D03*
X155956000Y-118859000D03*
X140769000Y-86474000D03*
X116395500Y-121653000D03*
%TO.N,Net-(C14-Pad2)*%
X141215000Y-70091000D03*
X141215000Y-72885000D03*
%TO.N,VDD*%
X117602000Y-106045000D03*
X171717000Y-107302000D03*
X166243000Y-110604000D03*
X130111500Y-110617000D03*
X145288000Y-111086500D03*
X128905000Y-77838000D03*
X184086500Y-88887000D03*
X143881000Y-77825000D03*
X170360000Y-74282000D03*
X165344000Y-77444000D03*
%TO.N,Net-(C22-Pad2)*%
X142938500Y-105905000D03*
X142938500Y-103365000D03*
%TO.N,GND*%
X150867000Y-79235000D03*
X160264000Y-86334000D03*
X106172000Y-102870000D03*
X161163000Y-119900500D03*
X145405000Y-75729000D03*
X152019000Y-112636000D03*
X181927500Y-98031000D03*
X160391000Y-77444000D03*
X102171500Y-116954000D03*
X147751500Y-108839000D03*
X112204500Y-73774000D03*
X101780000Y-85458000D03*
X116078000Y-106045000D03*
X112712500Y-115684000D03*
X128905000Y-71869000D03*
X158315000Y-72289000D03*
X112839500Y-83045000D03*
X111061500Y-104508000D03*
X160413000Y-105136750D03*
X161544000Y-110604000D03*
%TO.N,/LPF_IN+_CH0*%
X146802000Y-83159000D03*
%TO.N,/LPF_IN+_CH1*%
X147745500Y-116573000D03*
%TD*%
D29*
%TO.N,/IA_OUT_CH0*%
X126438500Y-79753000D02*
X128902000Y-79753000D01*
X128902000Y-79753000D02*
X128905000Y-79756000D01*
D30*
%TO.N,GND*%
X126864500Y-101079000D02*
X129400000Y-101079000D01*
D29*
%TO.N,/LPF_OUT_CH0*%
X154800000Y-82029000D02*
X153416000Y-80645000D01*
D30*
%TO.N,/IA_OUT_CH1*%
X130302000Y-113284000D02*
X132816000Y-113284000D01*
X127899000Y-113281000D02*
X130299000Y-113281000D01*
X130299000Y-113281000D02*
X130302000Y-113284000D01*
%TO.N,NOTCH_OUT_CH1*%
X152146000Y-105835250D02*
X152146000Y-102108000D01*
D29*
X146049500Y-102095000D02*
X146062500Y-102108000D01*
X146062500Y-102108000D02*
X152146000Y-102108000D01*
%TO.N,/LPF_IN+_CH1*%
X160413000Y-109462000D02*
X159258000Y-110617000D01*
X160413000Y-108197750D02*
X160413000Y-109462000D01*
D30*
%TO.N,/LPF_OUT_CH0*%
X153403000Y-75946000D02*
X153403000Y-80632000D01*
D29*
%TO.N,/LPF_OUT_CH1*%
X159404500Y-115252500D02*
X159354000Y-115303000D01*
X159354000Y-115303000D02*
X155816000Y-115303000D01*
X155816000Y-115303000D02*
X154559000Y-114046000D01*
D30*
X155066000Y-108552750D02*
X155066000Y-113539000D01*
X155066000Y-113539000D02*
X154559000Y-114046000D01*
D29*
X145350000Y-114033000D02*
X154546000Y-114033000D01*
D30*
%TO.N,/HPF_OUT_CH1*%
X134353000Y-116002000D02*
X137617000Y-116002000D01*
X138316000Y-115303000D02*
X140400000Y-115303000D01*
X137617000Y-116002000D02*
X138316000Y-115303000D01*
X134379000Y-111506000D02*
X134379000Y-113271000D01*
X134379000Y-113271000D02*
X134366000Y-113284000D01*
X134392000Y-109728000D02*
X134392000Y-111493000D01*
X134392000Y-111493000D02*
X134379000Y-111506000D01*
X134392000Y-107950000D02*
X134392000Y-109728000D01*
%TO.N,/IA_OUT_CH1*%
X132842000Y-109728000D02*
X132842000Y-107950000D01*
X132829000Y-111506000D02*
X132829000Y-109741000D01*
X132829000Y-109741000D02*
X132842000Y-109728000D01*
X132816000Y-113284000D02*
X132816000Y-111519000D01*
X132816000Y-111519000D02*
X132829000Y-111506000D01*
%TO.N,/HPF_OUT_CH1*%
X134366000Y-113284000D02*
X134366000Y-115989000D01*
X134366000Y-115989000D02*
X134353000Y-116002000D01*
D29*
%TO.N,NOTCH_OUT_CH0*%
X143945000Y-68707000D02*
X148590000Y-68707000D01*
X148590000Y-68707000D02*
X149733000Y-69850000D01*
D30*
X149797000Y-73406000D02*
X149733000Y-73342000D01*
X149733000Y-73342000D02*
X149733000Y-69850000D01*
%TO.N,/LPF_OUT_CH1*%
X145350000Y-115303000D02*
X145350000Y-114033000D01*
D29*
%TO.N,/LPF_IN+_CH0*%
X158305000Y-75235000D02*
X158305000Y-77661000D01*
X158305000Y-77661000D02*
X158242000Y-77724000D01*
%TO.N,/LPF_OUT_CH0*%
X158030000Y-82029000D02*
X158043000Y-82016000D01*
X154800000Y-82029000D02*
X158030000Y-82029000D01*
X143889500Y-80632000D02*
X153403000Y-80632000D01*
D30*
X143889500Y-81902000D02*
X143889500Y-80632000D01*
D29*
%TO.N,GND*%
X134353000Y-119621000D02*
X134366000Y-119634000D01*
X134353000Y-117652000D02*
X134353000Y-119621000D01*
X138798000Y-118478000D02*
X135179000Y-118478000D01*
X135179000Y-118478000D02*
X134353000Y-117652000D01*
X130048000Y-119367000D02*
X131763000Y-117652000D01*
X131763000Y-117652000D02*
X134353000Y-117652000D01*
D31*
%TO.N,VDD*%
X130111500Y-110617000D02*
X130238500Y-110490000D01*
X130238500Y-110490000D02*
X130238500Y-108966000D01*
X127899000Y-110741000D02*
X129987500Y-110741000D01*
X129987500Y-110741000D02*
X130111500Y-110617000D01*
D29*
%TO.N,GND*%
X137337500Y-85445000D02*
X135051500Y-85445000D01*
X135051500Y-85445000D02*
X133032500Y-83426000D01*
X128704000Y-85331000D02*
X131127500Y-85331000D01*
X131127500Y-85331000D02*
X133032500Y-83426000D01*
D30*
%TO.N,/HPF_OUT_CH0*%
X132982000Y-77089000D02*
X132982000Y-78740000D01*
X132982000Y-75438000D02*
X132982000Y-77089000D01*
X132982000Y-73787000D02*
X132982000Y-75438000D01*
D29*
%TO.N,/IA_OUT_CH0*%
X131432000Y-75438000D02*
X131432000Y-73787000D01*
X131432000Y-77089000D02*
X131432000Y-75438000D01*
X131432000Y-78740000D02*
X131432000Y-77089000D01*
X128905000Y-79756000D02*
X130416000Y-79756000D01*
X130416000Y-79756000D02*
X131432000Y-78740000D01*
%TO.N,/HPF_OUT_CH0*%
X133032500Y-81776000D02*
X133032500Y-78790500D01*
X133032500Y-78790500D02*
X132982000Y-78740000D01*
D31*
%TO.N,VDD*%
X126438500Y-77213000D02*
X127765000Y-77213000D01*
X127765000Y-77213000D02*
X128905000Y-76073000D01*
D29*
%TO.N,/HPF_OUT_CH0*%
X138939500Y-81902000D02*
X133158500Y-81902000D01*
D31*
%TO.N,VDD_NEG_5V*%
X107687500Y-97396000D02*
X105782500Y-95491000D01*
X120269000Y-115811000D02*
X116395500Y-115811000D01*
X140769000Y-86474000D02*
X139740000Y-85445000D01*
X105782500Y-94039000D02*
X108648500Y-91173000D01*
X108648500Y-91173000D02*
X109874000Y-91173000D01*
X116141500Y-85839000D02*
X116141500Y-82330500D01*
X156695000Y-85699000D02*
X156695000Y-83694000D01*
X110364500Y-97396000D02*
X107687500Y-97396000D01*
X154244000Y-85699000D02*
X156695000Y-85699000D01*
X109874000Y-88677500D02*
X112712500Y-85839000D01*
X157809500Y-118859000D02*
X155956000Y-118859000D01*
X158292500Y-116522500D02*
X157848000Y-116967000D01*
X105782500Y-95491000D02*
X105782500Y-94039000D01*
X116395500Y-118605000D02*
X116395500Y-121653000D01*
X138887500Y-85445000D02*
X138887500Y-83224000D01*
X157103000Y-83286000D02*
X158043000Y-83286000D01*
X109874000Y-91173000D02*
X109874000Y-88677500D01*
X116141500Y-82330500D02*
X116081000Y-82270000D01*
X116360000Y-115775500D02*
X116395500Y-115811000D01*
X141122500Y-118478000D02*
X140348000Y-118478000D01*
X156695000Y-83694000D02*
X157103000Y-83286000D01*
X157848000Y-116967000D02*
X157848000Y-118808500D01*
X112712500Y-85839000D02*
X115887500Y-85839000D01*
X138887500Y-83224000D02*
X138939500Y-83172000D01*
X142240000Y-119595500D02*
X141122500Y-118478000D01*
X116141500Y-85839000D02*
X117665500Y-87363000D01*
X116081000Y-82270000D02*
X118795500Y-82270000D01*
X140400000Y-116573000D02*
X140400000Y-118426000D01*
X139740000Y-85445000D02*
X138887500Y-85445000D01*
X117665500Y-87363000D02*
X118808500Y-87363000D01*
X140400000Y-118426000D02*
X140348000Y-118478000D01*
X154231000Y-85712000D02*
X154244000Y-85699000D01*
X159404500Y-116522500D02*
X158292500Y-116522500D01*
X116395500Y-115811000D02*
X116395500Y-118605000D01*
D29*
%TO.N,Net-(C5-Pad1)*%
X154953000Y-75692000D02*
X154953000Y-75006000D01*
X151447000Y-73406000D02*
X153353000Y-73406000D01*
X154953000Y-75006000D02*
X153353000Y-73406000D01*
D32*
%TO.N,/NOTCH_IN_CH0*%
X136451000Y-75425000D02*
X136451000Y-78600000D01*
X138662000Y-71615000D02*
X138662000Y-68986000D01*
X137213000Y-79362000D02*
X138939500Y-79362000D01*
X136465000Y-74333000D02*
X138662000Y-72136000D01*
X136451000Y-74333000D02*
X136465000Y-74333000D01*
X136451000Y-78600000D02*
X137213000Y-79362000D01*
X138662000Y-72136000D02*
X138662000Y-71615000D01*
X136451000Y-75425000D02*
X136451000Y-74333000D01*
X138939500Y-80632000D02*
X138939500Y-79362000D01*
D29*
%TO.N,Net-(C13-Pad2)*%
X140212000Y-71615000D02*
X142345000Y-71615000D01*
X140233000Y-71636000D02*
X140212000Y-71615000D01*
X140233000Y-74092000D02*
X140233000Y-71636000D01*
%TO.N,Net-(C14-Pad2)*%
X140261000Y-69137000D02*
X141215000Y-70091000D01*
X140261000Y-68694000D02*
X140261000Y-69137000D01*
X142472000Y-74142000D02*
X142612000Y-74142000D01*
X140261000Y-68694000D02*
X142282000Y-68694000D01*
X142282000Y-68694000D02*
X142295000Y-68707000D01*
X141215000Y-72885000D02*
X142472000Y-74142000D01*
%TO.N,NOTCH_OUT_CH0*%
X143945000Y-68707000D02*
X143945000Y-71565000D01*
D31*
%TO.N,VDD*%
X163451987Y-77443995D02*
X165090008Y-77443995D01*
X148323000Y-112763000D02*
X148450000Y-112636000D01*
D29*
X145288000Y-111086500D02*
X145350000Y-111148500D01*
D31*
X115314500Y-98666000D02*
X118351500Y-98666000D01*
X118351500Y-98666000D02*
X120764500Y-101079000D01*
X164686500Y-110553500D02*
X164686500Y-112380500D01*
X117551500Y-104063500D02*
X117551500Y-104140000D01*
X115314500Y-98666000D02*
X115314500Y-99936000D01*
X163452000Y-78904000D02*
X163452000Y-77444000D01*
X145350001Y-112763000D02*
X148323000Y-112763000D01*
X184086500Y-91935000D02*
X184086500Y-88887000D01*
X171781000Y-107366000D02*
X171717000Y-107302000D01*
X163440000Y-77432000D02*
X163452000Y-77444000D01*
X117551500Y-105994500D02*
X117551500Y-104140000D01*
X163440000Y-73901000D02*
X163440000Y-77432000D01*
X164686500Y-110553500D02*
X166192500Y-110553500D01*
X170361000Y-76047000D02*
X170360000Y-76046000D01*
X162993000Y-79476000D02*
X162993000Y-79363000D01*
X162993000Y-79363000D02*
X163452000Y-78904000D01*
X164686500Y-110553500D02*
X164686500Y-106699500D01*
X164686500Y-112380500D02*
X164354500Y-112712500D01*
X171781000Y-109080000D02*
X171781000Y-107366000D01*
X120764500Y-101079000D02*
X120536000Y-101079000D01*
X166192500Y-110553500D02*
X166243000Y-110604000D01*
X128905000Y-76073000D02*
X128905000Y-77838000D01*
D29*
X145350000Y-111148500D02*
X145350000Y-112763000D01*
X143881000Y-77825000D02*
X143889500Y-77833500D01*
D31*
X117602000Y-106045000D02*
X117551500Y-105994500D01*
D29*
X143889500Y-77833500D02*
X143889500Y-79362000D01*
D31*
X147552000Y-79362000D02*
X143889500Y-79362000D01*
D29*
X165090000Y-77444000D02*
X165344000Y-77444000D01*
D31*
X164686500Y-106699500D02*
X164719000Y-106667000D01*
X170360000Y-76046000D02*
X170360000Y-74282000D01*
X120536000Y-101079000D02*
X117551500Y-104063500D01*
D29*
%TO.N,Net-(C17-Pad1)*%
X156616000Y-107295750D02*
X155829000Y-106508750D01*
X156616000Y-108552750D02*
X156616000Y-107295750D01*
X155829000Y-105835250D02*
X153796000Y-105835250D01*
X155829000Y-106508750D02*
X155829000Y-105835250D01*
%TO.N,Net-(R3-Pad1)*%
X118818500Y-72748000D02*
X120332500Y-71234000D01*
X120332500Y-71234000D02*
X121920500Y-71234000D01*
X118818500Y-74673000D02*
X118818500Y-72748000D01*
%TO.N,Net-(R3-Pad2)*%
X125285500Y-71234000D02*
X123570500Y-71234000D01*
X126438500Y-74673000D02*
X126438500Y-72387000D01*
X126438500Y-72387000D02*
X125285500Y-71234000D01*
%TO.N,Net-(C21-Pad2)*%
X141808500Y-104762000D02*
X144449500Y-104762000D01*
X141808500Y-104762000D02*
X141808500Y-106617000D01*
X141808500Y-106617000D02*
X142430500Y-107239000D01*
%TO.N,Net-(C22-Pad2)*%
X141921500Y-102095000D02*
X141921500Y-102348000D01*
X141921500Y-102348000D02*
X142938500Y-103365000D01*
X144399500Y-102095000D02*
X141921500Y-102095000D01*
X144322500Y-107289000D02*
X142938500Y-105905000D01*
X144716500Y-107289000D02*
X144322500Y-107289000D01*
D30*
%TO.N,GND*%
X112839500Y-83045000D02*
X113614500Y-82270000D01*
X128905000Y-74523000D02*
X128905000Y-71869000D01*
D29*
X160071000Y-118808500D02*
X161036000Y-119773500D01*
D30*
X111061500Y-104762000D02*
X111061500Y-104508000D01*
D29*
X161544000Y-110604000D02*
X161594500Y-110553500D01*
X144666500Y-108889000D02*
X144716500Y-108839000D01*
D32*
X101780000Y-83691000D02*
X100295000Y-82206000D01*
D31*
X106172000Y-102870000D02*
X106148500Y-102846500D01*
X103441500Y-101206000D02*
X106148500Y-101206000D01*
X184086500Y-94475000D02*
X181927500Y-96634000D01*
D32*
X173431000Y-115303000D02*
X178752500Y-115303000D01*
D31*
X126864500Y-102531000D02*
X130238500Y-105905000D01*
X128704000Y-87500500D02*
X128704000Y-85331000D01*
D32*
X178752500Y-115303000D02*
X184406000Y-109649500D01*
D29*
X149229000Y-79235000D02*
X149102000Y-79362000D01*
X150000000Y-112636000D02*
X151638000Y-112636000D01*
X126438500Y-84335500D02*
X127434000Y-85331000D01*
X140233000Y-75742000D02*
X140283000Y-75692000D01*
D30*
X110680500Y-83235000D02*
X112649500Y-83235000D01*
D29*
X161902000Y-77444000D02*
X160391000Y-77444000D01*
X144716500Y-108839000D02*
X147751500Y-108839000D01*
X158245000Y-85699000D02*
X159629000Y-85699000D01*
D32*
X184406000Y-109649500D02*
X184406000Y-109583000D01*
D31*
X106148500Y-102846500D02*
X106148500Y-101206000D01*
D29*
X159629000Y-85699000D02*
X160264000Y-86334000D01*
D31*
X125021500Y-93840000D02*
X125021500Y-91183000D01*
D30*
X172011000Y-82043000D02*
X172025000Y-82029000D01*
D29*
X113093500Y-101206000D02*
X115314500Y-101206000D01*
X127889000Y-115831000D02*
X127889000Y-118351000D01*
X127434000Y-85331000D02*
X128704000Y-85331000D01*
X142430500Y-108889000D02*
X144666500Y-108889000D01*
X112804000Y-115775500D02*
X114810000Y-115775500D01*
X160413000Y-105136750D02*
X160413000Y-106647750D01*
X140283000Y-75692000D02*
X142546000Y-75692000D01*
D31*
X125021500Y-93840000D02*
X125021500Y-98347000D01*
D30*
X112077500Y-73647000D02*
X112204500Y-73774000D01*
D32*
X101780000Y-85458000D02*
X101780000Y-83691000D01*
D31*
X125021500Y-98347000D02*
X126864500Y-100190000D01*
D30*
X111061500Y-105842000D02*
X111061500Y-104762000D01*
D29*
X111823500Y-99936000D02*
X113093500Y-101206000D01*
X158315000Y-72774000D02*
X158305000Y-72784000D01*
X142546000Y-75692000D02*
X142596000Y-75742000D01*
X110364500Y-99936000D02*
X111823500Y-99936000D01*
D31*
X126864500Y-100190000D02*
X126864500Y-102531000D01*
D30*
X172011000Y-85077000D02*
X172011000Y-82043000D01*
X113614500Y-82270000D02*
X114531000Y-82270000D01*
D31*
X115314500Y-103453000D02*
X116001500Y-104140000D01*
D30*
X112649500Y-83235000D02*
X112839500Y-83045000D01*
D29*
X161594500Y-110553500D02*
X163136500Y-110553500D01*
X128905000Y-119367000D02*
X130048000Y-119367000D01*
X126438500Y-82293000D02*
X126438500Y-84335500D01*
X151638000Y-112636000D02*
X152019000Y-112636000D01*
D31*
X116001500Y-105968500D02*
X116001500Y-104140000D01*
D29*
X161036000Y-119773500D02*
X161163000Y-119900500D01*
D32*
X177980000Y-82029000D02*
X172025000Y-82029000D01*
D29*
X150867000Y-79235000D02*
X149229000Y-79235000D01*
D31*
X99682500Y-95491000D02*
X99682500Y-97447000D01*
D29*
X102171500Y-116954000D02*
X102171500Y-115493500D01*
D30*
X112394500Y-115366000D02*
X112712500Y-115684000D01*
D29*
X100975500Y-114297500D02*
X100584000Y-114297500D01*
D31*
X99682500Y-97447000D02*
X103441500Y-101206000D01*
D32*
X179138000Y-80871000D02*
X177980000Y-82029000D01*
D30*
X110680500Y-73584000D02*
X112014500Y-73584000D01*
D31*
X116078000Y-106045000D02*
X116001500Y-105968500D01*
D30*
X110934500Y-115366000D02*
X112394500Y-115366000D01*
D29*
X145405000Y-75729000D02*
X142683000Y-75729000D01*
D30*
X112014500Y-73584000D02*
X112077500Y-73647000D01*
D29*
X158305000Y-72784000D02*
X158305000Y-73685000D01*
X102171500Y-115493500D02*
X100975500Y-114297500D01*
X159398000Y-118808500D02*
X160071000Y-118808500D01*
D31*
X130238500Y-105905000D02*
X130238500Y-107416000D01*
X181927500Y-96634000D02*
X181927500Y-98031000D01*
D29*
X127889000Y-118351000D02*
X128905000Y-119367000D01*
D31*
X115314500Y-101206000D02*
X115314500Y-103453000D01*
D32*
X183759000Y-80871000D02*
X179138000Y-80871000D01*
D29*
X112712500Y-115684000D02*
X112804000Y-115775500D01*
X158315000Y-72289000D02*
X158315000Y-72774000D01*
D31*
X125021500Y-91183000D02*
X128704000Y-87500500D01*
D32*
X100954500Y-114668000D02*
X100584000Y-114297500D01*
D29*
X127899000Y-115821000D02*
X127889000Y-115831000D01*
D33*
%TO.N,E1_CH0*%
X109020000Y-79730000D02*
X100359000Y-79730000D01*
X100359000Y-79730000D02*
X100295000Y-79666000D01*
%TO.N,E2_CH0*%
X109020000Y-77126000D02*
X100295000Y-77126000D01*
D32*
%TO.N,/AOUT_CH0*%
X172011000Y-78333000D02*
X172011000Y-76047000D01*
X172011000Y-78333000D02*
X177332000Y-78333000D01*
X183744000Y-78346000D02*
X183759000Y-78331000D01*
X177332000Y-78333000D02*
X177345000Y-78346000D01*
X177345000Y-78346000D02*
X183744000Y-78346000D01*
D29*
%TO.N,/IA_IN-_CH0*%
X118731500Y-77126000D02*
X118818500Y-77213000D01*
X110670000Y-77126000D02*
X118731500Y-77126000D01*
X110670000Y-75244500D02*
X110680500Y-75234000D01*
X110670000Y-77126000D02*
X110670000Y-75244500D01*
%TO.N,/AMP_IN-_CH0*%
X162993000Y-82016000D02*
X170362000Y-82016000D01*
X170362000Y-82016000D02*
X170375000Y-82029000D01*
X170375000Y-82029000D02*
X170375000Y-80124000D01*
%TO.N,/AMP_OUT_CH0*%
X165598000Y-80746000D02*
X168011000Y-78333000D01*
X172025000Y-80124000D02*
X174629000Y-80124000D01*
X162993000Y-80746000D02*
X165598000Y-80746000D01*
X170375000Y-78474000D02*
X172025000Y-80124000D01*
X170375000Y-78092000D02*
X170375000Y-78474000D01*
X168011000Y-78333000D02*
X168252000Y-78092000D01*
X168252000Y-78092000D02*
X170375000Y-78092000D01*
%TO.N,Net-(R19-Pad1)*%
X121806000Y-104889000D02*
X123127000Y-104889000D01*
X120279000Y-108201000D02*
X120279000Y-106416000D01*
X120279000Y-106416000D02*
X121806000Y-104889000D01*
%TO.N,Net-(R19-Pad2)*%
X127899000Y-108201000D02*
X127899000Y-106537000D01*
X127899000Y-106537000D02*
X126251000Y-104889000D01*
X126251000Y-104889000D02*
X124777000Y-104889000D01*
D32*
%TO.N,/AMP_IN+_CH0*%
X158043000Y-80746000D02*
X159248000Y-80746000D01*
X159248000Y-80746000D02*
X161788000Y-83286000D01*
X158043000Y-80746000D02*
X158043000Y-79476000D01*
X161788000Y-83286000D02*
X162993000Y-83286000D01*
D30*
%TO.N,/IA_IN+_CH0*%
X110680500Y-81585000D02*
X110680500Y-79740500D01*
X110680500Y-79740500D02*
X110670000Y-79730000D01*
D29*
X110670000Y-79730000D02*
X118795500Y-79730000D01*
%TO.N,/NOTCH_IN_CH1*%
X138684000Y-112763000D02*
X140400000Y-112763000D01*
X137731500Y-108445000D02*
X137731500Y-111810500D01*
X137731500Y-107683000D02*
X140258500Y-105156000D01*
X137731500Y-111810500D02*
X138684000Y-112763000D01*
X140271500Y-102095000D02*
X140271500Y-104749000D01*
X140271500Y-104749000D02*
X140258500Y-104762000D01*
X137731500Y-108445000D02*
X137731500Y-107683000D01*
X140258500Y-105156000D02*
X140258500Y-104762000D01*
X140400000Y-114033000D02*
X140400000Y-112763000D01*
%TO.N,NOTCH_OUT_CH1*%
X146049500Y-104712000D02*
X145999500Y-104762000D01*
X146049500Y-102095000D02*
X146049500Y-104712000D01*
%TO.N,E1_CH1*%
X100599000Y-111772500D02*
X100584000Y-111757500D01*
X109284000Y-111772500D02*
X100599000Y-111772500D01*
D33*
%TO.N,E2_CH1*%
X100599000Y-109232500D02*
X100584000Y-109217500D01*
X109347000Y-109232500D02*
X100599000Y-109232500D01*
D29*
%TO.N,/AOUT_CH1*%
X180403500Y-107048000D02*
X184401000Y-107048000D01*
X176924000Y-108572000D02*
X173939000Y-108572000D01*
X173431000Y-111112000D02*
X173431000Y-109080000D01*
X176924000Y-108572000D02*
X178879500Y-108572000D01*
X184401000Y-107048000D02*
X184406000Y-107043000D01*
X173939000Y-108572000D02*
X173431000Y-109080000D01*
X178879500Y-108572000D02*
X180403500Y-107048000D01*
%TO.N,/IA_IN-_CH1*%
X115034000Y-109242500D02*
X111007000Y-109242500D01*
X110997000Y-107556500D02*
X111061500Y-107492000D01*
X116532500Y-110741000D02*
X115034000Y-109242500D01*
X111007000Y-109242500D02*
X110997000Y-109232500D01*
X110997000Y-109232500D02*
X110997000Y-107556500D01*
X120279000Y-110741000D02*
X116532500Y-110741000D01*
%TO.N,/IA_IN+_CH1*%
X120279000Y-113281000D02*
X116497000Y-113281000D01*
D30*
X110934500Y-113716000D02*
X110934500Y-111773000D01*
D29*
X116497000Y-113281000D02*
X114998500Y-111782500D01*
X110944000Y-111782500D02*
X110934000Y-111772500D01*
X114998500Y-111782500D02*
X110944000Y-111782500D01*
D30*
X110934500Y-111773000D02*
X110934000Y-111772500D01*
D29*
%TO.N,/AMP_IN-_CH1*%
X171730500Y-115252500D02*
X171781000Y-115303000D01*
X171781000Y-115303000D02*
X171781000Y-113144000D01*
X164354500Y-115252500D02*
X171730500Y-115252500D01*
%TO.N,/AMP_OUT_CH1*%
X175908000Y-113144000D02*
X173431000Y-113144000D01*
X164354500Y-113982500D02*
X167449500Y-113982500D01*
X171781000Y-111112000D02*
X171781000Y-111494000D01*
X171781000Y-111494000D02*
X173431000Y-113144000D01*
X167449500Y-113982500D02*
X170320000Y-111112000D01*
X170320000Y-111112000D02*
X171781000Y-111112000D01*
%TO.N,/AMP_IN+_CH1*%
X159404500Y-113982500D02*
X160609500Y-113982500D01*
X160609500Y-113982500D02*
X163149500Y-116522500D01*
X163149500Y-116522500D02*
X164354500Y-116522500D01*
D32*
X159404500Y-112712500D02*
X159404500Y-113982500D01*
D29*
%TO.N,/LPF_IN+_CH0*%
X146789000Y-83172000D02*
X146802000Y-83159000D01*
X156604000Y-75235000D02*
X158305000Y-75235000D01*
X143889500Y-83172000D02*
X146789000Y-83172000D01*
X155003000Y-73634000D02*
X156604000Y-75235000D01*
X155003000Y-73406000D02*
X155003000Y-73634000D01*
%TO.N,/HPF_OUT_CH0*%
X133158500Y-81902000D02*
X133032500Y-81776000D01*
D32*
%TO.N,/LPF_IN+_CH1*%
X147745500Y-116573000D02*
X145350000Y-116573000D01*
D29*
X157479000Y-105835250D02*
X157479000Y-106888750D01*
X157479000Y-106888750D02*
X158788000Y-108197750D01*
X158788000Y-108197750D02*
X160413000Y-108197750D01*
%TO.N,/FB{slash}REF*%
X107632500Y-101140000D02*
X107698500Y-101206000D01*
X107632500Y-99428000D02*
X107632500Y-101140000D01*
D31*
X107698500Y-101206000D02*
X110364500Y-101206000D01*
D29*
X108394500Y-98666000D02*
X107632500Y-99428000D01*
X110364500Y-98666000D02*
X108394500Y-98666000D01*
D31*
%TO.N,/LX*%
X115314500Y-97396000D02*
X115314500Y-92642500D01*
X115314500Y-92642500D02*
X116784000Y-91173000D01*
X116784000Y-91173000D02*
X119451000Y-93840000D01*
X119451000Y-93840000D02*
X120321500Y-93840000D01*
%TD*%
M02*
